G04 #@! TF.GenerationSoftware,KiCad,Pcbnew,5.1.5-52549c5~86~ubuntu18.04.1*
G04 #@! TF.CreationDate,2020-04-23T16:02:32+01:00*
G04 #@! TF.ProjectId,icepad,69636570-6164-42e6-9b69-6361645f7063,rev?*
G04 #@! TF.SameCoordinates,Original*
G04 #@! TF.FileFunction,Paste,Top*
G04 #@! TF.FilePolarity,Positive*
%FSLAX46Y46*%
G04 Gerber Fmt 4.6, Leading zero omitted, Abs format (unit mm)*
G04 Created by KiCad (PCBNEW 5.1.5-52549c5~86~ubuntu18.04.1) date 2020-04-23 16:02:32*
%MOMM*%
%LPD*%
G04 APERTURE LIST*
%ADD10C,0.100000*%
%ADD11R,0.400000X0.700000*%
%ADD12R,0.650000X1.060000*%
%ADD13R,0.450000X0.600000*%
G04 APERTURE END LIST*
D10*
G36*
X93444142Y-76046174D02*
G01*
X93467803Y-76049684D01*
X93491007Y-76055496D01*
X93513529Y-76063554D01*
X93535153Y-76073782D01*
X93555670Y-76086079D01*
X93574883Y-76100329D01*
X93592607Y-76116393D01*
X93608671Y-76134117D01*
X93622921Y-76153330D01*
X93635218Y-76173847D01*
X93645446Y-76195471D01*
X93653504Y-76217993D01*
X93659316Y-76241197D01*
X93662826Y-76264858D01*
X93664000Y-76288750D01*
X93664000Y-76776250D01*
X93662826Y-76800142D01*
X93659316Y-76823803D01*
X93653504Y-76847007D01*
X93645446Y-76869529D01*
X93635218Y-76891153D01*
X93622921Y-76911670D01*
X93608671Y-76930883D01*
X93592607Y-76948607D01*
X93574883Y-76964671D01*
X93555670Y-76978921D01*
X93535153Y-76991218D01*
X93513529Y-77001446D01*
X93491007Y-77009504D01*
X93467803Y-77015316D01*
X93444142Y-77018826D01*
X93420250Y-77020000D01*
X92507750Y-77020000D01*
X92483858Y-77018826D01*
X92460197Y-77015316D01*
X92436993Y-77009504D01*
X92414471Y-77001446D01*
X92392847Y-76991218D01*
X92372330Y-76978921D01*
X92353117Y-76964671D01*
X92335393Y-76948607D01*
X92319329Y-76930883D01*
X92305079Y-76911670D01*
X92292782Y-76891153D01*
X92282554Y-76869529D01*
X92274496Y-76847007D01*
X92268684Y-76823803D01*
X92265174Y-76800142D01*
X92264000Y-76776250D01*
X92264000Y-76288750D01*
X92265174Y-76264858D01*
X92268684Y-76241197D01*
X92274496Y-76217993D01*
X92282554Y-76195471D01*
X92292782Y-76173847D01*
X92305079Y-76153330D01*
X92319329Y-76134117D01*
X92335393Y-76116393D01*
X92353117Y-76100329D01*
X92372330Y-76086079D01*
X92392847Y-76073782D01*
X92414471Y-76063554D01*
X92436993Y-76055496D01*
X92460197Y-76049684D01*
X92483858Y-76046174D01*
X92507750Y-76045000D01*
X93420250Y-76045000D01*
X93444142Y-76046174D01*
G37*
G36*
X93444142Y-77921174D02*
G01*
X93467803Y-77924684D01*
X93491007Y-77930496D01*
X93513529Y-77938554D01*
X93535153Y-77948782D01*
X93555670Y-77961079D01*
X93574883Y-77975329D01*
X93592607Y-77991393D01*
X93608671Y-78009117D01*
X93622921Y-78028330D01*
X93635218Y-78048847D01*
X93645446Y-78070471D01*
X93653504Y-78092993D01*
X93659316Y-78116197D01*
X93662826Y-78139858D01*
X93664000Y-78163750D01*
X93664000Y-78651250D01*
X93662826Y-78675142D01*
X93659316Y-78698803D01*
X93653504Y-78722007D01*
X93645446Y-78744529D01*
X93635218Y-78766153D01*
X93622921Y-78786670D01*
X93608671Y-78805883D01*
X93592607Y-78823607D01*
X93574883Y-78839671D01*
X93555670Y-78853921D01*
X93535153Y-78866218D01*
X93513529Y-78876446D01*
X93491007Y-78884504D01*
X93467803Y-78890316D01*
X93444142Y-78893826D01*
X93420250Y-78895000D01*
X92507750Y-78895000D01*
X92483858Y-78893826D01*
X92460197Y-78890316D01*
X92436993Y-78884504D01*
X92414471Y-78876446D01*
X92392847Y-78866218D01*
X92372330Y-78853921D01*
X92353117Y-78839671D01*
X92335393Y-78823607D01*
X92319329Y-78805883D01*
X92305079Y-78786670D01*
X92292782Y-78766153D01*
X92282554Y-78744529D01*
X92274496Y-78722007D01*
X92268684Y-78698803D01*
X92265174Y-78675142D01*
X92264000Y-78651250D01*
X92264000Y-78163750D01*
X92265174Y-78139858D01*
X92268684Y-78116197D01*
X92274496Y-78092993D01*
X92282554Y-78070471D01*
X92292782Y-78048847D01*
X92305079Y-78028330D01*
X92319329Y-78009117D01*
X92335393Y-77991393D01*
X92353117Y-77975329D01*
X92372330Y-77961079D01*
X92392847Y-77948782D01*
X92414471Y-77938554D01*
X92436993Y-77930496D01*
X92460197Y-77924684D01*
X92483858Y-77921174D01*
X92507750Y-77920000D01*
X93420250Y-77920000D01*
X93444142Y-77921174D01*
G37*
G36*
X95476142Y-76046174D02*
G01*
X95499803Y-76049684D01*
X95523007Y-76055496D01*
X95545529Y-76063554D01*
X95567153Y-76073782D01*
X95587670Y-76086079D01*
X95606883Y-76100329D01*
X95624607Y-76116393D01*
X95640671Y-76134117D01*
X95654921Y-76153330D01*
X95667218Y-76173847D01*
X95677446Y-76195471D01*
X95685504Y-76217993D01*
X95691316Y-76241197D01*
X95694826Y-76264858D01*
X95696000Y-76288750D01*
X95696000Y-76776250D01*
X95694826Y-76800142D01*
X95691316Y-76823803D01*
X95685504Y-76847007D01*
X95677446Y-76869529D01*
X95667218Y-76891153D01*
X95654921Y-76911670D01*
X95640671Y-76930883D01*
X95624607Y-76948607D01*
X95606883Y-76964671D01*
X95587670Y-76978921D01*
X95567153Y-76991218D01*
X95545529Y-77001446D01*
X95523007Y-77009504D01*
X95499803Y-77015316D01*
X95476142Y-77018826D01*
X95452250Y-77020000D01*
X94539750Y-77020000D01*
X94515858Y-77018826D01*
X94492197Y-77015316D01*
X94468993Y-77009504D01*
X94446471Y-77001446D01*
X94424847Y-76991218D01*
X94404330Y-76978921D01*
X94385117Y-76964671D01*
X94367393Y-76948607D01*
X94351329Y-76930883D01*
X94337079Y-76911670D01*
X94324782Y-76891153D01*
X94314554Y-76869529D01*
X94306496Y-76847007D01*
X94300684Y-76823803D01*
X94297174Y-76800142D01*
X94296000Y-76776250D01*
X94296000Y-76288750D01*
X94297174Y-76264858D01*
X94300684Y-76241197D01*
X94306496Y-76217993D01*
X94314554Y-76195471D01*
X94324782Y-76173847D01*
X94337079Y-76153330D01*
X94351329Y-76134117D01*
X94367393Y-76116393D01*
X94385117Y-76100329D01*
X94404330Y-76086079D01*
X94424847Y-76073782D01*
X94446471Y-76063554D01*
X94468993Y-76055496D01*
X94492197Y-76049684D01*
X94515858Y-76046174D01*
X94539750Y-76045000D01*
X95452250Y-76045000D01*
X95476142Y-76046174D01*
G37*
G36*
X95476142Y-77921174D02*
G01*
X95499803Y-77924684D01*
X95523007Y-77930496D01*
X95545529Y-77938554D01*
X95567153Y-77948782D01*
X95587670Y-77961079D01*
X95606883Y-77975329D01*
X95624607Y-77991393D01*
X95640671Y-78009117D01*
X95654921Y-78028330D01*
X95667218Y-78048847D01*
X95677446Y-78070471D01*
X95685504Y-78092993D01*
X95691316Y-78116197D01*
X95694826Y-78139858D01*
X95696000Y-78163750D01*
X95696000Y-78651250D01*
X95694826Y-78675142D01*
X95691316Y-78698803D01*
X95685504Y-78722007D01*
X95677446Y-78744529D01*
X95667218Y-78766153D01*
X95654921Y-78786670D01*
X95640671Y-78805883D01*
X95624607Y-78823607D01*
X95606883Y-78839671D01*
X95587670Y-78853921D01*
X95567153Y-78866218D01*
X95545529Y-78876446D01*
X95523007Y-78884504D01*
X95499803Y-78890316D01*
X95476142Y-78893826D01*
X95452250Y-78895000D01*
X94539750Y-78895000D01*
X94515858Y-78893826D01*
X94492197Y-78890316D01*
X94468993Y-78884504D01*
X94446471Y-78876446D01*
X94424847Y-78866218D01*
X94404330Y-78853921D01*
X94385117Y-78839671D01*
X94367393Y-78823607D01*
X94351329Y-78805883D01*
X94337079Y-78786670D01*
X94324782Y-78766153D01*
X94314554Y-78744529D01*
X94306496Y-78722007D01*
X94300684Y-78698803D01*
X94297174Y-78675142D01*
X94296000Y-78651250D01*
X94296000Y-78163750D01*
X94297174Y-78139858D01*
X94300684Y-78116197D01*
X94306496Y-78092993D01*
X94314554Y-78070471D01*
X94324782Y-78048847D01*
X94337079Y-78028330D01*
X94351329Y-78009117D01*
X94367393Y-77991393D01*
X94385117Y-77975329D01*
X94404330Y-77961079D01*
X94424847Y-77948782D01*
X94446471Y-77938554D01*
X94468993Y-77930496D01*
X94492197Y-77924684D01*
X94515858Y-77921174D01*
X94539750Y-77920000D01*
X95452250Y-77920000D01*
X95476142Y-77921174D01*
G37*
G36*
X97508142Y-76046174D02*
G01*
X97531803Y-76049684D01*
X97555007Y-76055496D01*
X97577529Y-76063554D01*
X97599153Y-76073782D01*
X97619670Y-76086079D01*
X97638883Y-76100329D01*
X97656607Y-76116393D01*
X97672671Y-76134117D01*
X97686921Y-76153330D01*
X97699218Y-76173847D01*
X97709446Y-76195471D01*
X97717504Y-76217993D01*
X97723316Y-76241197D01*
X97726826Y-76264858D01*
X97728000Y-76288750D01*
X97728000Y-76776250D01*
X97726826Y-76800142D01*
X97723316Y-76823803D01*
X97717504Y-76847007D01*
X97709446Y-76869529D01*
X97699218Y-76891153D01*
X97686921Y-76911670D01*
X97672671Y-76930883D01*
X97656607Y-76948607D01*
X97638883Y-76964671D01*
X97619670Y-76978921D01*
X97599153Y-76991218D01*
X97577529Y-77001446D01*
X97555007Y-77009504D01*
X97531803Y-77015316D01*
X97508142Y-77018826D01*
X97484250Y-77020000D01*
X96571750Y-77020000D01*
X96547858Y-77018826D01*
X96524197Y-77015316D01*
X96500993Y-77009504D01*
X96478471Y-77001446D01*
X96456847Y-76991218D01*
X96436330Y-76978921D01*
X96417117Y-76964671D01*
X96399393Y-76948607D01*
X96383329Y-76930883D01*
X96369079Y-76911670D01*
X96356782Y-76891153D01*
X96346554Y-76869529D01*
X96338496Y-76847007D01*
X96332684Y-76823803D01*
X96329174Y-76800142D01*
X96328000Y-76776250D01*
X96328000Y-76288750D01*
X96329174Y-76264858D01*
X96332684Y-76241197D01*
X96338496Y-76217993D01*
X96346554Y-76195471D01*
X96356782Y-76173847D01*
X96369079Y-76153330D01*
X96383329Y-76134117D01*
X96399393Y-76116393D01*
X96417117Y-76100329D01*
X96436330Y-76086079D01*
X96456847Y-76073782D01*
X96478471Y-76063554D01*
X96500993Y-76055496D01*
X96524197Y-76049684D01*
X96547858Y-76046174D01*
X96571750Y-76045000D01*
X97484250Y-76045000D01*
X97508142Y-76046174D01*
G37*
G36*
X97508142Y-77921174D02*
G01*
X97531803Y-77924684D01*
X97555007Y-77930496D01*
X97577529Y-77938554D01*
X97599153Y-77948782D01*
X97619670Y-77961079D01*
X97638883Y-77975329D01*
X97656607Y-77991393D01*
X97672671Y-78009117D01*
X97686921Y-78028330D01*
X97699218Y-78048847D01*
X97709446Y-78070471D01*
X97717504Y-78092993D01*
X97723316Y-78116197D01*
X97726826Y-78139858D01*
X97728000Y-78163750D01*
X97728000Y-78651250D01*
X97726826Y-78675142D01*
X97723316Y-78698803D01*
X97717504Y-78722007D01*
X97709446Y-78744529D01*
X97699218Y-78766153D01*
X97686921Y-78786670D01*
X97672671Y-78805883D01*
X97656607Y-78823607D01*
X97638883Y-78839671D01*
X97619670Y-78853921D01*
X97599153Y-78866218D01*
X97577529Y-78876446D01*
X97555007Y-78884504D01*
X97531803Y-78890316D01*
X97508142Y-78893826D01*
X97484250Y-78895000D01*
X96571750Y-78895000D01*
X96547858Y-78893826D01*
X96524197Y-78890316D01*
X96500993Y-78884504D01*
X96478471Y-78876446D01*
X96456847Y-78866218D01*
X96436330Y-78853921D01*
X96417117Y-78839671D01*
X96399393Y-78823607D01*
X96383329Y-78805883D01*
X96369079Y-78786670D01*
X96356782Y-78766153D01*
X96346554Y-78744529D01*
X96338496Y-78722007D01*
X96332684Y-78698803D01*
X96329174Y-78675142D01*
X96328000Y-78651250D01*
X96328000Y-78163750D01*
X96329174Y-78139858D01*
X96332684Y-78116197D01*
X96338496Y-78092993D01*
X96346554Y-78070471D01*
X96356782Y-78048847D01*
X96369079Y-78028330D01*
X96383329Y-78009117D01*
X96399393Y-77991393D01*
X96417117Y-77975329D01*
X96436330Y-77961079D01*
X96456847Y-77948782D01*
X96478471Y-77938554D01*
X96500993Y-77930496D01*
X96524197Y-77924684D01*
X96547858Y-77921174D01*
X96571750Y-77920000D01*
X97484250Y-77920000D01*
X97508142Y-77921174D01*
G37*
G36*
X99540142Y-76046174D02*
G01*
X99563803Y-76049684D01*
X99587007Y-76055496D01*
X99609529Y-76063554D01*
X99631153Y-76073782D01*
X99651670Y-76086079D01*
X99670883Y-76100329D01*
X99688607Y-76116393D01*
X99704671Y-76134117D01*
X99718921Y-76153330D01*
X99731218Y-76173847D01*
X99741446Y-76195471D01*
X99749504Y-76217993D01*
X99755316Y-76241197D01*
X99758826Y-76264858D01*
X99760000Y-76288750D01*
X99760000Y-76776250D01*
X99758826Y-76800142D01*
X99755316Y-76823803D01*
X99749504Y-76847007D01*
X99741446Y-76869529D01*
X99731218Y-76891153D01*
X99718921Y-76911670D01*
X99704671Y-76930883D01*
X99688607Y-76948607D01*
X99670883Y-76964671D01*
X99651670Y-76978921D01*
X99631153Y-76991218D01*
X99609529Y-77001446D01*
X99587007Y-77009504D01*
X99563803Y-77015316D01*
X99540142Y-77018826D01*
X99516250Y-77020000D01*
X98603750Y-77020000D01*
X98579858Y-77018826D01*
X98556197Y-77015316D01*
X98532993Y-77009504D01*
X98510471Y-77001446D01*
X98488847Y-76991218D01*
X98468330Y-76978921D01*
X98449117Y-76964671D01*
X98431393Y-76948607D01*
X98415329Y-76930883D01*
X98401079Y-76911670D01*
X98388782Y-76891153D01*
X98378554Y-76869529D01*
X98370496Y-76847007D01*
X98364684Y-76823803D01*
X98361174Y-76800142D01*
X98360000Y-76776250D01*
X98360000Y-76288750D01*
X98361174Y-76264858D01*
X98364684Y-76241197D01*
X98370496Y-76217993D01*
X98378554Y-76195471D01*
X98388782Y-76173847D01*
X98401079Y-76153330D01*
X98415329Y-76134117D01*
X98431393Y-76116393D01*
X98449117Y-76100329D01*
X98468330Y-76086079D01*
X98488847Y-76073782D01*
X98510471Y-76063554D01*
X98532993Y-76055496D01*
X98556197Y-76049684D01*
X98579858Y-76046174D01*
X98603750Y-76045000D01*
X99516250Y-76045000D01*
X99540142Y-76046174D01*
G37*
G36*
X99540142Y-77921174D02*
G01*
X99563803Y-77924684D01*
X99587007Y-77930496D01*
X99609529Y-77938554D01*
X99631153Y-77948782D01*
X99651670Y-77961079D01*
X99670883Y-77975329D01*
X99688607Y-77991393D01*
X99704671Y-78009117D01*
X99718921Y-78028330D01*
X99731218Y-78048847D01*
X99741446Y-78070471D01*
X99749504Y-78092993D01*
X99755316Y-78116197D01*
X99758826Y-78139858D01*
X99760000Y-78163750D01*
X99760000Y-78651250D01*
X99758826Y-78675142D01*
X99755316Y-78698803D01*
X99749504Y-78722007D01*
X99741446Y-78744529D01*
X99731218Y-78766153D01*
X99718921Y-78786670D01*
X99704671Y-78805883D01*
X99688607Y-78823607D01*
X99670883Y-78839671D01*
X99651670Y-78853921D01*
X99631153Y-78866218D01*
X99609529Y-78876446D01*
X99587007Y-78884504D01*
X99563803Y-78890316D01*
X99540142Y-78893826D01*
X99516250Y-78895000D01*
X98603750Y-78895000D01*
X98579858Y-78893826D01*
X98556197Y-78890316D01*
X98532993Y-78884504D01*
X98510471Y-78876446D01*
X98488847Y-78866218D01*
X98468330Y-78853921D01*
X98449117Y-78839671D01*
X98431393Y-78823607D01*
X98415329Y-78805883D01*
X98401079Y-78786670D01*
X98388782Y-78766153D01*
X98378554Y-78744529D01*
X98370496Y-78722007D01*
X98364684Y-78698803D01*
X98361174Y-78675142D01*
X98360000Y-78651250D01*
X98360000Y-78163750D01*
X98361174Y-78139858D01*
X98364684Y-78116197D01*
X98370496Y-78092993D01*
X98378554Y-78070471D01*
X98388782Y-78048847D01*
X98401079Y-78028330D01*
X98415329Y-78009117D01*
X98431393Y-77991393D01*
X98449117Y-77975329D01*
X98468330Y-77961079D01*
X98488847Y-77948782D01*
X98510471Y-77938554D01*
X98532993Y-77930496D01*
X98556197Y-77924684D01*
X98579858Y-77921174D01*
X98603750Y-77920000D01*
X99516250Y-77920000D01*
X99540142Y-77921174D01*
G37*
G36*
X90904142Y-99003174D02*
G01*
X90927803Y-99006684D01*
X90951007Y-99012496D01*
X90973529Y-99020554D01*
X90995153Y-99030782D01*
X91015670Y-99043079D01*
X91034883Y-99057329D01*
X91052607Y-99073393D01*
X91068671Y-99091117D01*
X91082921Y-99110330D01*
X91095218Y-99130847D01*
X91105446Y-99152471D01*
X91113504Y-99174993D01*
X91119316Y-99198197D01*
X91122826Y-99221858D01*
X91124000Y-99245750D01*
X91124000Y-99733250D01*
X91122826Y-99757142D01*
X91119316Y-99780803D01*
X91113504Y-99804007D01*
X91105446Y-99826529D01*
X91095218Y-99848153D01*
X91082921Y-99868670D01*
X91068671Y-99887883D01*
X91052607Y-99905607D01*
X91034883Y-99921671D01*
X91015670Y-99935921D01*
X90995153Y-99948218D01*
X90973529Y-99958446D01*
X90951007Y-99966504D01*
X90927803Y-99972316D01*
X90904142Y-99975826D01*
X90880250Y-99977000D01*
X89967750Y-99977000D01*
X89943858Y-99975826D01*
X89920197Y-99972316D01*
X89896993Y-99966504D01*
X89874471Y-99958446D01*
X89852847Y-99948218D01*
X89832330Y-99935921D01*
X89813117Y-99921671D01*
X89795393Y-99905607D01*
X89779329Y-99887883D01*
X89765079Y-99868670D01*
X89752782Y-99848153D01*
X89742554Y-99826529D01*
X89734496Y-99804007D01*
X89728684Y-99780803D01*
X89725174Y-99757142D01*
X89724000Y-99733250D01*
X89724000Y-99245750D01*
X89725174Y-99221858D01*
X89728684Y-99198197D01*
X89734496Y-99174993D01*
X89742554Y-99152471D01*
X89752782Y-99130847D01*
X89765079Y-99110330D01*
X89779329Y-99091117D01*
X89795393Y-99073393D01*
X89813117Y-99057329D01*
X89832330Y-99043079D01*
X89852847Y-99030782D01*
X89874471Y-99020554D01*
X89896993Y-99012496D01*
X89920197Y-99006684D01*
X89943858Y-99003174D01*
X89967750Y-99002000D01*
X90880250Y-99002000D01*
X90904142Y-99003174D01*
G37*
G36*
X90904142Y-97128174D02*
G01*
X90927803Y-97131684D01*
X90951007Y-97137496D01*
X90973529Y-97145554D01*
X90995153Y-97155782D01*
X91015670Y-97168079D01*
X91034883Y-97182329D01*
X91052607Y-97198393D01*
X91068671Y-97216117D01*
X91082921Y-97235330D01*
X91095218Y-97255847D01*
X91105446Y-97277471D01*
X91113504Y-97299993D01*
X91119316Y-97323197D01*
X91122826Y-97346858D01*
X91124000Y-97370750D01*
X91124000Y-97858250D01*
X91122826Y-97882142D01*
X91119316Y-97905803D01*
X91113504Y-97929007D01*
X91105446Y-97951529D01*
X91095218Y-97973153D01*
X91082921Y-97993670D01*
X91068671Y-98012883D01*
X91052607Y-98030607D01*
X91034883Y-98046671D01*
X91015670Y-98060921D01*
X90995153Y-98073218D01*
X90973529Y-98083446D01*
X90951007Y-98091504D01*
X90927803Y-98097316D01*
X90904142Y-98100826D01*
X90880250Y-98102000D01*
X89967750Y-98102000D01*
X89943858Y-98100826D01*
X89920197Y-98097316D01*
X89896993Y-98091504D01*
X89874471Y-98083446D01*
X89852847Y-98073218D01*
X89832330Y-98060921D01*
X89813117Y-98046671D01*
X89795393Y-98030607D01*
X89779329Y-98012883D01*
X89765079Y-97993670D01*
X89752782Y-97973153D01*
X89742554Y-97951529D01*
X89734496Y-97929007D01*
X89728684Y-97905803D01*
X89725174Y-97882142D01*
X89724000Y-97858250D01*
X89724000Y-97370750D01*
X89725174Y-97346858D01*
X89728684Y-97323197D01*
X89734496Y-97299993D01*
X89742554Y-97277471D01*
X89752782Y-97255847D01*
X89765079Y-97235330D01*
X89779329Y-97216117D01*
X89795393Y-97198393D01*
X89813117Y-97182329D01*
X89832330Y-97168079D01*
X89852847Y-97155782D01*
X89874471Y-97145554D01*
X89896993Y-97137496D01*
X89920197Y-97131684D01*
X89943858Y-97128174D01*
X89967750Y-97127000D01*
X90880250Y-97127000D01*
X90904142Y-97128174D01*
G37*
G36*
X85205142Y-57301174D02*
G01*
X85228803Y-57304684D01*
X85252007Y-57310496D01*
X85274529Y-57318554D01*
X85296153Y-57328782D01*
X85316670Y-57341079D01*
X85335883Y-57355329D01*
X85353607Y-57371393D01*
X85369671Y-57389117D01*
X85383921Y-57408330D01*
X85396218Y-57428847D01*
X85406446Y-57450471D01*
X85414504Y-57472993D01*
X85420316Y-57496197D01*
X85423826Y-57519858D01*
X85425000Y-57543750D01*
X85425000Y-58456250D01*
X85423826Y-58480142D01*
X85420316Y-58503803D01*
X85414504Y-58527007D01*
X85406446Y-58549529D01*
X85396218Y-58571153D01*
X85383921Y-58591670D01*
X85369671Y-58610883D01*
X85353607Y-58628607D01*
X85335883Y-58644671D01*
X85316670Y-58658921D01*
X85296153Y-58671218D01*
X85274529Y-58681446D01*
X85252007Y-58689504D01*
X85228803Y-58695316D01*
X85205142Y-58698826D01*
X85181250Y-58700000D01*
X84693750Y-58700000D01*
X84669858Y-58698826D01*
X84646197Y-58695316D01*
X84622993Y-58689504D01*
X84600471Y-58681446D01*
X84578847Y-58671218D01*
X84558330Y-58658921D01*
X84539117Y-58644671D01*
X84521393Y-58628607D01*
X84505329Y-58610883D01*
X84491079Y-58591670D01*
X84478782Y-58571153D01*
X84468554Y-58549529D01*
X84460496Y-58527007D01*
X84454684Y-58503803D01*
X84451174Y-58480142D01*
X84450000Y-58456250D01*
X84450000Y-57543750D01*
X84451174Y-57519858D01*
X84454684Y-57496197D01*
X84460496Y-57472993D01*
X84468554Y-57450471D01*
X84478782Y-57428847D01*
X84491079Y-57408330D01*
X84505329Y-57389117D01*
X84521393Y-57371393D01*
X84539117Y-57355329D01*
X84558330Y-57341079D01*
X84578847Y-57328782D01*
X84600471Y-57318554D01*
X84622993Y-57310496D01*
X84646197Y-57304684D01*
X84669858Y-57301174D01*
X84693750Y-57300000D01*
X85181250Y-57300000D01*
X85205142Y-57301174D01*
G37*
G36*
X83330142Y-57301174D02*
G01*
X83353803Y-57304684D01*
X83377007Y-57310496D01*
X83399529Y-57318554D01*
X83421153Y-57328782D01*
X83441670Y-57341079D01*
X83460883Y-57355329D01*
X83478607Y-57371393D01*
X83494671Y-57389117D01*
X83508921Y-57408330D01*
X83521218Y-57428847D01*
X83531446Y-57450471D01*
X83539504Y-57472993D01*
X83545316Y-57496197D01*
X83548826Y-57519858D01*
X83550000Y-57543750D01*
X83550000Y-58456250D01*
X83548826Y-58480142D01*
X83545316Y-58503803D01*
X83539504Y-58527007D01*
X83531446Y-58549529D01*
X83521218Y-58571153D01*
X83508921Y-58591670D01*
X83494671Y-58610883D01*
X83478607Y-58628607D01*
X83460883Y-58644671D01*
X83441670Y-58658921D01*
X83421153Y-58671218D01*
X83399529Y-58681446D01*
X83377007Y-58689504D01*
X83353803Y-58695316D01*
X83330142Y-58698826D01*
X83306250Y-58700000D01*
X82818750Y-58700000D01*
X82794858Y-58698826D01*
X82771197Y-58695316D01*
X82747993Y-58689504D01*
X82725471Y-58681446D01*
X82703847Y-58671218D01*
X82683330Y-58658921D01*
X82664117Y-58644671D01*
X82646393Y-58628607D01*
X82630329Y-58610883D01*
X82616079Y-58591670D01*
X82603782Y-58571153D01*
X82593554Y-58549529D01*
X82585496Y-58527007D01*
X82579684Y-58503803D01*
X82576174Y-58480142D01*
X82575000Y-58456250D01*
X82575000Y-57543750D01*
X82576174Y-57519858D01*
X82579684Y-57496197D01*
X82585496Y-57472993D01*
X82593554Y-57450471D01*
X82603782Y-57428847D01*
X82616079Y-57408330D01*
X82630329Y-57389117D01*
X82646393Y-57371393D01*
X82664117Y-57355329D01*
X82683330Y-57341079D01*
X82703847Y-57328782D01*
X82725471Y-57318554D01*
X82747993Y-57310496D01*
X82771197Y-57304684D01*
X82794858Y-57301174D01*
X82818750Y-57300000D01*
X83306250Y-57300000D01*
X83330142Y-57301174D01*
G37*
G36*
X87057142Y-71945174D02*
G01*
X87080803Y-71948684D01*
X87104007Y-71954496D01*
X87126529Y-71962554D01*
X87148153Y-71972782D01*
X87168670Y-71985079D01*
X87187883Y-71999329D01*
X87205607Y-72015393D01*
X87221671Y-72033117D01*
X87235921Y-72052330D01*
X87248218Y-72072847D01*
X87258446Y-72094471D01*
X87266504Y-72116993D01*
X87272316Y-72140197D01*
X87275826Y-72163858D01*
X87277000Y-72187750D01*
X87277000Y-73100250D01*
X87275826Y-73124142D01*
X87272316Y-73147803D01*
X87266504Y-73171007D01*
X87258446Y-73193529D01*
X87248218Y-73215153D01*
X87235921Y-73235670D01*
X87221671Y-73254883D01*
X87205607Y-73272607D01*
X87187883Y-73288671D01*
X87168670Y-73302921D01*
X87148153Y-73315218D01*
X87126529Y-73325446D01*
X87104007Y-73333504D01*
X87080803Y-73339316D01*
X87057142Y-73342826D01*
X87033250Y-73344000D01*
X86545750Y-73344000D01*
X86521858Y-73342826D01*
X86498197Y-73339316D01*
X86474993Y-73333504D01*
X86452471Y-73325446D01*
X86430847Y-73315218D01*
X86410330Y-73302921D01*
X86391117Y-73288671D01*
X86373393Y-73272607D01*
X86357329Y-73254883D01*
X86343079Y-73235670D01*
X86330782Y-73215153D01*
X86320554Y-73193529D01*
X86312496Y-73171007D01*
X86306684Y-73147803D01*
X86303174Y-73124142D01*
X86302000Y-73100250D01*
X86302000Y-72187750D01*
X86303174Y-72163858D01*
X86306684Y-72140197D01*
X86312496Y-72116993D01*
X86320554Y-72094471D01*
X86330782Y-72072847D01*
X86343079Y-72052330D01*
X86357329Y-72033117D01*
X86373393Y-72015393D01*
X86391117Y-71999329D01*
X86410330Y-71985079D01*
X86430847Y-71972782D01*
X86452471Y-71962554D01*
X86474993Y-71954496D01*
X86498197Y-71948684D01*
X86521858Y-71945174D01*
X86545750Y-71944000D01*
X87033250Y-71944000D01*
X87057142Y-71945174D01*
G37*
G36*
X85182142Y-71945174D02*
G01*
X85205803Y-71948684D01*
X85229007Y-71954496D01*
X85251529Y-71962554D01*
X85273153Y-71972782D01*
X85293670Y-71985079D01*
X85312883Y-71999329D01*
X85330607Y-72015393D01*
X85346671Y-72033117D01*
X85360921Y-72052330D01*
X85373218Y-72072847D01*
X85383446Y-72094471D01*
X85391504Y-72116993D01*
X85397316Y-72140197D01*
X85400826Y-72163858D01*
X85402000Y-72187750D01*
X85402000Y-73100250D01*
X85400826Y-73124142D01*
X85397316Y-73147803D01*
X85391504Y-73171007D01*
X85383446Y-73193529D01*
X85373218Y-73215153D01*
X85360921Y-73235670D01*
X85346671Y-73254883D01*
X85330607Y-73272607D01*
X85312883Y-73288671D01*
X85293670Y-73302921D01*
X85273153Y-73315218D01*
X85251529Y-73325446D01*
X85229007Y-73333504D01*
X85205803Y-73339316D01*
X85182142Y-73342826D01*
X85158250Y-73344000D01*
X84670750Y-73344000D01*
X84646858Y-73342826D01*
X84623197Y-73339316D01*
X84599993Y-73333504D01*
X84577471Y-73325446D01*
X84555847Y-73315218D01*
X84535330Y-73302921D01*
X84516117Y-73288671D01*
X84498393Y-73272607D01*
X84482329Y-73254883D01*
X84468079Y-73235670D01*
X84455782Y-73215153D01*
X84445554Y-73193529D01*
X84437496Y-73171007D01*
X84431684Y-73147803D01*
X84428174Y-73124142D01*
X84427000Y-73100250D01*
X84427000Y-72187750D01*
X84428174Y-72163858D01*
X84431684Y-72140197D01*
X84437496Y-72116993D01*
X84445554Y-72094471D01*
X84455782Y-72072847D01*
X84468079Y-72052330D01*
X84482329Y-72033117D01*
X84498393Y-72015393D01*
X84516117Y-71999329D01*
X84535330Y-71985079D01*
X84555847Y-71972782D01*
X84577471Y-71962554D01*
X84599993Y-71954496D01*
X84623197Y-71948684D01*
X84646858Y-71945174D01*
X84670750Y-71944000D01*
X85158250Y-71944000D01*
X85182142Y-71945174D01*
G37*
G36*
X87057142Y-65341174D02*
G01*
X87080803Y-65344684D01*
X87104007Y-65350496D01*
X87126529Y-65358554D01*
X87148153Y-65368782D01*
X87168670Y-65381079D01*
X87187883Y-65395329D01*
X87205607Y-65411393D01*
X87221671Y-65429117D01*
X87235921Y-65448330D01*
X87248218Y-65468847D01*
X87258446Y-65490471D01*
X87266504Y-65512993D01*
X87272316Y-65536197D01*
X87275826Y-65559858D01*
X87277000Y-65583750D01*
X87277000Y-66496250D01*
X87275826Y-66520142D01*
X87272316Y-66543803D01*
X87266504Y-66567007D01*
X87258446Y-66589529D01*
X87248218Y-66611153D01*
X87235921Y-66631670D01*
X87221671Y-66650883D01*
X87205607Y-66668607D01*
X87187883Y-66684671D01*
X87168670Y-66698921D01*
X87148153Y-66711218D01*
X87126529Y-66721446D01*
X87104007Y-66729504D01*
X87080803Y-66735316D01*
X87057142Y-66738826D01*
X87033250Y-66740000D01*
X86545750Y-66740000D01*
X86521858Y-66738826D01*
X86498197Y-66735316D01*
X86474993Y-66729504D01*
X86452471Y-66721446D01*
X86430847Y-66711218D01*
X86410330Y-66698921D01*
X86391117Y-66684671D01*
X86373393Y-66668607D01*
X86357329Y-66650883D01*
X86343079Y-66631670D01*
X86330782Y-66611153D01*
X86320554Y-66589529D01*
X86312496Y-66567007D01*
X86306684Y-66543803D01*
X86303174Y-66520142D01*
X86302000Y-66496250D01*
X86302000Y-65583750D01*
X86303174Y-65559858D01*
X86306684Y-65536197D01*
X86312496Y-65512993D01*
X86320554Y-65490471D01*
X86330782Y-65468847D01*
X86343079Y-65448330D01*
X86357329Y-65429117D01*
X86373393Y-65411393D01*
X86391117Y-65395329D01*
X86410330Y-65381079D01*
X86430847Y-65368782D01*
X86452471Y-65358554D01*
X86474993Y-65350496D01*
X86498197Y-65344684D01*
X86521858Y-65341174D01*
X86545750Y-65340000D01*
X87033250Y-65340000D01*
X87057142Y-65341174D01*
G37*
G36*
X85182142Y-65341174D02*
G01*
X85205803Y-65344684D01*
X85229007Y-65350496D01*
X85251529Y-65358554D01*
X85273153Y-65368782D01*
X85293670Y-65381079D01*
X85312883Y-65395329D01*
X85330607Y-65411393D01*
X85346671Y-65429117D01*
X85360921Y-65448330D01*
X85373218Y-65468847D01*
X85383446Y-65490471D01*
X85391504Y-65512993D01*
X85397316Y-65536197D01*
X85400826Y-65559858D01*
X85402000Y-65583750D01*
X85402000Y-66496250D01*
X85400826Y-66520142D01*
X85397316Y-66543803D01*
X85391504Y-66567007D01*
X85383446Y-66589529D01*
X85373218Y-66611153D01*
X85360921Y-66631670D01*
X85346671Y-66650883D01*
X85330607Y-66668607D01*
X85312883Y-66684671D01*
X85293670Y-66698921D01*
X85273153Y-66711218D01*
X85251529Y-66721446D01*
X85229007Y-66729504D01*
X85205803Y-66735316D01*
X85182142Y-66738826D01*
X85158250Y-66740000D01*
X84670750Y-66740000D01*
X84646858Y-66738826D01*
X84623197Y-66735316D01*
X84599993Y-66729504D01*
X84577471Y-66721446D01*
X84555847Y-66711218D01*
X84535330Y-66698921D01*
X84516117Y-66684671D01*
X84498393Y-66668607D01*
X84482329Y-66650883D01*
X84468079Y-66631670D01*
X84455782Y-66611153D01*
X84445554Y-66589529D01*
X84437496Y-66567007D01*
X84431684Y-66543803D01*
X84428174Y-66520142D01*
X84427000Y-66496250D01*
X84427000Y-65583750D01*
X84428174Y-65559858D01*
X84431684Y-65536197D01*
X84437496Y-65512993D01*
X84445554Y-65490471D01*
X84455782Y-65468847D01*
X84468079Y-65448330D01*
X84482329Y-65429117D01*
X84498393Y-65411393D01*
X84516117Y-65395329D01*
X84535330Y-65381079D01*
X84555847Y-65368782D01*
X84577471Y-65358554D01*
X84599993Y-65350496D01*
X84623197Y-65344684D01*
X84646858Y-65341174D01*
X84670750Y-65340000D01*
X85158250Y-65340000D01*
X85182142Y-65341174D01*
G37*
G36*
X86960142Y-100901174D02*
G01*
X86983803Y-100904684D01*
X87007007Y-100910496D01*
X87029529Y-100918554D01*
X87051153Y-100928782D01*
X87071670Y-100941079D01*
X87090883Y-100955329D01*
X87108607Y-100971393D01*
X87124671Y-100989117D01*
X87138921Y-101008330D01*
X87151218Y-101028847D01*
X87161446Y-101050471D01*
X87169504Y-101072993D01*
X87175316Y-101096197D01*
X87178826Y-101119858D01*
X87180000Y-101143750D01*
X87180000Y-102056250D01*
X87178826Y-102080142D01*
X87175316Y-102103803D01*
X87169504Y-102127007D01*
X87161446Y-102149529D01*
X87151218Y-102171153D01*
X87138921Y-102191670D01*
X87124671Y-102210883D01*
X87108607Y-102228607D01*
X87090883Y-102244671D01*
X87071670Y-102258921D01*
X87051153Y-102271218D01*
X87029529Y-102281446D01*
X87007007Y-102289504D01*
X86983803Y-102295316D01*
X86960142Y-102298826D01*
X86936250Y-102300000D01*
X86448750Y-102300000D01*
X86424858Y-102298826D01*
X86401197Y-102295316D01*
X86377993Y-102289504D01*
X86355471Y-102281446D01*
X86333847Y-102271218D01*
X86313330Y-102258921D01*
X86294117Y-102244671D01*
X86276393Y-102228607D01*
X86260329Y-102210883D01*
X86246079Y-102191670D01*
X86233782Y-102171153D01*
X86223554Y-102149529D01*
X86215496Y-102127007D01*
X86209684Y-102103803D01*
X86206174Y-102080142D01*
X86205000Y-102056250D01*
X86205000Y-101143750D01*
X86206174Y-101119858D01*
X86209684Y-101096197D01*
X86215496Y-101072993D01*
X86223554Y-101050471D01*
X86233782Y-101028847D01*
X86246079Y-101008330D01*
X86260329Y-100989117D01*
X86276393Y-100971393D01*
X86294117Y-100955329D01*
X86313330Y-100941079D01*
X86333847Y-100928782D01*
X86355471Y-100918554D01*
X86377993Y-100910496D01*
X86401197Y-100904684D01*
X86424858Y-100901174D01*
X86448750Y-100900000D01*
X86936250Y-100900000D01*
X86960142Y-100901174D01*
G37*
G36*
X88835142Y-100901174D02*
G01*
X88858803Y-100904684D01*
X88882007Y-100910496D01*
X88904529Y-100918554D01*
X88926153Y-100928782D01*
X88946670Y-100941079D01*
X88965883Y-100955329D01*
X88983607Y-100971393D01*
X88999671Y-100989117D01*
X89013921Y-101008330D01*
X89026218Y-101028847D01*
X89036446Y-101050471D01*
X89044504Y-101072993D01*
X89050316Y-101096197D01*
X89053826Y-101119858D01*
X89055000Y-101143750D01*
X89055000Y-102056250D01*
X89053826Y-102080142D01*
X89050316Y-102103803D01*
X89044504Y-102127007D01*
X89036446Y-102149529D01*
X89026218Y-102171153D01*
X89013921Y-102191670D01*
X88999671Y-102210883D01*
X88983607Y-102228607D01*
X88965883Y-102244671D01*
X88946670Y-102258921D01*
X88926153Y-102271218D01*
X88904529Y-102281446D01*
X88882007Y-102289504D01*
X88858803Y-102295316D01*
X88835142Y-102298826D01*
X88811250Y-102300000D01*
X88323750Y-102300000D01*
X88299858Y-102298826D01*
X88276197Y-102295316D01*
X88252993Y-102289504D01*
X88230471Y-102281446D01*
X88208847Y-102271218D01*
X88188330Y-102258921D01*
X88169117Y-102244671D01*
X88151393Y-102228607D01*
X88135329Y-102210883D01*
X88121079Y-102191670D01*
X88108782Y-102171153D01*
X88098554Y-102149529D01*
X88090496Y-102127007D01*
X88084684Y-102103803D01*
X88081174Y-102080142D01*
X88080000Y-102056250D01*
X88080000Y-101143750D01*
X88081174Y-101119858D01*
X88084684Y-101096197D01*
X88090496Y-101072993D01*
X88098554Y-101050471D01*
X88108782Y-101028847D01*
X88121079Y-101008330D01*
X88135329Y-100989117D01*
X88151393Y-100971393D01*
X88169117Y-100955329D01*
X88188330Y-100941079D01*
X88208847Y-100928782D01*
X88230471Y-100918554D01*
X88252993Y-100910496D01*
X88276197Y-100904684D01*
X88299858Y-100901174D01*
X88323750Y-100900000D01*
X88811250Y-100900000D01*
X88835142Y-100901174D01*
G37*
G36*
X96709142Y-84137174D02*
G01*
X96732803Y-84140684D01*
X96756007Y-84146496D01*
X96778529Y-84154554D01*
X96800153Y-84164782D01*
X96820670Y-84177079D01*
X96839883Y-84191329D01*
X96857607Y-84207393D01*
X96873671Y-84225117D01*
X96887921Y-84244330D01*
X96900218Y-84264847D01*
X96910446Y-84286471D01*
X96918504Y-84308993D01*
X96924316Y-84332197D01*
X96927826Y-84355858D01*
X96929000Y-84379750D01*
X96929000Y-85292250D01*
X96927826Y-85316142D01*
X96924316Y-85339803D01*
X96918504Y-85363007D01*
X96910446Y-85385529D01*
X96900218Y-85407153D01*
X96887921Y-85427670D01*
X96873671Y-85446883D01*
X96857607Y-85464607D01*
X96839883Y-85480671D01*
X96820670Y-85494921D01*
X96800153Y-85507218D01*
X96778529Y-85517446D01*
X96756007Y-85525504D01*
X96732803Y-85531316D01*
X96709142Y-85534826D01*
X96685250Y-85536000D01*
X96197750Y-85536000D01*
X96173858Y-85534826D01*
X96150197Y-85531316D01*
X96126993Y-85525504D01*
X96104471Y-85517446D01*
X96082847Y-85507218D01*
X96062330Y-85494921D01*
X96043117Y-85480671D01*
X96025393Y-85464607D01*
X96009329Y-85446883D01*
X95995079Y-85427670D01*
X95982782Y-85407153D01*
X95972554Y-85385529D01*
X95964496Y-85363007D01*
X95958684Y-85339803D01*
X95955174Y-85316142D01*
X95954000Y-85292250D01*
X95954000Y-84379750D01*
X95955174Y-84355858D01*
X95958684Y-84332197D01*
X95964496Y-84308993D01*
X95972554Y-84286471D01*
X95982782Y-84264847D01*
X95995079Y-84244330D01*
X96009329Y-84225117D01*
X96025393Y-84207393D01*
X96043117Y-84191329D01*
X96062330Y-84177079D01*
X96082847Y-84164782D01*
X96104471Y-84154554D01*
X96126993Y-84146496D01*
X96150197Y-84140684D01*
X96173858Y-84137174D01*
X96197750Y-84136000D01*
X96685250Y-84136000D01*
X96709142Y-84137174D01*
G37*
G36*
X94834142Y-84137174D02*
G01*
X94857803Y-84140684D01*
X94881007Y-84146496D01*
X94903529Y-84154554D01*
X94925153Y-84164782D01*
X94945670Y-84177079D01*
X94964883Y-84191329D01*
X94982607Y-84207393D01*
X94998671Y-84225117D01*
X95012921Y-84244330D01*
X95025218Y-84264847D01*
X95035446Y-84286471D01*
X95043504Y-84308993D01*
X95049316Y-84332197D01*
X95052826Y-84355858D01*
X95054000Y-84379750D01*
X95054000Y-85292250D01*
X95052826Y-85316142D01*
X95049316Y-85339803D01*
X95043504Y-85363007D01*
X95035446Y-85385529D01*
X95025218Y-85407153D01*
X95012921Y-85427670D01*
X94998671Y-85446883D01*
X94982607Y-85464607D01*
X94964883Y-85480671D01*
X94945670Y-85494921D01*
X94925153Y-85507218D01*
X94903529Y-85517446D01*
X94881007Y-85525504D01*
X94857803Y-85531316D01*
X94834142Y-85534826D01*
X94810250Y-85536000D01*
X94322750Y-85536000D01*
X94298858Y-85534826D01*
X94275197Y-85531316D01*
X94251993Y-85525504D01*
X94229471Y-85517446D01*
X94207847Y-85507218D01*
X94187330Y-85494921D01*
X94168117Y-85480671D01*
X94150393Y-85464607D01*
X94134329Y-85446883D01*
X94120079Y-85427670D01*
X94107782Y-85407153D01*
X94097554Y-85385529D01*
X94089496Y-85363007D01*
X94083684Y-85339803D01*
X94080174Y-85316142D01*
X94079000Y-85292250D01*
X94079000Y-84379750D01*
X94080174Y-84355858D01*
X94083684Y-84332197D01*
X94089496Y-84308993D01*
X94097554Y-84286471D01*
X94107782Y-84264847D01*
X94120079Y-84244330D01*
X94134329Y-84225117D01*
X94150393Y-84207393D01*
X94168117Y-84191329D01*
X94187330Y-84177079D01*
X94207847Y-84164782D01*
X94229471Y-84154554D01*
X94251993Y-84146496D01*
X94275197Y-84140684D01*
X94298858Y-84137174D01*
X94322750Y-84136000D01*
X94810250Y-84136000D01*
X94834142Y-84137174D01*
G37*
G36*
X94423142Y-100869174D02*
G01*
X94446803Y-100872684D01*
X94470007Y-100878496D01*
X94492529Y-100886554D01*
X94514153Y-100896782D01*
X94534670Y-100909079D01*
X94553883Y-100923329D01*
X94571607Y-100939393D01*
X94587671Y-100957117D01*
X94601921Y-100976330D01*
X94614218Y-100996847D01*
X94624446Y-101018471D01*
X94632504Y-101040993D01*
X94638316Y-101064197D01*
X94641826Y-101087858D01*
X94643000Y-101111750D01*
X94643000Y-102024250D01*
X94641826Y-102048142D01*
X94638316Y-102071803D01*
X94632504Y-102095007D01*
X94624446Y-102117529D01*
X94614218Y-102139153D01*
X94601921Y-102159670D01*
X94587671Y-102178883D01*
X94571607Y-102196607D01*
X94553883Y-102212671D01*
X94534670Y-102226921D01*
X94514153Y-102239218D01*
X94492529Y-102249446D01*
X94470007Y-102257504D01*
X94446803Y-102263316D01*
X94423142Y-102266826D01*
X94399250Y-102268000D01*
X93911750Y-102268000D01*
X93887858Y-102266826D01*
X93864197Y-102263316D01*
X93840993Y-102257504D01*
X93818471Y-102249446D01*
X93796847Y-102239218D01*
X93776330Y-102226921D01*
X93757117Y-102212671D01*
X93739393Y-102196607D01*
X93723329Y-102178883D01*
X93709079Y-102159670D01*
X93696782Y-102139153D01*
X93686554Y-102117529D01*
X93678496Y-102095007D01*
X93672684Y-102071803D01*
X93669174Y-102048142D01*
X93668000Y-102024250D01*
X93668000Y-101111750D01*
X93669174Y-101087858D01*
X93672684Y-101064197D01*
X93678496Y-101040993D01*
X93686554Y-101018471D01*
X93696782Y-100996847D01*
X93709079Y-100976330D01*
X93723329Y-100957117D01*
X93739393Y-100939393D01*
X93757117Y-100923329D01*
X93776330Y-100909079D01*
X93796847Y-100896782D01*
X93818471Y-100886554D01*
X93840993Y-100878496D01*
X93864197Y-100872684D01*
X93887858Y-100869174D01*
X93911750Y-100868000D01*
X94399250Y-100868000D01*
X94423142Y-100869174D01*
G37*
G36*
X92548142Y-100869174D02*
G01*
X92571803Y-100872684D01*
X92595007Y-100878496D01*
X92617529Y-100886554D01*
X92639153Y-100896782D01*
X92659670Y-100909079D01*
X92678883Y-100923329D01*
X92696607Y-100939393D01*
X92712671Y-100957117D01*
X92726921Y-100976330D01*
X92739218Y-100996847D01*
X92749446Y-101018471D01*
X92757504Y-101040993D01*
X92763316Y-101064197D01*
X92766826Y-101087858D01*
X92768000Y-101111750D01*
X92768000Y-102024250D01*
X92766826Y-102048142D01*
X92763316Y-102071803D01*
X92757504Y-102095007D01*
X92749446Y-102117529D01*
X92739218Y-102139153D01*
X92726921Y-102159670D01*
X92712671Y-102178883D01*
X92696607Y-102196607D01*
X92678883Y-102212671D01*
X92659670Y-102226921D01*
X92639153Y-102239218D01*
X92617529Y-102249446D01*
X92595007Y-102257504D01*
X92571803Y-102263316D01*
X92548142Y-102266826D01*
X92524250Y-102268000D01*
X92036750Y-102268000D01*
X92012858Y-102266826D01*
X91989197Y-102263316D01*
X91965993Y-102257504D01*
X91943471Y-102249446D01*
X91921847Y-102239218D01*
X91901330Y-102226921D01*
X91882117Y-102212671D01*
X91864393Y-102196607D01*
X91848329Y-102178883D01*
X91834079Y-102159670D01*
X91821782Y-102139153D01*
X91811554Y-102117529D01*
X91803496Y-102095007D01*
X91797684Y-102071803D01*
X91794174Y-102048142D01*
X91793000Y-102024250D01*
X91793000Y-101111750D01*
X91794174Y-101087858D01*
X91797684Y-101064197D01*
X91803496Y-101040993D01*
X91811554Y-101018471D01*
X91821782Y-100996847D01*
X91834079Y-100976330D01*
X91848329Y-100957117D01*
X91864393Y-100939393D01*
X91882117Y-100923329D01*
X91901330Y-100909079D01*
X91921847Y-100896782D01*
X91943471Y-100886554D01*
X91965993Y-100878496D01*
X91989197Y-100872684D01*
X92012858Y-100869174D01*
X92036750Y-100868000D01*
X92524250Y-100868000D01*
X92548142Y-100869174D01*
G37*
G36*
X86960142Y-98869174D02*
G01*
X86983803Y-98872684D01*
X87007007Y-98878496D01*
X87029529Y-98886554D01*
X87051153Y-98896782D01*
X87071670Y-98909079D01*
X87090883Y-98923329D01*
X87108607Y-98939393D01*
X87124671Y-98957117D01*
X87138921Y-98976330D01*
X87151218Y-98996847D01*
X87161446Y-99018471D01*
X87169504Y-99040993D01*
X87175316Y-99064197D01*
X87178826Y-99087858D01*
X87180000Y-99111750D01*
X87180000Y-100024250D01*
X87178826Y-100048142D01*
X87175316Y-100071803D01*
X87169504Y-100095007D01*
X87161446Y-100117529D01*
X87151218Y-100139153D01*
X87138921Y-100159670D01*
X87124671Y-100178883D01*
X87108607Y-100196607D01*
X87090883Y-100212671D01*
X87071670Y-100226921D01*
X87051153Y-100239218D01*
X87029529Y-100249446D01*
X87007007Y-100257504D01*
X86983803Y-100263316D01*
X86960142Y-100266826D01*
X86936250Y-100268000D01*
X86448750Y-100268000D01*
X86424858Y-100266826D01*
X86401197Y-100263316D01*
X86377993Y-100257504D01*
X86355471Y-100249446D01*
X86333847Y-100239218D01*
X86313330Y-100226921D01*
X86294117Y-100212671D01*
X86276393Y-100196607D01*
X86260329Y-100178883D01*
X86246079Y-100159670D01*
X86233782Y-100139153D01*
X86223554Y-100117529D01*
X86215496Y-100095007D01*
X86209684Y-100071803D01*
X86206174Y-100048142D01*
X86205000Y-100024250D01*
X86205000Y-99111750D01*
X86206174Y-99087858D01*
X86209684Y-99064197D01*
X86215496Y-99040993D01*
X86223554Y-99018471D01*
X86233782Y-98996847D01*
X86246079Y-98976330D01*
X86260329Y-98957117D01*
X86276393Y-98939393D01*
X86294117Y-98923329D01*
X86313330Y-98909079D01*
X86333847Y-98896782D01*
X86355471Y-98886554D01*
X86377993Y-98878496D01*
X86401197Y-98872684D01*
X86424858Y-98869174D01*
X86448750Y-98868000D01*
X86936250Y-98868000D01*
X86960142Y-98869174D01*
G37*
G36*
X88835142Y-98869174D02*
G01*
X88858803Y-98872684D01*
X88882007Y-98878496D01*
X88904529Y-98886554D01*
X88926153Y-98896782D01*
X88946670Y-98909079D01*
X88965883Y-98923329D01*
X88983607Y-98939393D01*
X88999671Y-98957117D01*
X89013921Y-98976330D01*
X89026218Y-98996847D01*
X89036446Y-99018471D01*
X89044504Y-99040993D01*
X89050316Y-99064197D01*
X89053826Y-99087858D01*
X89055000Y-99111750D01*
X89055000Y-100024250D01*
X89053826Y-100048142D01*
X89050316Y-100071803D01*
X89044504Y-100095007D01*
X89036446Y-100117529D01*
X89026218Y-100139153D01*
X89013921Y-100159670D01*
X88999671Y-100178883D01*
X88983607Y-100196607D01*
X88965883Y-100212671D01*
X88946670Y-100226921D01*
X88926153Y-100239218D01*
X88904529Y-100249446D01*
X88882007Y-100257504D01*
X88858803Y-100263316D01*
X88835142Y-100266826D01*
X88811250Y-100268000D01*
X88323750Y-100268000D01*
X88299858Y-100266826D01*
X88276197Y-100263316D01*
X88252993Y-100257504D01*
X88230471Y-100249446D01*
X88208847Y-100239218D01*
X88188330Y-100226921D01*
X88169117Y-100212671D01*
X88151393Y-100196607D01*
X88135329Y-100178883D01*
X88121079Y-100159670D01*
X88108782Y-100139153D01*
X88098554Y-100117529D01*
X88090496Y-100095007D01*
X88084684Y-100071803D01*
X88081174Y-100048142D01*
X88080000Y-100024250D01*
X88080000Y-99111750D01*
X88081174Y-99087858D01*
X88084684Y-99064197D01*
X88090496Y-99040993D01*
X88098554Y-99018471D01*
X88108782Y-98996847D01*
X88121079Y-98976330D01*
X88135329Y-98957117D01*
X88151393Y-98939393D01*
X88169117Y-98923329D01*
X88188330Y-98909079D01*
X88208847Y-98896782D01*
X88230471Y-98886554D01*
X88252993Y-98878496D01*
X88276197Y-98872684D01*
X88299858Y-98869174D01*
X88323750Y-98868000D01*
X88811250Y-98868000D01*
X88835142Y-98869174D01*
G37*
G36*
X96709142Y-81851174D02*
G01*
X96732803Y-81854684D01*
X96756007Y-81860496D01*
X96778529Y-81868554D01*
X96800153Y-81878782D01*
X96820670Y-81891079D01*
X96839883Y-81905329D01*
X96857607Y-81921393D01*
X96873671Y-81939117D01*
X96887921Y-81958330D01*
X96900218Y-81978847D01*
X96910446Y-82000471D01*
X96918504Y-82022993D01*
X96924316Y-82046197D01*
X96927826Y-82069858D01*
X96929000Y-82093750D01*
X96929000Y-83006250D01*
X96927826Y-83030142D01*
X96924316Y-83053803D01*
X96918504Y-83077007D01*
X96910446Y-83099529D01*
X96900218Y-83121153D01*
X96887921Y-83141670D01*
X96873671Y-83160883D01*
X96857607Y-83178607D01*
X96839883Y-83194671D01*
X96820670Y-83208921D01*
X96800153Y-83221218D01*
X96778529Y-83231446D01*
X96756007Y-83239504D01*
X96732803Y-83245316D01*
X96709142Y-83248826D01*
X96685250Y-83250000D01*
X96197750Y-83250000D01*
X96173858Y-83248826D01*
X96150197Y-83245316D01*
X96126993Y-83239504D01*
X96104471Y-83231446D01*
X96082847Y-83221218D01*
X96062330Y-83208921D01*
X96043117Y-83194671D01*
X96025393Y-83178607D01*
X96009329Y-83160883D01*
X95995079Y-83141670D01*
X95982782Y-83121153D01*
X95972554Y-83099529D01*
X95964496Y-83077007D01*
X95958684Y-83053803D01*
X95955174Y-83030142D01*
X95954000Y-83006250D01*
X95954000Y-82093750D01*
X95955174Y-82069858D01*
X95958684Y-82046197D01*
X95964496Y-82022993D01*
X95972554Y-82000471D01*
X95982782Y-81978847D01*
X95995079Y-81958330D01*
X96009329Y-81939117D01*
X96025393Y-81921393D01*
X96043117Y-81905329D01*
X96062330Y-81891079D01*
X96082847Y-81878782D01*
X96104471Y-81868554D01*
X96126993Y-81860496D01*
X96150197Y-81854684D01*
X96173858Y-81851174D01*
X96197750Y-81850000D01*
X96685250Y-81850000D01*
X96709142Y-81851174D01*
G37*
G36*
X94834142Y-81851174D02*
G01*
X94857803Y-81854684D01*
X94881007Y-81860496D01*
X94903529Y-81868554D01*
X94925153Y-81878782D01*
X94945670Y-81891079D01*
X94964883Y-81905329D01*
X94982607Y-81921393D01*
X94998671Y-81939117D01*
X95012921Y-81958330D01*
X95025218Y-81978847D01*
X95035446Y-82000471D01*
X95043504Y-82022993D01*
X95049316Y-82046197D01*
X95052826Y-82069858D01*
X95054000Y-82093750D01*
X95054000Y-83006250D01*
X95052826Y-83030142D01*
X95049316Y-83053803D01*
X95043504Y-83077007D01*
X95035446Y-83099529D01*
X95025218Y-83121153D01*
X95012921Y-83141670D01*
X94998671Y-83160883D01*
X94982607Y-83178607D01*
X94964883Y-83194671D01*
X94945670Y-83208921D01*
X94925153Y-83221218D01*
X94903529Y-83231446D01*
X94881007Y-83239504D01*
X94857803Y-83245316D01*
X94834142Y-83248826D01*
X94810250Y-83250000D01*
X94322750Y-83250000D01*
X94298858Y-83248826D01*
X94275197Y-83245316D01*
X94251993Y-83239504D01*
X94229471Y-83231446D01*
X94207847Y-83221218D01*
X94187330Y-83208921D01*
X94168117Y-83194671D01*
X94150393Y-83178607D01*
X94134329Y-83160883D01*
X94120079Y-83141670D01*
X94107782Y-83121153D01*
X94097554Y-83099529D01*
X94089496Y-83077007D01*
X94083684Y-83053803D01*
X94080174Y-83030142D01*
X94079000Y-83006250D01*
X94079000Y-82093750D01*
X94080174Y-82069858D01*
X94083684Y-82046197D01*
X94089496Y-82022993D01*
X94097554Y-82000471D01*
X94107782Y-81978847D01*
X94120079Y-81958330D01*
X94134329Y-81939117D01*
X94150393Y-81921393D01*
X94168117Y-81905329D01*
X94187330Y-81891079D01*
X94207847Y-81878782D01*
X94229471Y-81868554D01*
X94251993Y-81860496D01*
X94275197Y-81854684D01*
X94298858Y-81851174D01*
X94322750Y-81850000D01*
X94810250Y-81850000D01*
X94834142Y-81851174D01*
G37*
G36*
X94423142Y-98837174D02*
G01*
X94446803Y-98840684D01*
X94470007Y-98846496D01*
X94492529Y-98854554D01*
X94514153Y-98864782D01*
X94534670Y-98877079D01*
X94553883Y-98891329D01*
X94571607Y-98907393D01*
X94587671Y-98925117D01*
X94601921Y-98944330D01*
X94614218Y-98964847D01*
X94624446Y-98986471D01*
X94632504Y-99008993D01*
X94638316Y-99032197D01*
X94641826Y-99055858D01*
X94643000Y-99079750D01*
X94643000Y-99992250D01*
X94641826Y-100016142D01*
X94638316Y-100039803D01*
X94632504Y-100063007D01*
X94624446Y-100085529D01*
X94614218Y-100107153D01*
X94601921Y-100127670D01*
X94587671Y-100146883D01*
X94571607Y-100164607D01*
X94553883Y-100180671D01*
X94534670Y-100194921D01*
X94514153Y-100207218D01*
X94492529Y-100217446D01*
X94470007Y-100225504D01*
X94446803Y-100231316D01*
X94423142Y-100234826D01*
X94399250Y-100236000D01*
X93911750Y-100236000D01*
X93887858Y-100234826D01*
X93864197Y-100231316D01*
X93840993Y-100225504D01*
X93818471Y-100217446D01*
X93796847Y-100207218D01*
X93776330Y-100194921D01*
X93757117Y-100180671D01*
X93739393Y-100164607D01*
X93723329Y-100146883D01*
X93709079Y-100127670D01*
X93696782Y-100107153D01*
X93686554Y-100085529D01*
X93678496Y-100063007D01*
X93672684Y-100039803D01*
X93669174Y-100016142D01*
X93668000Y-99992250D01*
X93668000Y-99079750D01*
X93669174Y-99055858D01*
X93672684Y-99032197D01*
X93678496Y-99008993D01*
X93686554Y-98986471D01*
X93696782Y-98964847D01*
X93709079Y-98944330D01*
X93723329Y-98925117D01*
X93739393Y-98907393D01*
X93757117Y-98891329D01*
X93776330Y-98877079D01*
X93796847Y-98864782D01*
X93818471Y-98854554D01*
X93840993Y-98846496D01*
X93864197Y-98840684D01*
X93887858Y-98837174D01*
X93911750Y-98836000D01*
X94399250Y-98836000D01*
X94423142Y-98837174D01*
G37*
G36*
X92548142Y-98837174D02*
G01*
X92571803Y-98840684D01*
X92595007Y-98846496D01*
X92617529Y-98854554D01*
X92639153Y-98864782D01*
X92659670Y-98877079D01*
X92678883Y-98891329D01*
X92696607Y-98907393D01*
X92712671Y-98925117D01*
X92726921Y-98944330D01*
X92739218Y-98964847D01*
X92749446Y-98986471D01*
X92757504Y-99008993D01*
X92763316Y-99032197D01*
X92766826Y-99055858D01*
X92768000Y-99079750D01*
X92768000Y-99992250D01*
X92766826Y-100016142D01*
X92763316Y-100039803D01*
X92757504Y-100063007D01*
X92749446Y-100085529D01*
X92739218Y-100107153D01*
X92726921Y-100127670D01*
X92712671Y-100146883D01*
X92696607Y-100164607D01*
X92678883Y-100180671D01*
X92659670Y-100194921D01*
X92639153Y-100207218D01*
X92617529Y-100217446D01*
X92595007Y-100225504D01*
X92571803Y-100231316D01*
X92548142Y-100234826D01*
X92524250Y-100236000D01*
X92036750Y-100236000D01*
X92012858Y-100234826D01*
X91989197Y-100231316D01*
X91965993Y-100225504D01*
X91943471Y-100217446D01*
X91921847Y-100207218D01*
X91901330Y-100194921D01*
X91882117Y-100180671D01*
X91864393Y-100164607D01*
X91848329Y-100146883D01*
X91834079Y-100127670D01*
X91821782Y-100107153D01*
X91811554Y-100085529D01*
X91803496Y-100063007D01*
X91797684Y-100039803D01*
X91794174Y-100016142D01*
X91793000Y-99992250D01*
X91793000Y-99079750D01*
X91794174Y-99055858D01*
X91797684Y-99032197D01*
X91803496Y-99008993D01*
X91811554Y-98986471D01*
X91821782Y-98964847D01*
X91834079Y-98944330D01*
X91848329Y-98925117D01*
X91864393Y-98907393D01*
X91882117Y-98891329D01*
X91901330Y-98877079D01*
X91921847Y-98864782D01*
X91943471Y-98854554D01*
X91965993Y-98846496D01*
X91989197Y-98840684D01*
X92012858Y-98837174D01*
X92036750Y-98836000D01*
X92524250Y-98836000D01*
X92548142Y-98837174D01*
G37*
G36*
X86960142Y-96837174D02*
G01*
X86983803Y-96840684D01*
X87007007Y-96846496D01*
X87029529Y-96854554D01*
X87051153Y-96864782D01*
X87071670Y-96877079D01*
X87090883Y-96891329D01*
X87108607Y-96907393D01*
X87124671Y-96925117D01*
X87138921Y-96944330D01*
X87151218Y-96964847D01*
X87161446Y-96986471D01*
X87169504Y-97008993D01*
X87175316Y-97032197D01*
X87178826Y-97055858D01*
X87180000Y-97079750D01*
X87180000Y-97992250D01*
X87178826Y-98016142D01*
X87175316Y-98039803D01*
X87169504Y-98063007D01*
X87161446Y-98085529D01*
X87151218Y-98107153D01*
X87138921Y-98127670D01*
X87124671Y-98146883D01*
X87108607Y-98164607D01*
X87090883Y-98180671D01*
X87071670Y-98194921D01*
X87051153Y-98207218D01*
X87029529Y-98217446D01*
X87007007Y-98225504D01*
X86983803Y-98231316D01*
X86960142Y-98234826D01*
X86936250Y-98236000D01*
X86448750Y-98236000D01*
X86424858Y-98234826D01*
X86401197Y-98231316D01*
X86377993Y-98225504D01*
X86355471Y-98217446D01*
X86333847Y-98207218D01*
X86313330Y-98194921D01*
X86294117Y-98180671D01*
X86276393Y-98164607D01*
X86260329Y-98146883D01*
X86246079Y-98127670D01*
X86233782Y-98107153D01*
X86223554Y-98085529D01*
X86215496Y-98063007D01*
X86209684Y-98039803D01*
X86206174Y-98016142D01*
X86205000Y-97992250D01*
X86205000Y-97079750D01*
X86206174Y-97055858D01*
X86209684Y-97032197D01*
X86215496Y-97008993D01*
X86223554Y-96986471D01*
X86233782Y-96964847D01*
X86246079Y-96944330D01*
X86260329Y-96925117D01*
X86276393Y-96907393D01*
X86294117Y-96891329D01*
X86313330Y-96877079D01*
X86333847Y-96864782D01*
X86355471Y-96854554D01*
X86377993Y-96846496D01*
X86401197Y-96840684D01*
X86424858Y-96837174D01*
X86448750Y-96836000D01*
X86936250Y-96836000D01*
X86960142Y-96837174D01*
G37*
G36*
X88835142Y-96837174D02*
G01*
X88858803Y-96840684D01*
X88882007Y-96846496D01*
X88904529Y-96854554D01*
X88926153Y-96864782D01*
X88946670Y-96877079D01*
X88965883Y-96891329D01*
X88983607Y-96907393D01*
X88999671Y-96925117D01*
X89013921Y-96944330D01*
X89026218Y-96964847D01*
X89036446Y-96986471D01*
X89044504Y-97008993D01*
X89050316Y-97032197D01*
X89053826Y-97055858D01*
X89055000Y-97079750D01*
X89055000Y-97992250D01*
X89053826Y-98016142D01*
X89050316Y-98039803D01*
X89044504Y-98063007D01*
X89036446Y-98085529D01*
X89026218Y-98107153D01*
X89013921Y-98127670D01*
X88999671Y-98146883D01*
X88983607Y-98164607D01*
X88965883Y-98180671D01*
X88946670Y-98194921D01*
X88926153Y-98207218D01*
X88904529Y-98217446D01*
X88882007Y-98225504D01*
X88858803Y-98231316D01*
X88835142Y-98234826D01*
X88811250Y-98236000D01*
X88323750Y-98236000D01*
X88299858Y-98234826D01*
X88276197Y-98231316D01*
X88252993Y-98225504D01*
X88230471Y-98217446D01*
X88208847Y-98207218D01*
X88188330Y-98194921D01*
X88169117Y-98180671D01*
X88151393Y-98164607D01*
X88135329Y-98146883D01*
X88121079Y-98127670D01*
X88108782Y-98107153D01*
X88098554Y-98085529D01*
X88090496Y-98063007D01*
X88084684Y-98039803D01*
X88081174Y-98016142D01*
X88080000Y-97992250D01*
X88080000Y-97079750D01*
X88081174Y-97055858D01*
X88084684Y-97032197D01*
X88090496Y-97008993D01*
X88098554Y-96986471D01*
X88108782Y-96964847D01*
X88121079Y-96944330D01*
X88135329Y-96925117D01*
X88151393Y-96907393D01*
X88169117Y-96891329D01*
X88188330Y-96877079D01*
X88208847Y-96864782D01*
X88230471Y-96854554D01*
X88252993Y-96846496D01*
X88276197Y-96840684D01*
X88299858Y-96837174D01*
X88323750Y-96836000D01*
X88811250Y-96836000D01*
X88835142Y-96837174D01*
G37*
G36*
X83330142Y-59301174D02*
G01*
X83353803Y-59304684D01*
X83377007Y-59310496D01*
X83399529Y-59318554D01*
X83421153Y-59328782D01*
X83441670Y-59341079D01*
X83460883Y-59355329D01*
X83478607Y-59371393D01*
X83494671Y-59389117D01*
X83508921Y-59408330D01*
X83521218Y-59428847D01*
X83531446Y-59450471D01*
X83539504Y-59472993D01*
X83545316Y-59496197D01*
X83548826Y-59519858D01*
X83550000Y-59543750D01*
X83550000Y-60456250D01*
X83548826Y-60480142D01*
X83545316Y-60503803D01*
X83539504Y-60527007D01*
X83531446Y-60549529D01*
X83521218Y-60571153D01*
X83508921Y-60591670D01*
X83494671Y-60610883D01*
X83478607Y-60628607D01*
X83460883Y-60644671D01*
X83441670Y-60658921D01*
X83421153Y-60671218D01*
X83399529Y-60681446D01*
X83377007Y-60689504D01*
X83353803Y-60695316D01*
X83330142Y-60698826D01*
X83306250Y-60700000D01*
X82818750Y-60700000D01*
X82794858Y-60698826D01*
X82771197Y-60695316D01*
X82747993Y-60689504D01*
X82725471Y-60681446D01*
X82703847Y-60671218D01*
X82683330Y-60658921D01*
X82664117Y-60644671D01*
X82646393Y-60628607D01*
X82630329Y-60610883D01*
X82616079Y-60591670D01*
X82603782Y-60571153D01*
X82593554Y-60549529D01*
X82585496Y-60527007D01*
X82579684Y-60503803D01*
X82576174Y-60480142D01*
X82575000Y-60456250D01*
X82575000Y-59543750D01*
X82576174Y-59519858D01*
X82579684Y-59496197D01*
X82585496Y-59472993D01*
X82593554Y-59450471D01*
X82603782Y-59428847D01*
X82616079Y-59408330D01*
X82630329Y-59389117D01*
X82646393Y-59371393D01*
X82664117Y-59355329D01*
X82683330Y-59341079D01*
X82703847Y-59328782D01*
X82725471Y-59318554D01*
X82747993Y-59310496D01*
X82771197Y-59304684D01*
X82794858Y-59301174D01*
X82818750Y-59300000D01*
X83306250Y-59300000D01*
X83330142Y-59301174D01*
G37*
G36*
X85205142Y-59301174D02*
G01*
X85228803Y-59304684D01*
X85252007Y-59310496D01*
X85274529Y-59318554D01*
X85296153Y-59328782D01*
X85316670Y-59341079D01*
X85335883Y-59355329D01*
X85353607Y-59371393D01*
X85369671Y-59389117D01*
X85383921Y-59408330D01*
X85396218Y-59428847D01*
X85406446Y-59450471D01*
X85414504Y-59472993D01*
X85420316Y-59496197D01*
X85423826Y-59519858D01*
X85425000Y-59543750D01*
X85425000Y-60456250D01*
X85423826Y-60480142D01*
X85420316Y-60503803D01*
X85414504Y-60527007D01*
X85406446Y-60549529D01*
X85396218Y-60571153D01*
X85383921Y-60591670D01*
X85369671Y-60610883D01*
X85353607Y-60628607D01*
X85335883Y-60644671D01*
X85316670Y-60658921D01*
X85296153Y-60671218D01*
X85274529Y-60681446D01*
X85252007Y-60689504D01*
X85228803Y-60695316D01*
X85205142Y-60698826D01*
X85181250Y-60700000D01*
X84693750Y-60700000D01*
X84669858Y-60698826D01*
X84646197Y-60695316D01*
X84622993Y-60689504D01*
X84600471Y-60681446D01*
X84578847Y-60671218D01*
X84558330Y-60658921D01*
X84539117Y-60644671D01*
X84521393Y-60628607D01*
X84505329Y-60610883D01*
X84491079Y-60591670D01*
X84478782Y-60571153D01*
X84468554Y-60549529D01*
X84460496Y-60527007D01*
X84454684Y-60503803D01*
X84451174Y-60480142D01*
X84450000Y-60456250D01*
X84450000Y-59543750D01*
X84451174Y-59519858D01*
X84454684Y-59496197D01*
X84460496Y-59472993D01*
X84468554Y-59450471D01*
X84478782Y-59428847D01*
X84491079Y-59408330D01*
X84505329Y-59389117D01*
X84521393Y-59371393D01*
X84539117Y-59355329D01*
X84558330Y-59341079D01*
X84578847Y-59328782D01*
X84600471Y-59318554D01*
X84622993Y-59310496D01*
X84646197Y-59304684D01*
X84669858Y-59301174D01*
X84693750Y-59300000D01*
X85181250Y-59300000D01*
X85205142Y-59301174D01*
G37*
D11*
X85852000Y-69992000D03*
X85352000Y-69992000D03*
X85852000Y-68492000D03*
X86352000Y-69992000D03*
X85352000Y-68492000D03*
X86352000Y-68492000D03*
D12*
X91000000Y-62800000D03*
X90050000Y-62800000D03*
X91950000Y-62800000D03*
X91950000Y-65000000D03*
X91000000Y-65000000D03*
X90050000Y-65000000D03*
D10*
G36*
X88156252Y-93736602D02*
G01*
X88168386Y-93738402D01*
X88180286Y-93741382D01*
X88191835Y-93745515D01*
X88202925Y-93750760D01*
X88213446Y-93757066D01*
X88223299Y-93764374D01*
X88232388Y-93772612D01*
X88240626Y-93781701D01*
X88247934Y-93791554D01*
X88254240Y-93802075D01*
X88259485Y-93813165D01*
X88263618Y-93824714D01*
X88266598Y-93836614D01*
X88268398Y-93848748D01*
X88269000Y-93861000D01*
X88269000Y-94111000D01*
X88268398Y-94123252D01*
X88266598Y-94135386D01*
X88263618Y-94147286D01*
X88259485Y-94158835D01*
X88254240Y-94169925D01*
X88247934Y-94180446D01*
X88240626Y-94190299D01*
X88232388Y-94199388D01*
X88223299Y-94207626D01*
X88213446Y-94214934D01*
X88202925Y-94221240D01*
X88191835Y-94226485D01*
X88180286Y-94230618D01*
X88168386Y-94233598D01*
X88156252Y-94235398D01*
X88144000Y-94236000D01*
X86894000Y-94236000D01*
X86881748Y-94235398D01*
X86869614Y-94233598D01*
X86857714Y-94230618D01*
X86846165Y-94226485D01*
X86835075Y-94221240D01*
X86824554Y-94214934D01*
X86814701Y-94207626D01*
X86805612Y-94199388D01*
X86797374Y-94190299D01*
X86790066Y-94180446D01*
X86783760Y-94169925D01*
X86778515Y-94158835D01*
X86774382Y-94147286D01*
X86771402Y-94135386D01*
X86769602Y-94123252D01*
X86769000Y-94111000D01*
X86769000Y-93861000D01*
X86769602Y-93848748D01*
X86771402Y-93836614D01*
X86774382Y-93824714D01*
X86778515Y-93813165D01*
X86783760Y-93802075D01*
X86790066Y-93791554D01*
X86797374Y-93781701D01*
X86805612Y-93772612D01*
X86814701Y-93764374D01*
X86824554Y-93757066D01*
X86835075Y-93750760D01*
X86846165Y-93745515D01*
X86857714Y-93741382D01*
X86869614Y-93738402D01*
X86881748Y-93736602D01*
X86894000Y-93736000D01*
X88144000Y-93736000D01*
X88156252Y-93736602D01*
G37*
G36*
X88156252Y-92936602D02*
G01*
X88168386Y-92938402D01*
X88180286Y-92941382D01*
X88191835Y-92945515D01*
X88202925Y-92950760D01*
X88213446Y-92957066D01*
X88223299Y-92964374D01*
X88232388Y-92972612D01*
X88240626Y-92981701D01*
X88247934Y-92991554D01*
X88254240Y-93002075D01*
X88259485Y-93013165D01*
X88263618Y-93024714D01*
X88266598Y-93036614D01*
X88268398Y-93048748D01*
X88269000Y-93061000D01*
X88269000Y-93311000D01*
X88268398Y-93323252D01*
X88266598Y-93335386D01*
X88263618Y-93347286D01*
X88259485Y-93358835D01*
X88254240Y-93369925D01*
X88247934Y-93380446D01*
X88240626Y-93390299D01*
X88232388Y-93399388D01*
X88223299Y-93407626D01*
X88213446Y-93414934D01*
X88202925Y-93421240D01*
X88191835Y-93426485D01*
X88180286Y-93430618D01*
X88168386Y-93433598D01*
X88156252Y-93435398D01*
X88144000Y-93436000D01*
X86894000Y-93436000D01*
X86881748Y-93435398D01*
X86869614Y-93433598D01*
X86857714Y-93430618D01*
X86846165Y-93426485D01*
X86835075Y-93421240D01*
X86824554Y-93414934D01*
X86814701Y-93407626D01*
X86805612Y-93399388D01*
X86797374Y-93390299D01*
X86790066Y-93380446D01*
X86783760Y-93369925D01*
X86778515Y-93358835D01*
X86774382Y-93347286D01*
X86771402Y-93335386D01*
X86769602Y-93323252D01*
X86769000Y-93311000D01*
X86769000Y-93061000D01*
X86769602Y-93048748D01*
X86771402Y-93036614D01*
X86774382Y-93024714D01*
X86778515Y-93013165D01*
X86783760Y-93002075D01*
X86790066Y-92991554D01*
X86797374Y-92981701D01*
X86805612Y-92972612D01*
X86814701Y-92964374D01*
X86824554Y-92957066D01*
X86835075Y-92950760D01*
X86846165Y-92945515D01*
X86857714Y-92941382D01*
X86869614Y-92938402D01*
X86881748Y-92936602D01*
X86894000Y-92936000D01*
X88144000Y-92936000D01*
X88156252Y-92936602D01*
G37*
G36*
X88156252Y-92136602D02*
G01*
X88168386Y-92138402D01*
X88180286Y-92141382D01*
X88191835Y-92145515D01*
X88202925Y-92150760D01*
X88213446Y-92157066D01*
X88223299Y-92164374D01*
X88232388Y-92172612D01*
X88240626Y-92181701D01*
X88247934Y-92191554D01*
X88254240Y-92202075D01*
X88259485Y-92213165D01*
X88263618Y-92224714D01*
X88266598Y-92236614D01*
X88268398Y-92248748D01*
X88269000Y-92261000D01*
X88269000Y-92511000D01*
X88268398Y-92523252D01*
X88266598Y-92535386D01*
X88263618Y-92547286D01*
X88259485Y-92558835D01*
X88254240Y-92569925D01*
X88247934Y-92580446D01*
X88240626Y-92590299D01*
X88232388Y-92599388D01*
X88223299Y-92607626D01*
X88213446Y-92614934D01*
X88202925Y-92621240D01*
X88191835Y-92626485D01*
X88180286Y-92630618D01*
X88168386Y-92633598D01*
X88156252Y-92635398D01*
X88144000Y-92636000D01*
X86894000Y-92636000D01*
X86881748Y-92635398D01*
X86869614Y-92633598D01*
X86857714Y-92630618D01*
X86846165Y-92626485D01*
X86835075Y-92621240D01*
X86824554Y-92614934D01*
X86814701Y-92607626D01*
X86805612Y-92599388D01*
X86797374Y-92590299D01*
X86790066Y-92580446D01*
X86783760Y-92569925D01*
X86778515Y-92558835D01*
X86774382Y-92547286D01*
X86771402Y-92535386D01*
X86769602Y-92523252D01*
X86769000Y-92511000D01*
X86769000Y-92261000D01*
X86769602Y-92248748D01*
X86771402Y-92236614D01*
X86774382Y-92224714D01*
X86778515Y-92213165D01*
X86783760Y-92202075D01*
X86790066Y-92191554D01*
X86797374Y-92181701D01*
X86805612Y-92172612D01*
X86814701Y-92164374D01*
X86824554Y-92157066D01*
X86835075Y-92150760D01*
X86846165Y-92145515D01*
X86857714Y-92141382D01*
X86869614Y-92138402D01*
X86881748Y-92136602D01*
X86894000Y-92136000D01*
X88144000Y-92136000D01*
X88156252Y-92136602D01*
G37*
G36*
X88156252Y-91336602D02*
G01*
X88168386Y-91338402D01*
X88180286Y-91341382D01*
X88191835Y-91345515D01*
X88202925Y-91350760D01*
X88213446Y-91357066D01*
X88223299Y-91364374D01*
X88232388Y-91372612D01*
X88240626Y-91381701D01*
X88247934Y-91391554D01*
X88254240Y-91402075D01*
X88259485Y-91413165D01*
X88263618Y-91424714D01*
X88266598Y-91436614D01*
X88268398Y-91448748D01*
X88269000Y-91461000D01*
X88269000Y-91711000D01*
X88268398Y-91723252D01*
X88266598Y-91735386D01*
X88263618Y-91747286D01*
X88259485Y-91758835D01*
X88254240Y-91769925D01*
X88247934Y-91780446D01*
X88240626Y-91790299D01*
X88232388Y-91799388D01*
X88223299Y-91807626D01*
X88213446Y-91814934D01*
X88202925Y-91821240D01*
X88191835Y-91826485D01*
X88180286Y-91830618D01*
X88168386Y-91833598D01*
X88156252Y-91835398D01*
X88144000Y-91836000D01*
X86894000Y-91836000D01*
X86881748Y-91835398D01*
X86869614Y-91833598D01*
X86857714Y-91830618D01*
X86846165Y-91826485D01*
X86835075Y-91821240D01*
X86824554Y-91814934D01*
X86814701Y-91807626D01*
X86805612Y-91799388D01*
X86797374Y-91790299D01*
X86790066Y-91780446D01*
X86783760Y-91769925D01*
X86778515Y-91758835D01*
X86774382Y-91747286D01*
X86771402Y-91735386D01*
X86769602Y-91723252D01*
X86769000Y-91711000D01*
X86769000Y-91461000D01*
X86769602Y-91448748D01*
X86771402Y-91436614D01*
X86774382Y-91424714D01*
X86778515Y-91413165D01*
X86783760Y-91402075D01*
X86790066Y-91391554D01*
X86797374Y-91381701D01*
X86805612Y-91372612D01*
X86814701Y-91364374D01*
X86824554Y-91357066D01*
X86835075Y-91350760D01*
X86846165Y-91345515D01*
X86857714Y-91341382D01*
X86869614Y-91338402D01*
X86881748Y-91336602D01*
X86894000Y-91336000D01*
X88144000Y-91336000D01*
X88156252Y-91336602D01*
G37*
G36*
X88156252Y-90536602D02*
G01*
X88168386Y-90538402D01*
X88180286Y-90541382D01*
X88191835Y-90545515D01*
X88202925Y-90550760D01*
X88213446Y-90557066D01*
X88223299Y-90564374D01*
X88232388Y-90572612D01*
X88240626Y-90581701D01*
X88247934Y-90591554D01*
X88254240Y-90602075D01*
X88259485Y-90613165D01*
X88263618Y-90624714D01*
X88266598Y-90636614D01*
X88268398Y-90648748D01*
X88269000Y-90661000D01*
X88269000Y-90911000D01*
X88268398Y-90923252D01*
X88266598Y-90935386D01*
X88263618Y-90947286D01*
X88259485Y-90958835D01*
X88254240Y-90969925D01*
X88247934Y-90980446D01*
X88240626Y-90990299D01*
X88232388Y-90999388D01*
X88223299Y-91007626D01*
X88213446Y-91014934D01*
X88202925Y-91021240D01*
X88191835Y-91026485D01*
X88180286Y-91030618D01*
X88168386Y-91033598D01*
X88156252Y-91035398D01*
X88144000Y-91036000D01*
X86894000Y-91036000D01*
X86881748Y-91035398D01*
X86869614Y-91033598D01*
X86857714Y-91030618D01*
X86846165Y-91026485D01*
X86835075Y-91021240D01*
X86824554Y-91014934D01*
X86814701Y-91007626D01*
X86805612Y-90999388D01*
X86797374Y-90990299D01*
X86790066Y-90980446D01*
X86783760Y-90969925D01*
X86778515Y-90958835D01*
X86774382Y-90947286D01*
X86771402Y-90935386D01*
X86769602Y-90923252D01*
X86769000Y-90911000D01*
X86769000Y-90661000D01*
X86769602Y-90648748D01*
X86771402Y-90636614D01*
X86774382Y-90624714D01*
X86778515Y-90613165D01*
X86783760Y-90602075D01*
X86790066Y-90591554D01*
X86797374Y-90581701D01*
X86805612Y-90572612D01*
X86814701Y-90564374D01*
X86824554Y-90557066D01*
X86835075Y-90550760D01*
X86846165Y-90545515D01*
X86857714Y-90541382D01*
X86869614Y-90538402D01*
X86881748Y-90536602D01*
X86894000Y-90536000D01*
X88144000Y-90536000D01*
X88156252Y-90536602D01*
G37*
G36*
X88156252Y-89736602D02*
G01*
X88168386Y-89738402D01*
X88180286Y-89741382D01*
X88191835Y-89745515D01*
X88202925Y-89750760D01*
X88213446Y-89757066D01*
X88223299Y-89764374D01*
X88232388Y-89772612D01*
X88240626Y-89781701D01*
X88247934Y-89791554D01*
X88254240Y-89802075D01*
X88259485Y-89813165D01*
X88263618Y-89824714D01*
X88266598Y-89836614D01*
X88268398Y-89848748D01*
X88269000Y-89861000D01*
X88269000Y-90111000D01*
X88268398Y-90123252D01*
X88266598Y-90135386D01*
X88263618Y-90147286D01*
X88259485Y-90158835D01*
X88254240Y-90169925D01*
X88247934Y-90180446D01*
X88240626Y-90190299D01*
X88232388Y-90199388D01*
X88223299Y-90207626D01*
X88213446Y-90214934D01*
X88202925Y-90221240D01*
X88191835Y-90226485D01*
X88180286Y-90230618D01*
X88168386Y-90233598D01*
X88156252Y-90235398D01*
X88144000Y-90236000D01*
X86894000Y-90236000D01*
X86881748Y-90235398D01*
X86869614Y-90233598D01*
X86857714Y-90230618D01*
X86846165Y-90226485D01*
X86835075Y-90221240D01*
X86824554Y-90214934D01*
X86814701Y-90207626D01*
X86805612Y-90199388D01*
X86797374Y-90190299D01*
X86790066Y-90180446D01*
X86783760Y-90169925D01*
X86778515Y-90158835D01*
X86774382Y-90147286D01*
X86771402Y-90135386D01*
X86769602Y-90123252D01*
X86769000Y-90111000D01*
X86769000Y-89861000D01*
X86769602Y-89848748D01*
X86771402Y-89836614D01*
X86774382Y-89824714D01*
X86778515Y-89813165D01*
X86783760Y-89802075D01*
X86790066Y-89791554D01*
X86797374Y-89781701D01*
X86805612Y-89772612D01*
X86814701Y-89764374D01*
X86824554Y-89757066D01*
X86835075Y-89750760D01*
X86846165Y-89745515D01*
X86857714Y-89741382D01*
X86869614Y-89738402D01*
X86881748Y-89736602D01*
X86894000Y-89736000D01*
X88144000Y-89736000D01*
X88156252Y-89736602D01*
G37*
G36*
X88156252Y-88936602D02*
G01*
X88168386Y-88938402D01*
X88180286Y-88941382D01*
X88191835Y-88945515D01*
X88202925Y-88950760D01*
X88213446Y-88957066D01*
X88223299Y-88964374D01*
X88232388Y-88972612D01*
X88240626Y-88981701D01*
X88247934Y-88991554D01*
X88254240Y-89002075D01*
X88259485Y-89013165D01*
X88263618Y-89024714D01*
X88266598Y-89036614D01*
X88268398Y-89048748D01*
X88269000Y-89061000D01*
X88269000Y-89311000D01*
X88268398Y-89323252D01*
X88266598Y-89335386D01*
X88263618Y-89347286D01*
X88259485Y-89358835D01*
X88254240Y-89369925D01*
X88247934Y-89380446D01*
X88240626Y-89390299D01*
X88232388Y-89399388D01*
X88223299Y-89407626D01*
X88213446Y-89414934D01*
X88202925Y-89421240D01*
X88191835Y-89426485D01*
X88180286Y-89430618D01*
X88168386Y-89433598D01*
X88156252Y-89435398D01*
X88144000Y-89436000D01*
X86894000Y-89436000D01*
X86881748Y-89435398D01*
X86869614Y-89433598D01*
X86857714Y-89430618D01*
X86846165Y-89426485D01*
X86835075Y-89421240D01*
X86824554Y-89414934D01*
X86814701Y-89407626D01*
X86805612Y-89399388D01*
X86797374Y-89390299D01*
X86790066Y-89380446D01*
X86783760Y-89369925D01*
X86778515Y-89358835D01*
X86774382Y-89347286D01*
X86771402Y-89335386D01*
X86769602Y-89323252D01*
X86769000Y-89311000D01*
X86769000Y-89061000D01*
X86769602Y-89048748D01*
X86771402Y-89036614D01*
X86774382Y-89024714D01*
X86778515Y-89013165D01*
X86783760Y-89002075D01*
X86790066Y-88991554D01*
X86797374Y-88981701D01*
X86805612Y-88972612D01*
X86814701Y-88964374D01*
X86824554Y-88957066D01*
X86835075Y-88950760D01*
X86846165Y-88945515D01*
X86857714Y-88941382D01*
X86869614Y-88938402D01*
X86881748Y-88936602D01*
X86894000Y-88936000D01*
X88144000Y-88936000D01*
X88156252Y-88936602D01*
G37*
G36*
X88156252Y-88136602D02*
G01*
X88168386Y-88138402D01*
X88180286Y-88141382D01*
X88191835Y-88145515D01*
X88202925Y-88150760D01*
X88213446Y-88157066D01*
X88223299Y-88164374D01*
X88232388Y-88172612D01*
X88240626Y-88181701D01*
X88247934Y-88191554D01*
X88254240Y-88202075D01*
X88259485Y-88213165D01*
X88263618Y-88224714D01*
X88266598Y-88236614D01*
X88268398Y-88248748D01*
X88269000Y-88261000D01*
X88269000Y-88511000D01*
X88268398Y-88523252D01*
X88266598Y-88535386D01*
X88263618Y-88547286D01*
X88259485Y-88558835D01*
X88254240Y-88569925D01*
X88247934Y-88580446D01*
X88240626Y-88590299D01*
X88232388Y-88599388D01*
X88223299Y-88607626D01*
X88213446Y-88614934D01*
X88202925Y-88621240D01*
X88191835Y-88626485D01*
X88180286Y-88630618D01*
X88168386Y-88633598D01*
X88156252Y-88635398D01*
X88144000Y-88636000D01*
X86894000Y-88636000D01*
X86881748Y-88635398D01*
X86869614Y-88633598D01*
X86857714Y-88630618D01*
X86846165Y-88626485D01*
X86835075Y-88621240D01*
X86824554Y-88614934D01*
X86814701Y-88607626D01*
X86805612Y-88599388D01*
X86797374Y-88590299D01*
X86790066Y-88580446D01*
X86783760Y-88569925D01*
X86778515Y-88558835D01*
X86774382Y-88547286D01*
X86771402Y-88535386D01*
X86769602Y-88523252D01*
X86769000Y-88511000D01*
X86769000Y-88261000D01*
X86769602Y-88248748D01*
X86771402Y-88236614D01*
X86774382Y-88224714D01*
X86778515Y-88213165D01*
X86783760Y-88202075D01*
X86790066Y-88191554D01*
X86797374Y-88181701D01*
X86805612Y-88172612D01*
X86814701Y-88164374D01*
X86824554Y-88157066D01*
X86835075Y-88150760D01*
X86846165Y-88145515D01*
X86857714Y-88141382D01*
X86869614Y-88138402D01*
X86881748Y-88136602D01*
X86894000Y-88136000D01*
X88144000Y-88136000D01*
X88156252Y-88136602D01*
G37*
G36*
X89031252Y-86261602D02*
G01*
X89043386Y-86263402D01*
X89055286Y-86266382D01*
X89066835Y-86270515D01*
X89077925Y-86275760D01*
X89088446Y-86282066D01*
X89098299Y-86289374D01*
X89107388Y-86297612D01*
X89115626Y-86306701D01*
X89122934Y-86316554D01*
X89129240Y-86327075D01*
X89134485Y-86338165D01*
X89138618Y-86349714D01*
X89141598Y-86361614D01*
X89143398Y-86373748D01*
X89144000Y-86386000D01*
X89144000Y-87636000D01*
X89143398Y-87648252D01*
X89141598Y-87660386D01*
X89138618Y-87672286D01*
X89134485Y-87683835D01*
X89129240Y-87694925D01*
X89122934Y-87705446D01*
X89115626Y-87715299D01*
X89107388Y-87724388D01*
X89098299Y-87732626D01*
X89088446Y-87739934D01*
X89077925Y-87746240D01*
X89066835Y-87751485D01*
X89055286Y-87755618D01*
X89043386Y-87758598D01*
X89031252Y-87760398D01*
X89019000Y-87761000D01*
X88769000Y-87761000D01*
X88756748Y-87760398D01*
X88744614Y-87758598D01*
X88732714Y-87755618D01*
X88721165Y-87751485D01*
X88710075Y-87746240D01*
X88699554Y-87739934D01*
X88689701Y-87732626D01*
X88680612Y-87724388D01*
X88672374Y-87715299D01*
X88665066Y-87705446D01*
X88658760Y-87694925D01*
X88653515Y-87683835D01*
X88649382Y-87672286D01*
X88646402Y-87660386D01*
X88644602Y-87648252D01*
X88644000Y-87636000D01*
X88644000Y-86386000D01*
X88644602Y-86373748D01*
X88646402Y-86361614D01*
X88649382Y-86349714D01*
X88653515Y-86338165D01*
X88658760Y-86327075D01*
X88665066Y-86316554D01*
X88672374Y-86306701D01*
X88680612Y-86297612D01*
X88689701Y-86289374D01*
X88699554Y-86282066D01*
X88710075Y-86275760D01*
X88721165Y-86270515D01*
X88732714Y-86266382D01*
X88744614Y-86263402D01*
X88756748Y-86261602D01*
X88769000Y-86261000D01*
X89019000Y-86261000D01*
X89031252Y-86261602D01*
G37*
G36*
X89831252Y-86261602D02*
G01*
X89843386Y-86263402D01*
X89855286Y-86266382D01*
X89866835Y-86270515D01*
X89877925Y-86275760D01*
X89888446Y-86282066D01*
X89898299Y-86289374D01*
X89907388Y-86297612D01*
X89915626Y-86306701D01*
X89922934Y-86316554D01*
X89929240Y-86327075D01*
X89934485Y-86338165D01*
X89938618Y-86349714D01*
X89941598Y-86361614D01*
X89943398Y-86373748D01*
X89944000Y-86386000D01*
X89944000Y-87636000D01*
X89943398Y-87648252D01*
X89941598Y-87660386D01*
X89938618Y-87672286D01*
X89934485Y-87683835D01*
X89929240Y-87694925D01*
X89922934Y-87705446D01*
X89915626Y-87715299D01*
X89907388Y-87724388D01*
X89898299Y-87732626D01*
X89888446Y-87739934D01*
X89877925Y-87746240D01*
X89866835Y-87751485D01*
X89855286Y-87755618D01*
X89843386Y-87758598D01*
X89831252Y-87760398D01*
X89819000Y-87761000D01*
X89569000Y-87761000D01*
X89556748Y-87760398D01*
X89544614Y-87758598D01*
X89532714Y-87755618D01*
X89521165Y-87751485D01*
X89510075Y-87746240D01*
X89499554Y-87739934D01*
X89489701Y-87732626D01*
X89480612Y-87724388D01*
X89472374Y-87715299D01*
X89465066Y-87705446D01*
X89458760Y-87694925D01*
X89453515Y-87683835D01*
X89449382Y-87672286D01*
X89446402Y-87660386D01*
X89444602Y-87648252D01*
X89444000Y-87636000D01*
X89444000Y-86386000D01*
X89444602Y-86373748D01*
X89446402Y-86361614D01*
X89449382Y-86349714D01*
X89453515Y-86338165D01*
X89458760Y-86327075D01*
X89465066Y-86316554D01*
X89472374Y-86306701D01*
X89480612Y-86297612D01*
X89489701Y-86289374D01*
X89499554Y-86282066D01*
X89510075Y-86275760D01*
X89521165Y-86270515D01*
X89532714Y-86266382D01*
X89544614Y-86263402D01*
X89556748Y-86261602D01*
X89569000Y-86261000D01*
X89819000Y-86261000D01*
X89831252Y-86261602D01*
G37*
G36*
X90631252Y-86261602D02*
G01*
X90643386Y-86263402D01*
X90655286Y-86266382D01*
X90666835Y-86270515D01*
X90677925Y-86275760D01*
X90688446Y-86282066D01*
X90698299Y-86289374D01*
X90707388Y-86297612D01*
X90715626Y-86306701D01*
X90722934Y-86316554D01*
X90729240Y-86327075D01*
X90734485Y-86338165D01*
X90738618Y-86349714D01*
X90741598Y-86361614D01*
X90743398Y-86373748D01*
X90744000Y-86386000D01*
X90744000Y-87636000D01*
X90743398Y-87648252D01*
X90741598Y-87660386D01*
X90738618Y-87672286D01*
X90734485Y-87683835D01*
X90729240Y-87694925D01*
X90722934Y-87705446D01*
X90715626Y-87715299D01*
X90707388Y-87724388D01*
X90698299Y-87732626D01*
X90688446Y-87739934D01*
X90677925Y-87746240D01*
X90666835Y-87751485D01*
X90655286Y-87755618D01*
X90643386Y-87758598D01*
X90631252Y-87760398D01*
X90619000Y-87761000D01*
X90369000Y-87761000D01*
X90356748Y-87760398D01*
X90344614Y-87758598D01*
X90332714Y-87755618D01*
X90321165Y-87751485D01*
X90310075Y-87746240D01*
X90299554Y-87739934D01*
X90289701Y-87732626D01*
X90280612Y-87724388D01*
X90272374Y-87715299D01*
X90265066Y-87705446D01*
X90258760Y-87694925D01*
X90253515Y-87683835D01*
X90249382Y-87672286D01*
X90246402Y-87660386D01*
X90244602Y-87648252D01*
X90244000Y-87636000D01*
X90244000Y-86386000D01*
X90244602Y-86373748D01*
X90246402Y-86361614D01*
X90249382Y-86349714D01*
X90253515Y-86338165D01*
X90258760Y-86327075D01*
X90265066Y-86316554D01*
X90272374Y-86306701D01*
X90280612Y-86297612D01*
X90289701Y-86289374D01*
X90299554Y-86282066D01*
X90310075Y-86275760D01*
X90321165Y-86270515D01*
X90332714Y-86266382D01*
X90344614Y-86263402D01*
X90356748Y-86261602D01*
X90369000Y-86261000D01*
X90619000Y-86261000D01*
X90631252Y-86261602D01*
G37*
G36*
X91431252Y-86261602D02*
G01*
X91443386Y-86263402D01*
X91455286Y-86266382D01*
X91466835Y-86270515D01*
X91477925Y-86275760D01*
X91488446Y-86282066D01*
X91498299Y-86289374D01*
X91507388Y-86297612D01*
X91515626Y-86306701D01*
X91522934Y-86316554D01*
X91529240Y-86327075D01*
X91534485Y-86338165D01*
X91538618Y-86349714D01*
X91541598Y-86361614D01*
X91543398Y-86373748D01*
X91544000Y-86386000D01*
X91544000Y-87636000D01*
X91543398Y-87648252D01*
X91541598Y-87660386D01*
X91538618Y-87672286D01*
X91534485Y-87683835D01*
X91529240Y-87694925D01*
X91522934Y-87705446D01*
X91515626Y-87715299D01*
X91507388Y-87724388D01*
X91498299Y-87732626D01*
X91488446Y-87739934D01*
X91477925Y-87746240D01*
X91466835Y-87751485D01*
X91455286Y-87755618D01*
X91443386Y-87758598D01*
X91431252Y-87760398D01*
X91419000Y-87761000D01*
X91169000Y-87761000D01*
X91156748Y-87760398D01*
X91144614Y-87758598D01*
X91132714Y-87755618D01*
X91121165Y-87751485D01*
X91110075Y-87746240D01*
X91099554Y-87739934D01*
X91089701Y-87732626D01*
X91080612Y-87724388D01*
X91072374Y-87715299D01*
X91065066Y-87705446D01*
X91058760Y-87694925D01*
X91053515Y-87683835D01*
X91049382Y-87672286D01*
X91046402Y-87660386D01*
X91044602Y-87648252D01*
X91044000Y-87636000D01*
X91044000Y-86386000D01*
X91044602Y-86373748D01*
X91046402Y-86361614D01*
X91049382Y-86349714D01*
X91053515Y-86338165D01*
X91058760Y-86327075D01*
X91065066Y-86316554D01*
X91072374Y-86306701D01*
X91080612Y-86297612D01*
X91089701Y-86289374D01*
X91099554Y-86282066D01*
X91110075Y-86275760D01*
X91121165Y-86270515D01*
X91132714Y-86266382D01*
X91144614Y-86263402D01*
X91156748Y-86261602D01*
X91169000Y-86261000D01*
X91419000Y-86261000D01*
X91431252Y-86261602D01*
G37*
G36*
X92231252Y-86261602D02*
G01*
X92243386Y-86263402D01*
X92255286Y-86266382D01*
X92266835Y-86270515D01*
X92277925Y-86275760D01*
X92288446Y-86282066D01*
X92298299Y-86289374D01*
X92307388Y-86297612D01*
X92315626Y-86306701D01*
X92322934Y-86316554D01*
X92329240Y-86327075D01*
X92334485Y-86338165D01*
X92338618Y-86349714D01*
X92341598Y-86361614D01*
X92343398Y-86373748D01*
X92344000Y-86386000D01*
X92344000Y-87636000D01*
X92343398Y-87648252D01*
X92341598Y-87660386D01*
X92338618Y-87672286D01*
X92334485Y-87683835D01*
X92329240Y-87694925D01*
X92322934Y-87705446D01*
X92315626Y-87715299D01*
X92307388Y-87724388D01*
X92298299Y-87732626D01*
X92288446Y-87739934D01*
X92277925Y-87746240D01*
X92266835Y-87751485D01*
X92255286Y-87755618D01*
X92243386Y-87758598D01*
X92231252Y-87760398D01*
X92219000Y-87761000D01*
X91969000Y-87761000D01*
X91956748Y-87760398D01*
X91944614Y-87758598D01*
X91932714Y-87755618D01*
X91921165Y-87751485D01*
X91910075Y-87746240D01*
X91899554Y-87739934D01*
X91889701Y-87732626D01*
X91880612Y-87724388D01*
X91872374Y-87715299D01*
X91865066Y-87705446D01*
X91858760Y-87694925D01*
X91853515Y-87683835D01*
X91849382Y-87672286D01*
X91846402Y-87660386D01*
X91844602Y-87648252D01*
X91844000Y-87636000D01*
X91844000Y-86386000D01*
X91844602Y-86373748D01*
X91846402Y-86361614D01*
X91849382Y-86349714D01*
X91853515Y-86338165D01*
X91858760Y-86327075D01*
X91865066Y-86316554D01*
X91872374Y-86306701D01*
X91880612Y-86297612D01*
X91889701Y-86289374D01*
X91899554Y-86282066D01*
X91910075Y-86275760D01*
X91921165Y-86270515D01*
X91932714Y-86266382D01*
X91944614Y-86263402D01*
X91956748Y-86261602D01*
X91969000Y-86261000D01*
X92219000Y-86261000D01*
X92231252Y-86261602D01*
G37*
G36*
X93031252Y-86261602D02*
G01*
X93043386Y-86263402D01*
X93055286Y-86266382D01*
X93066835Y-86270515D01*
X93077925Y-86275760D01*
X93088446Y-86282066D01*
X93098299Y-86289374D01*
X93107388Y-86297612D01*
X93115626Y-86306701D01*
X93122934Y-86316554D01*
X93129240Y-86327075D01*
X93134485Y-86338165D01*
X93138618Y-86349714D01*
X93141598Y-86361614D01*
X93143398Y-86373748D01*
X93144000Y-86386000D01*
X93144000Y-87636000D01*
X93143398Y-87648252D01*
X93141598Y-87660386D01*
X93138618Y-87672286D01*
X93134485Y-87683835D01*
X93129240Y-87694925D01*
X93122934Y-87705446D01*
X93115626Y-87715299D01*
X93107388Y-87724388D01*
X93098299Y-87732626D01*
X93088446Y-87739934D01*
X93077925Y-87746240D01*
X93066835Y-87751485D01*
X93055286Y-87755618D01*
X93043386Y-87758598D01*
X93031252Y-87760398D01*
X93019000Y-87761000D01*
X92769000Y-87761000D01*
X92756748Y-87760398D01*
X92744614Y-87758598D01*
X92732714Y-87755618D01*
X92721165Y-87751485D01*
X92710075Y-87746240D01*
X92699554Y-87739934D01*
X92689701Y-87732626D01*
X92680612Y-87724388D01*
X92672374Y-87715299D01*
X92665066Y-87705446D01*
X92658760Y-87694925D01*
X92653515Y-87683835D01*
X92649382Y-87672286D01*
X92646402Y-87660386D01*
X92644602Y-87648252D01*
X92644000Y-87636000D01*
X92644000Y-86386000D01*
X92644602Y-86373748D01*
X92646402Y-86361614D01*
X92649382Y-86349714D01*
X92653515Y-86338165D01*
X92658760Y-86327075D01*
X92665066Y-86316554D01*
X92672374Y-86306701D01*
X92680612Y-86297612D01*
X92689701Y-86289374D01*
X92699554Y-86282066D01*
X92710075Y-86275760D01*
X92721165Y-86270515D01*
X92732714Y-86266382D01*
X92744614Y-86263402D01*
X92756748Y-86261602D01*
X92769000Y-86261000D01*
X93019000Y-86261000D01*
X93031252Y-86261602D01*
G37*
G36*
X93831252Y-86261602D02*
G01*
X93843386Y-86263402D01*
X93855286Y-86266382D01*
X93866835Y-86270515D01*
X93877925Y-86275760D01*
X93888446Y-86282066D01*
X93898299Y-86289374D01*
X93907388Y-86297612D01*
X93915626Y-86306701D01*
X93922934Y-86316554D01*
X93929240Y-86327075D01*
X93934485Y-86338165D01*
X93938618Y-86349714D01*
X93941598Y-86361614D01*
X93943398Y-86373748D01*
X93944000Y-86386000D01*
X93944000Y-87636000D01*
X93943398Y-87648252D01*
X93941598Y-87660386D01*
X93938618Y-87672286D01*
X93934485Y-87683835D01*
X93929240Y-87694925D01*
X93922934Y-87705446D01*
X93915626Y-87715299D01*
X93907388Y-87724388D01*
X93898299Y-87732626D01*
X93888446Y-87739934D01*
X93877925Y-87746240D01*
X93866835Y-87751485D01*
X93855286Y-87755618D01*
X93843386Y-87758598D01*
X93831252Y-87760398D01*
X93819000Y-87761000D01*
X93569000Y-87761000D01*
X93556748Y-87760398D01*
X93544614Y-87758598D01*
X93532714Y-87755618D01*
X93521165Y-87751485D01*
X93510075Y-87746240D01*
X93499554Y-87739934D01*
X93489701Y-87732626D01*
X93480612Y-87724388D01*
X93472374Y-87715299D01*
X93465066Y-87705446D01*
X93458760Y-87694925D01*
X93453515Y-87683835D01*
X93449382Y-87672286D01*
X93446402Y-87660386D01*
X93444602Y-87648252D01*
X93444000Y-87636000D01*
X93444000Y-86386000D01*
X93444602Y-86373748D01*
X93446402Y-86361614D01*
X93449382Y-86349714D01*
X93453515Y-86338165D01*
X93458760Y-86327075D01*
X93465066Y-86316554D01*
X93472374Y-86306701D01*
X93480612Y-86297612D01*
X93489701Y-86289374D01*
X93499554Y-86282066D01*
X93510075Y-86275760D01*
X93521165Y-86270515D01*
X93532714Y-86266382D01*
X93544614Y-86263402D01*
X93556748Y-86261602D01*
X93569000Y-86261000D01*
X93819000Y-86261000D01*
X93831252Y-86261602D01*
G37*
G36*
X94631252Y-86261602D02*
G01*
X94643386Y-86263402D01*
X94655286Y-86266382D01*
X94666835Y-86270515D01*
X94677925Y-86275760D01*
X94688446Y-86282066D01*
X94698299Y-86289374D01*
X94707388Y-86297612D01*
X94715626Y-86306701D01*
X94722934Y-86316554D01*
X94729240Y-86327075D01*
X94734485Y-86338165D01*
X94738618Y-86349714D01*
X94741598Y-86361614D01*
X94743398Y-86373748D01*
X94744000Y-86386000D01*
X94744000Y-87636000D01*
X94743398Y-87648252D01*
X94741598Y-87660386D01*
X94738618Y-87672286D01*
X94734485Y-87683835D01*
X94729240Y-87694925D01*
X94722934Y-87705446D01*
X94715626Y-87715299D01*
X94707388Y-87724388D01*
X94698299Y-87732626D01*
X94688446Y-87739934D01*
X94677925Y-87746240D01*
X94666835Y-87751485D01*
X94655286Y-87755618D01*
X94643386Y-87758598D01*
X94631252Y-87760398D01*
X94619000Y-87761000D01*
X94369000Y-87761000D01*
X94356748Y-87760398D01*
X94344614Y-87758598D01*
X94332714Y-87755618D01*
X94321165Y-87751485D01*
X94310075Y-87746240D01*
X94299554Y-87739934D01*
X94289701Y-87732626D01*
X94280612Y-87724388D01*
X94272374Y-87715299D01*
X94265066Y-87705446D01*
X94258760Y-87694925D01*
X94253515Y-87683835D01*
X94249382Y-87672286D01*
X94246402Y-87660386D01*
X94244602Y-87648252D01*
X94244000Y-87636000D01*
X94244000Y-86386000D01*
X94244602Y-86373748D01*
X94246402Y-86361614D01*
X94249382Y-86349714D01*
X94253515Y-86338165D01*
X94258760Y-86327075D01*
X94265066Y-86316554D01*
X94272374Y-86306701D01*
X94280612Y-86297612D01*
X94289701Y-86289374D01*
X94299554Y-86282066D01*
X94310075Y-86275760D01*
X94321165Y-86270515D01*
X94332714Y-86266382D01*
X94344614Y-86263402D01*
X94356748Y-86261602D01*
X94369000Y-86261000D01*
X94619000Y-86261000D01*
X94631252Y-86261602D01*
G37*
G36*
X96506252Y-88136602D02*
G01*
X96518386Y-88138402D01*
X96530286Y-88141382D01*
X96541835Y-88145515D01*
X96552925Y-88150760D01*
X96563446Y-88157066D01*
X96573299Y-88164374D01*
X96582388Y-88172612D01*
X96590626Y-88181701D01*
X96597934Y-88191554D01*
X96604240Y-88202075D01*
X96609485Y-88213165D01*
X96613618Y-88224714D01*
X96616598Y-88236614D01*
X96618398Y-88248748D01*
X96619000Y-88261000D01*
X96619000Y-88511000D01*
X96618398Y-88523252D01*
X96616598Y-88535386D01*
X96613618Y-88547286D01*
X96609485Y-88558835D01*
X96604240Y-88569925D01*
X96597934Y-88580446D01*
X96590626Y-88590299D01*
X96582388Y-88599388D01*
X96573299Y-88607626D01*
X96563446Y-88614934D01*
X96552925Y-88621240D01*
X96541835Y-88626485D01*
X96530286Y-88630618D01*
X96518386Y-88633598D01*
X96506252Y-88635398D01*
X96494000Y-88636000D01*
X95244000Y-88636000D01*
X95231748Y-88635398D01*
X95219614Y-88633598D01*
X95207714Y-88630618D01*
X95196165Y-88626485D01*
X95185075Y-88621240D01*
X95174554Y-88614934D01*
X95164701Y-88607626D01*
X95155612Y-88599388D01*
X95147374Y-88590299D01*
X95140066Y-88580446D01*
X95133760Y-88569925D01*
X95128515Y-88558835D01*
X95124382Y-88547286D01*
X95121402Y-88535386D01*
X95119602Y-88523252D01*
X95119000Y-88511000D01*
X95119000Y-88261000D01*
X95119602Y-88248748D01*
X95121402Y-88236614D01*
X95124382Y-88224714D01*
X95128515Y-88213165D01*
X95133760Y-88202075D01*
X95140066Y-88191554D01*
X95147374Y-88181701D01*
X95155612Y-88172612D01*
X95164701Y-88164374D01*
X95174554Y-88157066D01*
X95185075Y-88150760D01*
X95196165Y-88145515D01*
X95207714Y-88141382D01*
X95219614Y-88138402D01*
X95231748Y-88136602D01*
X95244000Y-88136000D01*
X96494000Y-88136000D01*
X96506252Y-88136602D01*
G37*
G36*
X96506252Y-88936602D02*
G01*
X96518386Y-88938402D01*
X96530286Y-88941382D01*
X96541835Y-88945515D01*
X96552925Y-88950760D01*
X96563446Y-88957066D01*
X96573299Y-88964374D01*
X96582388Y-88972612D01*
X96590626Y-88981701D01*
X96597934Y-88991554D01*
X96604240Y-89002075D01*
X96609485Y-89013165D01*
X96613618Y-89024714D01*
X96616598Y-89036614D01*
X96618398Y-89048748D01*
X96619000Y-89061000D01*
X96619000Y-89311000D01*
X96618398Y-89323252D01*
X96616598Y-89335386D01*
X96613618Y-89347286D01*
X96609485Y-89358835D01*
X96604240Y-89369925D01*
X96597934Y-89380446D01*
X96590626Y-89390299D01*
X96582388Y-89399388D01*
X96573299Y-89407626D01*
X96563446Y-89414934D01*
X96552925Y-89421240D01*
X96541835Y-89426485D01*
X96530286Y-89430618D01*
X96518386Y-89433598D01*
X96506252Y-89435398D01*
X96494000Y-89436000D01*
X95244000Y-89436000D01*
X95231748Y-89435398D01*
X95219614Y-89433598D01*
X95207714Y-89430618D01*
X95196165Y-89426485D01*
X95185075Y-89421240D01*
X95174554Y-89414934D01*
X95164701Y-89407626D01*
X95155612Y-89399388D01*
X95147374Y-89390299D01*
X95140066Y-89380446D01*
X95133760Y-89369925D01*
X95128515Y-89358835D01*
X95124382Y-89347286D01*
X95121402Y-89335386D01*
X95119602Y-89323252D01*
X95119000Y-89311000D01*
X95119000Y-89061000D01*
X95119602Y-89048748D01*
X95121402Y-89036614D01*
X95124382Y-89024714D01*
X95128515Y-89013165D01*
X95133760Y-89002075D01*
X95140066Y-88991554D01*
X95147374Y-88981701D01*
X95155612Y-88972612D01*
X95164701Y-88964374D01*
X95174554Y-88957066D01*
X95185075Y-88950760D01*
X95196165Y-88945515D01*
X95207714Y-88941382D01*
X95219614Y-88938402D01*
X95231748Y-88936602D01*
X95244000Y-88936000D01*
X96494000Y-88936000D01*
X96506252Y-88936602D01*
G37*
G36*
X96506252Y-89736602D02*
G01*
X96518386Y-89738402D01*
X96530286Y-89741382D01*
X96541835Y-89745515D01*
X96552925Y-89750760D01*
X96563446Y-89757066D01*
X96573299Y-89764374D01*
X96582388Y-89772612D01*
X96590626Y-89781701D01*
X96597934Y-89791554D01*
X96604240Y-89802075D01*
X96609485Y-89813165D01*
X96613618Y-89824714D01*
X96616598Y-89836614D01*
X96618398Y-89848748D01*
X96619000Y-89861000D01*
X96619000Y-90111000D01*
X96618398Y-90123252D01*
X96616598Y-90135386D01*
X96613618Y-90147286D01*
X96609485Y-90158835D01*
X96604240Y-90169925D01*
X96597934Y-90180446D01*
X96590626Y-90190299D01*
X96582388Y-90199388D01*
X96573299Y-90207626D01*
X96563446Y-90214934D01*
X96552925Y-90221240D01*
X96541835Y-90226485D01*
X96530286Y-90230618D01*
X96518386Y-90233598D01*
X96506252Y-90235398D01*
X96494000Y-90236000D01*
X95244000Y-90236000D01*
X95231748Y-90235398D01*
X95219614Y-90233598D01*
X95207714Y-90230618D01*
X95196165Y-90226485D01*
X95185075Y-90221240D01*
X95174554Y-90214934D01*
X95164701Y-90207626D01*
X95155612Y-90199388D01*
X95147374Y-90190299D01*
X95140066Y-90180446D01*
X95133760Y-90169925D01*
X95128515Y-90158835D01*
X95124382Y-90147286D01*
X95121402Y-90135386D01*
X95119602Y-90123252D01*
X95119000Y-90111000D01*
X95119000Y-89861000D01*
X95119602Y-89848748D01*
X95121402Y-89836614D01*
X95124382Y-89824714D01*
X95128515Y-89813165D01*
X95133760Y-89802075D01*
X95140066Y-89791554D01*
X95147374Y-89781701D01*
X95155612Y-89772612D01*
X95164701Y-89764374D01*
X95174554Y-89757066D01*
X95185075Y-89750760D01*
X95196165Y-89745515D01*
X95207714Y-89741382D01*
X95219614Y-89738402D01*
X95231748Y-89736602D01*
X95244000Y-89736000D01*
X96494000Y-89736000D01*
X96506252Y-89736602D01*
G37*
G36*
X96506252Y-90536602D02*
G01*
X96518386Y-90538402D01*
X96530286Y-90541382D01*
X96541835Y-90545515D01*
X96552925Y-90550760D01*
X96563446Y-90557066D01*
X96573299Y-90564374D01*
X96582388Y-90572612D01*
X96590626Y-90581701D01*
X96597934Y-90591554D01*
X96604240Y-90602075D01*
X96609485Y-90613165D01*
X96613618Y-90624714D01*
X96616598Y-90636614D01*
X96618398Y-90648748D01*
X96619000Y-90661000D01*
X96619000Y-90911000D01*
X96618398Y-90923252D01*
X96616598Y-90935386D01*
X96613618Y-90947286D01*
X96609485Y-90958835D01*
X96604240Y-90969925D01*
X96597934Y-90980446D01*
X96590626Y-90990299D01*
X96582388Y-90999388D01*
X96573299Y-91007626D01*
X96563446Y-91014934D01*
X96552925Y-91021240D01*
X96541835Y-91026485D01*
X96530286Y-91030618D01*
X96518386Y-91033598D01*
X96506252Y-91035398D01*
X96494000Y-91036000D01*
X95244000Y-91036000D01*
X95231748Y-91035398D01*
X95219614Y-91033598D01*
X95207714Y-91030618D01*
X95196165Y-91026485D01*
X95185075Y-91021240D01*
X95174554Y-91014934D01*
X95164701Y-91007626D01*
X95155612Y-90999388D01*
X95147374Y-90990299D01*
X95140066Y-90980446D01*
X95133760Y-90969925D01*
X95128515Y-90958835D01*
X95124382Y-90947286D01*
X95121402Y-90935386D01*
X95119602Y-90923252D01*
X95119000Y-90911000D01*
X95119000Y-90661000D01*
X95119602Y-90648748D01*
X95121402Y-90636614D01*
X95124382Y-90624714D01*
X95128515Y-90613165D01*
X95133760Y-90602075D01*
X95140066Y-90591554D01*
X95147374Y-90581701D01*
X95155612Y-90572612D01*
X95164701Y-90564374D01*
X95174554Y-90557066D01*
X95185075Y-90550760D01*
X95196165Y-90545515D01*
X95207714Y-90541382D01*
X95219614Y-90538402D01*
X95231748Y-90536602D01*
X95244000Y-90536000D01*
X96494000Y-90536000D01*
X96506252Y-90536602D01*
G37*
G36*
X96506252Y-91336602D02*
G01*
X96518386Y-91338402D01*
X96530286Y-91341382D01*
X96541835Y-91345515D01*
X96552925Y-91350760D01*
X96563446Y-91357066D01*
X96573299Y-91364374D01*
X96582388Y-91372612D01*
X96590626Y-91381701D01*
X96597934Y-91391554D01*
X96604240Y-91402075D01*
X96609485Y-91413165D01*
X96613618Y-91424714D01*
X96616598Y-91436614D01*
X96618398Y-91448748D01*
X96619000Y-91461000D01*
X96619000Y-91711000D01*
X96618398Y-91723252D01*
X96616598Y-91735386D01*
X96613618Y-91747286D01*
X96609485Y-91758835D01*
X96604240Y-91769925D01*
X96597934Y-91780446D01*
X96590626Y-91790299D01*
X96582388Y-91799388D01*
X96573299Y-91807626D01*
X96563446Y-91814934D01*
X96552925Y-91821240D01*
X96541835Y-91826485D01*
X96530286Y-91830618D01*
X96518386Y-91833598D01*
X96506252Y-91835398D01*
X96494000Y-91836000D01*
X95244000Y-91836000D01*
X95231748Y-91835398D01*
X95219614Y-91833598D01*
X95207714Y-91830618D01*
X95196165Y-91826485D01*
X95185075Y-91821240D01*
X95174554Y-91814934D01*
X95164701Y-91807626D01*
X95155612Y-91799388D01*
X95147374Y-91790299D01*
X95140066Y-91780446D01*
X95133760Y-91769925D01*
X95128515Y-91758835D01*
X95124382Y-91747286D01*
X95121402Y-91735386D01*
X95119602Y-91723252D01*
X95119000Y-91711000D01*
X95119000Y-91461000D01*
X95119602Y-91448748D01*
X95121402Y-91436614D01*
X95124382Y-91424714D01*
X95128515Y-91413165D01*
X95133760Y-91402075D01*
X95140066Y-91391554D01*
X95147374Y-91381701D01*
X95155612Y-91372612D01*
X95164701Y-91364374D01*
X95174554Y-91357066D01*
X95185075Y-91350760D01*
X95196165Y-91345515D01*
X95207714Y-91341382D01*
X95219614Y-91338402D01*
X95231748Y-91336602D01*
X95244000Y-91336000D01*
X96494000Y-91336000D01*
X96506252Y-91336602D01*
G37*
G36*
X96506252Y-92136602D02*
G01*
X96518386Y-92138402D01*
X96530286Y-92141382D01*
X96541835Y-92145515D01*
X96552925Y-92150760D01*
X96563446Y-92157066D01*
X96573299Y-92164374D01*
X96582388Y-92172612D01*
X96590626Y-92181701D01*
X96597934Y-92191554D01*
X96604240Y-92202075D01*
X96609485Y-92213165D01*
X96613618Y-92224714D01*
X96616598Y-92236614D01*
X96618398Y-92248748D01*
X96619000Y-92261000D01*
X96619000Y-92511000D01*
X96618398Y-92523252D01*
X96616598Y-92535386D01*
X96613618Y-92547286D01*
X96609485Y-92558835D01*
X96604240Y-92569925D01*
X96597934Y-92580446D01*
X96590626Y-92590299D01*
X96582388Y-92599388D01*
X96573299Y-92607626D01*
X96563446Y-92614934D01*
X96552925Y-92621240D01*
X96541835Y-92626485D01*
X96530286Y-92630618D01*
X96518386Y-92633598D01*
X96506252Y-92635398D01*
X96494000Y-92636000D01*
X95244000Y-92636000D01*
X95231748Y-92635398D01*
X95219614Y-92633598D01*
X95207714Y-92630618D01*
X95196165Y-92626485D01*
X95185075Y-92621240D01*
X95174554Y-92614934D01*
X95164701Y-92607626D01*
X95155612Y-92599388D01*
X95147374Y-92590299D01*
X95140066Y-92580446D01*
X95133760Y-92569925D01*
X95128515Y-92558835D01*
X95124382Y-92547286D01*
X95121402Y-92535386D01*
X95119602Y-92523252D01*
X95119000Y-92511000D01*
X95119000Y-92261000D01*
X95119602Y-92248748D01*
X95121402Y-92236614D01*
X95124382Y-92224714D01*
X95128515Y-92213165D01*
X95133760Y-92202075D01*
X95140066Y-92191554D01*
X95147374Y-92181701D01*
X95155612Y-92172612D01*
X95164701Y-92164374D01*
X95174554Y-92157066D01*
X95185075Y-92150760D01*
X95196165Y-92145515D01*
X95207714Y-92141382D01*
X95219614Y-92138402D01*
X95231748Y-92136602D01*
X95244000Y-92136000D01*
X96494000Y-92136000D01*
X96506252Y-92136602D01*
G37*
G36*
X96506252Y-92936602D02*
G01*
X96518386Y-92938402D01*
X96530286Y-92941382D01*
X96541835Y-92945515D01*
X96552925Y-92950760D01*
X96563446Y-92957066D01*
X96573299Y-92964374D01*
X96582388Y-92972612D01*
X96590626Y-92981701D01*
X96597934Y-92991554D01*
X96604240Y-93002075D01*
X96609485Y-93013165D01*
X96613618Y-93024714D01*
X96616598Y-93036614D01*
X96618398Y-93048748D01*
X96619000Y-93061000D01*
X96619000Y-93311000D01*
X96618398Y-93323252D01*
X96616598Y-93335386D01*
X96613618Y-93347286D01*
X96609485Y-93358835D01*
X96604240Y-93369925D01*
X96597934Y-93380446D01*
X96590626Y-93390299D01*
X96582388Y-93399388D01*
X96573299Y-93407626D01*
X96563446Y-93414934D01*
X96552925Y-93421240D01*
X96541835Y-93426485D01*
X96530286Y-93430618D01*
X96518386Y-93433598D01*
X96506252Y-93435398D01*
X96494000Y-93436000D01*
X95244000Y-93436000D01*
X95231748Y-93435398D01*
X95219614Y-93433598D01*
X95207714Y-93430618D01*
X95196165Y-93426485D01*
X95185075Y-93421240D01*
X95174554Y-93414934D01*
X95164701Y-93407626D01*
X95155612Y-93399388D01*
X95147374Y-93390299D01*
X95140066Y-93380446D01*
X95133760Y-93369925D01*
X95128515Y-93358835D01*
X95124382Y-93347286D01*
X95121402Y-93335386D01*
X95119602Y-93323252D01*
X95119000Y-93311000D01*
X95119000Y-93061000D01*
X95119602Y-93048748D01*
X95121402Y-93036614D01*
X95124382Y-93024714D01*
X95128515Y-93013165D01*
X95133760Y-93002075D01*
X95140066Y-92991554D01*
X95147374Y-92981701D01*
X95155612Y-92972612D01*
X95164701Y-92964374D01*
X95174554Y-92957066D01*
X95185075Y-92950760D01*
X95196165Y-92945515D01*
X95207714Y-92941382D01*
X95219614Y-92938402D01*
X95231748Y-92936602D01*
X95244000Y-92936000D01*
X96494000Y-92936000D01*
X96506252Y-92936602D01*
G37*
G36*
X96506252Y-93736602D02*
G01*
X96518386Y-93738402D01*
X96530286Y-93741382D01*
X96541835Y-93745515D01*
X96552925Y-93750760D01*
X96563446Y-93757066D01*
X96573299Y-93764374D01*
X96582388Y-93772612D01*
X96590626Y-93781701D01*
X96597934Y-93791554D01*
X96604240Y-93802075D01*
X96609485Y-93813165D01*
X96613618Y-93824714D01*
X96616598Y-93836614D01*
X96618398Y-93848748D01*
X96619000Y-93861000D01*
X96619000Y-94111000D01*
X96618398Y-94123252D01*
X96616598Y-94135386D01*
X96613618Y-94147286D01*
X96609485Y-94158835D01*
X96604240Y-94169925D01*
X96597934Y-94180446D01*
X96590626Y-94190299D01*
X96582388Y-94199388D01*
X96573299Y-94207626D01*
X96563446Y-94214934D01*
X96552925Y-94221240D01*
X96541835Y-94226485D01*
X96530286Y-94230618D01*
X96518386Y-94233598D01*
X96506252Y-94235398D01*
X96494000Y-94236000D01*
X95244000Y-94236000D01*
X95231748Y-94235398D01*
X95219614Y-94233598D01*
X95207714Y-94230618D01*
X95196165Y-94226485D01*
X95185075Y-94221240D01*
X95174554Y-94214934D01*
X95164701Y-94207626D01*
X95155612Y-94199388D01*
X95147374Y-94190299D01*
X95140066Y-94180446D01*
X95133760Y-94169925D01*
X95128515Y-94158835D01*
X95124382Y-94147286D01*
X95121402Y-94135386D01*
X95119602Y-94123252D01*
X95119000Y-94111000D01*
X95119000Y-93861000D01*
X95119602Y-93848748D01*
X95121402Y-93836614D01*
X95124382Y-93824714D01*
X95128515Y-93813165D01*
X95133760Y-93802075D01*
X95140066Y-93791554D01*
X95147374Y-93781701D01*
X95155612Y-93772612D01*
X95164701Y-93764374D01*
X95174554Y-93757066D01*
X95185075Y-93750760D01*
X95196165Y-93745515D01*
X95207714Y-93741382D01*
X95219614Y-93738402D01*
X95231748Y-93736602D01*
X95244000Y-93736000D01*
X96494000Y-93736000D01*
X96506252Y-93736602D01*
G37*
G36*
X94631252Y-94611602D02*
G01*
X94643386Y-94613402D01*
X94655286Y-94616382D01*
X94666835Y-94620515D01*
X94677925Y-94625760D01*
X94688446Y-94632066D01*
X94698299Y-94639374D01*
X94707388Y-94647612D01*
X94715626Y-94656701D01*
X94722934Y-94666554D01*
X94729240Y-94677075D01*
X94734485Y-94688165D01*
X94738618Y-94699714D01*
X94741598Y-94711614D01*
X94743398Y-94723748D01*
X94744000Y-94736000D01*
X94744000Y-95986000D01*
X94743398Y-95998252D01*
X94741598Y-96010386D01*
X94738618Y-96022286D01*
X94734485Y-96033835D01*
X94729240Y-96044925D01*
X94722934Y-96055446D01*
X94715626Y-96065299D01*
X94707388Y-96074388D01*
X94698299Y-96082626D01*
X94688446Y-96089934D01*
X94677925Y-96096240D01*
X94666835Y-96101485D01*
X94655286Y-96105618D01*
X94643386Y-96108598D01*
X94631252Y-96110398D01*
X94619000Y-96111000D01*
X94369000Y-96111000D01*
X94356748Y-96110398D01*
X94344614Y-96108598D01*
X94332714Y-96105618D01*
X94321165Y-96101485D01*
X94310075Y-96096240D01*
X94299554Y-96089934D01*
X94289701Y-96082626D01*
X94280612Y-96074388D01*
X94272374Y-96065299D01*
X94265066Y-96055446D01*
X94258760Y-96044925D01*
X94253515Y-96033835D01*
X94249382Y-96022286D01*
X94246402Y-96010386D01*
X94244602Y-95998252D01*
X94244000Y-95986000D01*
X94244000Y-94736000D01*
X94244602Y-94723748D01*
X94246402Y-94711614D01*
X94249382Y-94699714D01*
X94253515Y-94688165D01*
X94258760Y-94677075D01*
X94265066Y-94666554D01*
X94272374Y-94656701D01*
X94280612Y-94647612D01*
X94289701Y-94639374D01*
X94299554Y-94632066D01*
X94310075Y-94625760D01*
X94321165Y-94620515D01*
X94332714Y-94616382D01*
X94344614Y-94613402D01*
X94356748Y-94611602D01*
X94369000Y-94611000D01*
X94619000Y-94611000D01*
X94631252Y-94611602D01*
G37*
G36*
X93831252Y-94611602D02*
G01*
X93843386Y-94613402D01*
X93855286Y-94616382D01*
X93866835Y-94620515D01*
X93877925Y-94625760D01*
X93888446Y-94632066D01*
X93898299Y-94639374D01*
X93907388Y-94647612D01*
X93915626Y-94656701D01*
X93922934Y-94666554D01*
X93929240Y-94677075D01*
X93934485Y-94688165D01*
X93938618Y-94699714D01*
X93941598Y-94711614D01*
X93943398Y-94723748D01*
X93944000Y-94736000D01*
X93944000Y-95986000D01*
X93943398Y-95998252D01*
X93941598Y-96010386D01*
X93938618Y-96022286D01*
X93934485Y-96033835D01*
X93929240Y-96044925D01*
X93922934Y-96055446D01*
X93915626Y-96065299D01*
X93907388Y-96074388D01*
X93898299Y-96082626D01*
X93888446Y-96089934D01*
X93877925Y-96096240D01*
X93866835Y-96101485D01*
X93855286Y-96105618D01*
X93843386Y-96108598D01*
X93831252Y-96110398D01*
X93819000Y-96111000D01*
X93569000Y-96111000D01*
X93556748Y-96110398D01*
X93544614Y-96108598D01*
X93532714Y-96105618D01*
X93521165Y-96101485D01*
X93510075Y-96096240D01*
X93499554Y-96089934D01*
X93489701Y-96082626D01*
X93480612Y-96074388D01*
X93472374Y-96065299D01*
X93465066Y-96055446D01*
X93458760Y-96044925D01*
X93453515Y-96033835D01*
X93449382Y-96022286D01*
X93446402Y-96010386D01*
X93444602Y-95998252D01*
X93444000Y-95986000D01*
X93444000Y-94736000D01*
X93444602Y-94723748D01*
X93446402Y-94711614D01*
X93449382Y-94699714D01*
X93453515Y-94688165D01*
X93458760Y-94677075D01*
X93465066Y-94666554D01*
X93472374Y-94656701D01*
X93480612Y-94647612D01*
X93489701Y-94639374D01*
X93499554Y-94632066D01*
X93510075Y-94625760D01*
X93521165Y-94620515D01*
X93532714Y-94616382D01*
X93544614Y-94613402D01*
X93556748Y-94611602D01*
X93569000Y-94611000D01*
X93819000Y-94611000D01*
X93831252Y-94611602D01*
G37*
G36*
X93031252Y-94611602D02*
G01*
X93043386Y-94613402D01*
X93055286Y-94616382D01*
X93066835Y-94620515D01*
X93077925Y-94625760D01*
X93088446Y-94632066D01*
X93098299Y-94639374D01*
X93107388Y-94647612D01*
X93115626Y-94656701D01*
X93122934Y-94666554D01*
X93129240Y-94677075D01*
X93134485Y-94688165D01*
X93138618Y-94699714D01*
X93141598Y-94711614D01*
X93143398Y-94723748D01*
X93144000Y-94736000D01*
X93144000Y-95986000D01*
X93143398Y-95998252D01*
X93141598Y-96010386D01*
X93138618Y-96022286D01*
X93134485Y-96033835D01*
X93129240Y-96044925D01*
X93122934Y-96055446D01*
X93115626Y-96065299D01*
X93107388Y-96074388D01*
X93098299Y-96082626D01*
X93088446Y-96089934D01*
X93077925Y-96096240D01*
X93066835Y-96101485D01*
X93055286Y-96105618D01*
X93043386Y-96108598D01*
X93031252Y-96110398D01*
X93019000Y-96111000D01*
X92769000Y-96111000D01*
X92756748Y-96110398D01*
X92744614Y-96108598D01*
X92732714Y-96105618D01*
X92721165Y-96101485D01*
X92710075Y-96096240D01*
X92699554Y-96089934D01*
X92689701Y-96082626D01*
X92680612Y-96074388D01*
X92672374Y-96065299D01*
X92665066Y-96055446D01*
X92658760Y-96044925D01*
X92653515Y-96033835D01*
X92649382Y-96022286D01*
X92646402Y-96010386D01*
X92644602Y-95998252D01*
X92644000Y-95986000D01*
X92644000Y-94736000D01*
X92644602Y-94723748D01*
X92646402Y-94711614D01*
X92649382Y-94699714D01*
X92653515Y-94688165D01*
X92658760Y-94677075D01*
X92665066Y-94666554D01*
X92672374Y-94656701D01*
X92680612Y-94647612D01*
X92689701Y-94639374D01*
X92699554Y-94632066D01*
X92710075Y-94625760D01*
X92721165Y-94620515D01*
X92732714Y-94616382D01*
X92744614Y-94613402D01*
X92756748Y-94611602D01*
X92769000Y-94611000D01*
X93019000Y-94611000D01*
X93031252Y-94611602D01*
G37*
G36*
X92231252Y-94611602D02*
G01*
X92243386Y-94613402D01*
X92255286Y-94616382D01*
X92266835Y-94620515D01*
X92277925Y-94625760D01*
X92288446Y-94632066D01*
X92298299Y-94639374D01*
X92307388Y-94647612D01*
X92315626Y-94656701D01*
X92322934Y-94666554D01*
X92329240Y-94677075D01*
X92334485Y-94688165D01*
X92338618Y-94699714D01*
X92341598Y-94711614D01*
X92343398Y-94723748D01*
X92344000Y-94736000D01*
X92344000Y-95986000D01*
X92343398Y-95998252D01*
X92341598Y-96010386D01*
X92338618Y-96022286D01*
X92334485Y-96033835D01*
X92329240Y-96044925D01*
X92322934Y-96055446D01*
X92315626Y-96065299D01*
X92307388Y-96074388D01*
X92298299Y-96082626D01*
X92288446Y-96089934D01*
X92277925Y-96096240D01*
X92266835Y-96101485D01*
X92255286Y-96105618D01*
X92243386Y-96108598D01*
X92231252Y-96110398D01*
X92219000Y-96111000D01*
X91969000Y-96111000D01*
X91956748Y-96110398D01*
X91944614Y-96108598D01*
X91932714Y-96105618D01*
X91921165Y-96101485D01*
X91910075Y-96096240D01*
X91899554Y-96089934D01*
X91889701Y-96082626D01*
X91880612Y-96074388D01*
X91872374Y-96065299D01*
X91865066Y-96055446D01*
X91858760Y-96044925D01*
X91853515Y-96033835D01*
X91849382Y-96022286D01*
X91846402Y-96010386D01*
X91844602Y-95998252D01*
X91844000Y-95986000D01*
X91844000Y-94736000D01*
X91844602Y-94723748D01*
X91846402Y-94711614D01*
X91849382Y-94699714D01*
X91853515Y-94688165D01*
X91858760Y-94677075D01*
X91865066Y-94666554D01*
X91872374Y-94656701D01*
X91880612Y-94647612D01*
X91889701Y-94639374D01*
X91899554Y-94632066D01*
X91910075Y-94625760D01*
X91921165Y-94620515D01*
X91932714Y-94616382D01*
X91944614Y-94613402D01*
X91956748Y-94611602D01*
X91969000Y-94611000D01*
X92219000Y-94611000D01*
X92231252Y-94611602D01*
G37*
G36*
X91431252Y-94611602D02*
G01*
X91443386Y-94613402D01*
X91455286Y-94616382D01*
X91466835Y-94620515D01*
X91477925Y-94625760D01*
X91488446Y-94632066D01*
X91498299Y-94639374D01*
X91507388Y-94647612D01*
X91515626Y-94656701D01*
X91522934Y-94666554D01*
X91529240Y-94677075D01*
X91534485Y-94688165D01*
X91538618Y-94699714D01*
X91541598Y-94711614D01*
X91543398Y-94723748D01*
X91544000Y-94736000D01*
X91544000Y-95986000D01*
X91543398Y-95998252D01*
X91541598Y-96010386D01*
X91538618Y-96022286D01*
X91534485Y-96033835D01*
X91529240Y-96044925D01*
X91522934Y-96055446D01*
X91515626Y-96065299D01*
X91507388Y-96074388D01*
X91498299Y-96082626D01*
X91488446Y-96089934D01*
X91477925Y-96096240D01*
X91466835Y-96101485D01*
X91455286Y-96105618D01*
X91443386Y-96108598D01*
X91431252Y-96110398D01*
X91419000Y-96111000D01*
X91169000Y-96111000D01*
X91156748Y-96110398D01*
X91144614Y-96108598D01*
X91132714Y-96105618D01*
X91121165Y-96101485D01*
X91110075Y-96096240D01*
X91099554Y-96089934D01*
X91089701Y-96082626D01*
X91080612Y-96074388D01*
X91072374Y-96065299D01*
X91065066Y-96055446D01*
X91058760Y-96044925D01*
X91053515Y-96033835D01*
X91049382Y-96022286D01*
X91046402Y-96010386D01*
X91044602Y-95998252D01*
X91044000Y-95986000D01*
X91044000Y-94736000D01*
X91044602Y-94723748D01*
X91046402Y-94711614D01*
X91049382Y-94699714D01*
X91053515Y-94688165D01*
X91058760Y-94677075D01*
X91065066Y-94666554D01*
X91072374Y-94656701D01*
X91080612Y-94647612D01*
X91089701Y-94639374D01*
X91099554Y-94632066D01*
X91110075Y-94625760D01*
X91121165Y-94620515D01*
X91132714Y-94616382D01*
X91144614Y-94613402D01*
X91156748Y-94611602D01*
X91169000Y-94611000D01*
X91419000Y-94611000D01*
X91431252Y-94611602D01*
G37*
G36*
X90631252Y-94611602D02*
G01*
X90643386Y-94613402D01*
X90655286Y-94616382D01*
X90666835Y-94620515D01*
X90677925Y-94625760D01*
X90688446Y-94632066D01*
X90698299Y-94639374D01*
X90707388Y-94647612D01*
X90715626Y-94656701D01*
X90722934Y-94666554D01*
X90729240Y-94677075D01*
X90734485Y-94688165D01*
X90738618Y-94699714D01*
X90741598Y-94711614D01*
X90743398Y-94723748D01*
X90744000Y-94736000D01*
X90744000Y-95986000D01*
X90743398Y-95998252D01*
X90741598Y-96010386D01*
X90738618Y-96022286D01*
X90734485Y-96033835D01*
X90729240Y-96044925D01*
X90722934Y-96055446D01*
X90715626Y-96065299D01*
X90707388Y-96074388D01*
X90698299Y-96082626D01*
X90688446Y-96089934D01*
X90677925Y-96096240D01*
X90666835Y-96101485D01*
X90655286Y-96105618D01*
X90643386Y-96108598D01*
X90631252Y-96110398D01*
X90619000Y-96111000D01*
X90369000Y-96111000D01*
X90356748Y-96110398D01*
X90344614Y-96108598D01*
X90332714Y-96105618D01*
X90321165Y-96101485D01*
X90310075Y-96096240D01*
X90299554Y-96089934D01*
X90289701Y-96082626D01*
X90280612Y-96074388D01*
X90272374Y-96065299D01*
X90265066Y-96055446D01*
X90258760Y-96044925D01*
X90253515Y-96033835D01*
X90249382Y-96022286D01*
X90246402Y-96010386D01*
X90244602Y-95998252D01*
X90244000Y-95986000D01*
X90244000Y-94736000D01*
X90244602Y-94723748D01*
X90246402Y-94711614D01*
X90249382Y-94699714D01*
X90253515Y-94688165D01*
X90258760Y-94677075D01*
X90265066Y-94666554D01*
X90272374Y-94656701D01*
X90280612Y-94647612D01*
X90289701Y-94639374D01*
X90299554Y-94632066D01*
X90310075Y-94625760D01*
X90321165Y-94620515D01*
X90332714Y-94616382D01*
X90344614Y-94613402D01*
X90356748Y-94611602D01*
X90369000Y-94611000D01*
X90619000Y-94611000D01*
X90631252Y-94611602D01*
G37*
G36*
X89831252Y-94611602D02*
G01*
X89843386Y-94613402D01*
X89855286Y-94616382D01*
X89866835Y-94620515D01*
X89877925Y-94625760D01*
X89888446Y-94632066D01*
X89898299Y-94639374D01*
X89907388Y-94647612D01*
X89915626Y-94656701D01*
X89922934Y-94666554D01*
X89929240Y-94677075D01*
X89934485Y-94688165D01*
X89938618Y-94699714D01*
X89941598Y-94711614D01*
X89943398Y-94723748D01*
X89944000Y-94736000D01*
X89944000Y-95986000D01*
X89943398Y-95998252D01*
X89941598Y-96010386D01*
X89938618Y-96022286D01*
X89934485Y-96033835D01*
X89929240Y-96044925D01*
X89922934Y-96055446D01*
X89915626Y-96065299D01*
X89907388Y-96074388D01*
X89898299Y-96082626D01*
X89888446Y-96089934D01*
X89877925Y-96096240D01*
X89866835Y-96101485D01*
X89855286Y-96105618D01*
X89843386Y-96108598D01*
X89831252Y-96110398D01*
X89819000Y-96111000D01*
X89569000Y-96111000D01*
X89556748Y-96110398D01*
X89544614Y-96108598D01*
X89532714Y-96105618D01*
X89521165Y-96101485D01*
X89510075Y-96096240D01*
X89499554Y-96089934D01*
X89489701Y-96082626D01*
X89480612Y-96074388D01*
X89472374Y-96065299D01*
X89465066Y-96055446D01*
X89458760Y-96044925D01*
X89453515Y-96033835D01*
X89449382Y-96022286D01*
X89446402Y-96010386D01*
X89444602Y-95998252D01*
X89444000Y-95986000D01*
X89444000Y-94736000D01*
X89444602Y-94723748D01*
X89446402Y-94711614D01*
X89449382Y-94699714D01*
X89453515Y-94688165D01*
X89458760Y-94677075D01*
X89465066Y-94666554D01*
X89472374Y-94656701D01*
X89480612Y-94647612D01*
X89489701Y-94639374D01*
X89499554Y-94632066D01*
X89510075Y-94625760D01*
X89521165Y-94620515D01*
X89532714Y-94616382D01*
X89544614Y-94613402D01*
X89556748Y-94611602D01*
X89569000Y-94611000D01*
X89819000Y-94611000D01*
X89831252Y-94611602D01*
G37*
G36*
X89031252Y-94611602D02*
G01*
X89043386Y-94613402D01*
X89055286Y-94616382D01*
X89066835Y-94620515D01*
X89077925Y-94625760D01*
X89088446Y-94632066D01*
X89098299Y-94639374D01*
X89107388Y-94647612D01*
X89115626Y-94656701D01*
X89122934Y-94666554D01*
X89129240Y-94677075D01*
X89134485Y-94688165D01*
X89138618Y-94699714D01*
X89141598Y-94711614D01*
X89143398Y-94723748D01*
X89144000Y-94736000D01*
X89144000Y-95986000D01*
X89143398Y-95998252D01*
X89141598Y-96010386D01*
X89138618Y-96022286D01*
X89134485Y-96033835D01*
X89129240Y-96044925D01*
X89122934Y-96055446D01*
X89115626Y-96065299D01*
X89107388Y-96074388D01*
X89098299Y-96082626D01*
X89088446Y-96089934D01*
X89077925Y-96096240D01*
X89066835Y-96101485D01*
X89055286Y-96105618D01*
X89043386Y-96108598D01*
X89031252Y-96110398D01*
X89019000Y-96111000D01*
X88769000Y-96111000D01*
X88756748Y-96110398D01*
X88744614Y-96108598D01*
X88732714Y-96105618D01*
X88721165Y-96101485D01*
X88710075Y-96096240D01*
X88699554Y-96089934D01*
X88689701Y-96082626D01*
X88680612Y-96074388D01*
X88672374Y-96065299D01*
X88665066Y-96055446D01*
X88658760Y-96044925D01*
X88653515Y-96033835D01*
X88649382Y-96022286D01*
X88646402Y-96010386D01*
X88644602Y-95998252D01*
X88644000Y-95986000D01*
X88644000Y-94736000D01*
X88644602Y-94723748D01*
X88646402Y-94711614D01*
X88649382Y-94699714D01*
X88653515Y-94688165D01*
X88658760Y-94677075D01*
X88665066Y-94666554D01*
X88672374Y-94656701D01*
X88680612Y-94647612D01*
X88689701Y-94639374D01*
X88699554Y-94632066D01*
X88710075Y-94625760D01*
X88721165Y-94620515D01*
X88732714Y-94616382D01*
X88744614Y-94613402D01*
X88756748Y-94611602D01*
X88769000Y-94611000D01*
X89019000Y-94611000D01*
X89031252Y-94611602D01*
G37*
G36*
X88872142Y-69793174D02*
G01*
X88895803Y-69796684D01*
X88919007Y-69802496D01*
X88941529Y-69810554D01*
X88963153Y-69820782D01*
X88983670Y-69833079D01*
X89002883Y-69847329D01*
X89020607Y-69863393D01*
X89036671Y-69881117D01*
X89050921Y-69900330D01*
X89063218Y-69920847D01*
X89073446Y-69942471D01*
X89081504Y-69964993D01*
X89087316Y-69988197D01*
X89090826Y-70011858D01*
X89092000Y-70035750D01*
X89092000Y-70523250D01*
X89090826Y-70547142D01*
X89087316Y-70570803D01*
X89081504Y-70594007D01*
X89073446Y-70616529D01*
X89063218Y-70638153D01*
X89050921Y-70658670D01*
X89036671Y-70677883D01*
X89020607Y-70695607D01*
X89002883Y-70711671D01*
X88983670Y-70725921D01*
X88963153Y-70738218D01*
X88941529Y-70748446D01*
X88919007Y-70756504D01*
X88895803Y-70762316D01*
X88872142Y-70765826D01*
X88848250Y-70767000D01*
X87935750Y-70767000D01*
X87911858Y-70765826D01*
X87888197Y-70762316D01*
X87864993Y-70756504D01*
X87842471Y-70748446D01*
X87820847Y-70738218D01*
X87800330Y-70725921D01*
X87781117Y-70711671D01*
X87763393Y-70695607D01*
X87747329Y-70677883D01*
X87733079Y-70658670D01*
X87720782Y-70638153D01*
X87710554Y-70616529D01*
X87702496Y-70594007D01*
X87696684Y-70570803D01*
X87693174Y-70547142D01*
X87692000Y-70523250D01*
X87692000Y-70035750D01*
X87693174Y-70011858D01*
X87696684Y-69988197D01*
X87702496Y-69964993D01*
X87710554Y-69942471D01*
X87720782Y-69920847D01*
X87733079Y-69900330D01*
X87747329Y-69881117D01*
X87763393Y-69863393D01*
X87781117Y-69847329D01*
X87800330Y-69833079D01*
X87820847Y-69820782D01*
X87842471Y-69810554D01*
X87864993Y-69802496D01*
X87888197Y-69796684D01*
X87911858Y-69793174D01*
X87935750Y-69792000D01*
X88848250Y-69792000D01*
X88872142Y-69793174D01*
G37*
G36*
X88872142Y-67918174D02*
G01*
X88895803Y-67921684D01*
X88919007Y-67927496D01*
X88941529Y-67935554D01*
X88963153Y-67945782D01*
X88983670Y-67958079D01*
X89002883Y-67972329D01*
X89020607Y-67988393D01*
X89036671Y-68006117D01*
X89050921Y-68025330D01*
X89063218Y-68045847D01*
X89073446Y-68067471D01*
X89081504Y-68089993D01*
X89087316Y-68113197D01*
X89090826Y-68136858D01*
X89092000Y-68160750D01*
X89092000Y-68648250D01*
X89090826Y-68672142D01*
X89087316Y-68695803D01*
X89081504Y-68719007D01*
X89073446Y-68741529D01*
X89063218Y-68763153D01*
X89050921Y-68783670D01*
X89036671Y-68802883D01*
X89020607Y-68820607D01*
X89002883Y-68836671D01*
X88983670Y-68850921D01*
X88963153Y-68863218D01*
X88941529Y-68873446D01*
X88919007Y-68881504D01*
X88895803Y-68887316D01*
X88872142Y-68890826D01*
X88848250Y-68892000D01*
X87935750Y-68892000D01*
X87911858Y-68890826D01*
X87888197Y-68887316D01*
X87864993Y-68881504D01*
X87842471Y-68873446D01*
X87820847Y-68863218D01*
X87800330Y-68850921D01*
X87781117Y-68836671D01*
X87763393Y-68820607D01*
X87747329Y-68802883D01*
X87733079Y-68783670D01*
X87720782Y-68763153D01*
X87710554Y-68741529D01*
X87702496Y-68719007D01*
X87696684Y-68695803D01*
X87693174Y-68672142D01*
X87692000Y-68648250D01*
X87692000Y-68160750D01*
X87693174Y-68136858D01*
X87696684Y-68113197D01*
X87702496Y-68089993D01*
X87710554Y-68067471D01*
X87720782Y-68045847D01*
X87733079Y-68025330D01*
X87747329Y-68006117D01*
X87763393Y-67988393D01*
X87781117Y-67972329D01*
X87800330Y-67958079D01*
X87820847Y-67945782D01*
X87842471Y-67935554D01*
X87864993Y-67927496D01*
X87888197Y-67921684D01*
X87911858Y-67918174D01*
X87935750Y-67917000D01*
X88848250Y-67917000D01*
X88872142Y-67918174D01*
G37*
G36*
X90904142Y-67918174D02*
G01*
X90927803Y-67921684D01*
X90951007Y-67927496D01*
X90973529Y-67935554D01*
X90995153Y-67945782D01*
X91015670Y-67958079D01*
X91034883Y-67972329D01*
X91052607Y-67988393D01*
X91068671Y-68006117D01*
X91082921Y-68025330D01*
X91095218Y-68045847D01*
X91105446Y-68067471D01*
X91113504Y-68089993D01*
X91119316Y-68113197D01*
X91122826Y-68136858D01*
X91124000Y-68160750D01*
X91124000Y-68648250D01*
X91122826Y-68672142D01*
X91119316Y-68695803D01*
X91113504Y-68719007D01*
X91105446Y-68741529D01*
X91095218Y-68763153D01*
X91082921Y-68783670D01*
X91068671Y-68802883D01*
X91052607Y-68820607D01*
X91034883Y-68836671D01*
X91015670Y-68850921D01*
X90995153Y-68863218D01*
X90973529Y-68873446D01*
X90951007Y-68881504D01*
X90927803Y-68887316D01*
X90904142Y-68890826D01*
X90880250Y-68892000D01*
X89967750Y-68892000D01*
X89943858Y-68890826D01*
X89920197Y-68887316D01*
X89896993Y-68881504D01*
X89874471Y-68873446D01*
X89852847Y-68863218D01*
X89832330Y-68850921D01*
X89813117Y-68836671D01*
X89795393Y-68820607D01*
X89779329Y-68802883D01*
X89765079Y-68783670D01*
X89752782Y-68763153D01*
X89742554Y-68741529D01*
X89734496Y-68719007D01*
X89728684Y-68695803D01*
X89725174Y-68672142D01*
X89724000Y-68648250D01*
X89724000Y-68160750D01*
X89725174Y-68136858D01*
X89728684Y-68113197D01*
X89734496Y-68089993D01*
X89742554Y-68067471D01*
X89752782Y-68045847D01*
X89765079Y-68025330D01*
X89779329Y-68006117D01*
X89795393Y-67988393D01*
X89813117Y-67972329D01*
X89832330Y-67958079D01*
X89852847Y-67945782D01*
X89874471Y-67935554D01*
X89896993Y-67927496D01*
X89920197Y-67921684D01*
X89943858Y-67918174D01*
X89967750Y-67917000D01*
X90880250Y-67917000D01*
X90904142Y-67918174D01*
G37*
G36*
X90904142Y-69793174D02*
G01*
X90927803Y-69796684D01*
X90951007Y-69802496D01*
X90973529Y-69810554D01*
X90995153Y-69820782D01*
X91015670Y-69833079D01*
X91034883Y-69847329D01*
X91052607Y-69863393D01*
X91068671Y-69881117D01*
X91082921Y-69900330D01*
X91095218Y-69920847D01*
X91105446Y-69942471D01*
X91113504Y-69964993D01*
X91119316Y-69988197D01*
X91122826Y-70011858D01*
X91124000Y-70035750D01*
X91124000Y-70523250D01*
X91122826Y-70547142D01*
X91119316Y-70570803D01*
X91113504Y-70594007D01*
X91105446Y-70616529D01*
X91095218Y-70638153D01*
X91082921Y-70658670D01*
X91068671Y-70677883D01*
X91052607Y-70695607D01*
X91034883Y-70711671D01*
X91015670Y-70725921D01*
X90995153Y-70738218D01*
X90973529Y-70748446D01*
X90951007Y-70756504D01*
X90927803Y-70762316D01*
X90904142Y-70765826D01*
X90880250Y-70767000D01*
X89967750Y-70767000D01*
X89943858Y-70765826D01*
X89920197Y-70762316D01*
X89896993Y-70756504D01*
X89874471Y-70748446D01*
X89852847Y-70738218D01*
X89832330Y-70725921D01*
X89813117Y-70711671D01*
X89795393Y-70695607D01*
X89779329Y-70677883D01*
X89765079Y-70658670D01*
X89752782Y-70638153D01*
X89742554Y-70616529D01*
X89734496Y-70594007D01*
X89728684Y-70570803D01*
X89725174Y-70547142D01*
X89724000Y-70523250D01*
X89724000Y-70035750D01*
X89725174Y-70011858D01*
X89728684Y-69988197D01*
X89734496Y-69964993D01*
X89742554Y-69942471D01*
X89752782Y-69920847D01*
X89765079Y-69900330D01*
X89779329Y-69881117D01*
X89795393Y-69863393D01*
X89813117Y-69847329D01*
X89832330Y-69833079D01*
X89852847Y-69820782D01*
X89874471Y-69810554D01*
X89896993Y-69802496D01*
X89920197Y-69796684D01*
X89943858Y-69793174D01*
X89967750Y-69792000D01*
X90880250Y-69792000D01*
X90904142Y-69793174D01*
G37*
G36*
X83538142Y-72079174D02*
G01*
X83561803Y-72082684D01*
X83585007Y-72088496D01*
X83607529Y-72096554D01*
X83629153Y-72106782D01*
X83649670Y-72119079D01*
X83668883Y-72133329D01*
X83686607Y-72149393D01*
X83702671Y-72167117D01*
X83716921Y-72186330D01*
X83729218Y-72206847D01*
X83739446Y-72228471D01*
X83747504Y-72250993D01*
X83753316Y-72274197D01*
X83756826Y-72297858D01*
X83758000Y-72321750D01*
X83758000Y-72809250D01*
X83756826Y-72833142D01*
X83753316Y-72856803D01*
X83747504Y-72880007D01*
X83739446Y-72902529D01*
X83729218Y-72924153D01*
X83716921Y-72944670D01*
X83702671Y-72963883D01*
X83686607Y-72981607D01*
X83668883Y-72997671D01*
X83649670Y-73011921D01*
X83629153Y-73024218D01*
X83607529Y-73034446D01*
X83585007Y-73042504D01*
X83561803Y-73048316D01*
X83538142Y-73051826D01*
X83514250Y-73053000D01*
X82601750Y-73053000D01*
X82577858Y-73051826D01*
X82554197Y-73048316D01*
X82530993Y-73042504D01*
X82508471Y-73034446D01*
X82486847Y-73024218D01*
X82466330Y-73011921D01*
X82447117Y-72997671D01*
X82429393Y-72981607D01*
X82413329Y-72963883D01*
X82399079Y-72944670D01*
X82386782Y-72924153D01*
X82376554Y-72902529D01*
X82368496Y-72880007D01*
X82362684Y-72856803D01*
X82359174Y-72833142D01*
X82358000Y-72809250D01*
X82358000Y-72321750D01*
X82359174Y-72297858D01*
X82362684Y-72274197D01*
X82368496Y-72250993D01*
X82376554Y-72228471D01*
X82386782Y-72206847D01*
X82399079Y-72186330D01*
X82413329Y-72167117D01*
X82429393Y-72149393D01*
X82447117Y-72133329D01*
X82466330Y-72119079D01*
X82486847Y-72106782D01*
X82508471Y-72096554D01*
X82530993Y-72088496D01*
X82554197Y-72082684D01*
X82577858Y-72079174D01*
X82601750Y-72078000D01*
X83514250Y-72078000D01*
X83538142Y-72079174D01*
G37*
G36*
X83538142Y-70204174D02*
G01*
X83561803Y-70207684D01*
X83585007Y-70213496D01*
X83607529Y-70221554D01*
X83629153Y-70231782D01*
X83649670Y-70244079D01*
X83668883Y-70258329D01*
X83686607Y-70274393D01*
X83702671Y-70292117D01*
X83716921Y-70311330D01*
X83729218Y-70331847D01*
X83739446Y-70353471D01*
X83747504Y-70375993D01*
X83753316Y-70399197D01*
X83756826Y-70422858D01*
X83758000Y-70446750D01*
X83758000Y-70934250D01*
X83756826Y-70958142D01*
X83753316Y-70981803D01*
X83747504Y-71005007D01*
X83739446Y-71027529D01*
X83729218Y-71049153D01*
X83716921Y-71069670D01*
X83702671Y-71088883D01*
X83686607Y-71106607D01*
X83668883Y-71122671D01*
X83649670Y-71136921D01*
X83629153Y-71149218D01*
X83607529Y-71159446D01*
X83585007Y-71167504D01*
X83561803Y-71173316D01*
X83538142Y-71176826D01*
X83514250Y-71178000D01*
X82601750Y-71178000D01*
X82577858Y-71176826D01*
X82554197Y-71173316D01*
X82530993Y-71167504D01*
X82508471Y-71159446D01*
X82486847Y-71149218D01*
X82466330Y-71136921D01*
X82447117Y-71122671D01*
X82429393Y-71106607D01*
X82413329Y-71088883D01*
X82399079Y-71069670D01*
X82386782Y-71049153D01*
X82376554Y-71027529D01*
X82368496Y-71005007D01*
X82362684Y-70981803D01*
X82359174Y-70958142D01*
X82358000Y-70934250D01*
X82358000Y-70446750D01*
X82359174Y-70422858D01*
X82362684Y-70399197D01*
X82368496Y-70375993D01*
X82376554Y-70353471D01*
X82386782Y-70331847D01*
X82399079Y-70311330D01*
X82413329Y-70292117D01*
X82429393Y-70274393D01*
X82447117Y-70258329D01*
X82466330Y-70244079D01*
X82486847Y-70231782D01*
X82508471Y-70221554D01*
X82530993Y-70213496D01*
X82554197Y-70207684D01*
X82577858Y-70204174D01*
X82601750Y-70203000D01*
X83514250Y-70203000D01*
X83538142Y-70204174D01*
G37*
D13*
X175387000Y-63280000D03*
X175387000Y-61180000D03*
X171577000Y-63280000D03*
X171577000Y-61180000D03*
X167767000Y-63280000D03*
X167767000Y-61180000D03*
X163957000Y-63280000D03*
X163957000Y-61180000D03*
X156337000Y-63280000D03*
X156337000Y-61180000D03*
X152527000Y-63280000D03*
X152527000Y-61180000D03*
X148717000Y-63280000D03*
X148717000Y-61180000D03*
X144907000Y-63280000D03*
X144907000Y-61180000D03*
X137287000Y-63280000D03*
X137287000Y-61180000D03*
X133477000Y-63280000D03*
X133477000Y-61180000D03*
X129667000Y-63280000D03*
X129667000Y-61180000D03*
X125857000Y-63280000D03*
X125857000Y-61180000D03*
X118237000Y-63280000D03*
X118237000Y-61180000D03*
X114427000Y-63280000D03*
X114427000Y-61180000D03*
X110617000Y-63280000D03*
X110617000Y-61180000D03*
X106807000Y-63280000D03*
X106807000Y-61180000D03*
M02*
