M48
; DRILL file {KiCad 5.1.5-52549c5~86~ubuntu18.04.1} date Thu 23 Apr 2020 15:53:34 BST
; FORMAT={-:-/ absolute / inch / decimal}
; #@! TF.CreationDate,2020-04-23T15:53:34+01:00
; #@! TF.GenerationSoftware,Kicad,Pcbnew,5.1.5-52549c5~86~ubuntu18.04.1
; #@! TF.FileFunction,NonPlated,1,2,NPTH
FMAT,2
INCH
T1C0.0689
T2C0.0866
T3C0.1570
%
G90
G05
T1
X6.505Y-5.2188
X6.905Y-5.2188
X5.005Y-2.9688
X5.405Y-2.9688
X4.255Y-2.9688
X4.655Y-2.9688
X4.255Y-4.4688
X4.655Y-4.4688
X4.255Y-3.7188
X4.655Y-3.7188
X6.505Y-2.9688
X6.905Y-2.9688
X4.255Y-5.2188
X4.655Y-5.2188
X5.005Y-5.2188
X5.405Y-5.2188
X6.505Y-4.4688
X6.905Y-4.4688
X5.755Y-5.2188
X6.155Y-5.2188
X5.005Y-3.7188
X5.405Y-3.7188
X5.755Y-3.7188
X6.155Y-3.7188
X5.005Y-4.4688
X5.405Y-4.4688
X6.505Y-3.7188
X6.905Y-3.7188
X5.755Y-2.9688
X6.155Y-2.9688
X5.755Y-4.4688
X6.155Y-4.4688
T2
X6.9685Y-2.0079
X3.2677Y-5.6299
X6.9685Y-5.6299
X3.2677Y-2.0079
T3
X5.955Y-5.2188
X5.205Y-3.7188
X5.955Y-3.7188
X5.205Y-4.4688
X6.705Y-3.7188
X5.955Y-2.9688
X5.955Y-4.4688
X6.705Y-5.2188
X5.205Y-2.9688
X4.455Y-2.9688
X4.455Y-4.4688
X4.455Y-3.7188
X6.705Y-2.9688
X4.455Y-5.2188
X5.205Y-5.2188
X6.705Y-4.4688
T0
M30
