G04 #@! TF.GenerationSoftware,KiCad,Pcbnew,5.1.5-52549c5~86~ubuntu18.04.1*
G04 #@! TF.CreationDate,2020-04-23T16:02:32+01:00*
G04 #@! TF.ProjectId,icepad,69636570-6164-42e6-9b69-6361645f7063,rev?*
G04 #@! TF.SameCoordinates,Original*
G04 #@! TF.FileFunction,Legend,Top*
G04 #@! TF.FilePolarity,Positive*
%FSLAX46Y46*%
G04 Gerber Fmt 4.6, Leading zero omitted, Abs format (unit mm)*
G04 Created by KiCad (PCBNEW 5.1.5-52549c5~86~ubuntu18.04.1) date 2020-04-23 16:02:32*
%MOMM*%
%LPD*%
G04 APERTURE LIST*
%ADD10C,0.625000*%
%ADD11C,0.100000*%
%ADD12C,0.010000*%
%ADD13C,0.120000*%
%ADD14C,0.150000*%
G04 APERTURE END LIST*
D10*
X86130952Y-128952380D02*
X83630952Y-128952380D01*
X85892857Y-126333333D02*
X86011904Y-126452380D01*
X86130952Y-126809523D01*
X86130952Y-127047619D01*
X86011904Y-127404761D01*
X85773809Y-127642857D01*
X85535714Y-127761904D01*
X85059523Y-127880952D01*
X84702380Y-127880952D01*
X84226190Y-127761904D01*
X83988095Y-127642857D01*
X83750000Y-127404761D01*
X83630952Y-127047619D01*
X83630952Y-126809523D01*
X83750000Y-126452380D01*
X83869047Y-126333333D01*
X84821428Y-125261904D02*
X84821428Y-124428571D01*
X86130952Y-124071428D02*
X86130952Y-125261904D01*
X83630952Y-125261904D01*
X83630952Y-124071428D01*
X86130952Y-123000000D02*
X83630952Y-123000000D01*
X83630952Y-122047619D01*
X83750000Y-121809523D01*
X83869047Y-121690476D01*
X84107142Y-121571428D01*
X84464285Y-121571428D01*
X84702380Y-121690476D01*
X84821428Y-121809523D01*
X84940476Y-122047619D01*
X84940476Y-123000000D01*
X85416666Y-120619047D02*
X85416666Y-119428571D01*
X86130952Y-120857142D02*
X83630952Y-120023809D01*
X86130952Y-119190476D01*
X86130952Y-118357142D02*
X83630952Y-118357142D01*
X83630952Y-117761904D01*
X83750000Y-117404761D01*
X83988095Y-117166666D01*
X84226190Y-117047619D01*
X84702380Y-116928571D01*
X85059523Y-116928571D01*
X85535714Y-117047619D01*
X85773809Y-117166666D01*
X86011904Y-117404761D01*
X86130952Y-117761904D01*
X86130952Y-118357142D01*
X83630952Y-114309523D02*
X86130952Y-113476190D01*
X83630952Y-112642857D01*
X86130952Y-110500000D02*
X86130952Y-111928571D01*
X86130952Y-111214285D02*
X83630952Y-111214285D01*
X83988095Y-111452380D01*
X84226190Y-111690476D01*
X84345238Y-111928571D01*
X85892857Y-109428571D02*
X86011904Y-109309523D01*
X86130952Y-109428571D01*
X86011904Y-109547619D01*
X85892857Y-109428571D01*
X86130952Y-109428571D01*
X83630952Y-107761904D02*
X83630952Y-107523809D01*
X83750000Y-107285714D01*
X83869047Y-107166666D01*
X84107142Y-107047619D01*
X84583333Y-106928571D01*
X85178571Y-106928571D01*
X85654761Y-107047619D01*
X85892857Y-107166666D01*
X86011904Y-107285714D01*
X86130952Y-107523809D01*
X86130952Y-107761904D01*
X86011904Y-108000000D01*
X85892857Y-108119047D01*
X85654761Y-108238095D01*
X85178571Y-108357142D01*
X84583333Y-108357142D01*
X84107142Y-108238095D01*
X83869047Y-108119047D01*
X83750000Y-108000000D01*
X83630952Y-107761904D01*
D11*
X94975000Y-59525000D02*
X94500000Y-59525000D01*
X94975000Y-58950000D02*
X94975000Y-59525000D01*
X94975000Y-50275000D02*
X94350000Y-50275000D01*
X94975000Y-51200000D02*
X94975000Y-50275000D01*
X87025000Y-50275000D02*
X87650000Y-50275000D01*
X87025000Y-51125000D02*
X87025000Y-50275000D01*
X87025000Y-58650000D02*
X87025000Y-59500000D01*
X87675000Y-59525000D02*
X87025000Y-59525000D01*
X87025000Y-59525000D02*
X87025000Y-59500000D01*
X100875000Y-122350000D02*
X100875000Y-123000000D01*
X100025000Y-122350000D02*
X100875000Y-122350000D01*
X100875000Y-138800000D02*
X100125000Y-138800000D01*
X100875000Y-138025000D02*
X100875000Y-138800000D01*
X87625000Y-122350000D02*
X87625000Y-123250000D01*
X88700000Y-122350000D02*
X87625000Y-122350000D01*
X88050000Y-138800000D02*
X89350000Y-138800000D01*
X87625000Y-138350000D02*
X88050000Y-138800000D01*
X87625000Y-137575000D02*
X87625000Y-138350000D01*
X100875000Y-104600000D02*
X100875000Y-105250000D01*
X100025000Y-104600000D02*
X100875000Y-104600000D01*
X100875000Y-121050000D02*
X100125000Y-121050000D01*
X100875000Y-120275000D02*
X100875000Y-121050000D01*
X87625000Y-104600000D02*
X87625000Y-105500000D01*
X88700000Y-104600000D02*
X87625000Y-104600000D01*
X88050000Y-121050000D02*
X89350000Y-121050000D01*
X87625000Y-120600000D02*
X88050000Y-121050000D01*
X87625000Y-119825000D02*
X87625000Y-120600000D01*
D12*
G36*
X85321362Y-131634250D02*
G01*
X85346392Y-132205500D01*
X85662947Y-132044005D01*
X85950477Y-131945835D01*
X86154087Y-131979174D01*
X86258956Y-132139081D01*
X86270000Y-132246326D01*
X86231812Y-132386435D01*
X86097629Y-132526001D01*
X85838022Y-132694581D01*
X85804333Y-132714000D01*
X85549770Y-132866810D01*
X85410263Y-132984847D01*
X85351387Y-133112894D01*
X85338717Y-133295734D01*
X85338666Y-133319785D01*
X85338666Y-133659144D01*
X85623826Y-133482905D01*
X85817854Y-133370619D01*
X85946505Y-133310077D01*
X85962493Y-133306666D01*
X85995729Y-133381942D01*
X86014470Y-133570406D01*
X86016000Y-133652388D01*
X86029570Y-133858762D01*
X86063620Y-133963893D01*
X86079500Y-133967172D01*
X86354705Y-133831130D01*
X86513069Y-133724610D01*
X86586756Y-133596693D01*
X86607931Y-133396457D01*
X86608666Y-133129448D01*
X86614925Y-132818412D01*
X86640954Y-132636185D01*
X86697632Y-132542475D01*
X86778000Y-132502333D01*
X87044571Y-132472470D01*
X87214078Y-132581181D01*
X87284130Y-132826647D01*
X87286000Y-132889038D01*
X87297737Y-133099080D01*
X87327000Y-133214407D01*
X87338042Y-133221999D01*
X87435532Y-133184606D01*
X87631291Y-133088347D01*
X87798970Y-132999456D01*
X88112030Y-132857865D01*
X88325508Y-132837911D01*
X88460779Y-132942725D01*
X88523907Y-133105659D01*
X88537590Y-133266638D01*
X88471386Y-133405902D01*
X88300842Y-133551525D01*
X88001507Y-133731586D01*
X87957749Y-133755754D01*
X87679622Y-133908509D01*
X87948477Y-134072010D01*
X88143711Y-134253359D01*
X88220031Y-134460460D01*
X88169421Y-134647676D01*
X88065271Y-134736756D01*
X87928350Y-134761621D01*
X87736720Y-134696545D01*
X87515188Y-134570401D01*
X87254182Y-134414154D01*
X87080042Y-134343350D01*
X86937203Y-134351849D01*
X86770100Y-134433513D01*
X86693370Y-134479599D01*
X86435314Y-134636532D01*
X86710314Y-134848605D01*
X86985313Y-135060677D01*
X86709555Y-135203278D01*
X86524527Y-135322101D01*
X86495643Y-135421871D01*
X86626547Y-135523815D01*
X86776298Y-135591961D01*
X86936721Y-135643262D01*
X87086609Y-135637021D01*
X87283056Y-135562561D01*
X87489362Y-135458632D01*
X87754989Y-135328550D01*
X87920847Y-135277836D01*
X88031303Y-135296985D01*
X88081914Y-135331679D01*
X88208722Y-135523674D01*
X88182297Y-135734547D01*
X88009882Y-135929124D01*
X87951006Y-135967480D01*
X87684679Y-136124803D01*
X88120339Y-136387140D01*
X88405835Y-136588415D01*
X88536046Y-136766429D01*
X88518854Y-136943211D01*
X88382714Y-137120619D01*
X88209428Y-137293904D01*
X87286000Y-136765572D01*
X87286000Y-137079952D01*
X87237054Y-137368356D01*
X87101181Y-137529642D01*
X86894826Y-137548935D01*
X86803071Y-137516729D01*
X86694195Y-137447478D01*
X86635485Y-137335324D01*
X86612053Y-137133775D01*
X86608666Y-136909664D01*
X86602161Y-136617685D01*
X86569855Y-136443117D01*
X86492559Y-136334169D01*
X86362769Y-136245921D01*
X86155200Y-136133133D01*
X86053068Y-136127765D01*
X86019130Y-136246041D01*
X86016000Y-136397000D01*
X86006923Y-136598107D01*
X85956701Y-136675134D01*
X85830851Y-136638639D01*
X85623826Y-136517094D01*
X85338666Y-136340855D01*
X85338666Y-136680214D01*
X85348498Y-136871353D01*
X85400942Y-137003026D01*
X85530425Y-137120014D01*
X85771370Y-137267103D01*
X85804333Y-137286000D01*
X86077429Y-137458551D01*
X86222604Y-137599124D01*
X86269555Y-137737625D01*
X86270000Y-137754901D01*
X86209327Y-137969910D01*
X86046493Y-138067658D01*
X85810272Y-138038258D01*
X85659860Y-137964532D01*
X85381000Y-137794394D01*
X85338666Y-138365697D01*
X85312917Y-138668404D01*
X85278970Y-138841352D01*
X85217159Y-138923723D01*
X85107816Y-138954703D01*
X85039290Y-138962179D01*
X84838528Y-138962038D01*
X84721790Y-138926901D01*
X84690517Y-138816577D01*
X84668674Y-138588501D01*
X84661333Y-138321859D01*
X84661333Y-137777273D01*
X84359814Y-137955174D01*
X84084017Y-138063805D01*
X83872862Y-138040796D01*
X83750610Y-137893861D01*
X83730000Y-137754901D01*
X83767491Y-137614707D01*
X83899765Y-137475905D01*
X84156519Y-137308590D01*
X84195666Y-137286000D01*
X84450299Y-137133087D01*
X84589821Y-137014944D01*
X84648671Y-136886910D01*
X84661288Y-136704325D01*
X84661333Y-136682122D01*
X84655755Y-136490573D01*
X84617868Y-136408653D01*
X84515941Y-136432520D01*
X84318241Y-136558333D01*
X84216833Y-136628314D01*
X83984000Y-136789530D01*
X83984000Y-136021710D01*
X83687666Y-136196551D01*
X83525390Y-136301342D01*
X83436742Y-136407210D01*
X83399492Y-136566911D01*
X83391407Y-136833204D01*
X83391333Y-136899772D01*
X83384660Y-137195410D01*
X83354496Y-137368364D01*
X83285619Y-137465079D01*
X83187794Y-137520891D01*
X82975663Y-137545976D01*
X82813995Y-137426480D01*
X82724719Y-137184731D01*
X82713999Y-137038417D01*
X82713999Y-136761835D01*
X82248796Y-137024380D01*
X81783592Y-137286925D01*
X81613796Y-137117129D01*
X81464263Y-136915562D01*
X81458355Y-136736805D01*
X81603520Y-136563185D01*
X81907206Y-136377032D01*
X81930833Y-136364976D01*
X82417666Y-136118571D01*
X82100166Y-135966937D01*
X81886590Y-135839774D01*
X81795780Y-135700016D01*
X81782666Y-135578598D01*
X81840687Y-135369464D01*
X82005200Y-135281176D01*
X82261878Y-135315937D01*
X82566570Y-135458170D01*
X82850633Y-135609411D01*
X83051376Y-135663301D01*
X83221346Y-135623544D01*
X83384818Y-135515868D01*
X83589969Y-135358168D01*
X83321318Y-135219243D01*
X83118328Y-135095613D01*
X83105301Y-135066337D01*
X84465695Y-135066337D01*
X84545034Y-135209092D01*
X84587123Y-135268685D01*
X84805943Y-135463714D01*
X85057368Y-135523999D01*
X85294733Y-135450021D01*
X85462769Y-135259602D01*
X85541160Y-135072752D01*
X85528989Y-134922887D01*
X85443777Y-134752137D01*
X85297643Y-134564303D01*
X85108598Y-134496471D01*
X85019922Y-134492535D01*
X84801273Y-134527866D01*
X84644035Y-134664569D01*
X84580113Y-134760685D01*
X84477767Y-134944320D01*
X84465695Y-135066337D01*
X83105301Y-135066337D01*
X83072929Y-134993591D01*
X83184530Y-134879021D01*
X83314036Y-134797447D01*
X83575406Y-134643052D01*
X83296083Y-134473186D01*
X83016760Y-134303319D01*
X82547880Y-134561063D01*
X82254571Y-134707048D01*
X82060432Y-134761595D01*
X81930833Y-134735862D01*
X81796687Y-134582596D01*
X81794493Y-134381193D01*
X81916075Y-134178580D01*
X82045904Y-134075426D01*
X82309141Y-133915342D01*
X82109404Y-133786473D01*
X81873689Y-133650745D01*
X81676833Y-133553212D01*
X81487449Y-133398974D01*
X81452743Y-133177125D01*
X81531645Y-132962433D01*
X81628756Y-132841376D01*
X81763908Y-132812104D01*
X81968891Y-132878320D01*
X82275494Y-133043732D01*
X82286940Y-133050469D01*
X82713999Y-133302272D01*
X82713999Y-132976170D01*
X82758170Y-132675175D01*
X82885206Y-132512607D01*
X83086897Y-132496285D01*
X83182173Y-132530403D01*
X83296887Y-132598551D01*
X83359833Y-132701006D01*
X83386235Y-132883895D01*
X83391333Y-133164261D01*
X83393487Y-133449074D01*
X83421514Y-133625813D01*
X83507762Y-133743559D01*
X83684580Y-133851395D01*
X83920500Y-133967172D01*
X83959541Y-133912281D01*
X83981924Y-133737628D01*
X83984000Y-133650668D01*
X83984000Y-133303225D01*
X84322666Y-133476000D01*
X84661333Y-133648774D01*
X84661333Y-133314601D01*
X84651113Y-133125934D01*
X84597480Y-132995104D01*
X84465972Y-132877663D01*
X84222130Y-132729165D01*
X84195666Y-132714000D01*
X83922570Y-132541448D01*
X83777395Y-132400875D01*
X83730444Y-132262374D01*
X83730000Y-132245098D01*
X83790672Y-132030089D01*
X83953506Y-131932341D01*
X84189727Y-131961741D01*
X84340139Y-132035467D01*
X84619000Y-132205605D01*
X84661333Y-131634302D01*
X84703666Y-131063000D01*
X85296333Y-131063000D01*
X85321362Y-131634250D01*
G37*
X85321362Y-131634250D02*
X85346392Y-132205500D01*
X85662947Y-132044005D01*
X85950477Y-131945835D01*
X86154087Y-131979174D01*
X86258956Y-132139081D01*
X86270000Y-132246326D01*
X86231812Y-132386435D01*
X86097629Y-132526001D01*
X85838022Y-132694581D01*
X85804333Y-132714000D01*
X85549770Y-132866810D01*
X85410263Y-132984847D01*
X85351387Y-133112894D01*
X85338717Y-133295734D01*
X85338666Y-133319785D01*
X85338666Y-133659144D01*
X85623826Y-133482905D01*
X85817854Y-133370619D01*
X85946505Y-133310077D01*
X85962493Y-133306666D01*
X85995729Y-133381942D01*
X86014470Y-133570406D01*
X86016000Y-133652388D01*
X86029570Y-133858762D01*
X86063620Y-133963893D01*
X86079500Y-133967172D01*
X86354705Y-133831130D01*
X86513069Y-133724610D01*
X86586756Y-133596693D01*
X86607931Y-133396457D01*
X86608666Y-133129448D01*
X86614925Y-132818412D01*
X86640954Y-132636185D01*
X86697632Y-132542475D01*
X86778000Y-132502333D01*
X87044571Y-132472470D01*
X87214078Y-132581181D01*
X87284130Y-132826647D01*
X87286000Y-132889038D01*
X87297737Y-133099080D01*
X87327000Y-133214407D01*
X87338042Y-133221999D01*
X87435532Y-133184606D01*
X87631291Y-133088347D01*
X87798970Y-132999456D01*
X88112030Y-132857865D01*
X88325508Y-132837911D01*
X88460779Y-132942725D01*
X88523907Y-133105659D01*
X88537590Y-133266638D01*
X88471386Y-133405902D01*
X88300842Y-133551525D01*
X88001507Y-133731586D01*
X87957749Y-133755754D01*
X87679622Y-133908509D01*
X87948477Y-134072010D01*
X88143711Y-134253359D01*
X88220031Y-134460460D01*
X88169421Y-134647676D01*
X88065271Y-134736756D01*
X87928350Y-134761621D01*
X87736720Y-134696545D01*
X87515188Y-134570401D01*
X87254182Y-134414154D01*
X87080042Y-134343350D01*
X86937203Y-134351849D01*
X86770100Y-134433513D01*
X86693370Y-134479599D01*
X86435314Y-134636532D01*
X86710314Y-134848605D01*
X86985313Y-135060677D01*
X86709555Y-135203278D01*
X86524527Y-135322101D01*
X86495643Y-135421871D01*
X86626547Y-135523815D01*
X86776298Y-135591961D01*
X86936721Y-135643262D01*
X87086609Y-135637021D01*
X87283056Y-135562561D01*
X87489362Y-135458632D01*
X87754989Y-135328550D01*
X87920847Y-135277836D01*
X88031303Y-135296985D01*
X88081914Y-135331679D01*
X88208722Y-135523674D01*
X88182297Y-135734547D01*
X88009882Y-135929124D01*
X87951006Y-135967480D01*
X87684679Y-136124803D01*
X88120339Y-136387140D01*
X88405835Y-136588415D01*
X88536046Y-136766429D01*
X88518854Y-136943211D01*
X88382714Y-137120619D01*
X88209428Y-137293904D01*
X87286000Y-136765572D01*
X87286000Y-137079952D01*
X87237054Y-137368356D01*
X87101181Y-137529642D01*
X86894826Y-137548935D01*
X86803071Y-137516729D01*
X86694195Y-137447478D01*
X86635485Y-137335324D01*
X86612053Y-137133775D01*
X86608666Y-136909664D01*
X86602161Y-136617685D01*
X86569855Y-136443117D01*
X86492559Y-136334169D01*
X86362769Y-136245921D01*
X86155200Y-136133133D01*
X86053068Y-136127765D01*
X86019130Y-136246041D01*
X86016000Y-136397000D01*
X86006923Y-136598107D01*
X85956701Y-136675134D01*
X85830851Y-136638639D01*
X85623826Y-136517094D01*
X85338666Y-136340855D01*
X85338666Y-136680214D01*
X85348498Y-136871353D01*
X85400942Y-137003026D01*
X85530425Y-137120014D01*
X85771370Y-137267103D01*
X85804333Y-137286000D01*
X86077429Y-137458551D01*
X86222604Y-137599124D01*
X86269555Y-137737625D01*
X86270000Y-137754901D01*
X86209327Y-137969910D01*
X86046493Y-138067658D01*
X85810272Y-138038258D01*
X85659860Y-137964532D01*
X85381000Y-137794394D01*
X85338666Y-138365697D01*
X85312917Y-138668404D01*
X85278970Y-138841352D01*
X85217159Y-138923723D01*
X85107816Y-138954703D01*
X85039290Y-138962179D01*
X84838528Y-138962038D01*
X84721790Y-138926901D01*
X84690517Y-138816577D01*
X84668674Y-138588501D01*
X84661333Y-138321859D01*
X84661333Y-137777273D01*
X84359814Y-137955174D01*
X84084017Y-138063805D01*
X83872862Y-138040796D01*
X83750610Y-137893861D01*
X83730000Y-137754901D01*
X83767491Y-137614707D01*
X83899765Y-137475905D01*
X84156519Y-137308590D01*
X84195666Y-137286000D01*
X84450299Y-137133087D01*
X84589821Y-137014944D01*
X84648671Y-136886910D01*
X84661288Y-136704325D01*
X84661333Y-136682122D01*
X84655755Y-136490573D01*
X84617868Y-136408653D01*
X84515941Y-136432520D01*
X84318241Y-136558333D01*
X84216833Y-136628314D01*
X83984000Y-136789530D01*
X83984000Y-136021710D01*
X83687666Y-136196551D01*
X83525390Y-136301342D01*
X83436742Y-136407210D01*
X83399492Y-136566911D01*
X83391407Y-136833204D01*
X83391333Y-136899772D01*
X83384660Y-137195410D01*
X83354496Y-137368364D01*
X83285619Y-137465079D01*
X83187794Y-137520891D01*
X82975663Y-137545976D01*
X82813995Y-137426480D01*
X82724719Y-137184731D01*
X82713999Y-137038417D01*
X82713999Y-136761835D01*
X82248796Y-137024380D01*
X81783592Y-137286925D01*
X81613796Y-137117129D01*
X81464263Y-136915562D01*
X81458355Y-136736805D01*
X81603520Y-136563185D01*
X81907206Y-136377032D01*
X81930833Y-136364976D01*
X82417666Y-136118571D01*
X82100166Y-135966937D01*
X81886590Y-135839774D01*
X81795780Y-135700016D01*
X81782666Y-135578598D01*
X81840687Y-135369464D01*
X82005200Y-135281176D01*
X82261878Y-135315937D01*
X82566570Y-135458170D01*
X82850633Y-135609411D01*
X83051376Y-135663301D01*
X83221346Y-135623544D01*
X83384818Y-135515868D01*
X83589969Y-135358168D01*
X83321318Y-135219243D01*
X83118328Y-135095613D01*
X83105301Y-135066337D01*
X84465695Y-135066337D01*
X84545034Y-135209092D01*
X84587123Y-135268685D01*
X84805943Y-135463714D01*
X85057368Y-135523999D01*
X85294733Y-135450021D01*
X85462769Y-135259602D01*
X85541160Y-135072752D01*
X85528989Y-134922887D01*
X85443777Y-134752137D01*
X85297643Y-134564303D01*
X85108598Y-134496471D01*
X85019922Y-134492535D01*
X84801273Y-134527866D01*
X84644035Y-134664569D01*
X84580113Y-134760685D01*
X84477767Y-134944320D01*
X84465695Y-135066337D01*
X83105301Y-135066337D01*
X83072929Y-134993591D01*
X83184530Y-134879021D01*
X83314036Y-134797447D01*
X83575406Y-134643052D01*
X83296083Y-134473186D01*
X83016760Y-134303319D01*
X82547880Y-134561063D01*
X82254571Y-134707048D01*
X82060432Y-134761595D01*
X81930833Y-134735862D01*
X81796687Y-134582596D01*
X81794493Y-134381193D01*
X81916075Y-134178580D01*
X82045904Y-134075426D01*
X82309141Y-133915342D01*
X82109404Y-133786473D01*
X81873689Y-133650745D01*
X81676833Y-133553212D01*
X81487449Y-133398974D01*
X81452743Y-133177125D01*
X81531645Y-132962433D01*
X81628756Y-132841376D01*
X81763908Y-132812104D01*
X81968891Y-132878320D01*
X82275494Y-133043732D01*
X82286940Y-133050469D01*
X82713999Y-133302272D01*
X82713999Y-132976170D01*
X82758170Y-132675175D01*
X82885206Y-132512607D01*
X83086897Y-132496285D01*
X83182173Y-132530403D01*
X83296887Y-132598551D01*
X83359833Y-132701006D01*
X83386235Y-132883895D01*
X83391333Y-133164261D01*
X83393487Y-133449074D01*
X83421514Y-133625813D01*
X83507762Y-133743559D01*
X83684580Y-133851395D01*
X83920500Y-133967172D01*
X83959541Y-133912281D01*
X83981924Y-133737628D01*
X83984000Y-133650668D01*
X83984000Y-133303225D01*
X84322666Y-133476000D01*
X84661333Y-133648774D01*
X84661333Y-133314601D01*
X84651113Y-133125934D01*
X84597480Y-132995104D01*
X84465972Y-132877663D01*
X84222130Y-132729165D01*
X84195666Y-132714000D01*
X83922570Y-132541448D01*
X83777395Y-132400875D01*
X83730444Y-132262374D01*
X83730000Y-132245098D01*
X83790672Y-132030089D01*
X83953506Y-131932341D01*
X84189727Y-131961741D01*
X84340139Y-132035467D01*
X84619000Y-132205605D01*
X84661333Y-131634302D01*
X84703666Y-131063000D01*
X85296333Y-131063000D01*
X85321362Y-131634250D01*
D13*
X93674000Y-77728578D02*
X93674000Y-77211422D01*
X92254000Y-77728578D02*
X92254000Y-77211422D01*
X95706000Y-77728578D02*
X95706000Y-77211422D01*
X94286000Y-77728578D02*
X94286000Y-77211422D01*
X97738000Y-77728578D02*
X97738000Y-77211422D01*
X96318000Y-77728578D02*
X96318000Y-77211422D01*
X99770000Y-77728578D02*
X99770000Y-77211422D01*
X98350000Y-77728578D02*
X98350000Y-77211422D01*
X89714000Y-98293422D02*
X89714000Y-98810578D01*
X91134000Y-98293422D02*
X91134000Y-98810578D01*
X83741422Y-58710000D02*
X84258578Y-58710000D01*
X83741422Y-57290000D02*
X84258578Y-57290000D01*
X85593422Y-73354000D02*
X86110578Y-73354000D01*
X85593422Y-71934000D02*
X86110578Y-71934000D01*
X85593422Y-66750000D02*
X86110578Y-66750000D01*
X85593422Y-65330000D02*
X86110578Y-65330000D01*
X87888578Y-100890000D02*
X87371422Y-100890000D01*
X87888578Y-102310000D02*
X87371422Y-102310000D01*
X95245422Y-85546000D02*
X95762578Y-85546000D01*
X95245422Y-84126000D02*
X95762578Y-84126000D01*
X92959422Y-102278000D02*
X93476578Y-102278000D01*
X92959422Y-100858000D02*
X93476578Y-100858000D01*
X87888578Y-98858000D02*
X87371422Y-98858000D01*
X87888578Y-100278000D02*
X87371422Y-100278000D01*
X95245422Y-83260000D02*
X95762578Y-83260000D01*
X95245422Y-81840000D02*
X95762578Y-81840000D01*
X92959422Y-100246000D02*
X93476578Y-100246000D01*
X92959422Y-98826000D02*
X93476578Y-98826000D01*
X87888578Y-96826000D02*
X87371422Y-96826000D01*
X87888578Y-98246000D02*
X87371422Y-98246000D01*
X84258578Y-59290000D02*
X83741422Y-59290000D01*
X84258578Y-60710000D02*
X83741422Y-60710000D01*
X86752000Y-68342000D02*
X86752000Y-69892000D01*
X84952000Y-69892000D02*
X84952000Y-68592000D01*
X89390000Y-63000000D02*
X89390000Y-65450000D01*
X92610000Y-64800000D02*
X92610000Y-63000000D01*
X88384000Y-94796000D02*
X88384000Y-96111000D01*
X88084000Y-94796000D02*
X88384000Y-94796000D01*
X88084000Y-94496000D02*
X88084000Y-94796000D01*
X88084000Y-87576000D02*
X88384000Y-87576000D01*
X88084000Y-87876000D02*
X88084000Y-87576000D01*
X95304000Y-94796000D02*
X95004000Y-94796000D01*
X95304000Y-94496000D02*
X95304000Y-94796000D01*
X95304000Y-87576000D02*
X95004000Y-87576000D01*
X95304000Y-87876000D02*
X95304000Y-87576000D01*
X87682000Y-69083422D02*
X87682000Y-69600578D01*
X89102000Y-69083422D02*
X89102000Y-69600578D01*
X91134000Y-69600578D02*
X91134000Y-69083422D01*
X89714000Y-69600578D02*
X89714000Y-69083422D01*
X82348000Y-71369422D02*
X82348000Y-71886578D01*
X83768000Y-71369422D02*
X83768000Y-71886578D01*
X88270000Y-84270000D02*
X87000000Y-84270000D01*
X88270000Y-83000000D02*
X88270000Y-84270000D01*
X85957071Y-75000000D02*
X85560000Y-75000000D01*
X85957071Y-75760000D02*
X85560000Y-75760000D01*
X76900000Y-75000000D02*
X82900000Y-75000000D01*
X76900000Y-75760000D02*
X76900000Y-75000000D01*
X82900000Y-75760000D02*
X76900000Y-75760000D01*
X85560000Y-76650000D02*
X82900000Y-76650000D01*
X85957071Y-77540000D02*
X85560000Y-77540000D01*
X85957071Y-78300000D02*
X85560000Y-78300000D01*
X76900000Y-77540000D02*
X82900000Y-77540000D01*
X76900000Y-78300000D02*
X76900000Y-77540000D01*
X82900000Y-78300000D02*
X76900000Y-78300000D01*
X85560000Y-79190000D02*
X82900000Y-79190000D01*
X85957071Y-80080000D02*
X85560000Y-80080000D01*
X85957071Y-80840000D02*
X85560000Y-80840000D01*
X76900000Y-80080000D02*
X82900000Y-80080000D01*
X76900000Y-80840000D02*
X76900000Y-80080000D01*
X82900000Y-80840000D02*
X76900000Y-80840000D01*
X85560000Y-81730000D02*
X82900000Y-81730000D01*
X85890000Y-82620000D02*
X85560000Y-82620000D01*
X85890000Y-83380000D02*
X85560000Y-83380000D01*
X82900000Y-82720000D02*
X76900000Y-82720000D01*
X82900000Y-82840000D02*
X76900000Y-82840000D01*
X82900000Y-82960000D02*
X76900000Y-82960000D01*
X82900000Y-83080000D02*
X76900000Y-83080000D01*
X82900000Y-83200000D02*
X76900000Y-83200000D01*
X82900000Y-83320000D02*
X76900000Y-83320000D01*
X76900000Y-82620000D02*
X82900000Y-82620000D01*
X76900000Y-83380000D02*
X76900000Y-82620000D01*
X82900000Y-83380000D02*
X76900000Y-83380000D01*
X82900000Y-84330000D02*
X85560000Y-84330000D01*
X82900000Y-74050000D02*
X82900000Y-84330000D01*
X85560000Y-74050000D02*
X82900000Y-74050000D01*
X85560000Y-84330000D02*
X85560000Y-74050000D01*
X176237000Y-60730000D02*
X176237000Y-63280000D01*
X174537000Y-60730000D02*
X174537000Y-63280000D01*
X176237000Y-60730000D02*
X174537000Y-60730000D01*
X172427000Y-60730000D02*
X172427000Y-63280000D01*
X170727000Y-60730000D02*
X170727000Y-63280000D01*
X172427000Y-60730000D02*
X170727000Y-60730000D01*
X168617000Y-60730000D02*
X168617000Y-63280000D01*
X166917000Y-60730000D02*
X166917000Y-63280000D01*
X168617000Y-60730000D02*
X166917000Y-60730000D01*
X164807000Y-60730000D02*
X164807000Y-63280000D01*
X163107000Y-60730000D02*
X163107000Y-63280000D01*
X164807000Y-60730000D02*
X163107000Y-60730000D01*
X157187000Y-60730000D02*
X157187000Y-63280000D01*
X155487000Y-60730000D02*
X155487000Y-63280000D01*
X157187000Y-60730000D02*
X155487000Y-60730000D01*
X153377000Y-60730000D02*
X153377000Y-63280000D01*
X151677000Y-60730000D02*
X151677000Y-63280000D01*
X153377000Y-60730000D02*
X151677000Y-60730000D01*
X149567000Y-60730000D02*
X149567000Y-63280000D01*
X147867000Y-60730000D02*
X147867000Y-63280000D01*
X149567000Y-60730000D02*
X147867000Y-60730000D01*
X145757000Y-60730000D02*
X145757000Y-63280000D01*
X144057000Y-60730000D02*
X144057000Y-63280000D01*
X145757000Y-60730000D02*
X144057000Y-60730000D01*
X138137000Y-60730000D02*
X138137000Y-63280000D01*
X136437000Y-60730000D02*
X136437000Y-63280000D01*
X138137000Y-60730000D02*
X136437000Y-60730000D01*
X134327000Y-60730000D02*
X134327000Y-63280000D01*
X132627000Y-60730000D02*
X132627000Y-63280000D01*
X134327000Y-60730000D02*
X132627000Y-60730000D01*
X130517000Y-60730000D02*
X130517000Y-63280000D01*
X128817000Y-60730000D02*
X128817000Y-63280000D01*
X130517000Y-60730000D02*
X128817000Y-60730000D01*
X126707000Y-60730000D02*
X126707000Y-63280000D01*
X125007000Y-60730000D02*
X125007000Y-63280000D01*
X126707000Y-60730000D02*
X125007000Y-60730000D01*
X119087000Y-60730000D02*
X119087000Y-63280000D01*
X117387000Y-60730000D02*
X117387000Y-63280000D01*
X119087000Y-60730000D02*
X117387000Y-60730000D01*
X115277000Y-60730000D02*
X115277000Y-63280000D01*
X113577000Y-60730000D02*
X113577000Y-63280000D01*
X115277000Y-60730000D02*
X113577000Y-60730000D01*
X111467000Y-60730000D02*
X111467000Y-63280000D01*
X109767000Y-60730000D02*
X109767000Y-63280000D01*
X111467000Y-60730000D02*
X109767000Y-60730000D01*
X107657000Y-60730000D02*
X107657000Y-63280000D01*
X105957000Y-60730000D02*
X105957000Y-63280000D01*
X107657000Y-60730000D02*
X105957000Y-60730000D01*
D14*
X95777380Y-55883333D02*
X96491666Y-55883333D01*
X96634523Y-55930952D01*
X96729761Y-56026190D01*
X96777380Y-56169047D01*
X96777380Y-56264285D01*
X95872619Y-55454761D02*
X95825000Y-55407142D01*
X95777380Y-55311904D01*
X95777380Y-55073809D01*
X95825000Y-54978571D01*
X95872619Y-54930952D01*
X95967857Y-54883333D01*
X96063095Y-54883333D01*
X96205952Y-54930952D01*
X96777380Y-55502380D01*
X96777380Y-54883333D01*
X92557142Y-121952380D02*
X92557142Y-120952380D01*
X92938095Y-120952380D01*
X93033333Y-121000000D01*
X93080952Y-121047619D01*
X93128571Y-121142857D01*
X93128571Y-121285714D01*
X93080952Y-121380952D01*
X93033333Y-121428571D01*
X92938095Y-121476190D01*
X92557142Y-121476190D01*
X93747619Y-120952380D02*
X93938095Y-120952380D01*
X94033333Y-121000000D01*
X94128571Y-121095238D01*
X94176190Y-121285714D01*
X94176190Y-121619047D01*
X94128571Y-121809523D01*
X94033333Y-121904761D01*
X93938095Y-121952380D01*
X93747619Y-121952380D01*
X93652380Y-121904761D01*
X93557142Y-121809523D01*
X93509523Y-121619047D01*
X93509523Y-121285714D01*
X93557142Y-121095238D01*
X93652380Y-121000000D01*
X93747619Y-120952380D01*
X94461904Y-120952380D02*
X95033333Y-120952380D01*
X94747619Y-121952380D02*
X94747619Y-120952380D01*
X95319047Y-121047619D02*
X95366666Y-121000000D01*
X95461904Y-120952380D01*
X95700000Y-120952380D01*
X95795238Y-121000000D01*
X95842857Y-121047619D01*
X95890476Y-121142857D01*
X95890476Y-121238095D01*
X95842857Y-121380952D01*
X95271428Y-121952380D01*
X95890476Y-121952380D01*
X92557142Y-104202380D02*
X92557142Y-103202380D01*
X92938095Y-103202380D01*
X93033333Y-103250000D01*
X93080952Y-103297619D01*
X93128571Y-103392857D01*
X93128571Y-103535714D01*
X93080952Y-103630952D01*
X93033333Y-103678571D01*
X92938095Y-103726190D01*
X92557142Y-103726190D01*
X93747619Y-103202380D02*
X93938095Y-103202380D01*
X94033333Y-103250000D01*
X94128571Y-103345238D01*
X94176190Y-103535714D01*
X94176190Y-103869047D01*
X94128571Y-104059523D01*
X94033333Y-104154761D01*
X93938095Y-104202380D01*
X93747619Y-104202380D01*
X93652380Y-104154761D01*
X93557142Y-104059523D01*
X93509523Y-103869047D01*
X93509523Y-103535714D01*
X93557142Y-103345238D01*
X93652380Y-103250000D01*
X93747619Y-103202380D01*
X94461904Y-103202380D02*
X95033333Y-103202380D01*
X94747619Y-104202380D02*
X94747619Y-103202380D01*
X95890476Y-104202380D02*
X95319047Y-104202380D01*
X95604761Y-104202380D02*
X95604761Y-103202380D01*
X95509523Y-103345238D01*
X95414285Y-103440476D01*
X95319047Y-103488095D01*
X92797333Y-75636380D02*
X92464000Y-75160190D01*
X92225904Y-75636380D02*
X92225904Y-74636380D01*
X92606857Y-74636380D01*
X92702095Y-74684000D01*
X92749714Y-74731619D01*
X92797333Y-74826857D01*
X92797333Y-74969714D01*
X92749714Y-75064952D01*
X92702095Y-75112571D01*
X92606857Y-75160190D01*
X92225904Y-75160190D01*
X93368761Y-75064952D02*
X93273523Y-75017333D01*
X93225904Y-74969714D01*
X93178285Y-74874476D01*
X93178285Y-74826857D01*
X93225904Y-74731619D01*
X93273523Y-74684000D01*
X93368761Y-74636380D01*
X93559238Y-74636380D01*
X93654476Y-74684000D01*
X93702095Y-74731619D01*
X93749714Y-74826857D01*
X93749714Y-74874476D01*
X93702095Y-74969714D01*
X93654476Y-75017333D01*
X93559238Y-75064952D01*
X93368761Y-75064952D01*
X93273523Y-75112571D01*
X93225904Y-75160190D01*
X93178285Y-75255428D01*
X93178285Y-75445904D01*
X93225904Y-75541142D01*
X93273523Y-75588761D01*
X93368761Y-75636380D01*
X93559238Y-75636380D01*
X93654476Y-75588761D01*
X93702095Y-75541142D01*
X93749714Y-75445904D01*
X93749714Y-75255428D01*
X93702095Y-75160190D01*
X93654476Y-75112571D01*
X93559238Y-75064952D01*
X94829333Y-75636380D02*
X94496000Y-75160190D01*
X94257904Y-75636380D02*
X94257904Y-74636380D01*
X94638857Y-74636380D01*
X94734095Y-74684000D01*
X94781714Y-74731619D01*
X94829333Y-74826857D01*
X94829333Y-74969714D01*
X94781714Y-75064952D01*
X94734095Y-75112571D01*
X94638857Y-75160190D01*
X94257904Y-75160190D01*
X95162666Y-74636380D02*
X95829333Y-74636380D01*
X95400761Y-75636380D01*
X96861333Y-75636380D02*
X96528000Y-75160190D01*
X96289904Y-75636380D02*
X96289904Y-74636380D01*
X96670857Y-74636380D01*
X96766095Y-74684000D01*
X96813714Y-74731619D01*
X96861333Y-74826857D01*
X96861333Y-74969714D01*
X96813714Y-75064952D01*
X96766095Y-75112571D01*
X96670857Y-75160190D01*
X96289904Y-75160190D01*
X97718476Y-74636380D02*
X97528000Y-74636380D01*
X97432761Y-74684000D01*
X97385142Y-74731619D01*
X97289904Y-74874476D01*
X97242285Y-75064952D01*
X97242285Y-75445904D01*
X97289904Y-75541142D01*
X97337523Y-75588761D01*
X97432761Y-75636380D01*
X97623238Y-75636380D01*
X97718476Y-75588761D01*
X97766095Y-75541142D01*
X97813714Y-75445904D01*
X97813714Y-75207809D01*
X97766095Y-75112571D01*
X97718476Y-75064952D01*
X97623238Y-75017333D01*
X97432761Y-75017333D01*
X97337523Y-75064952D01*
X97289904Y-75112571D01*
X97242285Y-75207809D01*
X98893333Y-75636380D02*
X98560000Y-75160190D01*
X98321904Y-75636380D02*
X98321904Y-74636380D01*
X98702857Y-74636380D01*
X98798095Y-74684000D01*
X98845714Y-74731619D01*
X98893333Y-74826857D01*
X98893333Y-74969714D01*
X98845714Y-75064952D01*
X98798095Y-75112571D01*
X98702857Y-75160190D01*
X98321904Y-75160190D01*
X99274285Y-74731619D02*
X99321904Y-74684000D01*
X99417142Y-74636380D01*
X99655238Y-74636380D01*
X99750476Y-74684000D01*
X99798095Y-74731619D01*
X99845714Y-74826857D01*
X99845714Y-74922095D01*
X99798095Y-75064952D01*
X99226666Y-75636380D01*
X99845714Y-75636380D01*
X90876380Y-101512666D02*
X90400190Y-101846000D01*
X90876380Y-102084095D02*
X89876380Y-102084095D01*
X89876380Y-101703142D01*
X89924000Y-101607904D01*
X89971619Y-101560285D01*
X90066857Y-101512666D01*
X90209714Y-101512666D01*
X90304952Y-101560285D01*
X90352571Y-101607904D01*
X90400190Y-101703142D01*
X90400190Y-102084095D01*
X89876380Y-101179333D02*
X89876380Y-100560285D01*
X90257333Y-100893619D01*
X90257333Y-100750761D01*
X90304952Y-100655523D01*
X90352571Y-100607904D01*
X90447809Y-100560285D01*
X90685904Y-100560285D01*
X90781142Y-100607904D01*
X90828761Y-100655523D01*
X90876380Y-100750761D01*
X90876380Y-101036476D01*
X90828761Y-101131714D01*
X90781142Y-101179333D01*
X83357142Y-56707142D02*
X83309523Y-56754761D01*
X83166666Y-56802380D01*
X83071428Y-56802380D01*
X82928571Y-56754761D01*
X82833333Y-56659523D01*
X82785714Y-56564285D01*
X82738095Y-56373809D01*
X82738095Y-56230952D01*
X82785714Y-56040476D01*
X82833333Y-55945238D01*
X82928571Y-55850000D01*
X83071428Y-55802380D01*
X83166666Y-55802380D01*
X83309523Y-55850000D01*
X83357142Y-55897619D01*
X84309523Y-56802380D02*
X83738095Y-56802380D01*
X84023809Y-56802380D02*
X84023809Y-55802380D01*
X83928571Y-55945238D01*
X83833333Y-56040476D01*
X83738095Y-56088095D01*
X84928571Y-55802380D02*
X85023809Y-55802380D01*
X85119047Y-55850000D01*
X85166666Y-55897619D01*
X85214285Y-55992857D01*
X85261904Y-56183333D01*
X85261904Y-56421428D01*
X85214285Y-56611904D01*
X85166666Y-56707142D01*
X85119047Y-56754761D01*
X85023809Y-56802380D01*
X84928571Y-56802380D01*
X84833333Y-56754761D01*
X84785714Y-56707142D01*
X84738095Y-56611904D01*
X84690476Y-56421428D01*
X84690476Y-56183333D01*
X84738095Y-55992857D01*
X84785714Y-55897619D01*
X84833333Y-55850000D01*
X84928571Y-55802380D01*
X85685333Y-74779142D02*
X85637714Y-74826761D01*
X85494857Y-74874380D01*
X85399619Y-74874380D01*
X85256761Y-74826761D01*
X85161523Y-74731523D01*
X85113904Y-74636285D01*
X85066285Y-74445809D01*
X85066285Y-74302952D01*
X85113904Y-74112476D01*
X85161523Y-74017238D01*
X85256761Y-73922000D01*
X85399619Y-73874380D01*
X85494857Y-73874380D01*
X85637714Y-73922000D01*
X85685333Y-73969619D01*
X86161523Y-74874380D02*
X86352000Y-74874380D01*
X86447238Y-74826761D01*
X86494857Y-74779142D01*
X86590095Y-74636285D01*
X86637714Y-74445809D01*
X86637714Y-74064857D01*
X86590095Y-73969619D01*
X86542476Y-73922000D01*
X86447238Y-73874380D01*
X86256761Y-73874380D01*
X86161523Y-73922000D01*
X86113904Y-73969619D01*
X86066285Y-74064857D01*
X86066285Y-74302952D01*
X86113904Y-74398190D01*
X86161523Y-74445809D01*
X86256761Y-74493428D01*
X86447238Y-74493428D01*
X86542476Y-74445809D01*
X86590095Y-74398190D01*
X86637714Y-74302952D01*
X85685333Y-64747142D02*
X85637714Y-64794761D01*
X85494857Y-64842380D01*
X85399619Y-64842380D01*
X85256761Y-64794761D01*
X85161523Y-64699523D01*
X85113904Y-64604285D01*
X85066285Y-64413809D01*
X85066285Y-64270952D01*
X85113904Y-64080476D01*
X85161523Y-63985238D01*
X85256761Y-63890000D01*
X85399619Y-63842380D01*
X85494857Y-63842380D01*
X85637714Y-63890000D01*
X85685333Y-63937619D01*
X86256761Y-64270952D02*
X86161523Y-64223333D01*
X86113904Y-64175714D01*
X86066285Y-64080476D01*
X86066285Y-64032857D01*
X86113904Y-63937619D01*
X86161523Y-63890000D01*
X86256761Y-63842380D01*
X86447238Y-63842380D01*
X86542476Y-63890000D01*
X86590095Y-63937619D01*
X86637714Y-64032857D01*
X86637714Y-64080476D01*
X86590095Y-64175714D01*
X86542476Y-64223333D01*
X86447238Y-64270952D01*
X86256761Y-64270952D01*
X86161523Y-64318571D01*
X86113904Y-64366190D01*
X86066285Y-64461428D01*
X86066285Y-64651904D01*
X86113904Y-64747142D01*
X86161523Y-64794761D01*
X86256761Y-64842380D01*
X86447238Y-64842380D01*
X86542476Y-64794761D01*
X86590095Y-64747142D01*
X86637714Y-64651904D01*
X86637714Y-64461428D01*
X86590095Y-64366190D01*
X86542476Y-64318571D01*
X86447238Y-64270952D01*
X84415333Y-101957142D02*
X84367714Y-102004761D01*
X84224857Y-102052380D01*
X84129619Y-102052380D01*
X83986761Y-102004761D01*
X83891523Y-101909523D01*
X83843904Y-101814285D01*
X83796285Y-101623809D01*
X83796285Y-101480952D01*
X83843904Y-101290476D01*
X83891523Y-101195238D01*
X83986761Y-101100000D01*
X84129619Y-101052380D01*
X84224857Y-101052380D01*
X84367714Y-101100000D01*
X84415333Y-101147619D01*
X84748666Y-101052380D02*
X85415333Y-101052380D01*
X84986761Y-102052380D01*
X92797333Y-85193142D02*
X92749714Y-85240761D01*
X92606857Y-85288380D01*
X92511619Y-85288380D01*
X92368761Y-85240761D01*
X92273523Y-85145523D01*
X92225904Y-85050285D01*
X92178285Y-84859809D01*
X92178285Y-84716952D01*
X92225904Y-84526476D01*
X92273523Y-84431238D01*
X92368761Y-84336000D01*
X92511619Y-84288380D01*
X92606857Y-84288380D01*
X92749714Y-84336000D01*
X92797333Y-84383619D01*
X93654476Y-84288380D02*
X93464000Y-84288380D01*
X93368761Y-84336000D01*
X93321142Y-84383619D01*
X93225904Y-84526476D01*
X93178285Y-84716952D01*
X93178285Y-85097904D01*
X93225904Y-85193142D01*
X93273523Y-85240761D01*
X93368761Y-85288380D01*
X93559238Y-85288380D01*
X93654476Y-85240761D01*
X93702095Y-85193142D01*
X93749714Y-85097904D01*
X93749714Y-84859809D01*
X93702095Y-84764571D01*
X93654476Y-84716952D01*
X93559238Y-84669333D01*
X93368761Y-84669333D01*
X93273523Y-84716952D01*
X93225904Y-84764571D01*
X93178285Y-84859809D01*
X95845333Y-101925142D02*
X95797714Y-101972761D01*
X95654857Y-102020380D01*
X95559619Y-102020380D01*
X95416761Y-101972761D01*
X95321523Y-101877523D01*
X95273904Y-101782285D01*
X95226285Y-101591809D01*
X95226285Y-101448952D01*
X95273904Y-101258476D01*
X95321523Y-101163238D01*
X95416761Y-101068000D01*
X95559619Y-101020380D01*
X95654857Y-101020380D01*
X95797714Y-101068000D01*
X95845333Y-101115619D01*
X96750095Y-101020380D02*
X96273904Y-101020380D01*
X96226285Y-101496571D01*
X96273904Y-101448952D01*
X96369142Y-101401333D01*
X96607238Y-101401333D01*
X96702476Y-101448952D01*
X96750095Y-101496571D01*
X96797714Y-101591809D01*
X96797714Y-101829904D01*
X96750095Y-101925142D01*
X96702476Y-101972761D01*
X96607238Y-102020380D01*
X96369142Y-102020380D01*
X96273904Y-101972761D01*
X96226285Y-101925142D01*
X84415333Y-99925142D02*
X84367714Y-99972761D01*
X84224857Y-100020380D01*
X84129619Y-100020380D01*
X83986761Y-99972761D01*
X83891523Y-99877523D01*
X83843904Y-99782285D01*
X83796285Y-99591809D01*
X83796285Y-99448952D01*
X83843904Y-99258476D01*
X83891523Y-99163238D01*
X83986761Y-99068000D01*
X84129619Y-99020380D01*
X84224857Y-99020380D01*
X84367714Y-99068000D01*
X84415333Y-99115619D01*
X85272476Y-99353714D02*
X85272476Y-100020380D01*
X85034380Y-98972761D02*
X84796285Y-99687047D01*
X85415333Y-99687047D01*
X92543333Y-82907142D02*
X92495714Y-82954761D01*
X92352857Y-83002380D01*
X92257619Y-83002380D01*
X92114761Y-82954761D01*
X92019523Y-82859523D01*
X91971904Y-82764285D01*
X91924285Y-82573809D01*
X91924285Y-82430952D01*
X91971904Y-82240476D01*
X92019523Y-82145238D01*
X92114761Y-82050000D01*
X92257619Y-82002380D01*
X92352857Y-82002380D01*
X92495714Y-82050000D01*
X92543333Y-82097619D01*
X92876666Y-82002380D02*
X93495714Y-82002380D01*
X93162380Y-82383333D01*
X93305238Y-82383333D01*
X93400476Y-82430952D01*
X93448095Y-82478571D01*
X93495714Y-82573809D01*
X93495714Y-82811904D01*
X93448095Y-82907142D01*
X93400476Y-82954761D01*
X93305238Y-83002380D01*
X93019523Y-83002380D01*
X92924285Y-82954761D01*
X92876666Y-82907142D01*
X95766833Y-99893142D02*
X95719214Y-99940761D01*
X95576357Y-99988380D01*
X95481119Y-99988380D01*
X95338261Y-99940761D01*
X95243023Y-99845523D01*
X95195404Y-99750285D01*
X95147785Y-99559809D01*
X95147785Y-99416952D01*
X95195404Y-99226476D01*
X95243023Y-99131238D01*
X95338261Y-99036000D01*
X95481119Y-98988380D01*
X95576357Y-98988380D01*
X95719214Y-99036000D01*
X95766833Y-99083619D01*
X96147785Y-99083619D02*
X96195404Y-99036000D01*
X96290642Y-98988380D01*
X96528738Y-98988380D01*
X96623976Y-99036000D01*
X96671595Y-99083619D01*
X96719214Y-99178857D01*
X96719214Y-99274095D01*
X96671595Y-99416952D01*
X96100166Y-99988380D01*
X96719214Y-99988380D01*
X84415333Y-97893142D02*
X84367714Y-97940761D01*
X84224857Y-97988380D01*
X84129619Y-97988380D01*
X83986761Y-97940761D01*
X83891523Y-97845523D01*
X83843904Y-97750285D01*
X83796285Y-97559809D01*
X83796285Y-97416952D01*
X83843904Y-97226476D01*
X83891523Y-97131238D01*
X83986761Y-97036000D01*
X84129619Y-96988380D01*
X84224857Y-96988380D01*
X84367714Y-97036000D01*
X84415333Y-97083619D01*
X85367714Y-97988380D02*
X84796285Y-97988380D01*
X85082000Y-97988380D02*
X85082000Y-96988380D01*
X84986761Y-97131238D01*
X84891523Y-97226476D01*
X84796285Y-97274095D01*
X83833333Y-62102380D02*
X83500000Y-61626190D01*
X83261904Y-62102380D02*
X83261904Y-61102380D01*
X83642857Y-61102380D01*
X83738095Y-61150000D01*
X83785714Y-61197619D01*
X83833333Y-61292857D01*
X83833333Y-61435714D01*
X83785714Y-61530952D01*
X83738095Y-61578571D01*
X83642857Y-61626190D01*
X83261904Y-61626190D01*
X84785714Y-62102380D02*
X84214285Y-62102380D01*
X84500000Y-62102380D02*
X84500000Y-61102380D01*
X84404761Y-61245238D01*
X84309523Y-61340476D01*
X84214285Y-61388095D01*
X83304380Y-70003904D02*
X84113904Y-70003904D01*
X84209142Y-69956285D01*
X84256761Y-69908666D01*
X84304380Y-69813428D01*
X84304380Y-69622952D01*
X84256761Y-69527714D01*
X84209142Y-69480095D01*
X84113904Y-69432476D01*
X83304380Y-69432476D01*
X83304380Y-69051523D02*
X83304380Y-68432476D01*
X83685333Y-68765809D01*
X83685333Y-68622952D01*
X83732952Y-68527714D01*
X83780571Y-68480095D01*
X83875809Y-68432476D01*
X84113904Y-68432476D01*
X84209142Y-68480095D01*
X84256761Y-68527714D01*
X84304380Y-68622952D01*
X84304380Y-68908666D01*
X84256761Y-69003904D01*
X84209142Y-69051523D01*
X92924380Y-65023904D02*
X93733904Y-65023904D01*
X93829142Y-64976285D01*
X93876761Y-64928666D01*
X93924380Y-64833428D01*
X93924380Y-64642952D01*
X93876761Y-64547714D01*
X93829142Y-64500095D01*
X93733904Y-64452476D01*
X92924380Y-64452476D01*
X93019619Y-64023904D02*
X92972000Y-63976285D01*
X92924380Y-63881047D01*
X92924380Y-63642952D01*
X92972000Y-63547714D01*
X93019619Y-63500095D01*
X93114857Y-63452476D01*
X93210095Y-63452476D01*
X93352952Y-63500095D01*
X93924380Y-64071523D01*
X93924380Y-63452476D01*
X85266380Y-91947904D02*
X86075904Y-91947904D01*
X86171142Y-91900285D01*
X86218761Y-91852666D01*
X86266380Y-91757428D01*
X86266380Y-91566952D01*
X86218761Y-91471714D01*
X86171142Y-91424095D01*
X86075904Y-91376476D01*
X85266380Y-91376476D01*
X86266380Y-90376476D02*
X86266380Y-90947904D01*
X86266380Y-90662190D02*
X85266380Y-90662190D01*
X85409238Y-90757428D01*
X85504476Y-90852666D01*
X85552095Y-90947904D01*
X88844380Y-72048666D02*
X88368190Y-72382000D01*
X88844380Y-72620095D02*
X87844380Y-72620095D01*
X87844380Y-72239142D01*
X87892000Y-72143904D01*
X87939619Y-72096285D01*
X88034857Y-72048666D01*
X88177714Y-72048666D01*
X88272952Y-72096285D01*
X88320571Y-72143904D01*
X88368190Y-72239142D01*
X88368190Y-72620095D01*
X87844380Y-71143904D02*
X87844380Y-71620095D01*
X88320571Y-71667714D01*
X88272952Y-71620095D01*
X88225333Y-71524857D01*
X88225333Y-71286761D01*
X88272952Y-71191523D01*
X88320571Y-71143904D01*
X88415809Y-71096285D01*
X88653904Y-71096285D01*
X88749142Y-71143904D01*
X88796761Y-71191523D01*
X88844380Y-71286761D01*
X88844380Y-71524857D01*
X88796761Y-71620095D01*
X88749142Y-71667714D01*
X90876380Y-72048666D02*
X90400190Y-72382000D01*
X90876380Y-72620095D02*
X89876380Y-72620095D01*
X89876380Y-72239142D01*
X89924000Y-72143904D01*
X89971619Y-72096285D01*
X90066857Y-72048666D01*
X90209714Y-72048666D01*
X90304952Y-72096285D01*
X90352571Y-72143904D01*
X90400190Y-72239142D01*
X90400190Y-72620095D01*
X90209714Y-71191523D02*
X90876380Y-71191523D01*
X89828761Y-71429619D02*
X90543047Y-71667714D01*
X90543047Y-71048666D01*
X83548380Y-74184666D02*
X83548380Y-74660857D01*
X82548380Y-74660857D01*
X83548380Y-73327523D02*
X83548380Y-73898952D01*
X83548380Y-73613238D02*
X82548380Y-73613238D01*
X82691238Y-73708476D01*
X82786476Y-73803714D01*
X82834095Y-73898952D01*
X85904666Y-84992380D02*
X85904666Y-85706666D01*
X85857047Y-85849523D01*
X85761809Y-85944761D01*
X85618952Y-85992380D01*
X85523714Y-85992380D01*
X86904666Y-85992380D02*
X86333238Y-85992380D01*
X86618952Y-85992380D02*
X86618952Y-84992380D01*
X86523714Y-85135238D01*
X86428476Y-85230476D01*
X86333238Y-85278095D01*
X177689380Y-63444285D02*
X176689380Y-63444285D01*
X176689380Y-63206190D01*
X176737000Y-63063333D01*
X176832238Y-62968095D01*
X176927476Y-62920476D01*
X177117952Y-62872857D01*
X177260809Y-62872857D01*
X177451285Y-62920476D01*
X177546523Y-62968095D01*
X177641761Y-63063333D01*
X177689380Y-63206190D01*
X177689380Y-63444285D01*
X177689380Y-61920476D02*
X177689380Y-62491904D01*
X177689380Y-62206190D02*
X176689380Y-62206190D01*
X176832238Y-62301428D01*
X176927476Y-62396666D01*
X176975095Y-62491904D01*
X176689380Y-61063333D02*
X176689380Y-61253809D01*
X176737000Y-61349047D01*
X176784619Y-61396666D01*
X176927476Y-61491904D01*
X177117952Y-61539523D01*
X177498904Y-61539523D01*
X177594142Y-61491904D01*
X177641761Y-61444285D01*
X177689380Y-61349047D01*
X177689380Y-61158571D01*
X177641761Y-61063333D01*
X177594142Y-61015714D01*
X177498904Y-60968095D01*
X177260809Y-60968095D01*
X177165571Y-61015714D01*
X177117952Y-61063333D01*
X177070333Y-61158571D01*
X177070333Y-61349047D01*
X177117952Y-61444285D01*
X177165571Y-61491904D01*
X177260809Y-61539523D01*
X173879380Y-63444285D02*
X172879380Y-63444285D01*
X172879380Y-63206190D01*
X172927000Y-63063333D01*
X173022238Y-62968095D01*
X173117476Y-62920476D01*
X173307952Y-62872857D01*
X173450809Y-62872857D01*
X173641285Y-62920476D01*
X173736523Y-62968095D01*
X173831761Y-63063333D01*
X173879380Y-63206190D01*
X173879380Y-63444285D01*
X173879380Y-61920476D02*
X173879380Y-62491904D01*
X173879380Y-62206190D02*
X172879380Y-62206190D01*
X173022238Y-62301428D01*
X173117476Y-62396666D01*
X173165095Y-62491904D01*
X172879380Y-61015714D02*
X172879380Y-61491904D01*
X173355571Y-61539523D01*
X173307952Y-61491904D01*
X173260333Y-61396666D01*
X173260333Y-61158571D01*
X173307952Y-61063333D01*
X173355571Y-61015714D01*
X173450809Y-60968095D01*
X173688904Y-60968095D01*
X173784142Y-61015714D01*
X173831761Y-61063333D01*
X173879380Y-61158571D01*
X173879380Y-61396666D01*
X173831761Y-61491904D01*
X173784142Y-61539523D01*
X170069380Y-63444285D02*
X169069380Y-63444285D01*
X169069380Y-63206190D01*
X169117000Y-63063333D01*
X169212238Y-62968095D01*
X169307476Y-62920476D01*
X169497952Y-62872857D01*
X169640809Y-62872857D01*
X169831285Y-62920476D01*
X169926523Y-62968095D01*
X170021761Y-63063333D01*
X170069380Y-63206190D01*
X170069380Y-63444285D01*
X170069380Y-61920476D02*
X170069380Y-62491904D01*
X170069380Y-62206190D02*
X169069380Y-62206190D01*
X169212238Y-62301428D01*
X169307476Y-62396666D01*
X169355095Y-62491904D01*
X169402714Y-61063333D02*
X170069380Y-61063333D01*
X169021761Y-61301428D02*
X169736047Y-61539523D01*
X169736047Y-60920476D01*
X166259380Y-63444285D02*
X165259380Y-63444285D01*
X165259380Y-63206190D01*
X165307000Y-63063333D01*
X165402238Y-62968095D01*
X165497476Y-62920476D01*
X165687952Y-62872857D01*
X165830809Y-62872857D01*
X166021285Y-62920476D01*
X166116523Y-62968095D01*
X166211761Y-63063333D01*
X166259380Y-63206190D01*
X166259380Y-63444285D01*
X166259380Y-61920476D02*
X166259380Y-62491904D01*
X166259380Y-62206190D02*
X165259380Y-62206190D01*
X165402238Y-62301428D01*
X165497476Y-62396666D01*
X165545095Y-62491904D01*
X165259380Y-61587142D02*
X165259380Y-60968095D01*
X165640333Y-61301428D01*
X165640333Y-61158571D01*
X165687952Y-61063333D01*
X165735571Y-61015714D01*
X165830809Y-60968095D01*
X166068904Y-60968095D01*
X166164142Y-61015714D01*
X166211761Y-61063333D01*
X166259380Y-61158571D01*
X166259380Y-61444285D01*
X166211761Y-61539523D01*
X166164142Y-61587142D01*
X158639380Y-63444285D02*
X157639380Y-63444285D01*
X157639380Y-63206190D01*
X157687000Y-63063333D01*
X157782238Y-62968095D01*
X157877476Y-62920476D01*
X158067952Y-62872857D01*
X158210809Y-62872857D01*
X158401285Y-62920476D01*
X158496523Y-62968095D01*
X158591761Y-63063333D01*
X158639380Y-63206190D01*
X158639380Y-63444285D01*
X158639380Y-61920476D02*
X158639380Y-62491904D01*
X158639380Y-62206190D02*
X157639380Y-62206190D01*
X157782238Y-62301428D01*
X157877476Y-62396666D01*
X157925095Y-62491904D01*
X157734619Y-61539523D02*
X157687000Y-61491904D01*
X157639380Y-61396666D01*
X157639380Y-61158571D01*
X157687000Y-61063333D01*
X157734619Y-61015714D01*
X157829857Y-60968095D01*
X157925095Y-60968095D01*
X158067952Y-61015714D01*
X158639380Y-61587142D01*
X158639380Y-60968095D01*
X154829380Y-63444285D02*
X153829380Y-63444285D01*
X153829380Y-63206190D01*
X153877000Y-63063333D01*
X153972238Y-62968095D01*
X154067476Y-62920476D01*
X154257952Y-62872857D01*
X154400809Y-62872857D01*
X154591285Y-62920476D01*
X154686523Y-62968095D01*
X154781761Y-63063333D01*
X154829380Y-63206190D01*
X154829380Y-63444285D01*
X154829380Y-61920476D02*
X154829380Y-62491904D01*
X154829380Y-62206190D02*
X153829380Y-62206190D01*
X153972238Y-62301428D01*
X154067476Y-62396666D01*
X154115095Y-62491904D01*
X154829380Y-60968095D02*
X154829380Y-61539523D01*
X154829380Y-61253809D02*
X153829380Y-61253809D01*
X153972238Y-61349047D01*
X154067476Y-61444285D01*
X154115095Y-61539523D01*
X151019380Y-63444285D02*
X150019380Y-63444285D01*
X150019380Y-63206190D01*
X150067000Y-63063333D01*
X150162238Y-62968095D01*
X150257476Y-62920476D01*
X150447952Y-62872857D01*
X150590809Y-62872857D01*
X150781285Y-62920476D01*
X150876523Y-62968095D01*
X150971761Y-63063333D01*
X151019380Y-63206190D01*
X151019380Y-63444285D01*
X151019380Y-61920476D02*
X151019380Y-62491904D01*
X151019380Y-62206190D02*
X150019380Y-62206190D01*
X150162238Y-62301428D01*
X150257476Y-62396666D01*
X150305095Y-62491904D01*
X150019380Y-61301428D02*
X150019380Y-61206190D01*
X150067000Y-61110952D01*
X150114619Y-61063333D01*
X150209857Y-61015714D01*
X150400333Y-60968095D01*
X150638428Y-60968095D01*
X150828904Y-61015714D01*
X150924142Y-61063333D01*
X150971761Y-61110952D01*
X151019380Y-61206190D01*
X151019380Y-61301428D01*
X150971761Y-61396666D01*
X150924142Y-61444285D01*
X150828904Y-61491904D01*
X150638428Y-61539523D01*
X150400333Y-61539523D01*
X150209857Y-61491904D01*
X150114619Y-61444285D01*
X150067000Y-61396666D01*
X150019380Y-61301428D01*
X147209380Y-62968095D02*
X146209380Y-62968095D01*
X146209380Y-62730000D01*
X146257000Y-62587142D01*
X146352238Y-62491904D01*
X146447476Y-62444285D01*
X146637952Y-62396666D01*
X146780809Y-62396666D01*
X146971285Y-62444285D01*
X147066523Y-62491904D01*
X147161761Y-62587142D01*
X147209380Y-62730000D01*
X147209380Y-62968095D01*
X147209380Y-61920476D02*
X147209380Y-61730000D01*
X147161761Y-61634761D01*
X147114142Y-61587142D01*
X146971285Y-61491904D01*
X146780809Y-61444285D01*
X146399857Y-61444285D01*
X146304619Y-61491904D01*
X146257000Y-61539523D01*
X146209380Y-61634761D01*
X146209380Y-61825238D01*
X146257000Y-61920476D01*
X146304619Y-61968095D01*
X146399857Y-62015714D01*
X146637952Y-62015714D01*
X146733190Y-61968095D01*
X146780809Y-61920476D01*
X146828428Y-61825238D01*
X146828428Y-61634761D01*
X146780809Y-61539523D01*
X146733190Y-61491904D01*
X146637952Y-61444285D01*
X139589380Y-62968095D02*
X138589380Y-62968095D01*
X138589380Y-62730000D01*
X138637000Y-62587142D01*
X138732238Y-62491904D01*
X138827476Y-62444285D01*
X139017952Y-62396666D01*
X139160809Y-62396666D01*
X139351285Y-62444285D01*
X139446523Y-62491904D01*
X139541761Y-62587142D01*
X139589380Y-62730000D01*
X139589380Y-62968095D01*
X139017952Y-61825238D02*
X138970333Y-61920476D01*
X138922714Y-61968095D01*
X138827476Y-62015714D01*
X138779857Y-62015714D01*
X138684619Y-61968095D01*
X138637000Y-61920476D01*
X138589380Y-61825238D01*
X138589380Y-61634761D01*
X138637000Y-61539523D01*
X138684619Y-61491904D01*
X138779857Y-61444285D01*
X138827476Y-61444285D01*
X138922714Y-61491904D01*
X138970333Y-61539523D01*
X139017952Y-61634761D01*
X139017952Y-61825238D01*
X139065571Y-61920476D01*
X139113190Y-61968095D01*
X139208428Y-62015714D01*
X139398904Y-62015714D01*
X139494142Y-61968095D01*
X139541761Y-61920476D01*
X139589380Y-61825238D01*
X139589380Y-61634761D01*
X139541761Y-61539523D01*
X139494142Y-61491904D01*
X139398904Y-61444285D01*
X139208428Y-61444285D01*
X139113190Y-61491904D01*
X139065571Y-61539523D01*
X139017952Y-61634761D01*
X135779380Y-62968095D02*
X134779380Y-62968095D01*
X134779380Y-62730000D01*
X134827000Y-62587142D01*
X134922238Y-62491904D01*
X135017476Y-62444285D01*
X135207952Y-62396666D01*
X135350809Y-62396666D01*
X135541285Y-62444285D01*
X135636523Y-62491904D01*
X135731761Y-62587142D01*
X135779380Y-62730000D01*
X135779380Y-62968095D01*
X134779380Y-62063333D02*
X134779380Y-61396666D01*
X135779380Y-61825238D01*
X131969380Y-62968095D02*
X130969380Y-62968095D01*
X130969380Y-62730000D01*
X131017000Y-62587142D01*
X131112238Y-62491904D01*
X131207476Y-62444285D01*
X131397952Y-62396666D01*
X131540809Y-62396666D01*
X131731285Y-62444285D01*
X131826523Y-62491904D01*
X131921761Y-62587142D01*
X131969380Y-62730000D01*
X131969380Y-62968095D01*
X130969380Y-61539523D02*
X130969380Y-61730000D01*
X131017000Y-61825238D01*
X131064619Y-61872857D01*
X131207476Y-61968095D01*
X131397952Y-62015714D01*
X131778904Y-62015714D01*
X131874142Y-61968095D01*
X131921761Y-61920476D01*
X131969380Y-61825238D01*
X131969380Y-61634761D01*
X131921761Y-61539523D01*
X131874142Y-61491904D01*
X131778904Y-61444285D01*
X131540809Y-61444285D01*
X131445571Y-61491904D01*
X131397952Y-61539523D01*
X131350333Y-61634761D01*
X131350333Y-61825238D01*
X131397952Y-61920476D01*
X131445571Y-61968095D01*
X131540809Y-62015714D01*
X128159380Y-62968095D02*
X127159380Y-62968095D01*
X127159380Y-62730000D01*
X127207000Y-62587142D01*
X127302238Y-62491904D01*
X127397476Y-62444285D01*
X127587952Y-62396666D01*
X127730809Y-62396666D01*
X127921285Y-62444285D01*
X128016523Y-62491904D01*
X128111761Y-62587142D01*
X128159380Y-62730000D01*
X128159380Y-62968095D01*
X127159380Y-61491904D02*
X127159380Y-61968095D01*
X127635571Y-62015714D01*
X127587952Y-61968095D01*
X127540333Y-61872857D01*
X127540333Y-61634761D01*
X127587952Y-61539523D01*
X127635571Y-61491904D01*
X127730809Y-61444285D01*
X127968904Y-61444285D01*
X128064142Y-61491904D01*
X128111761Y-61539523D01*
X128159380Y-61634761D01*
X128159380Y-61872857D01*
X128111761Y-61968095D01*
X128064142Y-62015714D01*
X120539380Y-62968095D02*
X119539380Y-62968095D01*
X119539380Y-62730000D01*
X119587000Y-62587142D01*
X119682238Y-62491904D01*
X119777476Y-62444285D01*
X119967952Y-62396666D01*
X120110809Y-62396666D01*
X120301285Y-62444285D01*
X120396523Y-62491904D01*
X120491761Y-62587142D01*
X120539380Y-62730000D01*
X120539380Y-62968095D01*
X119872714Y-61539523D02*
X120539380Y-61539523D01*
X119491761Y-61777619D02*
X120206047Y-62015714D01*
X120206047Y-61396666D01*
X116729380Y-62968095D02*
X115729380Y-62968095D01*
X115729380Y-62730000D01*
X115777000Y-62587142D01*
X115872238Y-62491904D01*
X115967476Y-62444285D01*
X116157952Y-62396666D01*
X116300809Y-62396666D01*
X116491285Y-62444285D01*
X116586523Y-62491904D01*
X116681761Y-62587142D01*
X116729380Y-62730000D01*
X116729380Y-62968095D01*
X115729380Y-62063333D02*
X115729380Y-61444285D01*
X116110333Y-61777619D01*
X116110333Y-61634761D01*
X116157952Y-61539523D01*
X116205571Y-61491904D01*
X116300809Y-61444285D01*
X116538904Y-61444285D01*
X116634142Y-61491904D01*
X116681761Y-61539523D01*
X116729380Y-61634761D01*
X116729380Y-61920476D01*
X116681761Y-62015714D01*
X116634142Y-62063333D01*
X112919380Y-62968095D02*
X111919380Y-62968095D01*
X111919380Y-62730000D01*
X111967000Y-62587142D01*
X112062238Y-62491904D01*
X112157476Y-62444285D01*
X112347952Y-62396666D01*
X112490809Y-62396666D01*
X112681285Y-62444285D01*
X112776523Y-62491904D01*
X112871761Y-62587142D01*
X112919380Y-62730000D01*
X112919380Y-62968095D01*
X112014619Y-62015714D02*
X111967000Y-61968095D01*
X111919380Y-61872857D01*
X111919380Y-61634761D01*
X111967000Y-61539523D01*
X112014619Y-61491904D01*
X112109857Y-61444285D01*
X112205095Y-61444285D01*
X112347952Y-61491904D01*
X112919380Y-62063333D01*
X112919380Y-61444285D01*
X109109380Y-62968095D02*
X108109380Y-62968095D01*
X108109380Y-62730000D01*
X108157000Y-62587142D01*
X108252238Y-62491904D01*
X108347476Y-62444285D01*
X108537952Y-62396666D01*
X108680809Y-62396666D01*
X108871285Y-62444285D01*
X108966523Y-62491904D01*
X109061761Y-62587142D01*
X109109380Y-62730000D01*
X109109380Y-62968095D01*
X109109380Y-61444285D02*
X109109380Y-62015714D01*
X109109380Y-61730000D02*
X108109380Y-61730000D01*
X108252238Y-61825238D01*
X108347476Y-61920476D01*
X108395095Y-62015714D01*
M02*
