G04 #@! TF.GenerationSoftware,KiCad,Pcbnew,5.1.5-52549c5~86~ubuntu18.04.1*
G04 #@! TF.CreationDate,2020-04-23T16:02:32+01:00*
G04 #@! TF.ProjectId,icepad,69636570-6164-42e6-9b69-6361645f7063,rev?*
G04 #@! TF.SameCoordinates,Original*
G04 #@! TF.FileFunction,Soldermask,Top*
G04 #@! TF.FilePolarity,Negative*
%FSLAX46Y46*%
G04 Gerber Fmt 4.6, Leading zero omitted, Abs format (unit mm)*
G04 Created by KiCad (PCBNEW 5.1.5-52549c5~86~ubuntu18.04.1) date 2020-04-23 16:02:32*
%MOMM*%
%LPD*%
G04 APERTURE LIST*
%ADD10C,0.100000*%
G04 APERTURE END LIST*
D10*
G36*
X177224549Y-141871116D02*
G01*
X177335734Y-141893232D01*
X177545203Y-141979997D01*
X177733720Y-142105960D01*
X177894040Y-142266280D01*
X178020003Y-142454797D01*
X178106768Y-142664266D01*
X178151000Y-142886636D01*
X178151000Y-143113364D01*
X178106768Y-143335734D01*
X178020003Y-143545203D01*
X177894040Y-143733720D01*
X177733720Y-143894040D01*
X177545203Y-144020003D01*
X177335734Y-144106768D01*
X177224549Y-144128884D01*
X177113365Y-144151000D01*
X176886635Y-144151000D01*
X176775451Y-144128884D01*
X176664266Y-144106768D01*
X176454797Y-144020003D01*
X176266280Y-143894040D01*
X176105960Y-143733720D01*
X175979997Y-143545203D01*
X175893232Y-143335734D01*
X175849000Y-143113364D01*
X175849000Y-142886636D01*
X175893232Y-142664266D01*
X175979997Y-142454797D01*
X176105960Y-142266280D01*
X176266280Y-142105960D01*
X176454797Y-141979997D01*
X176664266Y-141893232D01*
X176775451Y-141871116D01*
X176886635Y-141849000D01*
X177113365Y-141849000D01*
X177224549Y-141871116D01*
G37*
G36*
X83224549Y-141871116D02*
G01*
X83335734Y-141893232D01*
X83545203Y-141979997D01*
X83733720Y-142105960D01*
X83894040Y-142266280D01*
X84020003Y-142454797D01*
X84106768Y-142664266D01*
X84151000Y-142886636D01*
X84151000Y-143113364D01*
X84106768Y-143335734D01*
X84020003Y-143545203D01*
X83894040Y-143733720D01*
X83733720Y-143894040D01*
X83545203Y-144020003D01*
X83335734Y-144106768D01*
X83224549Y-144128884D01*
X83113365Y-144151000D01*
X82886635Y-144151000D01*
X82775451Y-144128884D01*
X82664266Y-144106768D01*
X82454797Y-144020003D01*
X82266280Y-143894040D01*
X82105960Y-143733720D01*
X81979997Y-143545203D01*
X81893232Y-143335734D01*
X81849000Y-143113364D01*
X81849000Y-142886636D01*
X81893232Y-142664266D01*
X81979997Y-142454797D01*
X82105960Y-142266280D01*
X82266280Y-142105960D01*
X82454797Y-141979997D01*
X82664266Y-141893232D01*
X82775451Y-141871116D01*
X82886635Y-141849000D01*
X83113365Y-141849000D01*
X83224549Y-141871116D01*
G37*
G36*
X94556564Y-135989389D02*
G01*
X94747833Y-136068615D01*
X94747835Y-136068616D01*
X94919973Y-136183635D01*
X95066365Y-136330027D01*
X95181385Y-136502167D01*
X95260611Y-136693436D01*
X95301000Y-136896484D01*
X95301000Y-137103516D01*
X95260611Y-137306564D01*
X95181385Y-137497833D01*
X95181384Y-137497835D01*
X95066365Y-137669973D01*
X94919973Y-137816365D01*
X94747835Y-137931384D01*
X94747834Y-137931385D01*
X94747833Y-137931385D01*
X94556564Y-138010611D01*
X94353516Y-138051000D01*
X94146484Y-138051000D01*
X93943436Y-138010611D01*
X93752167Y-137931385D01*
X93752166Y-137931385D01*
X93752165Y-137931384D01*
X93580027Y-137816365D01*
X93433635Y-137669973D01*
X93318616Y-137497835D01*
X93318615Y-137497833D01*
X93239389Y-137306564D01*
X93199000Y-137103516D01*
X93199000Y-136896484D01*
X93239389Y-136693436D01*
X93318615Y-136502167D01*
X93433635Y-136330027D01*
X93580027Y-136183635D01*
X93752165Y-136068616D01*
X93752167Y-136068615D01*
X93943436Y-135989389D01*
X94146484Y-135949000D01*
X94353516Y-135949000D01*
X94556564Y-135989389D01*
G37*
G36*
X98306564Y-135989389D02*
G01*
X98497833Y-136068615D01*
X98497835Y-136068616D01*
X98669973Y-136183635D01*
X98816365Y-136330027D01*
X98931385Y-136502167D01*
X99010611Y-136693436D01*
X99051000Y-136896484D01*
X99051000Y-137103516D01*
X99010611Y-137306564D01*
X98931385Y-137497833D01*
X98931384Y-137497835D01*
X98816365Y-137669973D01*
X98669973Y-137816365D01*
X98497835Y-137931384D01*
X98497834Y-137931385D01*
X98497833Y-137931385D01*
X98306564Y-138010611D01*
X98103516Y-138051000D01*
X97896484Y-138051000D01*
X97693436Y-138010611D01*
X97502167Y-137931385D01*
X97502166Y-137931385D01*
X97502165Y-137931384D01*
X97330027Y-137816365D01*
X97183635Y-137669973D01*
X97068616Y-137497835D01*
X97068615Y-137497833D01*
X96989389Y-137306564D01*
X96949000Y-137103516D01*
X96949000Y-136896484D01*
X96989389Y-136693436D01*
X97068615Y-136502167D01*
X97183635Y-136330027D01*
X97330027Y-136183635D01*
X97502165Y-136068616D01*
X97502167Y-136068615D01*
X97693436Y-135989389D01*
X97896484Y-135949000D01*
X98103516Y-135949000D01*
X98306564Y-135989389D01*
G37*
G36*
X91551000Y-138051000D02*
G01*
X89449000Y-138051000D01*
X89449000Y-135949000D01*
X91551000Y-135949000D01*
X91551000Y-138051000D01*
G37*
G36*
X132803474Y-130589934D02*
G01*
X133021474Y-130680233D01*
X133175623Y-130744083D01*
X133510548Y-130967873D01*
X133795377Y-131252702D01*
X134019167Y-131587627D01*
X134051562Y-131665836D01*
X134173316Y-131959776D01*
X134251900Y-132354844D01*
X134251900Y-132757656D01*
X134173316Y-133152724D01*
X134122451Y-133275522D01*
X134019167Y-133524873D01*
X133795377Y-133859798D01*
X133510548Y-134144627D01*
X133175623Y-134368417D01*
X133021474Y-134432267D01*
X132803474Y-134522566D01*
X132408406Y-134601150D01*
X132005594Y-134601150D01*
X131610526Y-134522566D01*
X131392526Y-134432267D01*
X131238377Y-134368417D01*
X130903452Y-134144627D01*
X130618623Y-133859798D01*
X130394833Y-133524873D01*
X130291549Y-133275522D01*
X130240684Y-133152724D01*
X130162100Y-132757656D01*
X130162100Y-132354844D01*
X130240684Y-131959776D01*
X130362438Y-131665836D01*
X130394833Y-131587627D01*
X130618623Y-131252702D01*
X130903452Y-130967873D01*
X131238377Y-130744083D01*
X131392526Y-130680233D01*
X131610526Y-130589934D01*
X132005594Y-130511350D01*
X132408406Y-130511350D01*
X132803474Y-130589934D01*
G37*
G36*
X151853474Y-130589934D02*
G01*
X152071474Y-130680233D01*
X152225623Y-130744083D01*
X152560548Y-130967873D01*
X152845377Y-131252702D01*
X153069167Y-131587627D01*
X153101562Y-131665836D01*
X153223316Y-131959776D01*
X153301900Y-132354844D01*
X153301900Y-132757656D01*
X153223316Y-133152724D01*
X153172451Y-133275522D01*
X153069167Y-133524873D01*
X152845377Y-133859798D01*
X152560548Y-134144627D01*
X152225623Y-134368417D01*
X152071474Y-134432267D01*
X151853474Y-134522566D01*
X151458406Y-134601150D01*
X151055594Y-134601150D01*
X150660526Y-134522566D01*
X150442526Y-134432267D01*
X150288377Y-134368417D01*
X149953452Y-134144627D01*
X149668623Y-133859798D01*
X149444833Y-133524873D01*
X149341549Y-133275522D01*
X149290684Y-133152724D01*
X149212100Y-132757656D01*
X149212100Y-132354844D01*
X149290684Y-131959776D01*
X149412438Y-131665836D01*
X149444833Y-131587627D01*
X149668623Y-131252702D01*
X149953452Y-130967873D01*
X150288377Y-130744083D01*
X150442526Y-130680233D01*
X150660526Y-130589934D01*
X151055594Y-130511350D01*
X151458406Y-130511350D01*
X151853474Y-130589934D01*
G37*
G36*
X170903474Y-130589934D02*
G01*
X171121474Y-130680233D01*
X171275623Y-130744083D01*
X171610548Y-130967873D01*
X171895377Y-131252702D01*
X172119167Y-131587627D01*
X172151562Y-131665836D01*
X172273316Y-131959776D01*
X172351900Y-132354844D01*
X172351900Y-132757656D01*
X172273316Y-133152724D01*
X172222451Y-133275522D01*
X172119167Y-133524873D01*
X171895377Y-133859798D01*
X171610548Y-134144627D01*
X171275623Y-134368417D01*
X171121474Y-134432267D01*
X170903474Y-134522566D01*
X170508406Y-134601150D01*
X170105594Y-134601150D01*
X169710526Y-134522566D01*
X169492526Y-134432267D01*
X169338377Y-134368417D01*
X169003452Y-134144627D01*
X168718623Y-133859798D01*
X168494833Y-133524873D01*
X168391549Y-133275522D01*
X168340684Y-133152724D01*
X168262100Y-132757656D01*
X168262100Y-132354844D01*
X168340684Y-131959776D01*
X168462438Y-131665836D01*
X168494833Y-131587627D01*
X168718623Y-131252702D01*
X169003452Y-130967873D01*
X169338377Y-130744083D01*
X169492526Y-130680233D01*
X169710526Y-130589934D01*
X170105594Y-130511350D01*
X170508406Y-130511350D01*
X170903474Y-130589934D01*
G37*
G36*
X113753474Y-130589934D02*
G01*
X113971474Y-130680233D01*
X114125623Y-130744083D01*
X114460548Y-130967873D01*
X114745377Y-131252702D01*
X114969167Y-131587627D01*
X115001562Y-131665836D01*
X115123316Y-131959776D01*
X115201900Y-132354844D01*
X115201900Y-132757656D01*
X115123316Y-133152724D01*
X115072451Y-133275522D01*
X114969167Y-133524873D01*
X114745377Y-133859798D01*
X114460548Y-134144627D01*
X114125623Y-134368417D01*
X113971474Y-134432267D01*
X113753474Y-134522566D01*
X113358406Y-134601150D01*
X112955594Y-134601150D01*
X112560526Y-134522566D01*
X112342526Y-134432267D01*
X112188377Y-134368417D01*
X111853452Y-134144627D01*
X111568623Y-133859798D01*
X111344833Y-133524873D01*
X111241549Y-133275522D01*
X111190684Y-133152724D01*
X111112100Y-132757656D01*
X111112100Y-132354844D01*
X111190684Y-131959776D01*
X111312438Y-131665836D01*
X111344833Y-131587627D01*
X111568623Y-131252702D01*
X111853452Y-130967873D01*
X112188377Y-130744083D01*
X112342526Y-130680233D01*
X112560526Y-130589934D01*
X112955594Y-130511350D01*
X113358406Y-130511350D01*
X113753474Y-130589934D01*
G37*
G36*
X165497104Y-131665835D02*
G01*
X165665626Y-131735639D01*
X165817291Y-131836978D01*
X165946272Y-131965959D01*
X166047611Y-132117624D01*
X166117415Y-132286146D01*
X166153000Y-132465047D01*
X166153000Y-132647453D01*
X166117415Y-132826354D01*
X166047611Y-132994876D01*
X165946272Y-133146541D01*
X165817291Y-133275522D01*
X165665626Y-133376861D01*
X165497104Y-133446665D01*
X165318203Y-133482250D01*
X165135797Y-133482250D01*
X164956896Y-133446665D01*
X164788374Y-133376861D01*
X164636709Y-133275522D01*
X164507728Y-133146541D01*
X164406389Y-132994876D01*
X164336585Y-132826354D01*
X164301000Y-132647453D01*
X164301000Y-132465047D01*
X164336585Y-132286146D01*
X164406389Y-132117624D01*
X164507728Y-131965959D01*
X164636709Y-131836978D01*
X164788374Y-131735639D01*
X164956896Y-131665835D01*
X165135797Y-131630250D01*
X165318203Y-131630250D01*
X165497104Y-131665835D01*
G37*
G36*
X175657104Y-131665835D02*
G01*
X175825626Y-131735639D01*
X175977291Y-131836978D01*
X176106272Y-131965959D01*
X176207611Y-132117624D01*
X176277415Y-132286146D01*
X176313000Y-132465047D01*
X176313000Y-132647453D01*
X176277415Y-132826354D01*
X176207611Y-132994876D01*
X176106272Y-133146541D01*
X175977291Y-133275522D01*
X175825626Y-133376861D01*
X175657104Y-133446665D01*
X175478203Y-133482250D01*
X175295797Y-133482250D01*
X175116896Y-133446665D01*
X174948374Y-133376861D01*
X174796709Y-133275522D01*
X174667728Y-133146541D01*
X174566389Y-132994876D01*
X174496585Y-132826354D01*
X174461000Y-132647453D01*
X174461000Y-132465047D01*
X174496585Y-132286146D01*
X174566389Y-132117624D01*
X174667728Y-131965959D01*
X174796709Y-131836978D01*
X174948374Y-131735639D01*
X175116896Y-131665835D01*
X175295797Y-131630250D01*
X175478203Y-131630250D01*
X175657104Y-131665835D01*
G37*
G36*
X156607104Y-131665835D02*
G01*
X156775626Y-131735639D01*
X156927291Y-131836978D01*
X157056272Y-131965959D01*
X157157611Y-132117624D01*
X157227415Y-132286146D01*
X157263000Y-132465047D01*
X157263000Y-132647453D01*
X157227415Y-132826354D01*
X157157611Y-132994876D01*
X157056272Y-133146541D01*
X156927291Y-133275522D01*
X156775626Y-133376861D01*
X156607104Y-133446665D01*
X156428203Y-133482250D01*
X156245797Y-133482250D01*
X156066896Y-133446665D01*
X155898374Y-133376861D01*
X155746709Y-133275522D01*
X155617728Y-133146541D01*
X155516389Y-132994876D01*
X155446585Y-132826354D01*
X155411000Y-132647453D01*
X155411000Y-132465047D01*
X155446585Y-132286146D01*
X155516389Y-132117624D01*
X155617728Y-131965959D01*
X155746709Y-131836978D01*
X155898374Y-131735639D01*
X156066896Y-131665835D01*
X156245797Y-131630250D01*
X156428203Y-131630250D01*
X156607104Y-131665835D01*
G37*
G36*
X146447104Y-131665835D02*
G01*
X146615626Y-131735639D01*
X146767291Y-131836978D01*
X146896272Y-131965959D01*
X146997611Y-132117624D01*
X147067415Y-132286146D01*
X147103000Y-132465047D01*
X147103000Y-132647453D01*
X147067415Y-132826354D01*
X146997611Y-132994876D01*
X146896272Y-133146541D01*
X146767291Y-133275522D01*
X146615626Y-133376861D01*
X146447104Y-133446665D01*
X146268203Y-133482250D01*
X146085797Y-133482250D01*
X145906896Y-133446665D01*
X145738374Y-133376861D01*
X145586709Y-133275522D01*
X145457728Y-133146541D01*
X145356389Y-132994876D01*
X145286585Y-132826354D01*
X145251000Y-132647453D01*
X145251000Y-132465047D01*
X145286585Y-132286146D01*
X145356389Y-132117624D01*
X145457728Y-131965959D01*
X145586709Y-131836978D01*
X145738374Y-131735639D01*
X145906896Y-131665835D01*
X146085797Y-131630250D01*
X146268203Y-131630250D01*
X146447104Y-131665835D01*
G37*
G36*
X127397104Y-131665835D02*
G01*
X127565626Y-131735639D01*
X127717291Y-131836978D01*
X127846272Y-131965959D01*
X127947611Y-132117624D01*
X128017415Y-132286146D01*
X128053000Y-132465047D01*
X128053000Y-132647453D01*
X128017415Y-132826354D01*
X127947611Y-132994876D01*
X127846272Y-133146541D01*
X127717291Y-133275522D01*
X127565626Y-133376861D01*
X127397104Y-133446665D01*
X127218203Y-133482250D01*
X127035797Y-133482250D01*
X126856896Y-133446665D01*
X126688374Y-133376861D01*
X126536709Y-133275522D01*
X126407728Y-133146541D01*
X126306389Y-132994876D01*
X126236585Y-132826354D01*
X126201000Y-132647453D01*
X126201000Y-132465047D01*
X126236585Y-132286146D01*
X126306389Y-132117624D01*
X126407728Y-131965959D01*
X126536709Y-131836978D01*
X126688374Y-131735639D01*
X126856896Y-131665835D01*
X127035797Y-131630250D01*
X127218203Y-131630250D01*
X127397104Y-131665835D01*
G37*
G36*
X118507104Y-131665835D02*
G01*
X118675626Y-131735639D01*
X118827291Y-131836978D01*
X118956272Y-131965959D01*
X119057611Y-132117624D01*
X119127415Y-132286146D01*
X119163000Y-132465047D01*
X119163000Y-132647453D01*
X119127415Y-132826354D01*
X119057611Y-132994876D01*
X118956272Y-133146541D01*
X118827291Y-133275522D01*
X118675626Y-133376861D01*
X118507104Y-133446665D01*
X118328203Y-133482250D01*
X118145797Y-133482250D01*
X117966896Y-133446665D01*
X117798374Y-133376861D01*
X117646709Y-133275522D01*
X117517728Y-133146541D01*
X117416389Y-132994876D01*
X117346585Y-132826354D01*
X117311000Y-132647453D01*
X117311000Y-132465047D01*
X117346585Y-132286146D01*
X117416389Y-132117624D01*
X117517728Y-131965959D01*
X117646709Y-131836978D01*
X117798374Y-131735639D01*
X117966896Y-131665835D01*
X118145797Y-131630250D01*
X118328203Y-131630250D01*
X118507104Y-131665835D01*
G37*
G36*
X137557104Y-131665835D02*
G01*
X137725626Y-131735639D01*
X137877291Y-131836978D01*
X138006272Y-131965959D01*
X138107611Y-132117624D01*
X138177415Y-132286146D01*
X138213000Y-132465047D01*
X138213000Y-132647453D01*
X138177415Y-132826354D01*
X138107611Y-132994876D01*
X138006272Y-133146541D01*
X137877291Y-133275522D01*
X137725626Y-133376861D01*
X137557104Y-133446665D01*
X137378203Y-133482250D01*
X137195797Y-133482250D01*
X137016896Y-133446665D01*
X136848374Y-133376861D01*
X136696709Y-133275522D01*
X136567728Y-133146541D01*
X136466389Y-132994876D01*
X136396585Y-132826354D01*
X136361000Y-132647453D01*
X136361000Y-132465047D01*
X136396585Y-132286146D01*
X136466389Y-132117624D01*
X136567728Y-131965959D01*
X136696709Y-131836978D01*
X136848374Y-131735639D01*
X137016896Y-131665835D01*
X137195797Y-131630250D01*
X137378203Y-131630250D01*
X137557104Y-131665835D01*
G37*
G36*
X108347104Y-131665835D02*
G01*
X108515626Y-131735639D01*
X108667291Y-131836978D01*
X108796272Y-131965959D01*
X108897611Y-132117624D01*
X108967415Y-132286146D01*
X109003000Y-132465047D01*
X109003000Y-132647453D01*
X108967415Y-132826354D01*
X108897611Y-132994876D01*
X108796272Y-133146541D01*
X108667291Y-133275522D01*
X108515626Y-133376861D01*
X108347104Y-133446665D01*
X108168203Y-133482250D01*
X107985797Y-133482250D01*
X107806896Y-133446665D01*
X107638374Y-133376861D01*
X107486709Y-133275522D01*
X107357728Y-133146541D01*
X107256389Y-132994876D01*
X107186585Y-132826354D01*
X107151000Y-132647453D01*
X107151000Y-132465047D01*
X107186585Y-132286146D01*
X107256389Y-132117624D01*
X107357728Y-131965959D01*
X107486709Y-131836978D01*
X107638374Y-131735639D01*
X107806896Y-131665835D01*
X107985797Y-131630250D01*
X108168203Y-131630250D01*
X108347104Y-131665835D01*
G37*
G36*
X90501000Y-130626000D02*
G01*
X87599000Y-130626000D01*
X87599000Y-126724000D01*
X90501000Y-126724000D01*
X90501000Y-130626000D01*
G37*
G36*
X100901000Y-130626000D02*
G01*
X97999000Y-130626000D01*
X97999000Y-126724000D01*
X100901000Y-126724000D01*
X100901000Y-130626000D01*
G37*
G36*
X98306564Y-118239389D02*
G01*
X98497833Y-118318615D01*
X98497835Y-118318616D01*
X98669973Y-118433635D01*
X98816365Y-118580027D01*
X98931385Y-118752167D01*
X99010611Y-118943436D01*
X99051000Y-119146484D01*
X99051000Y-119353516D01*
X99010611Y-119556564D01*
X98931385Y-119747833D01*
X98931384Y-119747835D01*
X98816365Y-119919973D01*
X98669973Y-120066365D01*
X98497835Y-120181384D01*
X98497834Y-120181385D01*
X98497833Y-120181385D01*
X98306564Y-120260611D01*
X98103516Y-120301000D01*
X97896484Y-120301000D01*
X97693436Y-120260611D01*
X97502167Y-120181385D01*
X97502166Y-120181385D01*
X97502165Y-120181384D01*
X97330027Y-120066365D01*
X97183635Y-119919973D01*
X97068616Y-119747835D01*
X97068615Y-119747833D01*
X96989389Y-119556564D01*
X96949000Y-119353516D01*
X96949000Y-119146484D01*
X96989389Y-118943436D01*
X97068615Y-118752167D01*
X97183635Y-118580027D01*
X97330027Y-118433635D01*
X97502165Y-118318616D01*
X97502167Y-118318615D01*
X97693436Y-118239389D01*
X97896484Y-118199000D01*
X98103516Y-118199000D01*
X98306564Y-118239389D01*
G37*
G36*
X91551000Y-120301000D02*
G01*
X89449000Y-120301000D01*
X89449000Y-118199000D01*
X91551000Y-118199000D01*
X91551000Y-120301000D01*
G37*
G36*
X94556564Y-118239389D02*
G01*
X94747833Y-118318615D01*
X94747835Y-118318616D01*
X94919973Y-118433635D01*
X95066365Y-118580027D01*
X95181385Y-118752167D01*
X95260611Y-118943436D01*
X95301000Y-119146484D01*
X95301000Y-119353516D01*
X95260611Y-119556564D01*
X95181385Y-119747833D01*
X95181384Y-119747835D01*
X95066365Y-119919973D01*
X94919973Y-120066365D01*
X94747835Y-120181384D01*
X94747834Y-120181385D01*
X94747833Y-120181385D01*
X94556564Y-120260611D01*
X94353516Y-120301000D01*
X94146484Y-120301000D01*
X93943436Y-120260611D01*
X93752167Y-120181385D01*
X93752166Y-120181385D01*
X93752165Y-120181384D01*
X93580027Y-120066365D01*
X93433635Y-119919973D01*
X93318616Y-119747835D01*
X93318615Y-119747833D01*
X93239389Y-119556564D01*
X93199000Y-119353516D01*
X93199000Y-119146484D01*
X93239389Y-118943436D01*
X93318615Y-118752167D01*
X93433635Y-118580027D01*
X93580027Y-118433635D01*
X93752165Y-118318616D01*
X93752167Y-118318615D01*
X93943436Y-118239389D01*
X94146484Y-118199000D01*
X94353516Y-118199000D01*
X94556564Y-118239389D01*
G37*
G36*
X151853474Y-111539934D02*
G01*
X152071474Y-111630233D01*
X152225623Y-111694083D01*
X152560548Y-111917873D01*
X152845377Y-112202702D01*
X153069167Y-112537627D01*
X153101562Y-112615836D01*
X153223316Y-112909776D01*
X153301900Y-113304844D01*
X153301900Y-113707656D01*
X153223316Y-114102724D01*
X153172451Y-114225522D01*
X153069167Y-114474873D01*
X152845377Y-114809798D01*
X152560548Y-115094627D01*
X152225623Y-115318417D01*
X152071474Y-115382267D01*
X151853474Y-115472566D01*
X151458406Y-115551150D01*
X151055594Y-115551150D01*
X150660526Y-115472566D01*
X150442526Y-115382267D01*
X150288377Y-115318417D01*
X149953452Y-115094627D01*
X149668623Y-114809798D01*
X149444833Y-114474873D01*
X149341549Y-114225522D01*
X149290684Y-114102724D01*
X149212100Y-113707656D01*
X149212100Y-113304844D01*
X149290684Y-112909776D01*
X149412438Y-112615836D01*
X149444833Y-112537627D01*
X149668623Y-112202702D01*
X149953452Y-111917873D01*
X150288377Y-111694083D01*
X150442526Y-111630233D01*
X150660526Y-111539934D01*
X151055594Y-111461350D01*
X151458406Y-111461350D01*
X151853474Y-111539934D01*
G37*
G36*
X170903474Y-111539934D02*
G01*
X171121474Y-111630233D01*
X171275623Y-111694083D01*
X171610548Y-111917873D01*
X171895377Y-112202702D01*
X172119167Y-112537627D01*
X172151562Y-112615836D01*
X172273316Y-112909776D01*
X172351900Y-113304844D01*
X172351900Y-113707656D01*
X172273316Y-114102724D01*
X172222451Y-114225522D01*
X172119167Y-114474873D01*
X171895377Y-114809798D01*
X171610548Y-115094627D01*
X171275623Y-115318417D01*
X171121474Y-115382267D01*
X170903474Y-115472566D01*
X170508406Y-115551150D01*
X170105594Y-115551150D01*
X169710526Y-115472566D01*
X169492526Y-115382267D01*
X169338377Y-115318417D01*
X169003452Y-115094627D01*
X168718623Y-114809798D01*
X168494833Y-114474873D01*
X168391549Y-114225522D01*
X168340684Y-114102724D01*
X168262100Y-113707656D01*
X168262100Y-113304844D01*
X168340684Y-112909776D01*
X168462438Y-112615836D01*
X168494833Y-112537627D01*
X168718623Y-112202702D01*
X169003452Y-111917873D01*
X169338377Y-111694083D01*
X169492526Y-111630233D01*
X169710526Y-111539934D01*
X170105594Y-111461350D01*
X170508406Y-111461350D01*
X170903474Y-111539934D01*
G37*
G36*
X132803474Y-111539934D02*
G01*
X133021474Y-111630233D01*
X133175623Y-111694083D01*
X133510548Y-111917873D01*
X133795377Y-112202702D01*
X134019167Y-112537627D01*
X134051562Y-112615836D01*
X134173316Y-112909776D01*
X134251900Y-113304844D01*
X134251900Y-113707656D01*
X134173316Y-114102724D01*
X134122451Y-114225522D01*
X134019167Y-114474873D01*
X133795377Y-114809798D01*
X133510548Y-115094627D01*
X133175623Y-115318417D01*
X133021474Y-115382267D01*
X132803474Y-115472566D01*
X132408406Y-115551150D01*
X132005594Y-115551150D01*
X131610526Y-115472566D01*
X131392526Y-115382267D01*
X131238377Y-115318417D01*
X130903452Y-115094627D01*
X130618623Y-114809798D01*
X130394833Y-114474873D01*
X130291549Y-114225522D01*
X130240684Y-114102724D01*
X130162100Y-113707656D01*
X130162100Y-113304844D01*
X130240684Y-112909776D01*
X130362438Y-112615836D01*
X130394833Y-112537627D01*
X130618623Y-112202702D01*
X130903452Y-111917873D01*
X131238377Y-111694083D01*
X131392526Y-111630233D01*
X131610526Y-111539934D01*
X132005594Y-111461350D01*
X132408406Y-111461350D01*
X132803474Y-111539934D01*
G37*
G36*
X113753474Y-111539934D02*
G01*
X113971474Y-111630233D01*
X114125623Y-111694083D01*
X114460548Y-111917873D01*
X114745377Y-112202702D01*
X114969167Y-112537627D01*
X115001562Y-112615836D01*
X115123316Y-112909776D01*
X115201900Y-113304844D01*
X115201900Y-113707656D01*
X115123316Y-114102724D01*
X115072451Y-114225522D01*
X114969167Y-114474873D01*
X114745377Y-114809798D01*
X114460548Y-115094627D01*
X114125623Y-115318417D01*
X113971474Y-115382267D01*
X113753474Y-115472566D01*
X113358406Y-115551150D01*
X112955594Y-115551150D01*
X112560526Y-115472566D01*
X112342526Y-115382267D01*
X112188377Y-115318417D01*
X111853452Y-115094627D01*
X111568623Y-114809798D01*
X111344833Y-114474873D01*
X111241549Y-114225522D01*
X111190684Y-114102724D01*
X111112100Y-113707656D01*
X111112100Y-113304844D01*
X111190684Y-112909776D01*
X111312438Y-112615836D01*
X111344833Y-112537627D01*
X111568623Y-112202702D01*
X111853452Y-111917873D01*
X112188377Y-111694083D01*
X112342526Y-111630233D01*
X112560526Y-111539934D01*
X112955594Y-111461350D01*
X113358406Y-111461350D01*
X113753474Y-111539934D01*
G37*
G36*
X146447104Y-112615835D02*
G01*
X146615626Y-112685639D01*
X146767291Y-112786978D01*
X146896272Y-112915959D01*
X146997611Y-113067624D01*
X147067415Y-113236146D01*
X147103000Y-113415047D01*
X147103000Y-113597453D01*
X147067415Y-113776354D01*
X146997611Y-113944876D01*
X146896272Y-114096541D01*
X146767291Y-114225522D01*
X146615626Y-114326861D01*
X146447104Y-114396665D01*
X146268203Y-114432250D01*
X146085797Y-114432250D01*
X145906896Y-114396665D01*
X145738374Y-114326861D01*
X145586709Y-114225522D01*
X145457728Y-114096541D01*
X145356389Y-113944876D01*
X145286585Y-113776354D01*
X145251000Y-113597453D01*
X145251000Y-113415047D01*
X145286585Y-113236146D01*
X145356389Y-113067624D01*
X145457728Y-112915959D01*
X145586709Y-112786978D01*
X145738374Y-112685639D01*
X145906896Y-112615835D01*
X146085797Y-112580250D01*
X146268203Y-112580250D01*
X146447104Y-112615835D01*
G37*
G36*
X137557104Y-112615835D02*
G01*
X137725626Y-112685639D01*
X137877291Y-112786978D01*
X138006272Y-112915959D01*
X138107611Y-113067624D01*
X138177415Y-113236146D01*
X138213000Y-113415047D01*
X138213000Y-113597453D01*
X138177415Y-113776354D01*
X138107611Y-113944876D01*
X138006272Y-114096541D01*
X137877291Y-114225522D01*
X137725626Y-114326861D01*
X137557104Y-114396665D01*
X137378203Y-114432250D01*
X137195797Y-114432250D01*
X137016896Y-114396665D01*
X136848374Y-114326861D01*
X136696709Y-114225522D01*
X136567728Y-114096541D01*
X136466389Y-113944876D01*
X136396585Y-113776354D01*
X136361000Y-113597453D01*
X136361000Y-113415047D01*
X136396585Y-113236146D01*
X136466389Y-113067624D01*
X136567728Y-112915959D01*
X136696709Y-112786978D01*
X136848374Y-112685639D01*
X137016896Y-112615835D01*
X137195797Y-112580250D01*
X137378203Y-112580250D01*
X137557104Y-112615835D01*
G37*
G36*
X127397104Y-112615835D02*
G01*
X127565626Y-112685639D01*
X127717291Y-112786978D01*
X127846272Y-112915959D01*
X127947611Y-113067624D01*
X128017415Y-113236146D01*
X128053000Y-113415047D01*
X128053000Y-113597453D01*
X128017415Y-113776354D01*
X127947611Y-113944876D01*
X127846272Y-114096541D01*
X127717291Y-114225522D01*
X127565626Y-114326861D01*
X127397104Y-114396665D01*
X127218203Y-114432250D01*
X127035797Y-114432250D01*
X126856896Y-114396665D01*
X126688374Y-114326861D01*
X126536709Y-114225522D01*
X126407728Y-114096541D01*
X126306389Y-113944876D01*
X126236585Y-113776354D01*
X126201000Y-113597453D01*
X126201000Y-113415047D01*
X126236585Y-113236146D01*
X126306389Y-113067624D01*
X126407728Y-112915959D01*
X126536709Y-112786978D01*
X126688374Y-112685639D01*
X126856896Y-112615835D01*
X127035797Y-112580250D01*
X127218203Y-112580250D01*
X127397104Y-112615835D01*
G37*
G36*
X108347104Y-112615835D02*
G01*
X108515626Y-112685639D01*
X108667291Y-112786978D01*
X108796272Y-112915959D01*
X108897611Y-113067624D01*
X108967415Y-113236146D01*
X109003000Y-113415047D01*
X109003000Y-113597453D01*
X108967415Y-113776354D01*
X108897611Y-113944876D01*
X108796272Y-114096541D01*
X108667291Y-114225522D01*
X108515626Y-114326861D01*
X108347104Y-114396665D01*
X108168203Y-114432250D01*
X107985797Y-114432250D01*
X107806896Y-114396665D01*
X107638374Y-114326861D01*
X107486709Y-114225522D01*
X107357728Y-114096541D01*
X107256389Y-113944876D01*
X107186585Y-113776354D01*
X107151000Y-113597453D01*
X107151000Y-113415047D01*
X107186585Y-113236146D01*
X107256389Y-113067624D01*
X107357728Y-112915959D01*
X107486709Y-112786978D01*
X107638374Y-112685639D01*
X107806896Y-112615835D01*
X107985797Y-112580250D01*
X108168203Y-112580250D01*
X108347104Y-112615835D01*
G37*
G36*
X165497104Y-112615835D02*
G01*
X165665626Y-112685639D01*
X165817291Y-112786978D01*
X165946272Y-112915959D01*
X166047611Y-113067624D01*
X166117415Y-113236146D01*
X166153000Y-113415047D01*
X166153000Y-113597453D01*
X166117415Y-113776354D01*
X166047611Y-113944876D01*
X165946272Y-114096541D01*
X165817291Y-114225522D01*
X165665626Y-114326861D01*
X165497104Y-114396665D01*
X165318203Y-114432250D01*
X165135797Y-114432250D01*
X164956896Y-114396665D01*
X164788374Y-114326861D01*
X164636709Y-114225522D01*
X164507728Y-114096541D01*
X164406389Y-113944876D01*
X164336585Y-113776354D01*
X164301000Y-113597453D01*
X164301000Y-113415047D01*
X164336585Y-113236146D01*
X164406389Y-113067624D01*
X164507728Y-112915959D01*
X164636709Y-112786978D01*
X164788374Y-112685639D01*
X164956896Y-112615835D01*
X165135797Y-112580250D01*
X165318203Y-112580250D01*
X165497104Y-112615835D01*
G37*
G36*
X118507104Y-112615835D02*
G01*
X118675626Y-112685639D01*
X118827291Y-112786978D01*
X118956272Y-112915959D01*
X119057611Y-113067624D01*
X119127415Y-113236146D01*
X119163000Y-113415047D01*
X119163000Y-113597453D01*
X119127415Y-113776354D01*
X119057611Y-113944876D01*
X118956272Y-114096541D01*
X118827291Y-114225522D01*
X118675626Y-114326861D01*
X118507104Y-114396665D01*
X118328203Y-114432250D01*
X118145797Y-114432250D01*
X117966896Y-114396665D01*
X117798374Y-114326861D01*
X117646709Y-114225522D01*
X117517728Y-114096541D01*
X117416389Y-113944876D01*
X117346585Y-113776354D01*
X117311000Y-113597453D01*
X117311000Y-113415047D01*
X117346585Y-113236146D01*
X117416389Y-113067624D01*
X117517728Y-112915959D01*
X117646709Y-112786978D01*
X117798374Y-112685639D01*
X117966896Y-112615835D01*
X118145797Y-112580250D01*
X118328203Y-112580250D01*
X118507104Y-112615835D01*
G37*
G36*
X156607104Y-112615835D02*
G01*
X156775626Y-112685639D01*
X156927291Y-112786978D01*
X157056272Y-112915959D01*
X157157611Y-113067624D01*
X157227415Y-113236146D01*
X157263000Y-113415047D01*
X157263000Y-113597453D01*
X157227415Y-113776354D01*
X157157611Y-113944876D01*
X157056272Y-114096541D01*
X156927291Y-114225522D01*
X156775626Y-114326861D01*
X156607104Y-114396665D01*
X156428203Y-114432250D01*
X156245797Y-114432250D01*
X156066896Y-114396665D01*
X155898374Y-114326861D01*
X155746709Y-114225522D01*
X155617728Y-114096541D01*
X155516389Y-113944876D01*
X155446585Y-113776354D01*
X155411000Y-113597453D01*
X155411000Y-113415047D01*
X155446585Y-113236146D01*
X155516389Y-113067624D01*
X155617728Y-112915959D01*
X155746709Y-112786978D01*
X155898374Y-112685639D01*
X156066896Y-112615835D01*
X156245797Y-112580250D01*
X156428203Y-112580250D01*
X156607104Y-112615835D01*
G37*
G36*
X175657104Y-112615835D02*
G01*
X175825626Y-112685639D01*
X175977291Y-112786978D01*
X176106272Y-112915959D01*
X176207611Y-113067624D01*
X176277415Y-113236146D01*
X176313000Y-113415047D01*
X176313000Y-113597453D01*
X176277415Y-113776354D01*
X176207611Y-113944876D01*
X176106272Y-114096541D01*
X175977291Y-114225522D01*
X175825626Y-114326861D01*
X175657104Y-114396665D01*
X175478203Y-114432250D01*
X175295797Y-114432250D01*
X175116896Y-114396665D01*
X174948374Y-114326861D01*
X174796709Y-114225522D01*
X174667728Y-114096541D01*
X174566389Y-113944876D01*
X174496585Y-113776354D01*
X174461000Y-113597453D01*
X174461000Y-113415047D01*
X174496585Y-113236146D01*
X174566389Y-113067624D01*
X174667728Y-112915959D01*
X174796709Y-112786978D01*
X174948374Y-112685639D01*
X175116896Y-112615835D01*
X175295797Y-112580250D01*
X175478203Y-112580250D01*
X175657104Y-112615835D01*
G37*
G36*
X100901000Y-112876000D02*
G01*
X97999000Y-112876000D01*
X97999000Y-108974000D01*
X100901000Y-108974000D01*
X100901000Y-112876000D01*
G37*
G36*
X90501000Y-112876000D02*
G01*
X87599000Y-112876000D01*
X87599000Y-108974000D01*
X90501000Y-108974000D01*
X90501000Y-112876000D01*
G37*
G36*
X87064468Y-100853565D02*
G01*
X87103138Y-100865296D01*
X87138777Y-100884346D01*
X87170017Y-100909983D01*
X87195654Y-100941223D01*
X87214704Y-100976862D01*
X87226435Y-101015532D01*
X87231000Y-101061888D01*
X87231000Y-102138112D01*
X87226435Y-102184468D01*
X87214704Y-102223138D01*
X87195654Y-102258777D01*
X87170017Y-102290017D01*
X87138777Y-102315654D01*
X87103138Y-102334704D01*
X87064468Y-102346435D01*
X87018112Y-102351000D01*
X86366888Y-102351000D01*
X86320532Y-102346435D01*
X86281862Y-102334704D01*
X86246223Y-102315654D01*
X86214983Y-102290017D01*
X86189346Y-102258777D01*
X86170296Y-102223138D01*
X86158565Y-102184468D01*
X86154000Y-102138112D01*
X86154000Y-101061888D01*
X86158565Y-101015532D01*
X86170296Y-100976862D01*
X86189346Y-100941223D01*
X86214983Y-100909983D01*
X86246223Y-100884346D01*
X86281862Y-100865296D01*
X86320532Y-100853565D01*
X86366888Y-100849000D01*
X87018112Y-100849000D01*
X87064468Y-100853565D01*
G37*
G36*
X88939468Y-100853565D02*
G01*
X88978138Y-100865296D01*
X89013777Y-100884346D01*
X89045017Y-100909983D01*
X89070654Y-100941223D01*
X89089704Y-100976862D01*
X89101435Y-101015532D01*
X89106000Y-101061888D01*
X89106000Y-102138112D01*
X89101435Y-102184468D01*
X89089704Y-102223138D01*
X89070654Y-102258777D01*
X89045017Y-102290017D01*
X89013777Y-102315654D01*
X88978138Y-102334704D01*
X88939468Y-102346435D01*
X88893112Y-102351000D01*
X88241888Y-102351000D01*
X88195532Y-102346435D01*
X88156862Y-102334704D01*
X88121223Y-102315654D01*
X88089983Y-102290017D01*
X88064346Y-102258777D01*
X88045296Y-102223138D01*
X88033565Y-102184468D01*
X88029000Y-102138112D01*
X88029000Y-101061888D01*
X88033565Y-101015532D01*
X88045296Y-100976862D01*
X88064346Y-100941223D01*
X88089983Y-100909983D01*
X88121223Y-100884346D01*
X88156862Y-100865296D01*
X88195532Y-100853565D01*
X88241888Y-100849000D01*
X88893112Y-100849000D01*
X88939468Y-100853565D01*
G37*
G36*
X94527468Y-100821565D02*
G01*
X94566138Y-100833296D01*
X94601777Y-100852346D01*
X94633017Y-100877983D01*
X94658654Y-100909223D01*
X94677704Y-100944862D01*
X94689435Y-100983532D01*
X94694000Y-101029888D01*
X94694000Y-102106112D01*
X94689435Y-102152468D01*
X94677704Y-102191138D01*
X94658654Y-102226777D01*
X94633017Y-102258017D01*
X94601777Y-102283654D01*
X94566138Y-102302704D01*
X94527468Y-102314435D01*
X94481112Y-102319000D01*
X93829888Y-102319000D01*
X93783532Y-102314435D01*
X93744862Y-102302704D01*
X93709223Y-102283654D01*
X93677983Y-102258017D01*
X93652346Y-102226777D01*
X93633296Y-102191138D01*
X93621565Y-102152468D01*
X93617000Y-102106112D01*
X93617000Y-101029888D01*
X93621565Y-100983532D01*
X93633296Y-100944862D01*
X93652346Y-100909223D01*
X93677983Y-100877983D01*
X93709223Y-100852346D01*
X93744862Y-100833296D01*
X93783532Y-100821565D01*
X93829888Y-100817000D01*
X94481112Y-100817000D01*
X94527468Y-100821565D01*
G37*
G36*
X92652468Y-100821565D02*
G01*
X92691138Y-100833296D01*
X92726777Y-100852346D01*
X92758017Y-100877983D01*
X92783654Y-100909223D01*
X92802704Y-100944862D01*
X92814435Y-100983532D01*
X92819000Y-101029888D01*
X92819000Y-102106112D01*
X92814435Y-102152468D01*
X92802704Y-102191138D01*
X92783654Y-102226777D01*
X92758017Y-102258017D01*
X92726777Y-102283654D01*
X92691138Y-102302704D01*
X92652468Y-102314435D01*
X92606112Y-102319000D01*
X91954888Y-102319000D01*
X91908532Y-102314435D01*
X91869862Y-102302704D01*
X91834223Y-102283654D01*
X91802983Y-102258017D01*
X91777346Y-102226777D01*
X91758296Y-102191138D01*
X91746565Y-102152468D01*
X91742000Y-102106112D01*
X91742000Y-101029888D01*
X91746565Y-100983532D01*
X91758296Y-100944862D01*
X91777346Y-100909223D01*
X91802983Y-100877983D01*
X91834223Y-100852346D01*
X91869862Y-100833296D01*
X91908532Y-100821565D01*
X91954888Y-100817000D01*
X92606112Y-100817000D01*
X92652468Y-100821565D01*
G37*
G36*
X87064468Y-98821565D02*
G01*
X87103138Y-98833296D01*
X87138777Y-98852346D01*
X87170017Y-98877983D01*
X87195654Y-98909223D01*
X87214704Y-98944862D01*
X87226435Y-98983532D01*
X87231000Y-99029888D01*
X87231000Y-100106112D01*
X87226435Y-100152468D01*
X87214704Y-100191138D01*
X87195654Y-100226777D01*
X87170017Y-100258017D01*
X87138777Y-100283654D01*
X87103138Y-100302704D01*
X87064468Y-100314435D01*
X87018112Y-100319000D01*
X86366888Y-100319000D01*
X86320532Y-100314435D01*
X86281862Y-100302704D01*
X86246223Y-100283654D01*
X86214983Y-100258017D01*
X86189346Y-100226777D01*
X86170296Y-100191138D01*
X86158565Y-100152468D01*
X86154000Y-100106112D01*
X86154000Y-99029888D01*
X86158565Y-98983532D01*
X86170296Y-98944862D01*
X86189346Y-98909223D01*
X86214983Y-98877983D01*
X86246223Y-98852346D01*
X86281862Y-98833296D01*
X86320532Y-98821565D01*
X86366888Y-98817000D01*
X87018112Y-98817000D01*
X87064468Y-98821565D01*
G37*
G36*
X88939468Y-98821565D02*
G01*
X88978138Y-98833296D01*
X89013777Y-98852346D01*
X89045017Y-98877983D01*
X89070654Y-98909223D01*
X89089704Y-98944862D01*
X89101435Y-98983532D01*
X89106000Y-99029888D01*
X89106000Y-100106112D01*
X89101435Y-100152468D01*
X89089704Y-100191138D01*
X89070654Y-100226777D01*
X89045017Y-100258017D01*
X89013777Y-100283654D01*
X88978138Y-100302704D01*
X88939468Y-100314435D01*
X88893112Y-100319000D01*
X88241888Y-100319000D01*
X88195532Y-100314435D01*
X88156862Y-100302704D01*
X88121223Y-100283654D01*
X88089983Y-100258017D01*
X88064346Y-100226777D01*
X88045296Y-100191138D01*
X88033565Y-100152468D01*
X88029000Y-100106112D01*
X88029000Y-99029888D01*
X88033565Y-98983532D01*
X88045296Y-98944862D01*
X88064346Y-98909223D01*
X88089983Y-98877983D01*
X88121223Y-98852346D01*
X88156862Y-98833296D01*
X88195532Y-98821565D01*
X88241888Y-98817000D01*
X88893112Y-98817000D01*
X88939468Y-98821565D01*
G37*
G36*
X94527468Y-98789565D02*
G01*
X94566138Y-98801296D01*
X94601777Y-98820346D01*
X94633017Y-98845983D01*
X94658654Y-98877223D01*
X94677704Y-98912862D01*
X94689435Y-98951532D01*
X94694000Y-98997888D01*
X94694000Y-100074112D01*
X94689435Y-100120468D01*
X94677704Y-100159138D01*
X94658654Y-100194777D01*
X94633017Y-100226017D01*
X94601777Y-100251654D01*
X94566138Y-100270704D01*
X94527468Y-100282435D01*
X94481112Y-100287000D01*
X93829888Y-100287000D01*
X93783532Y-100282435D01*
X93744862Y-100270704D01*
X93709223Y-100251654D01*
X93677983Y-100226017D01*
X93652346Y-100194777D01*
X93633296Y-100159138D01*
X93621565Y-100120468D01*
X93617000Y-100074112D01*
X93617000Y-98997888D01*
X93621565Y-98951532D01*
X93633296Y-98912862D01*
X93652346Y-98877223D01*
X93677983Y-98845983D01*
X93709223Y-98820346D01*
X93744862Y-98801296D01*
X93783532Y-98789565D01*
X93829888Y-98785000D01*
X94481112Y-98785000D01*
X94527468Y-98789565D01*
G37*
G36*
X92652468Y-98789565D02*
G01*
X92691138Y-98801296D01*
X92726777Y-98820346D01*
X92758017Y-98845983D01*
X92783654Y-98877223D01*
X92802704Y-98912862D01*
X92814435Y-98951532D01*
X92819000Y-98997888D01*
X92819000Y-100074112D01*
X92814435Y-100120468D01*
X92802704Y-100159138D01*
X92783654Y-100194777D01*
X92758017Y-100226017D01*
X92726777Y-100251654D01*
X92691138Y-100270704D01*
X92652468Y-100282435D01*
X92606112Y-100287000D01*
X91954888Y-100287000D01*
X91908532Y-100282435D01*
X91869862Y-100270704D01*
X91834223Y-100251654D01*
X91802983Y-100226017D01*
X91777346Y-100194777D01*
X91758296Y-100159138D01*
X91746565Y-100120468D01*
X91742000Y-100074112D01*
X91742000Y-98997888D01*
X91746565Y-98951532D01*
X91758296Y-98912862D01*
X91777346Y-98877223D01*
X91802983Y-98845983D01*
X91834223Y-98820346D01*
X91869862Y-98801296D01*
X91908532Y-98789565D01*
X91954888Y-98785000D01*
X92606112Y-98785000D01*
X92652468Y-98789565D01*
G37*
G36*
X91008468Y-98955565D02*
G01*
X91047138Y-98967296D01*
X91082777Y-98986346D01*
X91114017Y-99011983D01*
X91139654Y-99043223D01*
X91158704Y-99078862D01*
X91170435Y-99117532D01*
X91175000Y-99163888D01*
X91175000Y-99815112D01*
X91170435Y-99861468D01*
X91158704Y-99900138D01*
X91139654Y-99935777D01*
X91114017Y-99967017D01*
X91082777Y-99992654D01*
X91047138Y-100011704D01*
X91008468Y-100023435D01*
X90962112Y-100028000D01*
X89885888Y-100028000D01*
X89839532Y-100023435D01*
X89800862Y-100011704D01*
X89765223Y-99992654D01*
X89733983Y-99967017D01*
X89708346Y-99935777D01*
X89689296Y-99900138D01*
X89677565Y-99861468D01*
X89673000Y-99815112D01*
X89673000Y-99163888D01*
X89677565Y-99117532D01*
X89689296Y-99078862D01*
X89708346Y-99043223D01*
X89733983Y-99011983D01*
X89765223Y-98986346D01*
X89800862Y-98967296D01*
X89839532Y-98955565D01*
X89885888Y-98951000D01*
X90962112Y-98951000D01*
X91008468Y-98955565D01*
G37*
G36*
X88939468Y-96789565D02*
G01*
X88978138Y-96801296D01*
X89013777Y-96820346D01*
X89045017Y-96845983D01*
X89070654Y-96877223D01*
X89089704Y-96912862D01*
X89101435Y-96951532D01*
X89106000Y-96997888D01*
X89106000Y-98074112D01*
X89101435Y-98120468D01*
X89089704Y-98159138D01*
X89070654Y-98194777D01*
X89045017Y-98226017D01*
X89013777Y-98251654D01*
X88978138Y-98270704D01*
X88939468Y-98282435D01*
X88893112Y-98287000D01*
X88241888Y-98287000D01*
X88195532Y-98282435D01*
X88156862Y-98270704D01*
X88121223Y-98251654D01*
X88089983Y-98226017D01*
X88064346Y-98194777D01*
X88045296Y-98159138D01*
X88033565Y-98120468D01*
X88029000Y-98074112D01*
X88029000Y-96997888D01*
X88033565Y-96951532D01*
X88045296Y-96912862D01*
X88064346Y-96877223D01*
X88089983Y-96845983D01*
X88121223Y-96820346D01*
X88156862Y-96801296D01*
X88195532Y-96789565D01*
X88241888Y-96785000D01*
X88893112Y-96785000D01*
X88939468Y-96789565D01*
G37*
G36*
X87064468Y-96789565D02*
G01*
X87103138Y-96801296D01*
X87138777Y-96820346D01*
X87170017Y-96845983D01*
X87195654Y-96877223D01*
X87214704Y-96912862D01*
X87226435Y-96951532D01*
X87231000Y-96997888D01*
X87231000Y-98074112D01*
X87226435Y-98120468D01*
X87214704Y-98159138D01*
X87195654Y-98194777D01*
X87170017Y-98226017D01*
X87138777Y-98251654D01*
X87103138Y-98270704D01*
X87064468Y-98282435D01*
X87018112Y-98287000D01*
X86366888Y-98287000D01*
X86320532Y-98282435D01*
X86281862Y-98270704D01*
X86246223Y-98251654D01*
X86214983Y-98226017D01*
X86189346Y-98194777D01*
X86170296Y-98159138D01*
X86158565Y-98120468D01*
X86154000Y-98074112D01*
X86154000Y-96997888D01*
X86158565Y-96951532D01*
X86170296Y-96912862D01*
X86189346Y-96877223D01*
X86214983Y-96845983D01*
X86246223Y-96820346D01*
X86281862Y-96801296D01*
X86320532Y-96789565D01*
X86366888Y-96785000D01*
X87018112Y-96785000D01*
X87064468Y-96789565D01*
G37*
G36*
X91008468Y-97080565D02*
G01*
X91047138Y-97092296D01*
X91082777Y-97111346D01*
X91114017Y-97136983D01*
X91139654Y-97168223D01*
X91158704Y-97203862D01*
X91170435Y-97242532D01*
X91175000Y-97288888D01*
X91175000Y-97940112D01*
X91170435Y-97986468D01*
X91158704Y-98025138D01*
X91139654Y-98060777D01*
X91114017Y-98092017D01*
X91082777Y-98117654D01*
X91047138Y-98136704D01*
X91008468Y-98148435D01*
X90962112Y-98153000D01*
X89885888Y-98153000D01*
X89839532Y-98148435D01*
X89800862Y-98136704D01*
X89765223Y-98117654D01*
X89733983Y-98092017D01*
X89708346Y-98060777D01*
X89689296Y-98025138D01*
X89677565Y-97986468D01*
X89673000Y-97940112D01*
X89673000Y-97288888D01*
X89677565Y-97242532D01*
X89689296Y-97203862D01*
X89708346Y-97168223D01*
X89733983Y-97136983D01*
X89765223Y-97111346D01*
X89800862Y-97092296D01*
X89839532Y-97080565D01*
X89885888Y-97076000D01*
X90962112Y-97076000D01*
X91008468Y-97080565D01*
G37*
G36*
X151853474Y-92489934D02*
G01*
X152071474Y-92580233D01*
X152225623Y-92644083D01*
X152560548Y-92867873D01*
X152845377Y-93152702D01*
X153069167Y-93487627D01*
X153101562Y-93565836D01*
X153223316Y-93859776D01*
X153301900Y-94254844D01*
X153301900Y-94657656D01*
X153223316Y-95052724D01*
X153172451Y-95175522D01*
X153069167Y-95424873D01*
X152845377Y-95759798D01*
X152560548Y-96044627D01*
X152225623Y-96268417D01*
X152071474Y-96332267D01*
X151853474Y-96422566D01*
X151458406Y-96501150D01*
X151055594Y-96501150D01*
X150660526Y-96422566D01*
X150442526Y-96332267D01*
X150288377Y-96268417D01*
X149953452Y-96044627D01*
X149668623Y-95759798D01*
X149444833Y-95424873D01*
X149341549Y-95175522D01*
X149290684Y-95052724D01*
X149212100Y-94657656D01*
X149212100Y-94254844D01*
X149290684Y-93859776D01*
X149412438Y-93565836D01*
X149444833Y-93487627D01*
X149668623Y-93152702D01*
X149953452Y-92867873D01*
X150288377Y-92644083D01*
X150442526Y-92580233D01*
X150660526Y-92489934D01*
X151055594Y-92411350D01*
X151458406Y-92411350D01*
X151853474Y-92489934D01*
G37*
G36*
X170903474Y-92489934D02*
G01*
X171121474Y-92580233D01*
X171275623Y-92644083D01*
X171610548Y-92867873D01*
X171895377Y-93152702D01*
X172119167Y-93487627D01*
X172151562Y-93565836D01*
X172273316Y-93859776D01*
X172351900Y-94254844D01*
X172351900Y-94657656D01*
X172273316Y-95052724D01*
X172222451Y-95175522D01*
X172119167Y-95424873D01*
X171895377Y-95759798D01*
X171610548Y-96044627D01*
X171275623Y-96268417D01*
X171121474Y-96332267D01*
X170903474Y-96422566D01*
X170508406Y-96501150D01*
X170105594Y-96501150D01*
X169710526Y-96422566D01*
X169492526Y-96332267D01*
X169338377Y-96268417D01*
X169003452Y-96044627D01*
X168718623Y-95759798D01*
X168494833Y-95424873D01*
X168391549Y-95175522D01*
X168340684Y-95052724D01*
X168262100Y-94657656D01*
X168262100Y-94254844D01*
X168340684Y-93859776D01*
X168462438Y-93565836D01*
X168494833Y-93487627D01*
X168718623Y-93152702D01*
X169003452Y-92867873D01*
X169338377Y-92644083D01*
X169492526Y-92580233D01*
X169710526Y-92489934D01*
X170105594Y-92411350D01*
X170508406Y-92411350D01*
X170903474Y-92489934D01*
G37*
G36*
X113753474Y-92489934D02*
G01*
X113971474Y-92580233D01*
X114125623Y-92644083D01*
X114460548Y-92867873D01*
X114745377Y-93152702D01*
X114969167Y-93487627D01*
X115001562Y-93565836D01*
X115123316Y-93859776D01*
X115201900Y-94254844D01*
X115201900Y-94657656D01*
X115123316Y-95052724D01*
X115072451Y-95175522D01*
X114969167Y-95424873D01*
X114745377Y-95759798D01*
X114460548Y-96044627D01*
X114125623Y-96268417D01*
X113971474Y-96332267D01*
X113753474Y-96422566D01*
X113358406Y-96501150D01*
X112955594Y-96501150D01*
X112560526Y-96422566D01*
X112342526Y-96332267D01*
X112188377Y-96268417D01*
X111853452Y-96044627D01*
X111568623Y-95759798D01*
X111344833Y-95424873D01*
X111241549Y-95175522D01*
X111190684Y-95052724D01*
X111112100Y-94657656D01*
X111112100Y-94254844D01*
X111190684Y-93859776D01*
X111312438Y-93565836D01*
X111344833Y-93487627D01*
X111568623Y-93152702D01*
X111853452Y-92867873D01*
X112188377Y-92644083D01*
X112342526Y-92580233D01*
X112560526Y-92489934D01*
X112955594Y-92411350D01*
X113358406Y-92411350D01*
X113753474Y-92489934D01*
G37*
G36*
X132803474Y-92489934D02*
G01*
X133021474Y-92580233D01*
X133175623Y-92644083D01*
X133510548Y-92867873D01*
X133795377Y-93152702D01*
X134019167Y-93487627D01*
X134051562Y-93565836D01*
X134173316Y-93859776D01*
X134251900Y-94254844D01*
X134251900Y-94657656D01*
X134173316Y-95052724D01*
X134122451Y-95175522D01*
X134019167Y-95424873D01*
X133795377Y-95759798D01*
X133510548Y-96044627D01*
X133175623Y-96268417D01*
X133021474Y-96332267D01*
X132803474Y-96422566D01*
X132408406Y-96501150D01*
X132005594Y-96501150D01*
X131610526Y-96422566D01*
X131392526Y-96332267D01*
X131238377Y-96268417D01*
X130903452Y-96044627D01*
X130618623Y-95759798D01*
X130394833Y-95424873D01*
X130291549Y-95175522D01*
X130240684Y-95052724D01*
X130162100Y-94657656D01*
X130162100Y-94254844D01*
X130240684Y-93859776D01*
X130362438Y-93565836D01*
X130394833Y-93487627D01*
X130618623Y-93152702D01*
X130903452Y-92867873D01*
X131238377Y-92644083D01*
X131392526Y-92580233D01*
X131610526Y-92489934D01*
X132005594Y-92411350D01*
X132408406Y-92411350D01*
X132803474Y-92489934D01*
G37*
G36*
X89124051Y-94562284D02*
G01*
X89140443Y-94567257D01*
X89155555Y-94575334D01*
X89168798Y-94586202D01*
X89179667Y-94599447D01*
X89183761Y-94607106D01*
X89197374Y-94627480D01*
X89214701Y-94644807D01*
X89235076Y-94658421D01*
X89257714Y-94667798D01*
X89281748Y-94672579D01*
X89306252Y-94672579D01*
X89330285Y-94667799D01*
X89352924Y-94658421D01*
X89373298Y-94644808D01*
X89390625Y-94627481D01*
X89404239Y-94607106D01*
X89408333Y-94599447D01*
X89419202Y-94586202D01*
X89432445Y-94575334D01*
X89447557Y-94567257D01*
X89463949Y-94562284D01*
X89487141Y-94560000D01*
X89900859Y-94560000D01*
X89924051Y-94562284D01*
X89940443Y-94567257D01*
X89955555Y-94575334D01*
X89968798Y-94586202D01*
X89979667Y-94599447D01*
X89983761Y-94607106D01*
X89997374Y-94627480D01*
X90014701Y-94644807D01*
X90035076Y-94658421D01*
X90057714Y-94667798D01*
X90081748Y-94672579D01*
X90106252Y-94672579D01*
X90130285Y-94667799D01*
X90152924Y-94658421D01*
X90173298Y-94644808D01*
X90190625Y-94627481D01*
X90204239Y-94607106D01*
X90208333Y-94599447D01*
X90219202Y-94586202D01*
X90232445Y-94575334D01*
X90247557Y-94567257D01*
X90263949Y-94562284D01*
X90287141Y-94560000D01*
X90700859Y-94560000D01*
X90724051Y-94562284D01*
X90740443Y-94567257D01*
X90755555Y-94575334D01*
X90768798Y-94586202D01*
X90779667Y-94599447D01*
X90783761Y-94607106D01*
X90797374Y-94627480D01*
X90814701Y-94644807D01*
X90835076Y-94658421D01*
X90857714Y-94667798D01*
X90881748Y-94672579D01*
X90906252Y-94672579D01*
X90930285Y-94667799D01*
X90952924Y-94658421D01*
X90973298Y-94644808D01*
X90990625Y-94627481D01*
X91004239Y-94607106D01*
X91008333Y-94599447D01*
X91019202Y-94586202D01*
X91032445Y-94575334D01*
X91047557Y-94567257D01*
X91063949Y-94562284D01*
X91087141Y-94560000D01*
X91500859Y-94560000D01*
X91524051Y-94562284D01*
X91540443Y-94567257D01*
X91555555Y-94575334D01*
X91568798Y-94586202D01*
X91579667Y-94599447D01*
X91583761Y-94607106D01*
X91597374Y-94627480D01*
X91614701Y-94644807D01*
X91635076Y-94658421D01*
X91657714Y-94667798D01*
X91681748Y-94672579D01*
X91706252Y-94672579D01*
X91730285Y-94667799D01*
X91752924Y-94658421D01*
X91773298Y-94644808D01*
X91790625Y-94627481D01*
X91804239Y-94607106D01*
X91808333Y-94599447D01*
X91819202Y-94586202D01*
X91832445Y-94575334D01*
X91847557Y-94567257D01*
X91863949Y-94562284D01*
X91887141Y-94560000D01*
X92300859Y-94560000D01*
X92324051Y-94562284D01*
X92340443Y-94567257D01*
X92355555Y-94575334D01*
X92368798Y-94586202D01*
X92379667Y-94599447D01*
X92383761Y-94607106D01*
X92397374Y-94627480D01*
X92414701Y-94644807D01*
X92435076Y-94658421D01*
X92457714Y-94667798D01*
X92481748Y-94672579D01*
X92506252Y-94672579D01*
X92530285Y-94667799D01*
X92552924Y-94658421D01*
X92573298Y-94644808D01*
X92590625Y-94627481D01*
X92604239Y-94607106D01*
X92608333Y-94599447D01*
X92619202Y-94586202D01*
X92632445Y-94575334D01*
X92647557Y-94567257D01*
X92663949Y-94562284D01*
X92687141Y-94560000D01*
X93100859Y-94560000D01*
X93124051Y-94562284D01*
X93140443Y-94567257D01*
X93155555Y-94575334D01*
X93168798Y-94586202D01*
X93179667Y-94599447D01*
X93183761Y-94607106D01*
X93197374Y-94627480D01*
X93214701Y-94644807D01*
X93235076Y-94658421D01*
X93257714Y-94667798D01*
X93281748Y-94672579D01*
X93306252Y-94672579D01*
X93330285Y-94667799D01*
X93352924Y-94658421D01*
X93373298Y-94644808D01*
X93390625Y-94627481D01*
X93404239Y-94607106D01*
X93408333Y-94599447D01*
X93419202Y-94586202D01*
X93432445Y-94575334D01*
X93447557Y-94567257D01*
X93463949Y-94562284D01*
X93487141Y-94560000D01*
X93900859Y-94560000D01*
X93924051Y-94562284D01*
X93940443Y-94567257D01*
X93955555Y-94575334D01*
X93968798Y-94586202D01*
X93979667Y-94599447D01*
X93983761Y-94607106D01*
X93997374Y-94627480D01*
X94014701Y-94644807D01*
X94035076Y-94658421D01*
X94057714Y-94667798D01*
X94081748Y-94672579D01*
X94106252Y-94672579D01*
X94130285Y-94667799D01*
X94152924Y-94658421D01*
X94173298Y-94644808D01*
X94190625Y-94627481D01*
X94204239Y-94607106D01*
X94208333Y-94599447D01*
X94219202Y-94586202D01*
X94232445Y-94575334D01*
X94247557Y-94567257D01*
X94263949Y-94562284D01*
X94287141Y-94560000D01*
X94700859Y-94560000D01*
X94724051Y-94562284D01*
X94740443Y-94567257D01*
X94755555Y-94575334D01*
X94768798Y-94586202D01*
X94779666Y-94599445D01*
X94787743Y-94614557D01*
X94792716Y-94630949D01*
X94795000Y-94654141D01*
X94795000Y-96067859D01*
X94792716Y-96091051D01*
X94787743Y-96107443D01*
X94779666Y-96122555D01*
X94768798Y-96135798D01*
X94755555Y-96146666D01*
X94740443Y-96154743D01*
X94724051Y-96159716D01*
X94700859Y-96162000D01*
X94287141Y-96162000D01*
X94263949Y-96159716D01*
X94247557Y-96154743D01*
X94232445Y-96146666D01*
X94219202Y-96135798D01*
X94208333Y-96122553D01*
X94204239Y-96114894D01*
X94190626Y-96094520D01*
X94173299Y-96077193D01*
X94152924Y-96063579D01*
X94130286Y-96054202D01*
X94106252Y-96049421D01*
X94081748Y-96049421D01*
X94057715Y-96054201D01*
X94035076Y-96063579D01*
X94014702Y-96077192D01*
X93997375Y-96094519D01*
X93983761Y-96114894D01*
X93979667Y-96122553D01*
X93968798Y-96135798D01*
X93955555Y-96146666D01*
X93940443Y-96154743D01*
X93924051Y-96159716D01*
X93900859Y-96162000D01*
X93487141Y-96162000D01*
X93463949Y-96159716D01*
X93447557Y-96154743D01*
X93432445Y-96146666D01*
X93419202Y-96135798D01*
X93408333Y-96122553D01*
X93404239Y-96114894D01*
X93390626Y-96094520D01*
X93373299Y-96077193D01*
X93352924Y-96063579D01*
X93330286Y-96054202D01*
X93306252Y-96049421D01*
X93281748Y-96049421D01*
X93257715Y-96054201D01*
X93235076Y-96063579D01*
X93214702Y-96077192D01*
X93197375Y-96094519D01*
X93183761Y-96114894D01*
X93179667Y-96122553D01*
X93168798Y-96135798D01*
X93155555Y-96146666D01*
X93140443Y-96154743D01*
X93124051Y-96159716D01*
X93100859Y-96162000D01*
X92687141Y-96162000D01*
X92663949Y-96159716D01*
X92647557Y-96154743D01*
X92632445Y-96146666D01*
X92619202Y-96135798D01*
X92608333Y-96122553D01*
X92604239Y-96114894D01*
X92590626Y-96094520D01*
X92573299Y-96077193D01*
X92552924Y-96063579D01*
X92530286Y-96054202D01*
X92506252Y-96049421D01*
X92481748Y-96049421D01*
X92457715Y-96054201D01*
X92435076Y-96063579D01*
X92414702Y-96077192D01*
X92397375Y-96094519D01*
X92383761Y-96114894D01*
X92379667Y-96122553D01*
X92368798Y-96135798D01*
X92355555Y-96146666D01*
X92340443Y-96154743D01*
X92324051Y-96159716D01*
X92300859Y-96162000D01*
X91887141Y-96162000D01*
X91863949Y-96159716D01*
X91847557Y-96154743D01*
X91832445Y-96146666D01*
X91819202Y-96135798D01*
X91808333Y-96122553D01*
X91804239Y-96114894D01*
X91790626Y-96094520D01*
X91773299Y-96077193D01*
X91752924Y-96063579D01*
X91730286Y-96054202D01*
X91706252Y-96049421D01*
X91681748Y-96049421D01*
X91657715Y-96054201D01*
X91635076Y-96063579D01*
X91614702Y-96077192D01*
X91597375Y-96094519D01*
X91583761Y-96114894D01*
X91579667Y-96122553D01*
X91568798Y-96135798D01*
X91555555Y-96146666D01*
X91540443Y-96154743D01*
X91524051Y-96159716D01*
X91500859Y-96162000D01*
X91087141Y-96162000D01*
X91063949Y-96159716D01*
X91047557Y-96154743D01*
X91032445Y-96146666D01*
X91019202Y-96135798D01*
X91008333Y-96122553D01*
X91004239Y-96114894D01*
X90990626Y-96094520D01*
X90973299Y-96077193D01*
X90952924Y-96063579D01*
X90930286Y-96054202D01*
X90906252Y-96049421D01*
X90881748Y-96049421D01*
X90857715Y-96054201D01*
X90835076Y-96063579D01*
X90814702Y-96077192D01*
X90797375Y-96094519D01*
X90783761Y-96114894D01*
X90779667Y-96122553D01*
X90768798Y-96135798D01*
X90755555Y-96146666D01*
X90740443Y-96154743D01*
X90724051Y-96159716D01*
X90700859Y-96162000D01*
X90287141Y-96162000D01*
X90263949Y-96159716D01*
X90247557Y-96154743D01*
X90232445Y-96146666D01*
X90219202Y-96135798D01*
X90208333Y-96122553D01*
X90204239Y-96114894D01*
X90190626Y-96094520D01*
X90173299Y-96077193D01*
X90152924Y-96063579D01*
X90130286Y-96054202D01*
X90106252Y-96049421D01*
X90081748Y-96049421D01*
X90057715Y-96054201D01*
X90035076Y-96063579D01*
X90014702Y-96077192D01*
X89997375Y-96094519D01*
X89983761Y-96114894D01*
X89979667Y-96122553D01*
X89968798Y-96135798D01*
X89955555Y-96146666D01*
X89940443Y-96154743D01*
X89924051Y-96159716D01*
X89900859Y-96162000D01*
X89487141Y-96162000D01*
X89463949Y-96159716D01*
X89447557Y-96154743D01*
X89432445Y-96146666D01*
X89419202Y-96135798D01*
X89408333Y-96122553D01*
X89404239Y-96114894D01*
X89390626Y-96094520D01*
X89373299Y-96077193D01*
X89352924Y-96063579D01*
X89330286Y-96054202D01*
X89306252Y-96049421D01*
X89281748Y-96049421D01*
X89257715Y-96054201D01*
X89235076Y-96063579D01*
X89214702Y-96077192D01*
X89197375Y-96094519D01*
X89183761Y-96114894D01*
X89179667Y-96122553D01*
X89168798Y-96135798D01*
X89155555Y-96146666D01*
X89140443Y-96154743D01*
X89124051Y-96159716D01*
X89100859Y-96162000D01*
X88687141Y-96162000D01*
X88663949Y-96159716D01*
X88647557Y-96154743D01*
X88632445Y-96146666D01*
X88619202Y-96135798D01*
X88608334Y-96122555D01*
X88600257Y-96107443D01*
X88595284Y-96091051D01*
X88593000Y-96067859D01*
X88593000Y-94654141D01*
X88595284Y-94630949D01*
X88600257Y-94614557D01*
X88608334Y-94599445D01*
X88619202Y-94586202D01*
X88632445Y-94575334D01*
X88647557Y-94567257D01*
X88663949Y-94562284D01*
X88687141Y-94560000D01*
X89100859Y-94560000D01*
X89124051Y-94562284D01*
G37*
G36*
X127397104Y-93565835D02*
G01*
X127565626Y-93635639D01*
X127717291Y-93736978D01*
X127846272Y-93865959D01*
X127947611Y-94017624D01*
X128017415Y-94186146D01*
X128053000Y-94365047D01*
X128053000Y-94547453D01*
X128017415Y-94726354D01*
X127947611Y-94894876D01*
X127846272Y-95046541D01*
X127717291Y-95175522D01*
X127565626Y-95276861D01*
X127397104Y-95346665D01*
X127218203Y-95382250D01*
X127035797Y-95382250D01*
X126856896Y-95346665D01*
X126688374Y-95276861D01*
X126536709Y-95175522D01*
X126407728Y-95046541D01*
X126306389Y-94894876D01*
X126236585Y-94726354D01*
X126201000Y-94547453D01*
X126201000Y-94365047D01*
X126236585Y-94186146D01*
X126306389Y-94017624D01*
X126407728Y-93865959D01*
X126536709Y-93736978D01*
X126688374Y-93635639D01*
X126856896Y-93565835D01*
X127035797Y-93530250D01*
X127218203Y-93530250D01*
X127397104Y-93565835D01*
G37*
G36*
X137557104Y-93565835D02*
G01*
X137725626Y-93635639D01*
X137877291Y-93736978D01*
X138006272Y-93865959D01*
X138107611Y-94017624D01*
X138177415Y-94186146D01*
X138213000Y-94365047D01*
X138213000Y-94547453D01*
X138177415Y-94726354D01*
X138107611Y-94894876D01*
X138006272Y-95046541D01*
X137877291Y-95175522D01*
X137725626Y-95276861D01*
X137557104Y-95346665D01*
X137378203Y-95382250D01*
X137195797Y-95382250D01*
X137016896Y-95346665D01*
X136848374Y-95276861D01*
X136696709Y-95175522D01*
X136567728Y-95046541D01*
X136466389Y-94894876D01*
X136396585Y-94726354D01*
X136361000Y-94547453D01*
X136361000Y-94365047D01*
X136396585Y-94186146D01*
X136466389Y-94017624D01*
X136567728Y-93865959D01*
X136696709Y-93736978D01*
X136848374Y-93635639D01*
X137016896Y-93565835D01*
X137195797Y-93530250D01*
X137378203Y-93530250D01*
X137557104Y-93565835D01*
G37*
G36*
X108347104Y-93565835D02*
G01*
X108515626Y-93635639D01*
X108667291Y-93736978D01*
X108796272Y-93865959D01*
X108897611Y-94017624D01*
X108967415Y-94186146D01*
X109003000Y-94365047D01*
X109003000Y-94547453D01*
X108967415Y-94726354D01*
X108897611Y-94894876D01*
X108796272Y-95046541D01*
X108667291Y-95175522D01*
X108515626Y-95276861D01*
X108347104Y-95346665D01*
X108168203Y-95382250D01*
X107985797Y-95382250D01*
X107806896Y-95346665D01*
X107638374Y-95276861D01*
X107486709Y-95175522D01*
X107357728Y-95046541D01*
X107256389Y-94894876D01*
X107186585Y-94726354D01*
X107151000Y-94547453D01*
X107151000Y-94365047D01*
X107186585Y-94186146D01*
X107256389Y-94017624D01*
X107357728Y-93865959D01*
X107486709Y-93736978D01*
X107638374Y-93635639D01*
X107806896Y-93565835D01*
X107985797Y-93530250D01*
X108168203Y-93530250D01*
X108347104Y-93565835D01*
G37*
G36*
X118507104Y-93565835D02*
G01*
X118675626Y-93635639D01*
X118827291Y-93736978D01*
X118956272Y-93865959D01*
X119057611Y-94017624D01*
X119127415Y-94186146D01*
X119163000Y-94365047D01*
X119163000Y-94547453D01*
X119127415Y-94726354D01*
X119057611Y-94894876D01*
X118956272Y-95046541D01*
X118827291Y-95175522D01*
X118675626Y-95276861D01*
X118507104Y-95346665D01*
X118328203Y-95382250D01*
X118145797Y-95382250D01*
X117966896Y-95346665D01*
X117798374Y-95276861D01*
X117646709Y-95175522D01*
X117517728Y-95046541D01*
X117416389Y-94894876D01*
X117346585Y-94726354D01*
X117311000Y-94547453D01*
X117311000Y-94365047D01*
X117346585Y-94186146D01*
X117416389Y-94017624D01*
X117517728Y-93865959D01*
X117646709Y-93736978D01*
X117798374Y-93635639D01*
X117966896Y-93565835D01*
X118145797Y-93530250D01*
X118328203Y-93530250D01*
X118507104Y-93565835D01*
G37*
G36*
X146447104Y-93565835D02*
G01*
X146615626Y-93635639D01*
X146767291Y-93736978D01*
X146896272Y-93865959D01*
X146997611Y-94017624D01*
X147067415Y-94186146D01*
X147103000Y-94365047D01*
X147103000Y-94547453D01*
X147067415Y-94726354D01*
X146997611Y-94894876D01*
X146896272Y-95046541D01*
X146767291Y-95175522D01*
X146615626Y-95276861D01*
X146447104Y-95346665D01*
X146268203Y-95382250D01*
X146085797Y-95382250D01*
X145906896Y-95346665D01*
X145738374Y-95276861D01*
X145586709Y-95175522D01*
X145457728Y-95046541D01*
X145356389Y-94894876D01*
X145286585Y-94726354D01*
X145251000Y-94547453D01*
X145251000Y-94365047D01*
X145286585Y-94186146D01*
X145356389Y-94017624D01*
X145457728Y-93865959D01*
X145586709Y-93736978D01*
X145738374Y-93635639D01*
X145906896Y-93565835D01*
X146085797Y-93530250D01*
X146268203Y-93530250D01*
X146447104Y-93565835D01*
G37*
G36*
X156607104Y-93565835D02*
G01*
X156775626Y-93635639D01*
X156927291Y-93736978D01*
X157056272Y-93865959D01*
X157157611Y-94017624D01*
X157227415Y-94186146D01*
X157263000Y-94365047D01*
X157263000Y-94547453D01*
X157227415Y-94726354D01*
X157157611Y-94894876D01*
X157056272Y-95046541D01*
X156927291Y-95175522D01*
X156775626Y-95276861D01*
X156607104Y-95346665D01*
X156428203Y-95382250D01*
X156245797Y-95382250D01*
X156066896Y-95346665D01*
X155898374Y-95276861D01*
X155746709Y-95175522D01*
X155617728Y-95046541D01*
X155516389Y-94894876D01*
X155446585Y-94726354D01*
X155411000Y-94547453D01*
X155411000Y-94365047D01*
X155446585Y-94186146D01*
X155516389Y-94017624D01*
X155617728Y-93865959D01*
X155746709Y-93736978D01*
X155898374Y-93635639D01*
X156066896Y-93565835D01*
X156245797Y-93530250D01*
X156428203Y-93530250D01*
X156607104Y-93565835D01*
G37*
G36*
X175657104Y-93565835D02*
G01*
X175825626Y-93635639D01*
X175977291Y-93736978D01*
X176106272Y-93865959D01*
X176207611Y-94017624D01*
X176277415Y-94186146D01*
X176313000Y-94365047D01*
X176313000Y-94547453D01*
X176277415Y-94726354D01*
X176207611Y-94894876D01*
X176106272Y-95046541D01*
X175977291Y-95175522D01*
X175825626Y-95276861D01*
X175657104Y-95346665D01*
X175478203Y-95382250D01*
X175295797Y-95382250D01*
X175116896Y-95346665D01*
X174948374Y-95276861D01*
X174796709Y-95175522D01*
X174667728Y-95046541D01*
X174566389Y-94894876D01*
X174496585Y-94726354D01*
X174461000Y-94547453D01*
X174461000Y-94365047D01*
X174496585Y-94186146D01*
X174566389Y-94017624D01*
X174667728Y-93865959D01*
X174796709Y-93736978D01*
X174948374Y-93635639D01*
X175116896Y-93565835D01*
X175295797Y-93530250D01*
X175478203Y-93530250D01*
X175657104Y-93565835D01*
G37*
G36*
X165497104Y-93565835D02*
G01*
X165665626Y-93635639D01*
X165817291Y-93736978D01*
X165946272Y-93865959D01*
X166047611Y-94017624D01*
X166117415Y-94186146D01*
X166153000Y-94365047D01*
X166153000Y-94547453D01*
X166117415Y-94726354D01*
X166047611Y-94894876D01*
X165946272Y-95046541D01*
X165817291Y-95175522D01*
X165665626Y-95276861D01*
X165497104Y-95346665D01*
X165318203Y-95382250D01*
X165135797Y-95382250D01*
X164956896Y-95346665D01*
X164788374Y-95276861D01*
X164636709Y-95175522D01*
X164507728Y-95046541D01*
X164406389Y-94894876D01*
X164336585Y-94726354D01*
X164301000Y-94547453D01*
X164301000Y-94365047D01*
X164336585Y-94186146D01*
X164406389Y-94017624D01*
X164507728Y-93865959D01*
X164636709Y-93736978D01*
X164788374Y-93635639D01*
X164956896Y-93565835D01*
X165135797Y-93530250D01*
X165318203Y-93530250D01*
X165497104Y-93565835D01*
G37*
G36*
X96599051Y-88087284D02*
G01*
X96615443Y-88092257D01*
X96630555Y-88100334D01*
X96643798Y-88111202D01*
X96654666Y-88124445D01*
X96662743Y-88139557D01*
X96667716Y-88155949D01*
X96670000Y-88179141D01*
X96670000Y-88592859D01*
X96667716Y-88616051D01*
X96662743Y-88632443D01*
X96654666Y-88647555D01*
X96643798Y-88660798D01*
X96630553Y-88671667D01*
X96622894Y-88675761D01*
X96602520Y-88689374D01*
X96585193Y-88706701D01*
X96571579Y-88727076D01*
X96562202Y-88749714D01*
X96557421Y-88773748D01*
X96557421Y-88798252D01*
X96562201Y-88822285D01*
X96571579Y-88844924D01*
X96585192Y-88865298D01*
X96602519Y-88882625D01*
X96622894Y-88896239D01*
X96630553Y-88900333D01*
X96643798Y-88911202D01*
X96654666Y-88924445D01*
X96662743Y-88939557D01*
X96667716Y-88955949D01*
X96670000Y-88979141D01*
X96670000Y-89392859D01*
X96667716Y-89416051D01*
X96662743Y-89432443D01*
X96654666Y-89447555D01*
X96643798Y-89460798D01*
X96630553Y-89471667D01*
X96622894Y-89475761D01*
X96602520Y-89489374D01*
X96585193Y-89506701D01*
X96571579Y-89527076D01*
X96562202Y-89549714D01*
X96557421Y-89573748D01*
X96557421Y-89598252D01*
X96562201Y-89622285D01*
X96571579Y-89644924D01*
X96585192Y-89665298D01*
X96602519Y-89682625D01*
X96622894Y-89696239D01*
X96630553Y-89700333D01*
X96643798Y-89711202D01*
X96654666Y-89724445D01*
X96662743Y-89739557D01*
X96667716Y-89755949D01*
X96670000Y-89779141D01*
X96670000Y-90192859D01*
X96667716Y-90216051D01*
X96662743Y-90232443D01*
X96654666Y-90247555D01*
X96643798Y-90260798D01*
X96630553Y-90271667D01*
X96622894Y-90275761D01*
X96602520Y-90289374D01*
X96585193Y-90306701D01*
X96571579Y-90327076D01*
X96562202Y-90349714D01*
X96557421Y-90373748D01*
X96557421Y-90398252D01*
X96562201Y-90422285D01*
X96571579Y-90444924D01*
X96585192Y-90465298D01*
X96602519Y-90482625D01*
X96622894Y-90496239D01*
X96630553Y-90500333D01*
X96643798Y-90511202D01*
X96654666Y-90524445D01*
X96662743Y-90539557D01*
X96667716Y-90555949D01*
X96670000Y-90579141D01*
X96670000Y-90992859D01*
X96667716Y-91016051D01*
X96662743Y-91032443D01*
X96654666Y-91047555D01*
X96643798Y-91060798D01*
X96630553Y-91071667D01*
X96622894Y-91075761D01*
X96602520Y-91089374D01*
X96585193Y-91106701D01*
X96571579Y-91127076D01*
X96562202Y-91149714D01*
X96557421Y-91173748D01*
X96557421Y-91198252D01*
X96562201Y-91222285D01*
X96571579Y-91244924D01*
X96585192Y-91265298D01*
X96602519Y-91282625D01*
X96622894Y-91296239D01*
X96630553Y-91300333D01*
X96643798Y-91311202D01*
X96654666Y-91324445D01*
X96662743Y-91339557D01*
X96667716Y-91355949D01*
X96670000Y-91379141D01*
X96670000Y-91792859D01*
X96667716Y-91816051D01*
X96662743Y-91832443D01*
X96654666Y-91847555D01*
X96643798Y-91860798D01*
X96630553Y-91871667D01*
X96622894Y-91875761D01*
X96602520Y-91889374D01*
X96585193Y-91906701D01*
X96571579Y-91927076D01*
X96562202Y-91949714D01*
X96557421Y-91973748D01*
X96557421Y-91998252D01*
X96562201Y-92022285D01*
X96571579Y-92044924D01*
X96585192Y-92065298D01*
X96602519Y-92082625D01*
X96622894Y-92096239D01*
X96630553Y-92100333D01*
X96643798Y-92111202D01*
X96654666Y-92124445D01*
X96662743Y-92139557D01*
X96667716Y-92155949D01*
X96670000Y-92179141D01*
X96670000Y-92592859D01*
X96667716Y-92616051D01*
X96662743Y-92632443D01*
X96654666Y-92647555D01*
X96643798Y-92660798D01*
X96630553Y-92671667D01*
X96622894Y-92675761D01*
X96602520Y-92689374D01*
X96585193Y-92706701D01*
X96571579Y-92727076D01*
X96562202Y-92749714D01*
X96557421Y-92773748D01*
X96557421Y-92798252D01*
X96562201Y-92822285D01*
X96571579Y-92844924D01*
X96585192Y-92865298D01*
X96602519Y-92882625D01*
X96622894Y-92896239D01*
X96630553Y-92900333D01*
X96643798Y-92911202D01*
X96654666Y-92924445D01*
X96662743Y-92939557D01*
X96667716Y-92955949D01*
X96670000Y-92979141D01*
X96670000Y-93392859D01*
X96667716Y-93416051D01*
X96662743Y-93432443D01*
X96654666Y-93447555D01*
X96643798Y-93460798D01*
X96630553Y-93471667D01*
X96622894Y-93475761D01*
X96602520Y-93489374D01*
X96585193Y-93506701D01*
X96571579Y-93527076D01*
X96562202Y-93549714D01*
X96557421Y-93573748D01*
X96557421Y-93598252D01*
X96562201Y-93622285D01*
X96571579Y-93644924D01*
X96585192Y-93665298D01*
X96602519Y-93682625D01*
X96622894Y-93696239D01*
X96630553Y-93700333D01*
X96643798Y-93711202D01*
X96654666Y-93724445D01*
X96662743Y-93739557D01*
X96667716Y-93755949D01*
X96670000Y-93779141D01*
X96670000Y-94192859D01*
X96667716Y-94216051D01*
X96662743Y-94232443D01*
X96654666Y-94247555D01*
X96643798Y-94260798D01*
X96630555Y-94271666D01*
X96615443Y-94279743D01*
X96599051Y-94284716D01*
X96575859Y-94287000D01*
X95162141Y-94287000D01*
X95138949Y-94284716D01*
X95122557Y-94279743D01*
X95107445Y-94271666D01*
X95094202Y-94260798D01*
X95083334Y-94247555D01*
X95075257Y-94232443D01*
X95070284Y-94216051D01*
X95068000Y-94192859D01*
X95068000Y-93779141D01*
X95070284Y-93755949D01*
X95075257Y-93739557D01*
X95083334Y-93724445D01*
X95094202Y-93711202D01*
X95107447Y-93700333D01*
X95115106Y-93696239D01*
X95135480Y-93682626D01*
X95152807Y-93665299D01*
X95166421Y-93644924D01*
X95175798Y-93622286D01*
X95180579Y-93598252D01*
X95180579Y-93573748D01*
X95175799Y-93549715D01*
X95166421Y-93527076D01*
X95152808Y-93506702D01*
X95135481Y-93489375D01*
X95115106Y-93475761D01*
X95107447Y-93471667D01*
X95094202Y-93460798D01*
X95083334Y-93447555D01*
X95075257Y-93432443D01*
X95070284Y-93416051D01*
X95068000Y-93392859D01*
X95068000Y-92979141D01*
X95070284Y-92955949D01*
X95075257Y-92939557D01*
X95083334Y-92924445D01*
X95094202Y-92911202D01*
X95107447Y-92900333D01*
X95115106Y-92896239D01*
X95135480Y-92882626D01*
X95152807Y-92865299D01*
X95166421Y-92844924D01*
X95175798Y-92822286D01*
X95180579Y-92798252D01*
X95180579Y-92773748D01*
X95175799Y-92749715D01*
X95166421Y-92727076D01*
X95152808Y-92706702D01*
X95135481Y-92689375D01*
X95115106Y-92675761D01*
X95107447Y-92671667D01*
X95094202Y-92660798D01*
X95083334Y-92647555D01*
X95075257Y-92632443D01*
X95070284Y-92616051D01*
X95068000Y-92592859D01*
X95068000Y-92179141D01*
X95070284Y-92155949D01*
X95075257Y-92139557D01*
X95083334Y-92124445D01*
X95094202Y-92111202D01*
X95107447Y-92100333D01*
X95115106Y-92096239D01*
X95135480Y-92082626D01*
X95152807Y-92065299D01*
X95166421Y-92044924D01*
X95175798Y-92022286D01*
X95180579Y-91998252D01*
X95180579Y-91973748D01*
X95175799Y-91949715D01*
X95166421Y-91927076D01*
X95152808Y-91906702D01*
X95135481Y-91889375D01*
X95115106Y-91875761D01*
X95107447Y-91871667D01*
X95094202Y-91860798D01*
X95083334Y-91847555D01*
X95075257Y-91832443D01*
X95070284Y-91816051D01*
X95068000Y-91792859D01*
X95068000Y-91379141D01*
X95070284Y-91355949D01*
X95075257Y-91339557D01*
X95083334Y-91324445D01*
X95094202Y-91311202D01*
X95107447Y-91300333D01*
X95115106Y-91296239D01*
X95135480Y-91282626D01*
X95152807Y-91265299D01*
X95166421Y-91244924D01*
X95175798Y-91222286D01*
X95180579Y-91198252D01*
X95180579Y-91173748D01*
X95175799Y-91149715D01*
X95166421Y-91127076D01*
X95152808Y-91106702D01*
X95135481Y-91089375D01*
X95115106Y-91075761D01*
X95107447Y-91071667D01*
X95094202Y-91060798D01*
X95083334Y-91047555D01*
X95075257Y-91032443D01*
X95070284Y-91016051D01*
X95068000Y-90992859D01*
X95068000Y-90579141D01*
X95070284Y-90555949D01*
X95075257Y-90539557D01*
X95083334Y-90524445D01*
X95094202Y-90511202D01*
X95107447Y-90500333D01*
X95115106Y-90496239D01*
X95135480Y-90482626D01*
X95152807Y-90465299D01*
X95166421Y-90444924D01*
X95175798Y-90422286D01*
X95180579Y-90398252D01*
X95180579Y-90373748D01*
X95175799Y-90349715D01*
X95166421Y-90327076D01*
X95152808Y-90306702D01*
X95135481Y-90289375D01*
X95115106Y-90275761D01*
X95107447Y-90271667D01*
X95094202Y-90260798D01*
X95083334Y-90247555D01*
X95075257Y-90232443D01*
X95070284Y-90216051D01*
X95068000Y-90192859D01*
X95068000Y-89779141D01*
X95070284Y-89755949D01*
X95075257Y-89739557D01*
X95083334Y-89724445D01*
X95094202Y-89711202D01*
X95107447Y-89700333D01*
X95115106Y-89696239D01*
X95135480Y-89682626D01*
X95152807Y-89665299D01*
X95166421Y-89644924D01*
X95175798Y-89622286D01*
X95180579Y-89598252D01*
X95180579Y-89573748D01*
X95175799Y-89549715D01*
X95166421Y-89527076D01*
X95152808Y-89506702D01*
X95135481Y-89489375D01*
X95115106Y-89475761D01*
X95107447Y-89471667D01*
X95094202Y-89460798D01*
X95083334Y-89447555D01*
X95075257Y-89432443D01*
X95070284Y-89416051D01*
X95068000Y-89392859D01*
X95068000Y-88979141D01*
X95070284Y-88955949D01*
X95075257Y-88939557D01*
X95083334Y-88924445D01*
X95094202Y-88911202D01*
X95107447Y-88900333D01*
X95115106Y-88896239D01*
X95135480Y-88882626D01*
X95152807Y-88865299D01*
X95166421Y-88844924D01*
X95175798Y-88822286D01*
X95180579Y-88798252D01*
X95180579Y-88773748D01*
X95175799Y-88749715D01*
X95166421Y-88727076D01*
X95152808Y-88706702D01*
X95135481Y-88689375D01*
X95115106Y-88675761D01*
X95107447Y-88671667D01*
X95094202Y-88660798D01*
X95083334Y-88647555D01*
X95075257Y-88632443D01*
X95070284Y-88616051D01*
X95068000Y-88592859D01*
X95068000Y-88179141D01*
X95070284Y-88155949D01*
X95075257Y-88139557D01*
X95083334Y-88124445D01*
X95094202Y-88111202D01*
X95107445Y-88100334D01*
X95122557Y-88092257D01*
X95138949Y-88087284D01*
X95162141Y-88085000D01*
X96575859Y-88085000D01*
X96599051Y-88087284D01*
G37*
G36*
X88249051Y-88087284D02*
G01*
X88265443Y-88092257D01*
X88280555Y-88100334D01*
X88293798Y-88111202D01*
X88304666Y-88124445D01*
X88312743Y-88139557D01*
X88317716Y-88155949D01*
X88320000Y-88179141D01*
X88320000Y-88592859D01*
X88317716Y-88616051D01*
X88312743Y-88632443D01*
X88304666Y-88647555D01*
X88293798Y-88660798D01*
X88280553Y-88671667D01*
X88272894Y-88675761D01*
X88252520Y-88689374D01*
X88235193Y-88706701D01*
X88221579Y-88727076D01*
X88212202Y-88749714D01*
X88207421Y-88773748D01*
X88207421Y-88798252D01*
X88212201Y-88822285D01*
X88221579Y-88844924D01*
X88235192Y-88865298D01*
X88252519Y-88882625D01*
X88272894Y-88896239D01*
X88280553Y-88900333D01*
X88293798Y-88911202D01*
X88304666Y-88924445D01*
X88312743Y-88939557D01*
X88317716Y-88955949D01*
X88320000Y-88979141D01*
X88320000Y-89392859D01*
X88317716Y-89416051D01*
X88312743Y-89432443D01*
X88304666Y-89447555D01*
X88293798Y-89460798D01*
X88280553Y-89471667D01*
X88272894Y-89475761D01*
X88252520Y-89489374D01*
X88235193Y-89506701D01*
X88221579Y-89527076D01*
X88212202Y-89549714D01*
X88207421Y-89573748D01*
X88207421Y-89598252D01*
X88212201Y-89622285D01*
X88221579Y-89644924D01*
X88235192Y-89665298D01*
X88252519Y-89682625D01*
X88272894Y-89696239D01*
X88280553Y-89700333D01*
X88293798Y-89711202D01*
X88304666Y-89724445D01*
X88312743Y-89739557D01*
X88317716Y-89755949D01*
X88320000Y-89779141D01*
X88320000Y-90192859D01*
X88317716Y-90216051D01*
X88312743Y-90232443D01*
X88304666Y-90247555D01*
X88293798Y-90260798D01*
X88280553Y-90271667D01*
X88272894Y-90275761D01*
X88252520Y-90289374D01*
X88235193Y-90306701D01*
X88221579Y-90327076D01*
X88212202Y-90349714D01*
X88207421Y-90373748D01*
X88207421Y-90398252D01*
X88212201Y-90422285D01*
X88221579Y-90444924D01*
X88235192Y-90465298D01*
X88252519Y-90482625D01*
X88272894Y-90496239D01*
X88280553Y-90500333D01*
X88293798Y-90511202D01*
X88304666Y-90524445D01*
X88312743Y-90539557D01*
X88317716Y-90555949D01*
X88320000Y-90579141D01*
X88320000Y-90992859D01*
X88317716Y-91016051D01*
X88312743Y-91032443D01*
X88304666Y-91047555D01*
X88293798Y-91060798D01*
X88280553Y-91071667D01*
X88272894Y-91075761D01*
X88252520Y-91089374D01*
X88235193Y-91106701D01*
X88221579Y-91127076D01*
X88212202Y-91149714D01*
X88207421Y-91173748D01*
X88207421Y-91198252D01*
X88212201Y-91222285D01*
X88221579Y-91244924D01*
X88235192Y-91265298D01*
X88252519Y-91282625D01*
X88272894Y-91296239D01*
X88280553Y-91300333D01*
X88293798Y-91311202D01*
X88304666Y-91324445D01*
X88312743Y-91339557D01*
X88317716Y-91355949D01*
X88320000Y-91379141D01*
X88320000Y-91792859D01*
X88317716Y-91816051D01*
X88312743Y-91832443D01*
X88304666Y-91847555D01*
X88293798Y-91860798D01*
X88280553Y-91871667D01*
X88272894Y-91875761D01*
X88252520Y-91889374D01*
X88235193Y-91906701D01*
X88221579Y-91927076D01*
X88212202Y-91949714D01*
X88207421Y-91973748D01*
X88207421Y-91998252D01*
X88212201Y-92022285D01*
X88221579Y-92044924D01*
X88235192Y-92065298D01*
X88252519Y-92082625D01*
X88272894Y-92096239D01*
X88280553Y-92100333D01*
X88293798Y-92111202D01*
X88304666Y-92124445D01*
X88312743Y-92139557D01*
X88317716Y-92155949D01*
X88320000Y-92179141D01*
X88320000Y-92592859D01*
X88317716Y-92616051D01*
X88312743Y-92632443D01*
X88304666Y-92647555D01*
X88293798Y-92660798D01*
X88280553Y-92671667D01*
X88272894Y-92675761D01*
X88252520Y-92689374D01*
X88235193Y-92706701D01*
X88221579Y-92727076D01*
X88212202Y-92749714D01*
X88207421Y-92773748D01*
X88207421Y-92798252D01*
X88212201Y-92822285D01*
X88221579Y-92844924D01*
X88235192Y-92865298D01*
X88252519Y-92882625D01*
X88272894Y-92896239D01*
X88280553Y-92900333D01*
X88293798Y-92911202D01*
X88304666Y-92924445D01*
X88312743Y-92939557D01*
X88317716Y-92955949D01*
X88320000Y-92979141D01*
X88320000Y-93392859D01*
X88317716Y-93416051D01*
X88312743Y-93432443D01*
X88304666Y-93447555D01*
X88293798Y-93460798D01*
X88280553Y-93471667D01*
X88272894Y-93475761D01*
X88252520Y-93489374D01*
X88235193Y-93506701D01*
X88221579Y-93527076D01*
X88212202Y-93549714D01*
X88207421Y-93573748D01*
X88207421Y-93598252D01*
X88212201Y-93622285D01*
X88221579Y-93644924D01*
X88235192Y-93665298D01*
X88252519Y-93682625D01*
X88272894Y-93696239D01*
X88280553Y-93700333D01*
X88293798Y-93711202D01*
X88304666Y-93724445D01*
X88312743Y-93739557D01*
X88317716Y-93755949D01*
X88320000Y-93779141D01*
X88320000Y-94192859D01*
X88317716Y-94216051D01*
X88312743Y-94232443D01*
X88304666Y-94247555D01*
X88293798Y-94260798D01*
X88280555Y-94271666D01*
X88265443Y-94279743D01*
X88249051Y-94284716D01*
X88225859Y-94287000D01*
X86812141Y-94287000D01*
X86788949Y-94284716D01*
X86772557Y-94279743D01*
X86757445Y-94271666D01*
X86744202Y-94260798D01*
X86733334Y-94247555D01*
X86725257Y-94232443D01*
X86720284Y-94216051D01*
X86718000Y-94192859D01*
X86718000Y-93779141D01*
X86720284Y-93755949D01*
X86725257Y-93739557D01*
X86733334Y-93724445D01*
X86744202Y-93711202D01*
X86757447Y-93700333D01*
X86765106Y-93696239D01*
X86785480Y-93682626D01*
X86802807Y-93665299D01*
X86816421Y-93644924D01*
X86825798Y-93622286D01*
X86830579Y-93598252D01*
X86830579Y-93573748D01*
X86825799Y-93549715D01*
X86816421Y-93527076D01*
X86802808Y-93506702D01*
X86785481Y-93489375D01*
X86765106Y-93475761D01*
X86757447Y-93471667D01*
X86744202Y-93460798D01*
X86733334Y-93447555D01*
X86725257Y-93432443D01*
X86720284Y-93416051D01*
X86718000Y-93392859D01*
X86718000Y-92979141D01*
X86720284Y-92955949D01*
X86725257Y-92939557D01*
X86733334Y-92924445D01*
X86744202Y-92911202D01*
X86757447Y-92900333D01*
X86765106Y-92896239D01*
X86785480Y-92882626D01*
X86802807Y-92865299D01*
X86816421Y-92844924D01*
X86825798Y-92822286D01*
X86830579Y-92798252D01*
X86830579Y-92773748D01*
X86825799Y-92749715D01*
X86816421Y-92727076D01*
X86802808Y-92706702D01*
X86785481Y-92689375D01*
X86765106Y-92675761D01*
X86757447Y-92671667D01*
X86744202Y-92660798D01*
X86733334Y-92647555D01*
X86725257Y-92632443D01*
X86720284Y-92616051D01*
X86718000Y-92592859D01*
X86718000Y-92179141D01*
X86720284Y-92155949D01*
X86725257Y-92139557D01*
X86733334Y-92124445D01*
X86744202Y-92111202D01*
X86757447Y-92100333D01*
X86765106Y-92096239D01*
X86785480Y-92082626D01*
X86802807Y-92065299D01*
X86816421Y-92044924D01*
X86825798Y-92022286D01*
X86830579Y-91998252D01*
X86830579Y-91973748D01*
X86825799Y-91949715D01*
X86816421Y-91927076D01*
X86802808Y-91906702D01*
X86785481Y-91889375D01*
X86765106Y-91875761D01*
X86757447Y-91871667D01*
X86744202Y-91860798D01*
X86733334Y-91847555D01*
X86725257Y-91832443D01*
X86720284Y-91816051D01*
X86718000Y-91792859D01*
X86718000Y-91379141D01*
X86720284Y-91355949D01*
X86725257Y-91339557D01*
X86733334Y-91324445D01*
X86744202Y-91311202D01*
X86757447Y-91300333D01*
X86765106Y-91296239D01*
X86785480Y-91282626D01*
X86802807Y-91265299D01*
X86816421Y-91244924D01*
X86825798Y-91222286D01*
X86830579Y-91198252D01*
X86830579Y-91173748D01*
X86825799Y-91149715D01*
X86816421Y-91127076D01*
X86802808Y-91106702D01*
X86785481Y-91089375D01*
X86765106Y-91075761D01*
X86757447Y-91071667D01*
X86744202Y-91060798D01*
X86733334Y-91047555D01*
X86725257Y-91032443D01*
X86720284Y-91016051D01*
X86718000Y-90992859D01*
X86718000Y-90579141D01*
X86720284Y-90555949D01*
X86725257Y-90539557D01*
X86733334Y-90524445D01*
X86744202Y-90511202D01*
X86757447Y-90500333D01*
X86765106Y-90496239D01*
X86785480Y-90482626D01*
X86802807Y-90465299D01*
X86816421Y-90444924D01*
X86825798Y-90422286D01*
X86830579Y-90398252D01*
X86830579Y-90373748D01*
X86825799Y-90349715D01*
X86816421Y-90327076D01*
X86802808Y-90306702D01*
X86785481Y-90289375D01*
X86765106Y-90275761D01*
X86757447Y-90271667D01*
X86744202Y-90260798D01*
X86733334Y-90247555D01*
X86725257Y-90232443D01*
X86720284Y-90216051D01*
X86718000Y-90192859D01*
X86718000Y-89779141D01*
X86720284Y-89755949D01*
X86725257Y-89739557D01*
X86733334Y-89724445D01*
X86744202Y-89711202D01*
X86757447Y-89700333D01*
X86765106Y-89696239D01*
X86785480Y-89682626D01*
X86802807Y-89665299D01*
X86816421Y-89644924D01*
X86825798Y-89622286D01*
X86830579Y-89598252D01*
X86830579Y-89573748D01*
X86825799Y-89549715D01*
X86816421Y-89527076D01*
X86802808Y-89506702D01*
X86785481Y-89489375D01*
X86765106Y-89475761D01*
X86757447Y-89471667D01*
X86744202Y-89460798D01*
X86733334Y-89447555D01*
X86725257Y-89432443D01*
X86720284Y-89416051D01*
X86718000Y-89392859D01*
X86718000Y-88979141D01*
X86720284Y-88955949D01*
X86725257Y-88939557D01*
X86733334Y-88924445D01*
X86744202Y-88911202D01*
X86757447Y-88900333D01*
X86765106Y-88896239D01*
X86785480Y-88882626D01*
X86802807Y-88865299D01*
X86816421Y-88844924D01*
X86825798Y-88822286D01*
X86830579Y-88798252D01*
X86830579Y-88773748D01*
X86825799Y-88749715D01*
X86816421Y-88727076D01*
X86802808Y-88706702D01*
X86785481Y-88689375D01*
X86765106Y-88675761D01*
X86757447Y-88671667D01*
X86744202Y-88660798D01*
X86733334Y-88647555D01*
X86725257Y-88632443D01*
X86720284Y-88616051D01*
X86718000Y-88592859D01*
X86718000Y-88179141D01*
X86720284Y-88155949D01*
X86725257Y-88139557D01*
X86733334Y-88124445D01*
X86744202Y-88111202D01*
X86757445Y-88100334D01*
X86772557Y-88092257D01*
X86788949Y-88087284D01*
X86812141Y-88085000D01*
X88225859Y-88085000D01*
X88249051Y-88087284D01*
G37*
G36*
X89124051Y-86212284D02*
G01*
X89140443Y-86217257D01*
X89155555Y-86225334D01*
X89168798Y-86236202D01*
X89179667Y-86249447D01*
X89183761Y-86257106D01*
X89197374Y-86277480D01*
X89214701Y-86294807D01*
X89235076Y-86308421D01*
X89257714Y-86317798D01*
X89281748Y-86322579D01*
X89306252Y-86322579D01*
X89330285Y-86317799D01*
X89352924Y-86308421D01*
X89373298Y-86294808D01*
X89390625Y-86277481D01*
X89404239Y-86257106D01*
X89408333Y-86249447D01*
X89419202Y-86236202D01*
X89432445Y-86225334D01*
X89447557Y-86217257D01*
X89463949Y-86212284D01*
X89487141Y-86210000D01*
X89900859Y-86210000D01*
X89924051Y-86212284D01*
X89940443Y-86217257D01*
X89955555Y-86225334D01*
X89968798Y-86236202D01*
X89979667Y-86249447D01*
X89983761Y-86257106D01*
X89997374Y-86277480D01*
X90014701Y-86294807D01*
X90035076Y-86308421D01*
X90057714Y-86317798D01*
X90081748Y-86322579D01*
X90106252Y-86322579D01*
X90130285Y-86317799D01*
X90152924Y-86308421D01*
X90173298Y-86294808D01*
X90190625Y-86277481D01*
X90204239Y-86257106D01*
X90208333Y-86249447D01*
X90219202Y-86236202D01*
X90232445Y-86225334D01*
X90247557Y-86217257D01*
X90263949Y-86212284D01*
X90287141Y-86210000D01*
X90700859Y-86210000D01*
X90724051Y-86212284D01*
X90740443Y-86217257D01*
X90755555Y-86225334D01*
X90768798Y-86236202D01*
X90779667Y-86249447D01*
X90783761Y-86257106D01*
X90797374Y-86277480D01*
X90814701Y-86294807D01*
X90835076Y-86308421D01*
X90857714Y-86317798D01*
X90881748Y-86322579D01*
X90906252Y-86322579D01*
X90930285Y-86317799D01*
X90952924Y-86308421D01*
X90973298Y-86294808D01*
X90990625Y-86277481D01*
X91004239Y-86257106D01*
X91008333Y-86249447D01*
X91019202Y-86236202D01*
X91032445Y-86225334D01*
X91047557Y-86217257D01*
X91063949Y-86212284D01*
X91087141Y-86210000D01*
X91500859Y-86210000D01*
X91524051Y-86212284D01*
X91540443Y-86217257D01*
X91555555Y-86225334D01*
X91568798Y-86236202D01*
X91579667Y-86249447D01*
X91583761Y-86257106D01*
X91597374Y-86277480D01*
X91614701Y-86294807D01*
X91635076Y-86308421D01*
X91657714Y-86317798D01*
X91681748Y-86322579D01*
X91706252Y-86322579D01*
X91730285Y-86317799D01*
X91752924Y-86308421D01*
X91773298Y-86294808D01*
X91790625Y-86277481D01*
X91804239Y-86257106D01*
X91808333Y-86249447D01*
X91819202Y-86236202D01*
X91832445Y-86225334D01*
X91847557Y-86217257D01*
X91863949Y-86212284D01*
X91887141Y-86210000D01*
X92300859Y-86210000D01*
X92324051Y-86212284D01*
X92340443Y-86217257D01*
X92355555Y-86225334D01*
X92368798Y-86236202D01*
X92379667Y-86249447D01*
X92383761Y-86257106D01*
X92397374Y-86277480D01*
X92414701Y-86294807D01*
X92435076Y-86308421D01*
X92457714Y-86317798D01*
X92481748Y-86322579D01*
X92506252Y-86322579D01*
X92530285Y-86317799D01*
X92552924Y-86308421D01*
X92573298Y-86294808D01*
X92590625Y-86277481D01*
X92604239Y-86257106D01*
X92608333Y-86249447D01*
X92619202Y-86236202D01*
X92632445Y-86225334D01*
X92647557Y-86217257D01*
X92663949Y-86212284D01*
X92687141Y-86210000D01*
X93100859Y-86210000D01*
X93124051Y-86212284D01*
X93140443Y-86217257D01*
X93155555Y-86225334D01*
X93168798Y-86236202D01*
X93179667Y-86249447D01*
X93183761Y-86257106D01*
X93197374Y-86277480D01*
X93214701Y-86294807D01*
X93235076Y-86308421D01*
X93257714Y-86317798D01*
X93281748Y-86322579D01*
X93306252Y-86322579D01*
X93330285Y-86317799D01*
X93352924Y-86308421D01*
X93373298Y-86294808D01*
X93390625Y-86277481D01*
X93404239Y-86257106D01*
X93408333Y-86249447D01*
X93419202Y-86236202D01*
X93432445Y-86225334D01*
X93447557Y-86217257D01*
X93463949Y-86212284D01*
X93487141Y-86210000D01*
X93900859Y-86210000D01*
X93924051Y-86212284D01*
X93940443Y-86217257D01*
X93955555Y-86225334D01*
X93968798Y-86236202D01*
X93979667Y-86249447D01*
X93983761Y-86257106D01*
X93997374Y-86277480D01*
X94014701Y-86294807D01*
X94035076Y-86308421D01*
X94057714Y-86317798D01*
X94081748Y-86322579D01*
X94106252Y-86322579D01*
X94130285Y-86317799D01*
X94152924Y-86308421D01*
X94173298Y-86294808D01*
X94190625Y-86277481D01*
X94204239Y-86257106D01*
X94208333Y-86249447D01*
X94219202Y-86236202D01*
X94232445Y-86225334D01*
X94247557Y-86217257D01*
X94263949Y-86212284D01*
X94287141Y-86210000D01*
X94700859Y-86210000D01*
X94724051Y-86212284D01*
X94740443Y-86217257D01*
X94755555Y-86225334D01*
X94768798Y-86236202D01*
X94779666Y-86249445D01*
X94787743Y-86264557D01*
X94792716Y-86280949D01*
X94795000Y-86304141D01*
X94795000Y-87717859D01*
X94792716Y-87741051D01*
X94787743Y-87757443D01*
X94779666Y-87772555D01*
X94768798Y-87785798D01*
X94755555Y-87796666D01*
X94740443Y-87804743D01*
X94724051Y-87809716D01*
X94700859Y-87812000D01*
X94287141Y-87812000D01*
X94263949Y-87809716D01*
X94247557Y-87804743D01*
X94232445Y-87796666D01*
X94219202Y-87785798D01*
X94208333Y-87772553D01*
X94204239Y-87764894D01*
X94190626Y-87744520D01*
X94173299Y-87727193D01*
X94152924Y-87713579D01*
X94130286Y-87704202D01*
X94106252Y-87699421D01*
X94081748Y-87699421D01*
X94057715Y-87704201D01*
X94035076Y-87713579D01*
X94014702Y-87727192D01*
X93997375Y-87744519D01*
X93983761Y-87764894D01*
X93979667Y-87772553D01*
X93968798Y-87785798D01*
X93955555Y-87796666D01*
X93940443Y-87804743D01*
X93924051Y-87809716D01*
X93900859Y-87812000D01*
X93487141Y-87812000D01*
X93463949Y-87809716D01*
X93447557Y-87804743D01*
X93432445Y-87796666D01*
X93419202Y-87785798D01*
X93408333Y-87772553D01*
X93404239Y-87764894D01*
X93390626Y-87744520D01*
X93373299Y-87727193D01*
X93352924Y-87713579D01*
X93330286Y-87704202D01*
X93306252Y-87699421D01*
X93281748Y-87699421D01*
X93257715Y-87704201D01*
X93235076Y-87713579D01*
X93214702Y-87727192D01*
X93197375Y-87744519D01*
X93183761Y-87764894D01*
X93179667Y-87772553D01*
X93168798Y-87785798D01*
X93155555Y-87796666D01*
X93140443Y-87804743D01*
X93124051Y-87809716D01*
X93100859Y-87812000D01*
X92687141Y-87812000D01*
X92663949Y-87809716D01*
X92647557Y-87804743D01*
X92632445Y-87796666D01*
X92619202Y-87785798D01*
X92608333Y-87772553D01*
X92604239Y-87764894D01*
X92590626Y-87744520D01*
X92573299Y-87727193D01*
X92552924Y-87713579D01*
X92530286Y-87704202D01*
X92506252Y-87699421D01*
X92481748Y-87699421D01*
X92457715Y-87704201D01*
X92435076Y-87713579D01*
X92414702Y-87727192D01*
X92397375Y-87744519D01*
X92383761Y-87764894D01*
X92379667Y-87772553D01*
X92368798Y-87785798D01*
X92355555Y-87796666D01*
X92340443Y-87804743D01*
X92324051Y-87809716D01*
X92300859Y-87812000D01*
X91887141Y-87812000D01*
X91863949Y-87809716D01*
X91847557Y-87804743D01*
X91832445Y-87796666D01*
X91819202Y-87785798D01*
X91808333Y-87772553D01*
X91804239Y-87764894D01*
X91790626Y-87744520D01*
X91773299Y-87727193D01*
X91752924Y-87713579D01*
X91730286Y-87704202D01*
X91706252Y-87699421D01*
X91681748Y-87699421D01*
X91657715Y-87704201D01*
X91635076Y-87713579D01*
X91614702Y-87727192D01*
X91597375Y-87744519D01*
X91583761Y-87764894D01*
X91579667Y-87772553D01*
X91568798Y-87785798D01*
X91555555Y-87796666D01*
X91540443Y-87804743D01*
X91524051Y-87809716D01*
X91500859Y-87812000D01*
X91087141Y-87812000D01*
X91063949Y-87809716D01*
X91047557Y-87804743D01*
X91032445Y-87796666D01*
X91019202Y-87785798D01*
X91008333Y-87772553D01*
X91004239Y-87764894D01*
X90990626Y-87744520D01*
X90973299Y-87727193D01*
X90952924Y-87713579D01*
X90930286Y-87704202D01*
X90906252Y-87699421D01*
X90881748Y-87699421D01*
X90857715Y-87704201D01*
X90835076Y-87713579D01*
X90814702Y-87727192D01*
X90797375Y-87744519D01*
X90783761Y-87764894D01*
X90779667Y-87772553D01*
X90768798Y-87785798D01*
X90755555Y-87796666D01*
X90740443Y-87804743D01*
X90724051Y-87809716D01*
X90700859Y-87812000D01*
X90287141Y-87812000D01*
X90263949Y-87809716D01*
X90247557Y-87804743D01*
X90232445Y-87796666D01*
X90219202Y-87785798D01*
X90208333Y-87772553D01*
X90204239Y-87764894D01*
X90190626Y-87744520D01*
X90173299Y-87727193D01*
X90152924Y-87713579D01*
X90130286Y-87704202D01*
X90106252Y-87699421D01*
X90081748Y-87699421D01*
X90057715Y-87704201D01*
X90035076Y-87713579D01*
X90014702Y-87727192D01*
X89997375Y-87744519D01*
X89983761Y-87764894D01*
X89979667Y-87772553D01*
X89968798Y-87785798D01*
X89955555Y-87796666D01*
X89940443Y-87804743D01*
X89924051Y-87809716D01*
X89900859Y-87812000D01*
X89487141Y-87812000D01*
X89463949Y-87809716D01*
X89447557Y-87804743D01*
X89432445Y-87796666D01*
X89419202Y-87785798D01*
X89408333Y-87772553D01*
X89404239Y-87764894D01*
X89390626Y-87744520D01*
X89373299Y-87727193D01*
X89352924Y-87713579D01*
X89330286Y-87704202D01*
X89306252Y-87699421D01*
X89281748Y-87699421D01*
X89257715Y-87704201D01*
X89235076Y-87713579D01*
X89214702Y-87727192D01*
X89197375Y-87744519D01*
X89183761Y-87764894D01*
X89179667Y-87772553D01*
X89168798Y-87785798D01*
X89155555Y-87796666D01*
X89140443Y-87804743D01*
X89124051Y-87809716D01*
X89100859Y-87812000D01*
X88687141Y-87812000D01*
X88663949Y-87809716D01*
X88647557Y-87804743D01*
X88632445Y-87796666D01*
X88619202Y-87785798D01*
X88608334Y-87772555D01*
X88600257Y-87757443D01*
X88595284Y-87741051D01*
X88593000Y-87717859D01*
X88593000Y-86304141D01*
X88595284Y-86280949D01*
X88600257Y-86264557D01*
X88608334Y-86249445D01*
X88619202Y-86236202D01*
X88632445Y-86225334D01*
X88647557Y-86217257D01*
X88663949Y-86212284D01*
X88687141Y-86210000D01*
X89100859Y-86210000D01*
X89124051Y-86212284D01*
G37*
G36*
X96813468Y-84089565D02*
G01*
X96852138Y-84101296D01*
X96887777Y-84120346D01*
X96919017Y-84145983D01*
X96944654Y-84177223D01*
X96963704Y-84212862D01*
X96975435Y-84251532D01*
X96980000Y-84297888D01*
X96980000Y-85374112D01*
X96975435Y-85420468D01*
X96963704Y-85459138D01*
X96944654Y-85494777D01*
X96919017Y-85526017D01*
X96887777Y-85551654D01*
X96852138Y-85570704D01*
X96813468Y-85582435D01*
X96767112Y-85587000D01*
X96115888Y-85587000D01*
X96069532Y-85582435D01*
X96030862Y-85570704D01*
X95995223Y-85551654D01*
X95963983Y-85526017D01*
X95938346Y-85494777D01*
X95919296Y-85459138D01*
X95907565Y-85420468D01*
X95903000Y-85374112D01*
X95903000Y-84297888D01*
X95907565Y-84251532D01*
X95919296Y-84212862D01*
X95938346Y-84177223D01*
X95963983Y-84145983D01*
X95995223Y-84120346D01*
X96030862Y-84101296D01*
X96069532Y-84089565D01*
X96115888Y-84085000D01*
X96767112Y-84085000D01*
X96813468Y-84089565D01*
G37*
G36*
X94938468Y-84089565D02*
G01*
X94977138Y-84101296D01*
X95012777Y-84120346D01*
X95044017Y-84145983D01*
X95069654Y-84177223D01*
X95088704Y-84212862D01*
X95100435Y-84251532D01*
X95105000Y-84297888D01*
X95105000Y-85374112D01*
X95100435Y-85420468D01*
X95088704Y-85459138D01*
X95069654Y-85494777D01*
X95044017Y-85526017D01*
X95012777Y-85551654D01*
X94977138Y-85570704D01*
X94938468Y-85582435D01*
X94892112Y-85587000D01*
X94240888Y-85587000D01*
X94194532Y-85582435D01*
X94155862Y-85570704D01*
X94120223Y-85551654D01*
X94088983Y-85526017D01*
X94063346Y-85494777D01*
X94044296Y-85459138D01*
X94032565Y-85420468D01*
X94028000Y-85374112D01*
X94028000Y-84297888D01*
X94032565Y-84251532D01*
X94044296Y-84212862D01*
X94063346Y-84177223D01*
X94088983Y-84145983D01*
X94120223Y-84120346D01*
X94155862Y-84101296D01*
X94194532Y-84089565D01*
X94240888Y-84085000D01*
X94892112Y-84085000D01*
X94938468Y-84089565D01*
G37*
G36*
X87901000Y-83901000D02*
G01*
X86099000Y-83901000D01*
X86099000Y-82099000D01*
X87901000Y-82099000D01*
X87901000Y-83901000D01*
G37*
G36*
X94938468Y-81803565D02*
G01*
X94977138Y-81815296D01*
X95012777Y-81834346D01*
X95044017Y-81859983D01*
X95069654Y-81891223D01*
X95088704Y-81926862D01*
X95100435Y-81965532D01*
X95105000Y-82011888D01*
X95105000Y-83088112D01*
X95100435Y-83134468D01*
X95088704Y-83173138D01*
X95069654Y-83208777D01*
X95044017Y-83240017D01*
X95012777Y-83265654D01*
X94977138Y-83284704D01*
X94938468Y-83296435D01*
X94892112Y-83301000D01*
X94240888Y-83301000D01*
X94194532Y-83296435D01*
X94155862Y-83284704D01*
X94120223Y-83265654D01*
X94088983Y-83240017D01*
X94063346Y-83208777D01*
X94044296Y-83173138D01*
X94032565Y-83134468D01*
X94028000Y-83088112D01*
X94028000Y-82011888D01*
X94032565Y-81965532D01*
X94044296Y-81926862D01*
X94063346Y-81891223D01*
X94088983Y-81859983D01*
X94120223Y-81834346D01*
X94155862Y-81815296D01*
X94194532Y-81803565D01*
X94240888Y-81799000D01*
X94892112Y-81799000D01*
X94938468Y-81803565D01*
G37*
G36*
X96813468Y-81803565D02*
G01*
X96852138Y-81815296D01*
X96887777Y-81834346D01*
X96919017Y-81859983D01*
X96944654Y-81891223D01*
X96963704Y-81926862D01*
X96975435Y-81965532D01*
X96980000Y-82011888D01*
X96980000Y-83088112D01*
X96975435Y-83134468D01*
X96963704Y-83173138D01*
X96944654Y-83208777D01*
X96919017Y-83240017D01*
X96887777Y-83265654D01*
X96852138Y-83284704D01*
X96813468Y-83296435D01*
X96767112Y-83301000D01*
X96115888Y-83301000D01*
X96069532Y-83296435D01*
X96030862Y-83284704D01*
X95995223Y-83265654D01*
X95963983Y-83240017D01*
X95938346Y-83208777D01*
X95919296Y-83173138D01*
X95907565Y-83134468D01*
X95903000Y-83088112D01*
X95903000Y-82011888D01*
X95907565Y-81965532D01*
X95919296Y-81926862D01*
X95938346Y-81891223D01*
X95963983Y-81859983D01*
X95995223Y-81834346D01*
X96030862Y-81815296D01*
X96069532Y-81803565D01*
X96115888Y-81799000D01*
X96767112Y-81799000D01*
X96813468Y-81803565D01*
G37*
G36*
X87113512Y-79563927D02*
G01*
X87262812Y-79593624D01*
X87426784Y-79661544D01*
X87574354Y-79760147D01*
X87699853Y-79885646D01*
X87798456Y-80033216D01*
X87866376Y-80197188D01*
X87901000Y-80371259D01*
X87901000Y-80548741D01*
X87866376Y-80722812D01*
X87798456Y-80886784D01*
X87699853Y-81034354D01*
X87574354Y-81159853D01*
X87426784Y-81258456D01*
X87262812Y-81326376D01*
X87113512Y-81356073D01*
X87088742Y-81361000D01*
X86911258Y-81361000D01*
X86886488Y-81356073D01*
X86737188Y-81326376D01*
X86573216Y-81258456D01*
X86425646Y-81159853D01*
X86300147Y-81034354D01*
X86201544Y-80886784D01*
X86133624Y-80722812D01*
X86099000Y-80548741D01*
X86099000Y-80371259D01*
X86133624Y-80197188D01*
X86201544Y-80033216D01*
X86300147Y-79885646D01*
X86425646Y-79760147D01*
X86573216Y-79661544D01*
X86737188Y-79593624D01*
X86886488Y-79563927D01*
X86911258Y-79559000D01*
X87088742Y-79559000D01*
X87113512Y-79563927D01*
G37*
G36*
X93548468Y-77873565D02*
G01*
X93587138Y-77885296D01*
X93622777Y-77904346D01*
X93654017Y-77929983D01*
X93679654Y-77961223D01*
X93698704Y-77996862D01*
X93710435Y-78035532D01*
X93715000Y-78081888D01*
X93715000Y-78733112D01*
X93710435Y-78779468D01*
X93698704Y-78818138D01*
X93679654Y-78853777D01*
X93654017Y-78885017D01*
X93622777Y-78910654D01*
X93587138Y-78929704D01*
X93548468Y-78941435D01*
X93502112Y-78946000D01*
X92425888Y-78946000D01*
X92379532Y-78941435D01*
X92340862Y-78929704D01*
X92305223Y-78910654D01*
X92273983Y-78885017D01*
X92248346Y-78853777D01*
X92229296Y-78818138D01*
X92217565Y-78779468D01*
X92213000Y-78733112D01*
X92213000Y-78081888D01*
X92217565Y-78035532D01*
X92229296Y-77996862D01*
X92248346Y-77961223D01*
X92273983Y-77929983D01*
X92305223Y-77904346D01*
X92340862Y-77885296D01*
X92379532Y-77873565D01*
X92425888Y-77869000D01*
X93502112Y-77869000D01*
X93548468Y-77873565D01*
G37*
G36*
X95580468Y-77873565D02*
G01*
X95619138Y-77885296D01*
X95654777Y-77904346D01*
X95686017Y-77929983D01*
X95711654Y-77961223D01*
X95730704Y-77996862D01*
X95742435Y-78035532D01*
X95747000Y-78081888D01*
X95747000Y-78733112D01*
X95742435Y-78779468D01*
X95730704Y-78818138D01*
X95711654Y-78853777D01*
X95686017Y-78885017D01*
X95654777Y-78910654D01*
X95619138Y-78929704D01*
X95580468Y-78941435D01*
X95534112Y-78946000D01*
X94457888Y-78946000D01*
X94411532Y-78941435D01*
X94372862Y-78929704D01*
X94337223Y-78910654D01*
X94305983Y-78885017D01*
X94280346Y-78853777D01*
X94261296Y-78818138D01*
X94249565Y-78779468D01*
X94245000Y-78733112D01*
X94245000Y-78081888D01*
X94249565Y-78035532D01*
X94261296Y-77996862D01*
X94280346Y-77961223D01*
X94305983Y-77929983D01*
X94337223Y-77904346D01*
X94372862Y-77885296D01*
X94411532Y-77873565D01*
X94457888Y-77869000D01*
X95534112Y-77869000D01*
X95580468Y-77873565D01*
G37*
G36*
X97612468Y-77873565D02*
G01*
X97651138Y-77885296D01*
X97686777Y-77904346D01*
X97718017Y-77929983D01*
X97743654Y-77961223D01*
X97762704Y-77996862D01*
X97774435Y-78035532D01*
X97779000Y-78081888D01*
X97779000Y-78733112D01*
X97774435Y-78779468D01*
X97762704Y-78818138D01*
X97743654Y-78853777D01*
X97718017Y-78885017D01*
X97686777Y-78910654D01*
X97651138Y-78929704D01*
X97612468Y-78941435D01*
X97566112Y-78946000D01*
X96489888Y-78946000D01*
X96443532Y-78941435D01*
X96404862Y-78929704D01*
X96369223Y-78910654D01*
X96337983Y-78885017D01*
X96312346Y-78853777D01*
X96293296Y-78818138D01*
X96281565Y-78779468D01*
X96277000Y-78733112D01*
X96277000Y-78081888D01*
X96281565Y-78035532D01*
X96293296Y-77996862D01*
X96312346Y-77961223D01*
X96337983Y-77929983D01*
X96369223Y-77904346D01*
X96404862Y-77885296D01*
X96443532Y-77873565D01*
X96489888Y-77869000D01*
X97566112Y-77869000D01*
X97612468Y-77873565D01*
G37*
G36*
X99644468Y-77873565D02*
G01*
X99683138Y-77885296D01*
X99718777Y-77904346D01*
X99750017Y-77929983D01*
X99775654Y-77961223D01*
X99794704Y-77996862D01*
X99806435Y-78035532D01*
X99811000Y-78081888D01*
X99811000Y-78733112D01*
X99806435Y-78779468D01*
X99794704Y-78818138D01*
X99775654Y-78853777D01*
X99750017Y-78885017D01*
X99718777Y-78910654D01*
X99683138Y-78929704D01*
X99644468Y-78941435D01*
X99598112Y-78946000D01*
X98521888Y-78946000D01*
X98475532Y-78941435D01*
X98436862Y-78929704D01*
X98401223Y-78910654D01*
X98369983Y-78885017D01*
X98344346Y-78853777D01*
X98325296Y-78818138D01*
X98313565Y-78779468D01*
X98309000Y-78733112D01*
X98309000Y-78081888D01*
X98313565Y-78035532D01*
X98325296Y-77996862D01*
X98344346Y-77961223D01*
X98369983Y-77929983D01*
X98401223Y-77904346D01*
X98436862Y-77885296D01*
X98475532Y-77873565D01*
X98521888Y-77869000D01*
X99598112Y-77869000D01*
X99644468Y-77873565D01*
G37*
G36*
X87113512Y-77023927D02*
G01*
X87262812Y-77053624D01*
X87426784Y-77121544D01*
X87574354Y-77220147D01*
X87699853Y-77345646D01*
X87798456Y-77493216D01*
X87866376Y-77657188D01*
X87901000Y-77831259D01*
X87901000Y-78008741D01*
X87866376Y-78182812D01*
X87798456Y-78346784D01*
X87699853Y-78494354D01*
X87574354Y-78619853D01*
X87426784Y-78718456D01*
X87262812Y-78786376D01*
X87113512Y-78816073D01*
X87088742Y-78821000D01*
X86911258Y-78821000D01*
X86886488Y-78816073D01*
X86737188Y-78786376D01*
X86573216Y-78718456D01*
X86425646Y-78619853D01*
X86300147Y-78494354D01*
X86201544Y-78346784D01*
X86133624Y-78182812D01*
X86099000Y-78008741D01*
X86099000Y-77831259D01*
X86133624Y-77657188D01*
X86201544Y-77493216D01*
X86300147Y-77345646D01*
X86425646Y-77220147D01*
X86573216Y-77121544D01*
X86737188Y-77053624D01*
X86886488Y-77023927D01*
X86911258Y-77019000D01*
X87088742Y-77019000D01*
X87113512Y-77023927D01*
G37*
G36*
X113753474Y-73439934D02*
G01*
X113971474Y-73530233D01*
X114125623Y-73594083D01*
X114460548Y-73817873D01*
X114745377Y-74102702D01*
X114969167Y-74437627D01*
X115001562Y-74515836D01*
X115123316Y-74809776D01*
X115201900Y-75204844D01*
X115201900Y-75607656D01*
X115123316Y-76002724D01*
X115072451Y-76125522D01*
X114969167Y-76374873D01*
X114745377Y-76709798D01*
X114460548Y-76994627D01*
X114125623Y-77218417D01*
X113971474Y-77282267D01*
X113753474Y-77372566D01*
X113358406Y-77451150D01*
X112955594Y-77451150D01*
X112560526Y-77372566D01*
X112342526Y-77282267D01*
X112188377Y-77218417D01*
X111853452Y-76994627D01*
X111568623Y-76709798D01*
X111344833Y-76374873D01*
X111241549Y-76125522D01*
X111190684Y-76002724D01*
X111112100Y-75607656D01*
X111112100Y-75204844D01*
X111190684Y-74809776D01*
X111312438Y-74515836D01*
X111344833Y-74437627D01*
X111568623Y-74102702D01*
X111853452Y-73817873D01*
X112188377Y-73594083D01*
X112342526Y-73530233D01*
X112560526Y-73439934D01*
X112955594Y-73361350D01*
X113358406Y-73361350D01*
X113753474Y-73439934D01*
G37*
G36*
X132803474Y-73439934D02*
G01*
X133021474Y-73530233D01*
X133175623Y-73594083D01*
X133510548Y-73817873D01*
X133795377Y-74102702D01*
X134019167Y-74437627D01*
X134051562Y-74515836D01*
X134173316Y-74809776D01*
X134251900Y-75204844D01*
X134251900Y-75607656D01*
X134173316Y-76002724D01*
X134122451Y-76125522D01*
X134019167Y-76374873D01*
X133795377Y-76709798D01*
X133510548Y-76994627D01*
X133175623Y-77218417D01*
X133021474Y-77282267D01*
X132803474Y-77372566D01*
X132408406Y-77451150D01*
X132005594Y-77451150D01*
X131610526Y-77372566D01*
X131392526Y-77282267D01*
X131238377Y-77218417D01*
X130903452Y-76994627D01*
X130618623Y-76709798D01*
X130394833Y-76374873D01*
X130291549Y-76125522D01*
X130240684Y-76002724D01*
X130162100Y-75607656D01*
X130162100Y-75204844D01*
X130240684Y-74809776D01*
X130362438Y-74515836D01*
X130394833Y-74437627D01*
X130618623Y-74102702D01*
X130903452Y-73817873D01*
X131238377Y-73594083D01*
X131392526Y-73530233D01*
X131610526Y-73439934D01*
X132005594Y-73361350D01*
X132408406Y-73361350D01*
X132803474Y-73439934D01*
G37*
G36*
X151853474Y-73439934D02*
G01*
X152071474Y-73530233D01*
X152225623Y-73594083D01*
X152560548Y-73817873D01*
X152845377Y-74102702D01*
X153069167Y-74437627D01*
X153101562Y-74515836D01*
X153223316Y-74809776D01*
X153301900Y-75204844D01*
X153301900Y-75607656D01*
X153223316Y-76002724D01*
X153172451Y-76125522D01*
X153069167Y-76374873D01*
X152845377Y-76709798D01*
X152560548Y-76994627D01*
X152225623Y-77218417D01*
X152071474Y-77282267D01*
X151853474Y-77372566D01*
X151458406Y-77451150D01*
X151055594Y-77451150D01*
X150660526Y-77372566D01*
X150442526Y-77282267D01*
X150288377Y-77218417D01*
X149953452Y-76994627D01*
X149668623Y-76709798D01*
X149444833Y-76374873D01*
X149341549Y-76125522D01*
X149290684Y-76002724D01*
X149212100Y-75607656D01*
X149212100Y-75204844D01*
X149290684Y-74809776D01*
X149412438Y-74515836D01*
X149444833Y-74437627D01*
X149668623Y-74102702D01*
X149953452Y-73817873D01*
X150288377Y-73594083D01*
X150442526Y-73530233D01*
X150660526Y-73439934D01*
X151055594Y-73361350D01*
X151458406Y-73361350D01*
X151853474Y-73439934D01*
G37*
G36*
X170903474Y-73439934D02*
G01*
X171121474Y-73530233D01*
X171275623Y-73594083D01*
X171610548Y-73817873D01*
X171895377Y-74102702D01*
X172119167Y-74437627D01*
X172151562Y-74515836D01*
X172273316Y-74809776D01*
X172351900Y-75204844D01*
X172351900Y-75607656D01*
X172273316Y-76002724D01*
X172222451Y-76125522D01*
X172119167Y-76374873D01*
X171895377Y-76709798D01*
X171610548Y-76994627D01*
X171275623Y-77218417D01*
X171121474Y-77282267D01*
X170903474Y-77372566D01*
X170508406Y-77451150D01*
X170105594Y-77451150D01*
X169710526Y-77372566D01*
X169492526Y-77282267D01*
X169338377Y-77218417D01*
X169003452Y-76994627D01*
X168718623Y-76709798D01*
X168494833Y-76374873D01*
X168391549Y-76125522D01*
X168340684Y-76002724D01*
X168262100Y-75607656D01*
X168262100Y-75204844D01*
X168340684Y-74809776D01*
X168462438Y-74515836D01*
X168494833Y-74437627D01*
X168718623Y-74102702D01*
X169003452Y-73817873D01*
X169338377Y-73594083D01*
X169492526Y-73530233D01*
X169710526Y-73439934D01*
X170105594Y-73361350D01*
X170508406Y-73361350D01*
X170903474Y-73439934D01*
G37*
G36*
X97612468Y-75998565D02*
G01*
X97651138Y-76010296D01*
X97686777Y-76029346D01*
X97718017Y-76054983D01*
X97743654Y-76086223D01*
X97762704Y-76121862D01*
X97774435Y-76160532D01*
X97779000Y-76206888D01*
X97779000Y-76858112D01*
X97774435Y-76904468D01*
X97762704Y-76943138D01*
X97743654Y-76978777D01*
X97718017Y-77010017D01*
X97686777Y-77035654D01*
X97651138Y-77054704D01*
X97612468Y-77066435D01*
X97566112Y-77071000D01*
X96489888Y-77071000D01*
X96443532Y-77066435D01*
X96404862Y-77054704D01*
X96369223Y-77035654D01*
X96337983Y-77010017D01*
X96312346Y-76978777D01*
X96293296Y-76943138D01*
X96281565Y-76904468D01*
X96277000Y-76858112D01*
X96277000Y-76206888D01*
X96281565Y-76160532D01*
X96293296Y-76121862D01*
X96312346Y-76086223D01*
X96337983Y-76054983D01*
X96369223Y-76029346D01*
X96404862Y-76010296D01*
X96443532Y-75998565D01*
X96489888Y-75994000D01*
X97566112Y-75994000D01*
X97612468Y-75998565D01*
G37*
G36*
X93548468Y-75998565D02*
G01*
X93587138Y-76010296D01*
X93622777Y-76029346D01*
X93654017Y-76054983D01*
X93679654Y-76086223D01*
X93698704Y-76121862D01*
X93710435Y-76160532D01*
X93715000Y-76206888D01*
X93715000Y-76858112D01*
X93710435Y-76904468D01*
X93698704Y-76943138D01*
X93679654Y-76978777D01*
X93654017Y-77010017D01*
X93622777Y-77035654D01*
X93587138Y-77054704D01*
X93548468Y-77066435D01*
X93502112Y-77071000D01*
X92425888Y-77071000D01*
X92379532Y-77066435D01*
X92340862Y-77054704D01*
X92305223Y-77035654D01*
X92273983Y-77010017D01*
X92248346Y-76978777D01*
X92229296Y-76943138D01*
X92217565Y-76904468D01*
X92213000Y-76858112D01*
X92213000Y-76206888D01*
X92217565Y-76160532D01*
X92229296Y-76121862D01*
X92248346Y-76086223D01*
X92273983Y-76054983D01*
X92305223Y-76029346D01*
X92340862Y-76010296D01*
X92379532Y-75998565D01*
X92425888Y-75994000D01*
X93502112Y-75994000D01*
X93548468Y-75998565D01*
G37*
G36*
X95580468Y-75998565D02*
G01*
X95619138Y-76010296D01*
X95654777Y-76029346D01*
X95686017Y-76054983D01*
X95711654Y-76086223D01*
X95730704Y-76121862D01*
X95742435Y-76160532D01*
X95747000Y-76206888D01*
X95747000Y-76858112D01*
X95742435Y-76904468D01*
X95730704Y-76943138D01*
X95711654Y-76978777D01*
X95686017Y-77010017D01*
X95654777Y-77035654D01*
X95619138Y-77054704D01*
X95580468Y-77066435D01*
X95534112Y-77071000D01*
X94457888Y-77071000D01*
X94411532Y-77066435D01*
X94372862Y-77054704D01*
X94337223Y-77035654D01*
X94305983Y-77010017D01*
X94280346Y-76978777D01*
X94261296Y-76943138D01*
X94249565Y-76904468D01*
X94245000Y-76858112D01*
X94245000Y-76206888D01*
X94249565Y-76160532D01*
X94261296Y-76121862D01*
X94280346Y-76086223D01*
X94305983Y-76054983D01*
X94337223Y-76029346D01*
X94372862Y-76010296D01*
X94411532Y-75998565D01*
X94457888Y-75994000D01*
X95534112Y-75994000D01*
X95580468Y-75998565D01*
G37*
G36*
X99644468Y-75998565D02*
G01*
X99683138Y-76010296D01*
X99718777Y-76029346D01*
X99750017Y-76054983D01*
X99775654Y-76086223D01*
X99794704Y-76121862D01*
X99806435Y-76160532D01*
X99811000Y-76206888D01*
X99811000Y-76858112D01*
X99806435Y-76904468D01*
X99794704Y-76943138D01*
X99775654Y-76978777D01*
X99750017Y-77010017D01*
X99718777Y-77035654D01*
X99683138Y-77054704D01*
X99644468Y-77066435D01*
X99598112Y-77071000D01*
X98521888Y-77071000D01*
X98475532Y-77066435D01*
X98436862Y-77054704D01*
X98401223Y-77035654D01*
X98369983Y-77010017D01*
X98344346Y-76978777D01*
X98325296Y-76943138D01*
X98313565Y-76904468D01*
X98309000Y-76858112D01*
X98309000Y-76206888D01*
X98313565Y-76160532D01*
X98325296Y-76121862D01*
X98344346Y-76086223D01*
X98369983Y-76054983D01*
X98401223Y-76029346D01*
X98436862Y-76010296D01*
X98475532Y-75998565D01*
X98521888Y-75994000D01*
X99598112Y-75994000D01*
X99644468Y-75998565D01*
G37*
G36*
X127397104Y-74515835D02*
G01*
X127565626Y-74585639D01*
X127717291Y-74686978D01*
X127846272Y-74815959D01*
X127947611Y-74967624D01*
X128017415Y-75136146D01*
X128053000Y-75315047D01*
X128053000Y-75497453D01*
X128017415Y-75676354D01*
X127947611Y-75844876D01*
X127846272Y-75996541D01*
X127717291Y-76125522D01*
X127565626Y-76226861D01*
X127397104Y-76296665D01*
X127218203Y-76332250D01*
X127035797Y-76332250D01*
X126856896Y-76296665D01*
X126688374Y-76226861D01*
X126536709Y-76125522D01*
X126407728Y-75996541D01*
X126306389Y-75844876D01*
X126236585Y-75676354D01*
X126201000Y-75497453D01*
X126201000Y-75315047D01*
X126236585Y-75136146D01*
X126306389Y-74967624D01*
X126407728Y-74815959D01*
X126536709Y-74686978D01*
X126688374Y-74585639D01*
X126856896Y-74515835D01*
X127035797Y-74480250D01*
X127218203Y-74480250D01*
X127397104Y-74515835D01*
G37*
G36*
X118507104Y-74515835D02*
G01*
X118675626Y-74585639D01*
X118827291Y-74686978D01*
X118956272Y-74815959D01*
X119057611Y-74967624D01*
X119127415Y-75136146D01*
X119163000Y-75315047D01*
X119163000Y-75497453D01*
X119127415Y-75676354D01*
X119057611Y-75844876D01*
X118956272Y-75996541D01*
X118827291Y-76125522D01*
X118675626Y-76226861D01*
X118507104Y-76296665D01*
X118328203Y-76332250D01*
X118145797Y-76332250D01*
X117966896Y-76296665D01*
X117798374Y-76226861D01*
X117646709Y-76125522D01*
X117517728Y-75996541D01*
X117416389Y-75844876D01*
X117346585Y-75676354D01*
X117311000Y-75497453D01*
X117311000Y-75315047D01*
X117346585Y-75136146D01*
X117416389Y-74967624D01*
X117517728Y-74815959D01*
X117646709Y-74686978D01*
X117798374Y-74585639D01*
X117966896Y-74515835D01*
X118145797Y-74480250D01*
X118328203Y-74480250D01*
X118507104Y-74515835D01*
G37*
G36*
X108347104Y-74515835D02*
G01*
X108515626Y-74585639D01*
X108667291Y-74686978D01*
X108796272Y-74815959D01*
X108897611Y-74967624D01*
X108967415Y-75136146D01*
X109003000Y-75315047D01*
X109003000Y-75497453D01*
X108967415Y-75676354D01*
X108897611Y-75844876D01*
X108796272Y-75996541D01*
X108667291Y-76125522D01*
X108515626Y-76226861D01*
X108347104Y-76296665D01*
X108168203Y-76332250D01*
X107985797Y-76332250D01*
X107806896Y-76296665D01*
X107638374Y-76226861D01*
X107486709Y-76125522D01*
X107357728Y-75996541D01*
X107256389Y-75844876D01*
X107186585Y-75676354D01*
X107151000Y-75497453D01*
X107151000Y-75315047D01*
X107186585Y-75136146D01*
X107256389Y-74967624D01*
X107357728Y-74815959D01*
X107486709Y-74686978D01*
X107638374Y-74585639D01*
X107806896Y-74515835D01*
X107985797Y-74480250D01*
X108168203Y-74480250D01*
X108347104Y-74515835D01*
G37*
G36*
X137557104Y-74515835D02*
G01*
X137725626Y-74585639D01*
X137877291Y-74686978D01*
X138006272Y-74815959D01*
X138107611Y-74967624D01*
X138177415Y-75136146D01*
X138213000Y-75315047D01*
X138213000Y-75497453D01*
X138177415Y-75676354D01*
X138107611Y-75844876D01*
X138006272Y-75996541D01*
X137877291Y-76125522D01*
X137725626Y-76226861D01*
X137557104Y-76296665D01*
X137378203Y-76332250D01*
X137195797Y-76332250D01*
X137016896Y-76296665D01*
X136848374Y-76226861D01*
X136696709Y-76125522D01*
X136567728Y-75996541D01*
X136466389Y-75844876D01*
X136396585Y-75676354D01*
X136361000Y-75497453D01*
X136361000Y-75315047D01*
X136396585Y-75136146D01*
X136466389Y-74967624D01*
X136567728Y-74815959D01*
X136696709Y-74686978D01*
X136848374Y-74585639D01*
X137016896Y-74515835D01*
X137195797Y-74480250D01*
X137378203Y-74480250D01*
X137557104Y-74515835D01*
G37*
G36*
X175657104Y-74515835D02*
G01*
X175825626Y-74585639D01*
X175977291Y-74686978D01*
X176106272Y-74815959D01*
X176207611Y-74967624D01*
X176277415Y-75136146D01*
X176313000Y-75315047D01*
X176313000Y-75497453D01*
X176277415Y-75676354D01*
X176207611Y-75844876D01*
X176106272Y-75996541D01*
X175977291Y-76125522D01*
X175825626Y-76226861D01*
X175657104Y-76296665D01*
X175478203Y-76332250D01*
X175295797Y-76332250D01*
X175116896Y-76296665D01*
X174948374Y-76226861D01*
X174796709Y-76125522D01*
X174667728Y-75996541D01*
X174566389Y-75844876D01*
X174496585Y-75676354D01*
X174461000Y-75497453D01*
X174461000Y-75315047D01*
X174496585Y-75136146D01*
X174566389Y-74967624D01*
X174667728Y-74815959D01*
X174796709Y-74686978D01*
X174948374Y-74585639D01*
X175116896Y-74515835D01*
X175295797Y-74480250D01*
X175478203Y-74480250D01*
X175657104Y-74515835D01*
G37*
G36*
X165497104Y-74515835D02*
G01*
X165665626Y-74585639D01*
X165817291Y-74686978D01*
X165946272Y-74815959D01*
X166047611Y-74967624D01*
X166117415Y-75136146D01*
X166153000Y-75315047D01*
X166153000Y-75497453D01*
X166117415Y-75676354D01*
X166047611Y-75844876D01*
X165946272Y-75996541D01*
X165817291Y-76125522D01*
X165665626Y-76226861D01*
X165497104Y-76296665D01*
X165318203Y-76332250D01*
X165135797Y-76332250D01*
X164956896Y-76296665D01*
X164788374Y-76226861D01*
X164636709Y-76125522D01*
X164507728Y-75996541D01*
X164406389Y-75844876D01*
X164336585Y-75676354D01*
X164301000Y-75497453D01*
X164301000Y-75315047D01*
X164336585Y-75136146D01*
X164406389Y-74967624D01*
X164507728Y-74815959D01*
X164636709Y-74686978D01*
X164788374Y-74585639D01*
X164956896Y-74515835D01*
X165135797Y-74480250D01*
X165318203Y-74480250D01*
X165497104Y-74515835D01*
G37*
G36*
X156607104Y-74515835D02*
G01*
X156775626Y-74585639D01*
X156927291Y-74686978D01*
X157056272Y-74815959D01*
X157157611Y-74967624D01*
X157227415Y-75136146D01*
X157263000Y-75315047D01*
X157263000Y-75497453D01*
X157227415Y-75676354D01*
X157157611Y-75844876D01*
X157056272Y-75996541D01*
X156927291Y-76125522D01*
X156775626Y-76226861D01*
X156607104Y-76296665D01*
X156428203Y-76332250D01*
X156245797Y-76332250D01*
X156066896Y-76296665D01*
X155898374Y-76226861D01*
X155746709Y-76125522D01*
X155617728Y-75996541D01*
X155516389Y-75844876D01*
X155446585Y-75676354D01*
X155411000Y-75497453D01*
X155411000Y-75315047D01*
X155446585Y-75136146D01*
X155516389Y-74967624D01*
X155617728Y-74815959D01*
X155746709Y-74686978D01*
X155898374Y-74585639D01*
X156066896Y-74515835D01*
X156245797Y-74480250D01*
X156428203Y-74480250D01*
X156607104Y-74515835D01*
G37*
G36*
X146447104Y-74515835D02*
G01*
X146615626Y-74585639D01*
X146767291Y-74686978D01*
X146896272Y-74815959D01*
X146997611Y-74967624D01*
X147067415Y-75136146D01*
X147103000Y-75315047D01*
X147103000Y-75497453D01*
X147067415Y-75676354D01*
X146997611Y-75844876D01*
X146896272Y-75996541D01*
X146767291Y-76125522D01*
X146615626Y-76226861D01*
X146447104Y-76296665D01*
X146268203Y-76332250D01*
X146085797Y-76332250D01*
X145906896Y-76296665D01*
X145738374Y-76226861D01*
X145586709Y-76125522D01*
X145457728Y-75996541D01*
X145356389Y-75844876D01*
X145286585Y-75676354D01*
X145251000Y-75497453D01*
X145251000Y-75315047D01*
X145286585Y-75136146D01*
X145356389Y-74967624D01*
X145457728Y-74815959D01*
X145586709Y-74686978D01*
X145738374Y-74585639D01*
X145906896Y-74515835D01*
X146085797Y-74480250D01*
X146268203Y-74480250D01*
X146447104Y-74515835D01*
G37*
G36*
X87113512Y-74483927D02*
G01*
X87262812Y-74513624D01*
X87426784Y-74581544D01*
X87574354Y-74680147D01*
X87699853Y-74805646D01*
X87798456Y-74953216D01*
X87866376Y-75117188D01*
X87901000Y-75291259D01*
X87901000Y-75468741D01*
X87866376Y-75642812D01*
X87798456Y-75806784D01*
X87699853Y-75954354D01*
X87574354Y-76079853D01*
X87426784Y-76178456D01*
X87262812Y-76246376D01*
X87113512Y-76276073D01*
X87088742Y-76281000D01*
X86911258Y-76281000D01*
X86886488Y-76276073D01*
X86737188Y-76246376D01*
X86573216Y-76178456D01*
X86425646Y-76079853D01*
X86300147Y-75954354D01*
X86201544Y-75806784D01*
X86133624Y-75642812D01*
X86099000Y-75468741D01*
X86099000Y-75291259D01*
X86133624Y-75117188D01*
X86201544Y-74953216D01*
X86300147Y-74805646D01*
X86425646Y-74680147D01*
X86573216Y-74581544D01*
X86737188Y-74513624D01*
X86886488Y-74483927D01*
X86911258Y-74479000D01*
X87088742Y-74479000D01*
X87113512Y-74483927D01*
G37*
G36*
X85286468Y-71897565D02*
G01*
X85325138Y-71909296D01*
X85360777Y-71928346D01*
X85392017Y-71953983D01*
X85417654Y-71985223D01*
X85436704Y-72020862D01*
X85448435Y-72059532D01*
X85453000Y-72105888D01*
X85453000Y-73182112D01*
X85448435Y-73228468D01*
X85436704Y-73267138D01*
X85417654Y-73302777D01*
X85392017Y-73334017D01*
X85360777Y-73359654D01*
X85325138Y-73378704D01*
X85286468Y-73390435D01*
X85240112Y-73395000D01*
X84588888Y-73395000D01*
X84542532Y-73390435D01*
X84503862Y-73378704D01*
X84468223Y-73359654D01*
X84436983Y-73334017D01*
X84411346Y-73302777D01*
X84392296Y-73267138D01*
X84380565Y-73228468D01*
X84376000Y-73182112D01*
X84376000Y-72105888D01*
X84380565Y-72059532D01*
X84392296Y-72020862D01*
X84411346Y-71985223D01*
X84436983Y-71953983D01*
X84468223Y-71928346D01*
X84503862Y-71909296D01*
X84542532Y-71897565D01*
X84588888Y-71893000D01*
X85240112Y-71893000D01*
X85286468Y-71897565D01*
G37*
G36*
X87161468Y-71897565D02*
G01*
X87200138Y-71909296D01*
X87235777Y-71928346D01*
X87267017Y-71953983D01*
X87292654Y-71985223D01*
X87311704Y-72020862D01*
X87323435Y-72059532D01*
X87328000Y-72105888D01*
X87328000Y-73182112D01*
X87323435Y-73228468D01*
X87311704Y-73267138D01*
X87292654Y-73302777D01*
X87267017Y-73334017D01*
X87235777Y-73359654D01*
X87200138Y-73378704D01*
X87161468Y-73390435D01*
X87115112Y-73395000D01*
X86463888Y-73395000D01*
X86417532Y-73390435D01*
X86378862Y-73378704D01*
X86343223Y-73359654D01*
X86311983Y-73334017D01*
X86286346Y-73302777D01*
X86267296Y-73267138D01*
X86255565Y-73228468D01*
X86251000Y-73182112D01*
X86251000Y-72105888D01*
X86255565Y-72059532D01*
X86267296Y-72020862D01*
X86286346Y-71985223D01*
X86311983Y-71953983D01*
X86343223Y-71928346D01*
X86378862Y-71909296D01*
X86417532Y-71897565D01*
X86463888Y-71893000D01*
X87115112Y-71893000D01*
X87161468Y-71897565D01*
G37*
G36*
X83642468Y-72031565D02*
G01*
X83681138Y-72043296D01*
X83716777Y-72062346D01*
X83748017Y-72087983D01*
X83773654Y-72119223D01*
X83792704Y-72154862D01*
X83804435Y-72193532D01*
X83809000Y-72239888D01*
X83809000Y-72891112D01*
X83804435Y-72937468D01*
X83792704Y-72976138D01*
X83773654Y-73011777D01*
X83748017Y-73043017D01*
X83716777Y-73068654D01*
X83681138Y-73087704D01*
X83642468Y-73099435D01*
X83596112Y-73104000D01*
X82519888Y-73104000D01*
X82473532Y-73099435D01*
X82434862Y-73087704D01*
X82399223Y-73068654D01*
X82367983Y-73043017D01*
X82342346Y-73011777D01*
X82323296Y-72976138D01*
X82311565Y-72937468D01*
X82307000Y-72891112D01*
X82307000Y-72239888D01*
X82311565Y-72193532D01*
X82323296Y-72154862D01*
X82342346Y-72119223D01*
X82367983Y-72087983D01*
X82399223Y-72062346D01*
X82434862Y-72043296D01*
X82473532Y-72031565D01*
X82519888Y-72027000D01*
X83596112Y-72027000D01*
X83642468Y-72031565D01*
G37*
G36*
X83642468Y-70156565D02*
G01*
X83681138Y-70168296D01*
X83716777Y-70187346D01*
X83748017Y-70212983D01*
X83773654Y-70244223D01*
X83792704Y-70279862D01*
X83804435Y-70318532D01*
X83809000Y-70364888D01*
X83809000Y-71016112D01*
X83804435Y-71062468D01*
X83792704Y-71101138D01*
X83773654Y-71136777D01*
X83748017Y-71168017D01*
X83716777Y-71193654D01*
X83681138Y-71212704D01*
X83642468Y-71224435D01*
X83596112Y-71229000D01*
X82519888Y-71229000D01*
X82473532Y-71224435D01*
X82434862Y-71212704D01*
X82399223Y-71193654D01*
X82367983Y-71168017D01*
X82342346Y-71136777D01*
X82323296Y-71101138D01*
X82311565Y-71062468D01*
X82307000Y-71016112D01*
X82307000Y-70364888D01*
X82311565Y-70318532D01*
X82323296Y-70279862D01*
X82342346Y-70244223D01*
X82367983Y-70212983D01*
X82399223Y-70187346D01*
X82434862Y-70168296D01*
X82473532Y-70156565D01*
X82519888Y-70152000D01*
X83596112Y-70152000D01*
X83642468Y-70156565D01*
G37*
G36*
X91008468Y-69745565D02*
G01*
X91047138Y-69757296D01*
X91082777Y-69776346D01*
X91114017Y-69801983D01*
X91139654Y-69833223D01*
X91158704Y-69868862D01*
X91170435Y-69907532D01*
X91175000Y-69953888D01*
X91175000Y-70605112D01*
X91170435Y-70651468D01*
X91158704Y-70690138D01*
X91139654Y-70725777D01*
X91114017Y-70757017D01*
X91082777Y-70782654D01*
X91047138Y-70801704D01*
X91008468Y-70813435D01*
X90962112Y-70818000D01*
X89885888Y-70818000D01*
X89839532Y-70813435D01*
X89800862Y-70801704D01*
X89765223Y-70782654D01*
X89733983Y-70757017D01*
X89708346Y-70725777D01*
X89689296Y-70690138D01*
X89677565Y-70651468D01*
X89673000Y-70605112D01*
X89673000Y-69953888D01*
X89677565Y-69907532D01*
X89689296Y-69868862D01*
X89708346Y-69833223D01*
X89733983Y-69801983D01*
X89765223Y-69776346D01*
X89800862Y-69757296D01*
X89839532Y-69745565D01*
X89885888Y-69741000D01*
X90962112Y-69741000D01*
X91008468Y-69745565D01*
G37*
G36*
X88976468Y-69745565D02*
G01*
X89015138Y-69757296D01*
X89050777Y-69776346D01*
X89082017Y-69801983D01*
X89107654Y-69833223D01*
X89126704Y-69868862D01*
X89138435Y-69907532D01*
X89143000Y-69953888D01*
X89143000Y-70605112D01*
X89138435Y-70651468D01*
X89126704Y-70690138D01*
X89107654Y-70725777D01*
X89082017Y-70757017D01*
X89050777Y-70782654D01*
X89015138Y-70801704D01*
X88976468Y-70813435D01*
X88930112Y-70818000D01*
X87853888Y-70818000D01*
X87807532Y-70813435D01*
X87768862Y-70801704D01*
X87733223Y-70782654D01*
X87701983Y-70757017D01*
X87676346Y-70725777D01*
X87657296Y-70690138D01*
X87645565Y-70651468D01*
X87641000Y-70605112D01*
X87641000Y-69953888D01*
X87645565Y-69907532D01*
X87657296Y-69868862D01*
X87676346Y-69833223D01*
X87701983Y-69801983D01*
X87733223Y-69776346D01*
X87768862Y-69757296D01*
X87807532Y-69745565D01*
X87853888Y-69741000D01*
X88930112Y-69741000D01*
X88976468Y-69745565D01*
G37*
G36*
X86603000Y-70393000D02*
G01*
X85101000Y-70393000D01*
X85101000Y-69591000D01*
X86603000Y-69591000D01*
X86603000Y-70393000D01*
G37*
G36*
X88976468Y-67870565D02*
G01*
X89015138Y-67882296D01*
X89050777Y-67901346D01*
X89082017Y-67926983D01*
X89107654Y-67958223D01*
X89126704Y-67993862D01*
X89138435Y-68032532D01*
X89143000Y-68078888D01*
X89143000Y-68730112D01*
X89138435Y-68776468D01*
X89126704Y-68815138D01*
X89107654Y-68850777D01*
X89082017Y-68882017D01*
X89050777Y-68907654D01*
X89015138Y-68926704D01*
X88976468Y-68938435D01*
X88930112Y-68943000D01*
X87853888Y-68943000D01*
X87807532Y-68938435D01*
X87768862Y-68926704D01*
X87733223Y-68907654D01*
X87701983Y-68882017D01*
X87676346Y-68850777D01*
X87657296Y-68815138D01*
X87645565Y-68776468D01*
X87641000Y-68730112D01*
X87641000Y-68078888D01*
X87645565Y-68032532D01*
X87657296Y-67993862D01*
X87676346Y-67958223D01*
X87701983Y-67926983D01*
X87733223Y-67901346D01*
X87768862Y-67882296D01*
X87807532Y-67870565D01*
X87853888Y-67866000D01*
X88930112Y-67866000D01*
X88976468Y-67870565D01*
G37*
G36*
X91008468Y-67870565D02*
G01*
X91047138Y-67882296D01*
X91082777Y-67901346D01*
X91114017Y-67926983D01*
X91139654Y-67958223D01*
X91158704Y-67993862D01*
X91170435Y-68032532D01*
X91175000Y-68078888D01*
X91175000Y-68730112D01*
X91170435Y-68776468D01*
X91158704Y-68815138D01*
X91139654Y-68850777D01*
X91114017Y-68882017D01*
X91082777Y-68907654D01*
X91047138Y-68926704D01*
X91008468Y-68938435D01*
X90962112Y-68943000D01*
X89885888Y-68943000D01*
X89839532Y-68938435D01*
X89800862Y-68926704D01*
X89765223Y-68907654D01*
X89733983Y-68882017D01*
X89708346Y-68850777D01*
X89689296Y-68815138D01*
X89677565Y-68776468D01*
X89673000Y-68730112D01*
X89673000Y-68078888D01*
X89677565Y-68032532D01*
X89689296Y-67993862D01*
X89708346Y-67958223D01*
X89733983Y-67926983D01*
X89765223Y-67901346D01*
X89800862Y-67882296D01*
X89839532Y-67870565D01*
X89885888Y-67866000D01*
X90962112Y-67866000D01*
X91008468Y-67870565D01*
G37*
G36*
X86603000Y-68893000D02*
G01*
X85101000Y-68893000D01*
X85101000Y-68091000D01*
X86603000Y-68091000D01*
X86603000Y-68893000D01*
G37*
G36*
X87161468Y-65293565D02*
G01*
X87200138Y-65305296D01*
X87235777Y-65324346D01*
X87267017Y-65349983D01*
X87292654Y-65381223D01*
X87311704Y-65416862D01*
X87323435Y-65455532D01*
X87328000Y-65501888D01*
X87328000Y-66578112D01*
X87323435Y-66624468D01*
X87311704Y-66663138D01*
X87292654Y-66698777D01*
X87267017Y-66730017D01*
X87235777Y-66755654D01*
X87200138Y-66774704D01*
X87161468Y-66786435D01*
X87115112Y-66791000D01*
X86463888Y-66791000D01*
X86417532Y-66786435D01*
X86378862Y-66774704D01*
X86343223Y-66755654D01*
X86311983Y-66730017D01*
X86286346Y-66698777D01*
X86267296Y-66663138D01*
X86255565Y-66624468D01*
X86251000Y-66578112D01*
X86251000Y-65501888D01*
X86255565Y-65455532D01*
X86267296Y-65416862D01*
X86286346Y-65381223D01*
X86311983Y-65349983D01*
X86343223Y-65324346D01*
X86378862Y-65305296D01*
X86417532Y-65293565D01*
X86463888Y-65289000D01*
X87115112Y-65289000D01*
X87161468Y-65293565D01*
G37*
G36*
X85286468Y-65293565D02*
G01*
X85325138Y-65305296D01*
X85360777Y-65324346D01*
X85392017Y-65349983D01*
X85417654Y-65381223D01*
X85436704Y-65416862D01*
X85448435Y-65455532D01*
X85453000Y-65501888D01*
X85453000Y-66578112D01*
X85448435Y-66624468D01*
X85436704Y-66663138D01*
X85417654Y-66698777D01*
X85392017Y-66730017D01*
X85360777Y-66755654D01*
X85325138Y-66774704D01*
X85286468Y-66786435D01*
X85240112Y-66791000D01*
X84588888Y-66791000D01*
X84542532Y-66786435D01*
X84503862Y-66774704D01*
X84468223Y-66755654D01*
X84436983Y-66730017D01*
X84411346Y-66698777D01*
X84392296Y-66663138D01*
X84380565Y-66624468D01*
X84376000Y-66578112D01*
X84376000Y-65501888D01*
X84380565Y-65455532D01*
X84392296Y-65416862D01*
X84411346Y-65381223D01*
X84436983Y-65349983D01*
X84468223Y-65324346D01*
X84503862Y-65305296D01*
X84542532Y-65293565D01*
X84588888Y-65289000D01*
X85240112Y-65289000D01*
X85286468Y-65293565D01*
G37*
G36*
X92326000Y-65581000D02*
G01*
X89674000Y-65581000D01*
X89674000Y-64419000D01*
X92326000Y-64419000D01*
X92326000Y-65581000D01*
G37*
G36*
X175663000Y-63631000D02*
G01*
X175111000Y-63631000D01*
X175111000Y-62929000D01*
X175663000Y-62929000D01*
X175663000Y-63631000D01*
G37*
G36*
X171853000Y-63631000D02*
G01*
X171301000Y-63631000D01*
X171301000Y-62929000D01*
X171853000Y-62929000D01*
X171853000Y-63631000D01*
G37*
G36*
X168043000Y-63631000D02*
G01*
X167491000Y-63631000D01*
X167491000Y-62929000D01*
X168043000Y-62929000D01*
X168043000Y-63631000D01*
G37*
G36*
X164233000Y-63631000D02*
G01*
X163681000Y-63631000D01*
X163681000Y-62929000D01*
X164233000Y-62929000D01*
X164233000Y-63631000D01*
G37*
G36*
X156613000Y-63631000D02*
G01*
X156061000Y-63631000D01*
X156061000Y-62929000D01*
X156613000Y-62929000D01*
X156613000Y-63631000D01*
G37*
G36*
X152803000Y-63631000D02*
G01*
X152251000Y-63631000D01*
X152251000Y-62929000D01*
X152803000Y-62929000D01*
X152803000Y-63631000D01*
G37*
G36*
X107083000Y-63631000D02*
G01*
X106531000Y-63631000D01*
X106531000Y-62929000D01*
X107083000Y-62929000D01*
X107083000Y-63631000D01*
G37*
G36*
X114703000Y-63631000D02*
G01*
X114151000Y-63631000D01*
X114151000Y-62929000D01*
X114703000Y-62929000D01*
X114703000Y-63631000D01*
G37*
G36*
X118513000Y-63631000D02*
G01*
X117961000Y-63631000D01*
X117961000Y-62929000D01*
X118513000Y-62929000D01*
X118513000Y-63631000D01*
G37*
G36*
X129943000Y-63631000D02*
G01*
X129391000Y-63631000D01*
X129391000Y-62929000D01*
X129943000Y-62929000D01*
X129943000Y-63631000D01*
G37*
G36*
X137563000Y-63631000D02*
G01*
X137011000Y-63631000D01*
X137011000Y-62929000D01*
X137563000Y-62929000D01*
X137563000Y-63631000D01*
G37*
G36*
X133753000Y-63631000D02*
G01*
X133201000Y-63631000D01*
X133201000Y-62929000D01*
X133753000Y-62929000D01*
X133753000Y-63631000D01*
G37*
G36*
X145183000Y-63631000D02*
G01*
X144631000Y-63631000D01*
X144631000Y-62929000D01*
X145183000Y-62929000D01*
X145183000Y-63631000D01*
G37*
G36*
X126133000Y-63631000D02*
G01*
X125581000Y-63631000D01*
X125581000Y-62929000D01*
X126133000Y-62929000D01*
X126133000Y-63631000D01*
G37*
G36*
X148993000Y-63631000D02*
G01*
X148441000Y-63631000D01*
X148441000Y-62929000D01*
X148993000Y-62929000D01*
X148993000Y-63631000D01*
G37*
G36*
X110893000Y-63631000D02*
G01*
X110341000Y-63631000D01*
X110341000Y-62929000D01*
X110893000Y-62929000D01*
X110893000Y-63631000D01*
G37*
G36*
X92326000Y-63381000D02*
G01*
X89674000Y-63381000D01*
X89674000Y-62219000D01*
X92326000Y-62219000D01*
X92326000Y-63381000D01*
G37*
G36*
X175663000Y-61531000D02*
G01*
X175111000Y-61531000D01*
X175111000Y-60829000D01*
X175663000Y-60829000D01*
X175663000Y-61531000D01*
G37*
G36*
X171853000Y-61531000D02*
G01*
X171301000Y-61531000D01*
X171301000Y-60829000D01*
X171853000Y-60829000D01*
X171853000Y-61531000D01*
G37*
G36*
X168043000Y-61531000D02*
G01*
X167491000Y-61531000D01*
X167491000Y-60829000D01*
X168043000Y-60829000D01*
X168043000Y-61531000D01*
G37*
G36*
X164233000Y-61531000D02*
G01*
X163681000Y-61531000D01*
X163681000Y-60829000D01*
X164233000Y-60829000D01*
X164233000Y-61531000D01*
G37*
G36*
X156613000Y-61531000D02*
G01*
X156061000Y-61531000D01*
X156061000Y-60829000D01*
X156613000Y-60829000D01*
X156613000Y-61531000D01*
G37*
G36*
X152803000Y-61531000D02*
G01*
X152251000Y-61531000D01*
X152251000Y-60829000D01*
X152803000Y-60829000D01*
X152803000Y-61531000D01*
G37*
G36*
X148993000Y-61531000D02*
G01*
X148441000Y-61531000D01*
X148441000Y-60829000D01*
X148993000Y-60829000D01*
X148993000Y-61531000D01*
G37*
G36*
X145183000Y-61531000D02*
G01*
X144631000Y-61531000D01*
X144631000Y-60829000D01*
X145183000Y-60829000D01*
X145183000Y-61531000D01*
G37*
G36*
X133753000Y-61531000D02*
G01*
X133201000Y-61531000D01*
X133201000Y-60829000D01*
X133753000Y-60829000D01*
X133753000Y-61531000D01*
G37*
G36*
X129943000Y-61531000D02*
G01*
X129391000Y-61531000D01*
X129391000Y-60829000D01*
X129943000Y-60829000D01*
X129943000Y-61531000D01*
G37*
G36*
X126133000Y-61531000D02*
G01*
X125581000Y-61531000D01*
X125581000Y-60829000D01*
X126133000Y-60829000D01*
X126133000Y-61531000D01*
G37*
G36*
X118513000Y-61531000D02*
G01*
X117961000Y-61531000D01*
X117961000Y-60829000D01*
X118513000Y-60829000D01*
X118513000Y-61531000D01*
G37*
G36*
X114703000Y-61531000D02*
G01*
X114151000Y-61531000D01*
X114151000Y-60829000D01*
X114703000Y-60829000D01*
X114703000Y-61531000D01*
G37*
G36*
X110893000Y-61531000D02*
G01*
X110341000Y-61531000D01*
X110341000Y-60829000D01*
X110893000Y-60829000D01*
X110893000Y-61531000D01*
G37*
G36*
X107083000Y-61531000D02*
G01*
X106531000Y-61531000D01*
X106531000Y-60829000D01*
X107083000Y-60829000D01*
X107083000Y-61531000D01*
G37*
G36*
X137563000Y-61531000D02*
G01*
X137011000Y-61531000D01*
X137011000Y-60829000D01*
X137563000Y-60829000D01*
X137563000Y-61531000D01*
G37*
G36*
X85309468Y-59253565D02*
G01*
X85348138Y-59265296D01*
X85383777Y-59284346D01*
X85415017Y-59309983D01*
X85440654Y-59341223D01*
X85459704Y-59376862D01*
X85471435Y-59415532D01*
X85476000Y-59461888D01*
X85476000Y-60538112D01*
X85471435Y-60584468D01*
X85459704Y-60623138D01*
X85440654Y-60658777D01*
X85415017Y-60690017D01*
X85383777Y-60715654D01*
X85348138Y-60734704D01*
X85309468Y-60746435D01*
X85263112Y-60751000D01*
X84611888Y-60751000D01*
X84565532Y-60746435D01*
X84526862Y-60734704D01*
X84491223Y-60715654D01*
X84459983Y-60690017D01*
X84434346Y-60658777D01*
X84415296Y-60623138D01*
X84403565Y-60584468D01*
X84399000Y-60538112D01*
X84399000Y-59461888D01*
X84403565Y-59415532D01*
X84415296Y-59376862D01*
X84434346Y-59341223D01*
X84459983Y-59309983D01*
X84491223Y-59284346D01*
X84526862Y-59265296D01*
X84565532Y-59253565D01*
X84611888Y-59249000D01*
X85263112Y-59249000D01*
X85309468Y-59253565D01*
G37*
G36*
X83434468Y-59253565D02*
G01*
X83473138Y-59265296D01*
X83508777Y-59284346D01*
X83540017Y-59309983D01*
X83565654Y-59341223D01*
X83584704Y-59376862D01*
X83596435Y-59415532D01*
X83601000Y-59461888D01*
X83601000Y-60538112D01*
X83596435Y-60584468D01*
X83584704Y-60623138D01*
X83565654Y-60658777D01*
X83540017Y-60690017D01*
X83508777Y-60715654D01*
X83473138Y-60734704D01*
X83434468Y-60746435D01*
X83388112Y-60751000D01*
X82736888Y-60751000D01*
X82690532Y-60746435D01*
X82651862Y-60734704D01*
X82616223Y-60715654D01*
X82584983Y-60690017D01*
X82559346Y-60658777D01*
X82540296Y-60623138D01*
X82528565Y-60584468D01*
X82524000Y-60538112D01*
X82524000Y-59461888D01*
X82528565Y-59415532D01*
X82540296Y-59376862D01*
X82559346Y-59341223D01*
X82584983Y-59309983D01*
X82616223Y-59284346D01*
X82651862Y-59265296D01*
X82690532Y-59253565D01*
X82736888Y-59249000D01*
X83388112Y-59249000D01*
X83434468Y-59253565D01*
G37*
G36*
X89517818Y-58607696D02*
G01*
X89631104Y-58642062D01*
X89670116Y-58662914D01*
X89692755Y-58672291D01*
X89716788Y-58677071D01*
X89741292Y-58677071D01*
X89749712Y-58675396D01*
X89751347Y-58683613D01*
X89760724Y-58706252D01*
X89774338Y-58726626D01*
X89791661Y-58743949D01*
X89827027Y-58772973D01*
X89888663Y-58848077D01*
X89902131Y-58864488D01*
X89957938Y-58968895D01*
X89992304Y-59082182D01*
X90001000Y-59170481D01*
X90001000Y-59779519D01*
X89992304Y-59867818D01*
X89957938Y-59981105D01*
X89902131Y-60085512D01*
X89902130Y-60085513D01*
X89827027Y-60177027D01*
X89751923Y-60238662D01*
X89735511Y-60252131D01*
X89631104Y-60307938D01*
X89517817Y-60342304D01*
X89400000Y-60353907D01*
X89282182Y-60342304D01*
X89168895Y-60307938D01*
X89064488Y-60252131D01*
X89050572Y-60240711D01*
X88972973Y-60177027D01*
X88897870Y-60085512D01*
X88897869Y-60085511D01*
X88842062Y-59981104D01*
X88807696Y-59867817D01*
X88799000Y-59779518D01*
X88799000Y-59170481D01*
X88807696Y-59082182D01*
X88842061Y-58968898D01*
X88897871Y-58864486D01*
X88972974Y-58772973D01*
X89064489Y-58697869D01*
X89168896Y-58642062D01*
X89282183Y-58607696D01*
X89400000Y-58596093D01*
X89517818Y-58607696D01*
G37*
G36*
X92717818Y-58607696D02*
G01*
X92831105Y-58642062D01*
X92935512Y-58697869D01*
X93027027Y-58772973D01*
X93102131Y-58864488D01*
X93157938Y-58968895D01*
X93192304Y-59082182D01*
X93201000Y-59170481D01*
X93201000Y-59779519D01*
X93192304Y-59867818D01*
X93157938Y-59981105D01*
X93102131Y-60085512D01*
X93102130Y-60085513D01*
X93027027Y-60177027D01*
X92951923Y-60238662D01*
X92935511Y-60252131D01*
X92831104Y-60307938D01*
X92717817Y-60342304D01*
X92600000Y-60353907D01*
X92482182Y-60342304D01*
X92368895Y-60307938D01*
X92264488Y-60252131D01*
X92250572Y-60240711D01*
X92172973Y-60177027D01*
X92097870Y-60085512D01*
X92097869Y-60085511D01*
X92042062Y-59981104D01*
X92007696Y-59867817D01*
X91999000Y-59779518D01*
X91999000Y-59170481D01*
X92007696Y-59082182D01*
X92042061Y-58968898D01*
X92097871Y-58864486D01*
X92172974Y-58772973D01*
X92208340Y-58743949D01*
X92225667Y-58726622D01*
X92239281Y-58706248D01*
X92248658Y-58683609D01*
X92250291Y-58675399D01*
X92258707Y-58677073D01*
X92283212Y-58677073D01*
X92307245Y-58672292D01*
X92329883Y-58662915D01*
X92368896Y-58642062D01*
X92482183Y-58607696D01*
X92600000Y-58596093D01*
X92717818Y-58607696D01*
G37*
G36*
X91117818Y-58607696D02*
G01*
X91231104Y-58642062D01*
X91270116Y-58662914D01*
X91292755Y-58672291D01*
X91316788Y-58677071D01*
X91341292Y-58677071D01*
X91349712Y-58675396D01*
X91351347Y-58683613D01*
X91360724Y-58706252D01*
X91374338Y-58726626D01*
X91391661Y-58743949D01*
X91427027Y-58772973D01*
X91488663Y-58848077D01*
X91502131Y-58864488D01*
X91557938Y-58968895D01*
X91592304Y-59082182D01*
X91601000Y-59170481D01*
X91601000Y-59779519D01*
X91592304Y-59867818D01*
X91557938Y-59981105D01*
X91502131Y-60085512D01*
X91502130Y-60085513D01*
X91427027Y-60177027D01*
X91351923Y-60238662D01*
X91335511Y-60252131D01*
X91231104Y-60307938D01*
X91117817Y-60342304D01*
X91000000Y-60353907D01*
X90882182Y-60342304D01*
X90768895Y-60307938D01*
X90664488Y-60252131D01*
X90650572Y-60240711D01*
X90572973Y-60177027D01*
X90497870Y-60085512D01*
X90497869Y-60085511D01*
X90442062Y-59981104D01*
X90407696Y-59867817D01*
X90399000Y-59779518D01*
X90399000Y-59170481D01*
X90407696Y-59082182D01*
X90442061Y-58968898D01*
X90497871Y-58864486D01*
X90572974Y-58772973D01*
X90608340Y-58743949D01*
X90625667Y-58726622D01*
X90639281Y-58706248D01*
X90648658Y-58683609D01*
X90650291Y-58675399D01*
X90658707Y-58677073D01*
X90683212Y-58677073D01*
X90707245Y-58672292D01*
X90729883Y-58662915D01*
X90768896Y-58642062D01*
X90882183Y-58607696D01*
X91000000Y-58596093D01*
X91117818Y-58607696D01*
G37*
G36*
X85309468Y-57253565D02*
G01*
X85348138Y-57265296D01*
X85383777Y-57284346D01*
X85415017Y-57309983D01*
X85440654Y-57341223D01*
X85459704Y-57376862D01*
X85471435Y-57415532D01*
X85476000Y-57461888D01*
X85476000Y-58538112D01*
X85471435Y-58584468D01*
X85459704Y-58623138D01*
X85440654Y-58658777D01*
X85415017Y-58690017D01*
X85383777Y-58715654D01*
X85348138Y-58734704D01*
X85309468Y-58746435D01*
X85263112Y-58751000D01*
X84611888Y-58751000D01*
X84565532Y-58746435D01*
X84526862Y-58734704D01*
X84491223Y-58715654D01*
X84459983Y-58690017D01*
X84434346Y-58658777D01*
X84415296Y-58623138D01*
X84403565Y-58584468D01*
X84399000Y-58538112D01*
X84399000Y-57461888D01*
X84403565Y-57415532D01*
X84415296Y-57376862D01*
X84434346Y-57341223D01*
X84459983Y-57309983D01*
X84491223Y-57284346D01*
X84526862Y-57265296D01*
X84565532Y-57253565D01*
X84611888Y-57249000D01*
X85263112Y-57249000D01*
X85309468Y-57253565D01*
G37*
G36*
X83434468Y-57253565D02*
G01*
X83473138Y-57265296D01*
X83508777Y-57284346D01*
X83540017Y-57309983D01*
X83565654Y-57341223D01*
X83584704Y-57376862D01*
X83596435Y-57415532D01*
X83601000Y-57461888D01*
X83601000Y-58538112D01*
X83596435Y-58584468D01*
X83584704Y-58623138D01*
X83565654Y-58658777D01*
X83540017Y-58690017D01*
X83508777Y-58715654D01*
X83473138Y-58734704D01*
X83434468Y-58746435D01*
X83388112Y-58751000D01*
X82736888Y-58751000D01*
X82690532Y-58746435D01*
X82651862Y-58734704D01*
X82616223Y-58715654D01*
X82584983Y-58690017D01*
X82559346Y-58658777D01*
X82540296Y-58623138D01*
X82528565Y-58584468D01*
X82524000Y-58538112D01*
X82524000Y-57461888D01*
X82528565Y-57415532D01*
X82540296Y-57376862D01*
X82559346Y-57341223D01*
X82584983Y-57309983D01*
X82616223Y-57284346D01*
X82651862Y-57265296D01*
X82690532Y-57253565D01*
X82736888Y-57249000D01*
X83388112Y-57249000D01*
X83434468Y-57253565D01*
G37*
G36*
X91917818Y-56857696D02*
G01*
X92031105Y-56892062D01*
X92135512Y-56947869D01*
X92227027Y-57022973D01*
X92302131Y-57114488D01*
X92357938Y-57218895D01*
X92392304Y-57332182D01*
X92401000Y-57420481D01*
X92401000Y-58029519D01*
X92392304Y-58117818D01*
X92357938Y-58231105D01*
X92302131Y-58335512D01*
X92302130Y-58335513D01*
X92227027Y-58427027D01*
X92191660Y-58456051D01*
X92174333Y-58473378D01*
X92160719Y-58493752D01*
X92151342Y-58516391D01*
X92149709Y-58524601D01*
X92141293Y-58522927D01*
X92116788Y-58522927D01*
X92092755Y-58527708D01*
X92070117Y-58537085D01*
X92031104Y-58557938D01*
X91917817Y-58592304D01*
X91800000Y-58603907D01*
X91682182Y-58592304D01*
X91568897Y-58557938D01*
X91529886Y-58537087D01*
X91507248Y-58527710D01*
X91483214Y-58522930D01*
X91458710Y-58522930D01*
X91450290Y-58524605D01*
X91448655Y-58516388D01*
X91439278Y-58493749D01*
X91425664Y-58473375D01*
X91408344Y-58456055D01*
X91372973Y-58427027D01*
X91297870Y-58335512D01*
X91297869Y-58335511D01*
X91242062Y-58231104D01*
X91207696Y-58117817D01*
X91199000Y-58029518D01*
X91199000Y-57420481D01*
X91207696Y-57332182D01*
X91242061Y-57218898D01*
X91297871Y-57114486D01*
X91372974Y-57022973D01*
X91464489Y-56947869D01*
X91568896Y-56892062D01*
X91682183Y-56857696D01*
X91800000Y-56846093D01*
X91917818Y-56857696D01*
G37*
G36*
X90317818Y-56857696D02*
G01*
X90431105Y-56892062D01*
X90535512Y-56947869D01*
X90627027Y-57022973D01*
X90702131Y-57114488D01*
X90757938Y-57218895D01*
X90792304Y-57332182D01*
X90801000Y-57420481D01*
X90801000Y-58029519D01*
X90792304Y-58117818D01*
X90757938Y-58231105D01*
X90702131Y-58335512D01*
X90702130Y-58335513D01*
X90627027Y-58427027D01*
X90591660Y-58456051D01*
X90574333Y-58473378D01*
X90560719Y-58493752D01*
X90551342Y-58516391D01*
X90549709Y-58524601D01*
X90541293Y-58522927D01*
X90516788Y-58522927D01*
X90492755Y-58527708D01*
X90470117Y-58537085D01*
X90431104Y-58557938D01*
X90317817Y-58592304D01*
X90200000Y-58603907D01*
X90082182Y-58592304D01*
X89968897Y-58557938D01*
X89929886Y-58537087D01*
X89907248Y-58527710D01*
X89883214Y-58522930D01*
X89858710Y-58522930D01*
X89850290Y-58524605D01*
X89848655Y-58516388D01*
X89839278Y-58493749D01*
X89825664Y-58473375D01*
X89808344Y-58456055D01*
X89772973Y-58427027D01*
X89697870Y-58335512D01*
X89697869Y-58335511D01*
X89642062Y-58231104D01*
X89607696Y-58117817D01*
X89599000Y-58029518D01*
X89599000Y-57420481D01*
X89607696Y-57332182D01*
X89642061Y-57218898D01*
X89697871Y-57114486D01*
X89772974Y-57022973D01*
X89864489Y-56947869D01*
X89968896Y-56892062D01*
X90082183Y-56857696D01*
X90200000Y-56846093D01*
X90317818Y-56857696D01*
G37*
G36*
X94826627Y-52762037D02*
G01*
X94996466Y-52813557D01*
X95152991Y-52897222D01*
X95188729Y-52926552D01*
X95290186Y-53009814D01*
X95373448Y-53111271D01*
X95402778Y-53147009D01*
X95486443Y-53303534D01*
X95537963Y-53473373D01*
X95551000Y-53605742D01*
X95551000Y-54694258D01*
X95537963Y-54826627D01*
X95486443Y-54996466D01*
X95402778Y-55152991D01*
X95373448Y-55188729D01*
X95290186Y-55290186D01*
X95152989Y-55402779D01*
X94996467Y-55486442D01*
X94996465Y-55486443D01*
X94826626Y-55537963D01*
X94650000Y-55555359D01*
X94473373Y-55537963D01*
X94303534Y-55486443D01*
X94147009Y-55402778D01*
X94111271Y-55373448D01*
X94009814Y-55290186D01*
X93897221Y-55152989D01*
X93813558Y-54996467D01*
X93813557Y-54996465D01*
X93762037Y-54826626D01*
X93749000Y-54694257D01*
X93749001Y-53605742D01*
X93762038Y-53473373D01*
X93813558Y-53303534D01*
X93897223Y-53147009D01*
X93926553Y-53111271D01*
X94009815Y-53009814D01*
X94111272Y-52926552D01*
X94147010Y-52897222D01*
X94303535Y-52813557D01*
X94473374Y-52762037D01*
X94650000Y-52744641D01*
X94826627Y-52762037D01*
G37*
G36*
X87526627Y-52762037D02*
G01*
X87696466Y-52813557D01*
X87852991Y-52897222D01*
X87888729Y-52926552D01*
X87990186Y-53009814D01*
X88073448Y-53111271D01*
X88102778Y-53147009D01*
X88186443Y-53303534D01*
X88237963Y-53473373D01*
X88251000Y-53605742D01*
X88251000Y-54694258D01*
X88237963Y-54826627D01*
X88186443Y-54996466D01*
X88102778Y-55152991D01*
X88073448Y-55188729D01*
X87990186Y-55290186D01*
X87852989Y-55402779D01*
X87696467Y-55486442D01*
X87696465Y-55486443D01*
X87526626Y-55537963D01*
X87350000Y-55555359D01*
X87173373Y-55537963D01*
X87003534Y-55486443D01*
X86847009Y-55402778D01*
X86811271Y-55373448D01*
X86709814Y-55290186D01*
X86597221Y-55152989D01*
X86513558Y-54996467D01*
X86513557Y-54996465D01*
X86462037Y-54826626D01*
X86449000Y-54694257D01*
X86449001Y-53605742D01*
X86462038Y-53473373D01*
X86513558Y-53303534D01*
X86597223Y-53147009D01*
X86626553Y-53111271D01*
X86709815Y-53009814D01*
X86811272Y-52926552D01*
X86847010Y-52897222D01*
X87003535Y-52813557D01*
X87173374Y-52762037D01*
X87350000Y-52744641D01*
X87526627Y-52762037D01*
G37*
G36*
X83224549Y-49871116D02*
G01*
X83335734Y-49893232D01*
X83545203Y-49979997D01*
X83733720Y-50105960D01*
X83894040Y-50266280D01*
X84020003Y-50454797D01*
X84106768Y-50664266D01*
X84151000Y-50886636D01*
X84151000Y-51113364D01*
X84106768Y-51335734D01*
X84020003Y-51545203D01*
X83894040Y-51733720D01*
X83733720Y-51894040D01*
X83545203Y-52020003D01*
X83335734Y-52106768D01*
X83224549Y-52128884D01*
X83113365Y-52151000D01*
X82886635Y-52151000D01*
X82775451Y-52128884D01*
X82664266Y-52106768D01*
X82454797Y-52020003D01*
X82266280Y-51894040D01*
X82105960Y-51733720D01*
X81979997Y-51545203D01*
X81893232Y-51335734D01*
X81849000Y-51113364D01*
X81849000Y-50886636D01*
X81893232Y-50664266D01*
X81979997Y-50454797D01*
X82105960Y-50266280D01*
X82266280Y-50105960D01*
X82454797Y-49979997D01*
X82664266Y-49893232D01*
X82775451Y-49871116D01*
X82886635Y-49849000D01*
X83113365Y-49849000D01*
X83224549Y-49871116D01*
G37*
G36*
X177224549Y-49871116D02*
G01*
X177335734Y-49893232D01*
X177545203Y-49979997D01*
X177733720Y-50105960D01*
X177894040Y-50266280D01*
X178020003Y-50454797D01*
X178106768Y-50664266D01*
X178151000Y-50886636D01*
X178151000Y-51113364D01*
X178106768Y-51335734D01*
X178020003Y-51545203D01*
X177894040Y-51733720D01*
X177733720Y-51894040D01*
X177545203Y-52020003D01*
X177335734Y-52106768D01*
X177224549Y-52128884D01*
X177113365Y-52151000D01*
X176886635Y-52151000D01*
X176775451Y-52128884D01*
X176664266Y-52106768D01*
X176454797Y-52020003D01*
X176266280Y-51894040D01*
X176105960Y-51733720D01*
X175979997Y-51545203D01*
X175893232Y-51335734D01*
X175849000Y-51113364D01*
X175849000Y-50886636D01*
X175893232Y-50664266D01*
X175979997Y-50454797D01*
X176105960Y-50266280D01*
X176266280Y-50105960D01*
X176454797Y-49979997D01*
X176664266Y-49893232D01*
X176775451Y-49871116D01*
X176886635Y-49849000D01*
X177113365Y-49849000D01*
X177224549Y-49871116D01*
G37*
M02*
