M48
; DRILL file {KiCad 5.1.5-52549c5~86~ubuntu18.04.1} date Thu 23 Apr 2020 15:53:34 BST
; FORMAT={-:-/ absolute / inch / decimal}
; #@! TF.CreationDate,2020-04-23T15:53:34+01:00
; #@! TF.GenerationSoftware,Kicad,Pcbnew,5.1.5-52549c5~86~ubuntu18.04.1
; #@! TF.FileFunction,Plated,1,2,PTH
FMAT,2
INCH
T1C0.0157
T2C0.0276
T3C0.0394
T4C0.0409
T5C0.0579
T6C0.0709
%
G90
G05
T1
X3.2702Y-2.4502
X3.315Y-3.4921
X3.3169Y-3.563
X3.3169Y-3.6417
X3.3169Y-3.7008
X3.34Y-2.8
X3.3563Y-3.5236
X3.3563Y-3.6024
X3.3642Y-3.8404
X3.3642Y-3.92
X3.3642Y-4.0
X3.3802Y-3.7002
X3.43Y-3.4
X3.47Y-2.6
X3.56Y-2.82
X3.5866Y-2.6064
X3.5906Y-3.5669
X3.5906Y-3.6063
X3.6299Y-3.5669
X3.6299Y-3.6063
X3.6965Y-3.86
X3.72Y-3.18
X3.7244Y-2.4409
X3.7244Y-2.4803
X3.7244Y-2.5197
X3.752Y-3.8307
X3.7638Y-2.4409
X3.7638Y-2.4803
X3.7638Y-2.5197
X3.7756Y-3.7717
X3.78Y-3.9187
X3.78Y-3.9987
X3.8149Y-3.4632
X3.85Y-3.25
X3.85Y-3.34
X3.9291Y-2.5512
X3.9409Y-3.7028
X4.1339Y-2.5512
X4.2179Y-2.3629
X4.355Y-2.3
X4.505Y-2.25
X4.655Y-2.2042
X4.955Y-2.35
X5.105Y-2.3
X5.255Y-2.25
X5.405Y-2.2
X5.705Y-2.35
X5.855Y-2.3
X6.005Y-2.25
X6.155Y-2.2
X6.455Y-2.35
X6.605Y-2.3
X6.755Y-2.25
X6.905Y-2.2
T2
X3.5197Y-2.3307
X3.5512Y-2.2835
X3.5827Y-2.3307
X3.6142Y-2.2835
X3.6457Y-2.3307
T3
X3.563Y-4.6949
X3.7106Y-4.6949
X3.8583Y-4.6949
X3.563Y-5.3937
X3.7106Y-5.3937
X3.8583Y-5.3937
X3.4252Y-2.9677
X3.4252Y-3.0677
X3.4252Y-3.1677
X3.4252Y-3.2677
T4
X5.905Y-4.6688
X6.005Y-4.6688
X6.655Y-5.4188
X6.755Y-5.4188
X5.155Y-3.1687
X5.255Y-3.1687
X4.405Y-3.1687
X4.505Y-3.1687
X4.405Y-4.6688
X4.505Y-4.6688
X4.405Y-3.9187
X4.505Y-3.9187
X6.655Y-3.1687
X6.755Y-3.1687
X4.405Y-5.4188
X4.505Y-5.4188
X5.155Y-5.4188
X5.255Y-5.4188
X6.655Y-4.6688
X6.755Y-4.6688
X5.905Y-5.4188
X6.005Y-5.4188
X5.155Y-3.9187
X5.255Y-3.9187
X5.905Y-3.9187
X6.005Y-3.9187
X5.155Y-4.6688
X5.255Y-4.6688
X6.655Y-3.9187
X6.755Y-3.9187
X5.905Y-3.1687
X6.005Y-3.1687
T5
X5.055Y-5.1187
X5.305Y-5.0187
X6.555Y-4.3687
X6.805Y-4.2687
X5.805Y-5.1187
X6.055Y-5.0187
X5.055Y-3.6187
X5.305Y-3.5187
X5.805Y-3.6187
X6.055Y-3.5187
X5.055Y-4.3687
X5.305Y-4.2687
X6.555Y-3.6187
X6.805Y-3.5187
X5.805Y-2.8687
X6.055Y-2.7687
X5.805Y-4.3687
X6.055Y-4.2687
X6.555Y-5.1187
X6.805Y-5.0187
X5.055Y-2.8687
X5.305Y-2.7687
X4.305Y-2.8687
X4.555Y-2.7687
X4.305Y-4.3687
X4.555Y-4.2687
X4.305Y-3.6187
X4.555Y-3.5187
X6.555Y-2.8687
X6.805Y-2.7687
X4.305Y-5.1187
X4.555Y-5.0187
T2
G00X3.439Y-2.1083
M15
G01X3.439Y-2.1555
M16
G05
G00X3.7264Y-2.1083
M15
G01X3.7264Y-2.1555
M16
G05
T6
G00X3.5059Y-4.3474
M15
G01X3.5059Y-4.3868
M16
G05
G00X3.9154Y-4.3474
M15
G01X3.9154Y-4.3868
M16
G05
G00X3.5059Y-5.0463
M15
G01X3.5059Y-5.0856
M16
G05
G00X3.9154Y-5.0463
M15
G01X3.9154Y-5.0856
M16
G05
T0
M30
