G04 #@! TF.GenerationSoftware,KiCad,Pcbnew,5.1.5-52549c5~86~ubuntu18.04.1*
G04 #@! TF.CreationDate,2020-04-23T16:02:32+01:00*
G04 #@! TF.ProjectId,icepad,69636570-6164-42e6-9b69-6361645f7063,rev?*
G04 #@! TF.SameCoordinates,Original*
G04 #@! TF.FileFunction,Soldermask,Bot*
G04 #@! TF.FilePolarity,Negative*
%FSLAX46Y46*%
G04 Gerber Fmt 4.6, Leading zero omitted, Abs format (unit mm)*
G04 Created by KiCad (PCBNEW 5.1.5-52549c5~86~ubuntu18.04.1) date 2020-04-23 16:02:32*
%MOMM*%
%LPD*%
G04 APERTURE LIST*
%ADD10C,0.100000*%
G04 APERTURE END LIST*
D10*
G36*
X177224549Y-141871116D02*
G01*
X177335734Y-141893232D01*
X177545203Y-141979997D01*
X177733720Y-142105960D01*
X177894040Y-142266280D01*
X178020003Y-142454797D01*
X178106768Y-142664266D01*
X178151000Y-142886636D01*
X178151000Y-143113364D01*
X178106768Y-143335734D01*
X178020003Y-143545203D01*
X177894040Y-143733720D01*
X177733720Y-143894040D01*
X177545203Y-144020003D01*
X177335734Y-144106768D01*
X177224549Y-144128884D01*
X177113365Y-144151000D01*
X176886635Y-144151000D01*
X176775451Y-144128884D01*
X176664266Y-144106768D01*
X176454797Y-144020003D01*
X176266280Y-143894040D01*
X176105960Y-143733720D01*
X175979997Y-143545203D01*
X175893232Y-143335734D01*
X175849000Y-143113364D01*
X175849000Y-142886636D01*
X175893232Y-142664266D01*
X175979997Y-142454797D01*
X176105960Y-142266280D01*
X176266280Y-142105960D01*
X176454797Y-141979997D01*
X176664266Y-141893232D01*
X176775451Y-141871116D01*
X176886635Y-141849000D01*
X177113365Y-141849000D01*
X177224549Y-141871116D01*
G37*
G36*
X83224549Y-141871116D02*
G01*
X83335734Y-141893232D01*
X83545203Y-141979997D01*
X83733720Y-142105960D01*
X83894040Y-142266280D01*
X84020003Y-142454797D01*
X84106768Y-142664266D01*
X84151000Y-142886636D01*
X84151000Y-143113364D01*
X84106768Y-143335734D01*
X84020003Y-143545203D01*
X83894040Y-143733720D01*
X83733720Y-143894040D01*
X83545203Y-144020003D01*
X83335734Y-144106768D01*
X83224549Y-144128884D01*
X83113365Y-144151000D01*
X82886635Y-144151000D01*
X82775451Y-144128884D01*
X82664266Y-144106768D01*
X82454797Y-144020003D01*
X82266280Y-143894040D01*
X82105960Y-143733720D01*
X81979997Y-143545203D01*
X81893232Y-143335734D01*
X81849000Y-143113364D01*
X81849000Y-142886636D01*
X81893232Y-142664266D01*
X81979997Y-142454797D01*
X82105960Y-142266280D01*
X82266280Y-142105960D01*
X82454797Y-141979997D01*
X82664266Y-141893232D01*
X82775451Y-141871116D01*
X82886635Y-141849000D01*
X83113365Y-141849000D01*
X83224549Y-141871116D01*
G37*
G36*
X169163425Y-136638238D02*
G01*
X169329710Y-136671313D01*
X169512336Y-136746959D01*
X169676694Y-136856780D01*
X169816470Y-136996556D01*
X169926291Y-137160914D01*
X170001937Y-137343540D01*
X170040500Y-137537414D01*
X170040500Y-137735086D01*
X170001937Y-137928960D01*
X169926291Y-138111586D01*
X169816470Y-138275944D01*
X169676694Y-138415720D01*
X169512336Y-138525541D01*
X169329710Y-138601187D01*
X169163425Y-138634262D01*
X169135837Y-138639750D01*
X168938163Y-138639750D01*
X168910575Y-138634262D01*
X168744290Y-138601187D01*
X168561664Y-138525541D01*
X168397306Y-138415720D01*
X168257530Y-138275944D01*
X168147709Y-138111586D01*
X168072063Y-137928960D01*
X168033500Y-137735086D01*
X168033500Y-137537414D01*
X168072063Y-137343540D01*
X168147709Y-137160914D01*
X168257530Y-136996556D01*
X168397306Y-136856780D01*
X168561664Y-136746959D01*
X168744290Y-136671313D01*
X168910575Y-136638238D01*
X168938163Y-136632750D01*
X169135837Y-136632750D01*
X169163425Y-136638238D01*
G37*
G36*
X112013425Y-136638238D02*
G01*
X112179710Y-136671313D01*
X112362336Y-136746959D01*
X112526694Y-136856780D01*
X112666470Y-136996556D01*
X112776291Y-137160914D01*
X112851937Y-137343540D01*
X112890500Y-137537414D01*
X112890500Y-137735086D01*
X112851937Y-137928960D01*
X112776291Y-138111586D01*
X112666470Y-138275944D01*
X112526694Y-138415720D01*
X112362336Y-138525541D01*
X112179710Y-138601187D01*
X112013425Y-138634262D01*
X111985837Y-138639750D01*
X111788163Y-138639750D01*
X111760575Y-138634262D01*
X111594290Y-138601187D01*
X111411664Y-138525541D01*
X111247306Y-138415720D01*
X111107530Y-138275944D01*
X110997709Y-138111586D01*
X110922063Y-137928960D01*
X110883500Y-137735086D01*
X110883500Y-137537414D01*
X110922063Y-137343540D01*
X110997709Y-137160914D01*
X111107530Y-136996556D01*
X111247306Y-136856780D01*
X111411664Y-136746959D01*
X111594290Y-136671313D01*
X111760575Y-136638238D01*
X111788163Y-136632750D01*
X111985837Y-136632750D01*
X112013425Y-136638238D01*
G37*
G36*
X115430500Y-138639750D02*
G01*
X113423500Y-138639750D01*
X113423500Y-136632750D01*
X115430500Y-136632750D01*
X115430500Y-138639750D01*
G37*
G36*
X172580500Y-138639750D02*
G01*
X170573500Y-138639750D01*
X170573500Y-136632750D01*
X172580500Y-136632750D01*
X172580500Y-138639750D01*
G37*
G36*
X153530500Y-138639750D02*
G01*
X151523500Y-138639750D01*
X151523500Y-136632750D01*
X153530500Y-136632750D01*
X153530500Y-138639750D01*
G37*
G36*
X134480500Y-138639750D02*
G01*
X132473500Y-138639750D01*
X132473500Y-136632750D01*
X134480500Y-136632750D01*
X134480500Y-138639750D01*
G37*
G36*
X131063425Y-136638238D02*
G01*
X131229710Y-136671313D01*
X131412336Y-136746959D01*
X131576694Y-136856780D01*
X131716470Y-136996556D01*
X131826291Y-137160914D01*
X131901937Y-137343540D01*
X131940500Y-137537414D01*
X131940500Y-137735086D01*
X131901937Y-137928960D01*
X131826291Y-138111586D01*
X131716470Y-138275944D01*
X131576694Y-138415720D01*
X131412336Y-138525541D01*
X131229710Y-138601187D01*
X131063425Y-138634262D01*
X131035837Y-138639750D01*
X130838163Y-138639750D01*
X130810575Y-138634262D01*
X130644290Y-138601187D01*
X130461664Y-138525541D01*
X130297306Y-138415720D01*
X130157530Y-138275944D01*
X130047709Y-138111586D01*
X129972063Y-137928960D01*
X129933500Y-137735086D01*
X129933500Y-137537414D01*
X129972063Y-137343540D01*
X130047709Y-137160914D01*
X130157530Y-136996556D01*
X130297306Y-136856780D01*
X130461664Y-136746959D01*
X130644290Y-136671313D01*
X130810575Y-136638238D01*
X130838163Y-136632750D01*
X131035837Y-136632750D01*
X131063425Y-136638238D01*
G37*
G36*
X150113425Y-136638238D02*
G01*
X150279710Y-136671313D01*
X150462336Y-136746959D01*
X150626694Y-136856780D01*
X150766470Y-136996556D01*
X150876291Y-137160914D01*
X150951937Y-137343540D01*
X150990500Y-137537414D01*
X150990500Y-137735086D01*
X150951937Y-137928960D01*
X150876291Y-138111586D01*
X150766470Y-138275944D01*
X150626694Y-138415720D01*
X150462336Y-138525541D01*
X150279710Y-138601187D01*
X150113425Y-138634262D01*
X150085837Y-138639750D01*
X149888163Y-138639750D01*
X149860575Y-138634262D01*
X149694290Y-138601187D01*
X149511664Y-138525541D01*
X149347306Y-138415720D01*
X149207530Y-138275944D01*
X149097709Y-138111586D01*
X149022063Y-137928960D01*
X148983500Y-137735086D01*
X148983500Y-137537414D01*
X149022063Y-137343540D01*
X149097709Y-137160914D01*
X149207530Y-136996556D01*
X149347306Y-136856780D01*
X149511664Y-136746959D01*
X149694290Y-136671313D01*
X149860575Y-136638238D01*
X149888163Y-136632750D01*
X150085837Y-136632750D01*
X150113425Y-136638238D01*
G37*
G36*
X91551000Y-138051000D02*
G01*
X89449000Y-138051000D01*
X89449000Y-135949000D01*
X91551000Y-135949000D01*
X91551000Y-138051000D01*
G37*
G36*
X94556564Y-135989389D02*
G01*
X94747833Y-136068615D01*
X94747835Y-136068616D01*
X94919973Y-136183635D01*
X95066365Y-136330027D01*
X95181385Y-136502167D01*
X95260611Y-136693436D01*
X95301000Y-136896484D01*
X95301000Y-137103516D01*
X95260611Y-137306564D01*
X95181385Y-137497833D01*
X95181384Y-137497835D01*
X95066365Y-137669973D01*
X94919973Y-137816365D01*
X94747835Y-137931384D01*
X94747834Y-137931385D01*
X94747833Y-137931385D01*
X94556564Y-138010611D01*
X94353516Y-138051000D01*
X94146484Y-138051000D01*
X93943436Y-138010611D01*
X93752167Y-137931385D01*
X93752166Y-137931385D01*
X93752165Y-137931384D01*
X93580027Y-137816365D01*
X93433635Y-137669973D01*
X93318616Y-137497835D01*
X93318615Y-137497833D01*
X93239389Y-137306564D01*
X93199000Y-137103516D01*
X93199000Y-136896484D01*
X93239389Y-136693436D01*
X93318615Y-136502167D01*
X93433635Y-136330027D01*
X93580027Y-136183635D01*
X93752165Y-136068616D01*
X93752167Y-136068615D01*
X93943436Y-135989389D01*
X94146484Y-135949000D01*
X94353516Y-135949000D01*
X94556564Y-135989389D01*
G37*
G36*
X98306564Y-135989389D02*
G01*
X98497833Y-136068615D01*
X98497835Y-136068616D01*
X98669973Y-136183635D01*
X98816365Y-136330027D01*
X98931385Y-136502167D01*
X99010611Y-136693436D01*
X99051000Y-136896484D01*
X99051000Y-137103516D01*
X99010611Y-137306564D01*
X98931385Y-137497833D01*
X98931384Y-137497835D01*
X98816365Y-137669973D01*
X98669973Y-137816365D01*
X98497835Y-137931384D01*
X98497834Y-137931385D01*
X98497833Y-137931385D01*
X98306564Y-138010611D01*
X98103516Y-138051000D01*
X97896484Y-138051000D01*
X97693436Y-138010611D01*
X97502167Y-137931385D01*
X97502166Y-137931385D01*
X97502165Y-137931384D01*
X97330027Y-137816365D01*
X97183635Y-137669973D01*
X97068616Y-137497835D01*
X97068615Y-137497833D01*
X96989389Y-137306564D01*
X96949000Y-137103516D01*
X96949000Y-136896484D01*
X96989389Y-136693436D01*
X97068615Y-136502167D01*
X97183635Y-136330027D01*
X97330027Y-136183635D01*
X97502165Y-136068616D01*
X97502167Y-136068615D01*
X97693436Y-135989389D01*
X97896484Y-135949000D01*
X98103516Y-135949000D01*
X98306564Y-135989389D01*
G37*
G36*
X113753474Y-130589934D02*
G01*
X113971474Y-130680233D01*
X114125623Y-130744083D01*
X114460548Y-130967873D01*
X114745377Y-131252702D01*
X114969167Y-131587627D01*
X115001562Y-131665836D01*
X115123316Y-131959776D01*
X115201900Y-132354844D01*
X115201900Y-132757656D01*
X115123316Y-133152724D01*
X115072451Y-133275522D01*
X114969167Y-133524873D01*
X114745377Y-133859798D01*
X114460548Y-134144627D01*
X114125623Y-134368417D01*
X113971474Y-134432267D01*
X113753474Y-134522566D01*
X113358406Y-134601150D01*
X112955594Y-134601150D01*
X112560526Y-134522566D01*
X112342526Y-134432267D01*
X112188377Y-134368417D01*
X111853452Y-134144627D01*
X111568623Y-133859798D01*
X111344833Y-133524873D01*
X111241549Y-133275522D01*
X111190684Y-133152724D01*
X111112100Y-132757656D01*
X111112100Y-132354844D01*
X111190684Y-131959776D01*
X111312438Y-131665836D01*
X111344833Y-131587627D01*
X111568623Y-131252702D01*
X111853452Y-130967873D01*
X112188377Y-130744083D01*
X112342526Y-130680233D01*
X112560526Y-130589934D01*
X112955594Y-130511350D01*
X113358406Y-130511350D01*
X113753474Y-130589934D01*
G37*
G36*
X170903474Y-130589934D02*
G01*
X171121474Y-130680233D01*
X171275623Y-130744083D01*
X171610548Y-130967873D01*
X171895377Y-131252702D01*
X172119167Y-131587627D01*
X172151562Y-131665836D01*
X172273316Y-131959776D01*
X172351900Y-132354844D01*
X172351900Y-132757656D01*
X172273316Y-133152724D01*
X172222451Y-133275522D01*
X172119167Y-133524873D01*
X171895377Y-133859798D01*
X171610548Y-134144627D01*
X171275623Y-134368417D01*
X171121474Y-134432267D01*
X170903474Y-134522566D01*
X170508406Y-134601150D01*
X170105594Y-134601150D01*
X169710526Y-134522566D01*
X169492526Y-134432267D01*
X169338377Y-134368417D01*
X169003452Y-134144627D01*
X168718623Y-133859798D01*
X168494833Y-133524873D01*
X168391549Y-133275522D01*
X168340684Y-133152724D01*
X168262100Y-132757656D01*
X168262100Y-132354844D01*
X168340684Y-131959776D01*
X168462438Y-131665836D01*
X168494833Y-131587627D01*
X168718623Y-131252702D01*
X169003452Y-130967873D01*
X169338377Y-130744083D01*
X169492526Y-130680233D01*
X169710526Y-130589934D01*
X170105594Y-130511350D01*
X170508406Y-130511350D01*
X170903474Y-130589934D01*
G37*
G36*
X151853474Y-130589934D02*
G01*
X152071474Y-130680233D01*
X152225623Y-130744083D01*
X152560548Y-130967873D01*
X152845377Y-131252702D01*
X153069167Y-131587627D01*
X153101562Y-131665836D01*
X153223316Y-131959776D01*
X153301900Y-132354844D01*
X153301900Y-132757656D01*
X153223316Y-133152724D01*
X153172451Y-133275522D01*
X153069167Y-133524873D01*
X152845377Y-133859798D01*
X152560548Y-134144627D01*
X152225623Y-134368417D01*
X152071474Y-134432267D01*
X151853474Y-134522566D01*
X151458406Y-134601150D01*
X151055594Y-134601150D01*
X150660526Y-134522566D01*
X150442526Y-134432267D01*
X150288377Y-134368417D01*
X149953452Y-134144627D01*
X149668623Y-133859798D01*
X149444833Y-133524873D01*
X149341549Y-133275522D01*
X149290684Y-133152724D01*
X149212100Y-132757656D01*
X149212100Y-132354844D01*
X149290684Y-131959776D01*
X149412438Y-131665836D01*
X149444833Y-131587627D01*
X149668623Y-131252702D01*
X149953452Y-130967873D01*
X150288377Y-130744083D01*
X150442526Y-130680233D01*
X150660526Y-130589934D01*
X151055594Y-130511350D01*
X151458406Y-130511350D01*
X151853474Y-130589934D01*
G37*
G36*
X132803474Y-130589934D02*
G01*
X133021474Y-130680233D01*
X133175623Y-130744083D01*
X133510548Y-130967873D01*
X133795377Y-131252702D01*
X134019167Y-131587627D01*
X134051562Y-131665836D01*
X134173316Y-131959776D01*
X134251900Y-132354844D01*
X134251900Y-132757656D01*
X134173316Y-133152724D01*
X134122451Y-133275522D01*
X134019167Y-133524873D01*
X133795377Y-133859798D01*
X133510548Y-134144627D01*
X133175623Y-134368417D01*
X133021474Y-134432267D01*
X132803474Y-134522566D01*
X132408406Y-134601150D01*
X132005594Y-134601150D01*
X131610526Y-134522566D01*
X131392526Y-134432267D01*
X131238377Y-134368417D01*
X130903452Y-134144627D01*
X130618623Y-133859798D01*
X130394833Y-133524873D01*
X130291549Y-133275522D01*
X130240684Y-133152724D01*
X130162100Y-132757656D01*
X130162100Y-132354844D01*
X130240684Y-131959776D01*
X130362438Y-131665836D01*
X130394833Y-131587627D01*
X130618623Y-131252702D01*
X130903452Y-130967873D01*
X131238377Y-130744083D01*
X131392526Y-130680233D01*
X131610526Y-130589934D01*
X132005594Y-130511350D01*
X132408406Y-130511350D01*
X132803474Y-130589934D01*
G37*
G36*
X146447104Y-131665835D02*
G01*
X146615626Y-131735639D01*
X146767291Y-131836978D01*
X146896272Y-131965959D01*
X146997611Y-132117624D01*
X147067415Y-132286146D01*
X147103000Y-132465047D01*
X147103000Y-132647453D01*
X147067415Y-132826354D01*
X146997611Y-132994876D01*
X146896272Y-133146541D01*
X146767291Y-133275522D01*
X146615626Y-133376861D01*
X146447104Y-133446665D01*
X146268203Y-133482250D01*
X146085797Y-133482250D01*
X145906896Y-133446665D01*
X145738374Y-133376861D01*
X145586709Y-133275522D01*
X145457728Y-133146541D01*
X145356389Y-132994876D01*
X145286585Y-132826354D01*
X145251000Y-132647453D01*
X145251000Y-132465047D01*
X145286585Y-132286146D01*
X145356389Y-132117624D01*
X145457728Y-131965959D01*
X145586709Y-131836978D01*
X145738374Y-131735639D01*
X145906896Y-131665835D01*
X146085797Y-131630250D01*
X146268203Y-131630250D01*
X146447104Y-131665835D01*
G37*
G36*
X175657104Y-131665835D02*
G01*
X175825626Y-131735639D01*
X175977291Y-131836978D01*
X176106272Y-131965959D01*
X176207611Y-132117624D01*
X176277415Y-132286146D01*
X176313000Y-132465047D01*
X176313000Y-132647453D01*
X176277415Y-132826354D01*
X176207611Y-132994876D01*
X176106272Y-133146541D01*
X175977291Y-133275522D01*
X175825626Y-133376861D01*
X175657104Y-133446665D01*
X175478203Y-133482250D01*
X175295797Y-133482250D01*
X175116896Y-133446665D01*
X174948374Y-133376861D01*
X174796709Y-133275522D01*
X174667728Y-133146541D01*
X174566389Y-132994876D01*
X174496585Y-132826354D01*
X174461000Y-132647453D01*
X174461000Y-132465047D01*
X174496585Y-132286146D01*
X174566389Y-132117624D01*
X174667728Y-131965959D01*
X174796709Y-131836978D01*
X174948374Y-131735639D01*
X175116896Y-131665835D01*
X175295797Y-131630250D01*
X175478203Y-131630250D01*
X175657104Y-131665835D01*
G37*
G36*
X165497104Y-131665835D02*
G01*
X165665626Y-131735639D01*
X165817291Y-131836978D01*
X165946272Y-131965959D01*
X166047611Y-132117624D01*
X166117415Y-132286146D01*
X166153000Y-132465047D01*
X166153000Y-132647453D01*
X166117415Y-132826354D01*
X166047611Y-132994876D01*
X165946272Y-133146541D01*
X165817291Y-133275522D01*
X165665626Y-133376861D01*
X165497104Y-133446665D01*
X165318203Y-133482250D01*
X165135797Y-133482250D01*
X164956896Y-133446665D01*
X164788374Y-133376861D01*
X164636709Y-133275522D01*
X164507728Y-133146541D01*
X164406389Y-132994876D01*
X164336585Y-132826354D01*
X164301000Y-132647453D01*
X164301000Y-132465047D01*
X164336585Y-132286146D01*
X164406389Y-132117624D01*
X164507728Y-131965959D01*
X164636709Y-131836978D01*
X164788374Y-131735639D01*
X164956896Y-131665835D01*
X165135797Y-131630250D01*
X165318203Y-131630250D01*
X165497104Y-131665835D01*
G37*
G36*
X156607104Y-131665835D02*
G01*
X156775626Y-131735639D01*
X156927291Y-131836978D01*
X157056272Y-131965959D01*
X157157611Y-132117624D01*
X157227415Y-132286146D01*
X157263000Y-132465047D01*
X157263000Y-132647453D01*
X157227415Y-132826354D01*
X157157611Y-132994876D01*
X157056272Y-133146541D01*
X156927291Y-133275522D01*
X156775626Y-133376861D01*
X156607104Y-133446665D01*
X156428203Y-133482250D01*
X156245797Y-133482250D01*
X156066896Y-133446665D01*
X155898374Y-133376861D01*
X155746709Y-133275522D01*
X155617728Y-133146541D01*
X155516389Y-132994876D01*
X155446585Y-132826354D01*
X155411000Y-132647453D01*
X155411000Y-132465047D01*
X155446585Y-132286146D01*
X155516389Y-132117624D01*
X155617728Y-131965959D01*
X155746709Y-131836978D01*
X155898374Y-131735639D01*
X156066896Y-131665835D01*
X156245797Y-131630250D01*
X156428203Y-131630250D01*
X156607104Y-131665835D01*
G37*
G36*
X118507104Y-131665835D02*
G01*
X118675626Y-131735639D01*
X118827291Y-131836978D01*
X118956272Y-131965959D01*
X119057611Y-132117624D01*
X119127415Y-132286146D01*
X119163000Y-132465047D01*
X119163000Y-132647453D01*
X119127415Y-132826354D01*
X119057611Y-132994876D01*
X118956272Y-133146541D01*
X118827291Y-133275522D01*
X118675626Y-133376861D01*
X118507104Y-133446665D01*
X118328203Y-133482250D01*
X118145797Y-133482250D01*
X117966896Y-133446665D01*
X117798374Y-133376861D01*
X117646709Y-133275522D01*
X117517728Y-133146541D01*
X117416389Y-132994876D01*
X117346585Y-132826354D01*
X117311000Y-132647453D01*
X117311000Y-132465047D01*
X117346585Y-132286146D01*
X117416389Y-132117624D01*
X117517728Y-131965959D01*
X117646709Y-131836978D01*
X117798374Y-131735639D01*
X117966896Y-131665835D01*
X118145797Y-131630250D01*
X118328203Y-131630250D01*
X118507104Y-131665835D01*
G37*
G36*
X108347104Y-131665835D02*
G01*
X108515626Y-131735639D01*
X108667291Y-131836978D01*
X108796272Y-131965959D01*
X108897611Y-132117624D01*
X108967415Y-132286146D01*
X109003000Y-132465047D01*
X109003000Y-132647453D01*
X108967415Y-132826354D01*
X108897611Y-132994876D01*
X108796272Y-133146541D01*
X108667291Y-133275522D01*
X108515626Y-133376861D01*
X108347104Y-133446665D01*
X108168203Y-133482250D01*
X107985797Y-133482250D01*
X107806896Y-133446665D01*
X107638374Y-133376861D01*
X107486709Y-133275522D01*
X107357728Y-133146541D01*
X107256389Y-132994876D01*
X107186585Y-132826354D01*
X107151000Y-132647453D01*
X107151000Y-132465047D01*
X107186585Y-132286146D01*
X107256389Y-132117624D01*
X107357728Y-131965959D01*
X107486709Y-131836978D01*
X107638374Y-131735639D01*
X107806896Y-131665835D01*
X107985797Y-131630250D01*
X108168203Y-131630250D01*
X108347104Y-131665835D01*
G37*
G36*
X137557104Y-131665835D02*
G01*
X137725626Y-131735639D01*
X137877291Y-131836978D01*
X138006272Y-131965959D01*
X138107611Y-132117624D01*
X138177415Y-132286146D01*
X138213000Y-132465047D01*
X138213000Y-132647453D01*
X138177415Y-132826354D01*
X138107611Y-132994876D01*
X138006272Y-133146541D01*
X137877291Y-133275522D01*
X137725626Y-133376861D01*
X137557104Y-133446665D01*
X137378203Y-133482250D01*
X137195797Y-133482250D01*
X137016896Y-133446665D01*
X136848374Y-133376861D01*
X136696709Y-133275522D01*
X136567728Y-133146541D01*
X136466389Y-132994876D01*
X136396585Y-132826354D01*
X136361000Y-132647453D01*
X136361000Y-132465047D01*
X136396585Y-132286146D01*
X136466389Y-132117624D01*
X136567728Y-131965959D01*
X136696709Y-131836978D01*
X136848374Y-131735639D01*
X137016896Y-131665835D01*
X137195797Y-131630250D01*
X137378203Y-131630250D01*
X137557104Y-131665835D01*
G37*
G36*
X127397104Y-131665835D02*
G01*
X127565626Y-131735639D01*
X127717291Y-131836978D01*
X127846272Y-131965959D01*
X127947611Y-132117624D01*
X128017415Y-132286146D01*
X128053000Y-132465047D01*
X128053000Y-132647453D01*
X128017415Y-132826354D01*
X127947611Y-132994876D01*
X127846272Y-133146541D01*
X127717291Y-133275522D01*
X127565626Y-133376861D01*
X127397104Y-133446665D01*
X127218203Y-133482250D01*
X127035797Y-133482250D01*
X126856896Y-133446665D01*
X126688374Y-133376861D01*
X126536709Y-133275522D01*
X126407728Y-133146541D01*
X126306389Y-132994876D01*
X126236585Y-132826354D01*
X126201000Y-132647453D01*
X126201000Y-132465047D01*
X126236585Y-132286146D01*
X126306389Y-132117624D01*
X126407728Y-131965959D01*
X126536709Y-131836978D01*
X126688374Y-131735639D01*
X126856896Y-131665835D01*
X127035797Y-131630250D01*
X127218203Y-131630250D01*
X127397104Y-131665835D01*
G37*
G36*
X147638560Y-128855314D02*
G01*
X147790027Y-128885443D01*
X148004045Y-128974092D01*
X148004046Y-128974093D01*
X148196654Y-129102789D01*
X148360461Y-129266596D01*
X148446258Y-129395001D01*
X148489158Y-129459205D01*
X148577807Y-129673223D01*
X148623000Y-129900424D01*
X148623000Y-130132076D01*
X148577807Y-130359277D01*
X148489158Y-130573295D01*
X148446258Y-130637499D01*
X148360461Y-130765904D01*
X148196654Y-130929711D01*
X148139540Y-130967873D01*
X148004045Y-131058408D01*
X147790027Y-131147057D01*
X147638560Y-131177186D01*
X147562827Y-131192250D01*
X147331173Y-131192250D01*
X147255440Y-131177186D01*
X147103973Y-131147057D01*
X146889955Y-131058408D01*
X146754460Y-130967873D01*
X146697346Y-130929711D01*
X146533539Y-130765904D01*
X146447742Y-130637499D01*
X146404842Y-130573295D01*
X146316193Y-130359277D01*
X146271000Y-130132076D01*
X146271000Y-129900424D01*
X146316193Y-129673223D01*
X146404842Y-129459205D01*
X146447742Y-129395001D01*
X146533539Y-129266596D01*
X146697346Y-129102789D01*
X146889954Y-128974093D01*
X146889955Y-128974092D01*
X147103973Y-128885443D01*
X147255440Y-128855314D01*
X147331173Y-128840250D01*
X147562827Y-128840250D01*
X147638560Y-128855314D01*
G37*
G36*
X109538560Y-128855314D02*
G01*
X109690027Y-128885443D01*
X109904045Y-128974092D01*
X109904046Y-128974093D01*
X110096654Y-129102789D01*
X110260461Y-129266596D01*
X110346258Y-129395001D01*
X110389158Y-129459205D01*
X110477807Y-129673223D01*
X110523000Y-129900424D01*
X110523000Y-130132076D01*
X110477807Y-130359277D01*
X110389158Y-130573295D01*
X110346258Y-130637499D01*
X110260461Y-130765904D01*
X110096654Y-130929711D01*
X110039540Y-130967873D01*
X109904045Y-131058408D01*
X109690027Y-131147057D01*
X109538560Y-131177186D01*
X109462827Y-131192250D01*
X109231173Y-131192250D01*
X109155440Y-131177186D01*
X109003973Y-131147057D01*
X108789955Y-131058408D01*
X108654460Y-130967873D01*
X108597346Y-130929711D01*
X108433539Y-130765904D01*
X108347742Y-130637499D01*
X108304842Y-130573295D01*
X108216193Y-130359277D01*
X108171000Y-130132076D01*
X108171000Y-129900424D01*
X108216193Y-129673223D01*
X108304842Y-129459205D01*
X108347742Y-129395001D01*
X108433539Y-129266596D01*
X108597346Y-129102789D01*
X108789954Y-128974093D01*
X108789955Y-128974092D01*
X109003973Y-128885443D01*
X109155440Y-128855314D01*
X109231173Y-128840250D01*
X109462827Y-128840250D01*
X109538560Y-128855314D01*
G37*
G36*
X128588560Y-128855314D02*
G01*
X128740027Y-128885443D01*
X128954045Y-128974092D01*
X128954046Y-128974093D01*
X129146654Y-129102789D01*
X129310461Y-129266596D01*
X129396258Y-129395001D01*
X129439158Y-129459205D01*
X129527807Y-129673223D01*
X129573000Y-129900424D01*
X129573000Y-130132076D01*
X129527807Y-130359277D01*
X129439158Y-130573295D01*
X129396258Y-130637499D01*
X129310461Y-130765904D01*
X129146654Y-130929711D01*
X129089540Y-130967873D01*
X128954045Y-131058408D01*
X128740027Y-131147057D01*
X128588560Y-131177186D01*
X128512827Y-131192250D01*
X128281173Y-131192250D01*
X128205440Y-131177186D01*
X128053973Y-131147057D01*
X127839955Y-131058408D01*
X127704460Y-130967873D01*
X127647346Y-130929711D01*
X127483539Y-130765904D01*
X127397742Y-130637499D01*
X127354842Y-130573295D01*
X127266193Y-130359277D01*
X127221000Y-130132076D01*
X127221000Y-129900424D01*
X127266193Y-129673223D01*
X127354842Y-129459205D01*
X127397742Y-129395001D01*
X127483539Y-129266596D01*
X127647346Y-129102789D01*
X127839954Y-128974093D01*
X127839955Y-128974092D01*
X128053973Y-128885443D01*
X128205440Y-128855314D01*
X128281173Y-128840250D01*
X128512827Y-128840250D01*
X128588560Y-128855314D01*
G37*
G36*
X166688560Y-128855314D02*
G01*
X166840027Y-128885443D01*
X167054045Y-128974092D01*
X167054046Y-128974093D01*
X167246654Y-129102789D01*
X167410461Y-129266596D01*
X167496258Y-129395001D01*
X167539158Y-129459205D01*
X167627807Y-129673223D01*
X167673000Y-129900424D01*
X167673000Y-130132076D01*
X167627807Y-130359277D01*
X167539158Y-130573295D01*
X167496258Y-130637499D01*
X167410461Y-130765904D01*
X167246654Y-130929711D01*
X167189540Y-130967873D01*
X167054045Y-131058408D01*
X166840027Y-131147057D01*
X166688560Y-131177186D01*
X166612827Y-131192250D01*
X166381173Y-131192250D01*
X166305440Y-131177186D01*
X166153973Y-131147057D01*
X165939955Y-131058408D01*
X165804460Y-130967873D01*
X165747346Y-130929711D01*
X165583539Y-130765904D01*
X165497742Y-130637499D01*
X165454842Y-130573295D01*
X165366193Y-130359277D01*
X165321000Y-130132076D01*
X165321000Y-129900424D01*
X165366193Y-129673223D01*
X165454842Y-129459205D01*
X165497742Y-129395001D01*
X165583539Y-129266596D01*
X165747346Y-129102789D01*
X165939954Y-128974093D01*
X165939955Y-128974092D01*
X166153973Y-128885443D01*
X166305440Y-128855314D01*
X166381173Y-128840250D01*
X166612827Y-128840250D01*
X166688560Y-128855314D01*
G37*
G36*
X100901000Y-130626000D02*
G01*
X97999000Y-130626000D01*
X97999000Y-126724000D01*
X100901000Y-126724000D01*
X100901000Y-130626000D01*
G37*
G36*
X90501000Y-130626000D02*
G01*
X87599000Y-130626000D01*
X87599000Y-126724000D01*
X90501000Y-126724000D01*
X90501000Y-130626000D01*
G37*
G36*
X153988560Y-126315314D02*
G01*
X154140027Y-126345443D01*
X154354045Y-126434092D01*
X154354046Y-126434093D01*
X154546654Y-126562789D01*
X154710461Y-126726596D01*
X154796258Y-126855001D01*
X154839158Y-126919205D01*
X154927807Y-127133223D01*
X154973000Y-127360424D01*
X154973000Y-127592076D01*
X154927807Y-127819277D01*
X154839158Y-128033295D01*
X154839157Y-128033296D01*
X154710461Y-128225904D01*
X154546654Y-128389711D01*
X154418249Y-128475508D01*
X154354045Y-128518408D01*
X154140027Y-128607057D01*
X153988560Y-128637186D01*
X153912827Y-128652250D01*
X153681173Y-128652250D01*
X153605440Y-128637186D01*
X153453973Y-128607057D01*
X153239955Y-128518408D01*
X153175751Y-128475508D01*
X153047346Y-128389711D01*
X152883539Y-128225904D01*
X152754843Y-128033296D01*
X152754842Y-128033295D01*
X152666193Y-127819277D01*
X152621000Y-127592076D01*
X152621000Y-127360424D01*
X152666193Y-127133223D01*
X152754842Y-126919205D01*
X152797742Y-126855001D01*
X152883539Y-126726596D01*
X153047346Y-126562789D01*
X153239954Y-126434093D01*
X153239955Y-126434092D01*
X153453973Y-126345443D01*
X153605440Y-126315314D01*
X153681173Y-126300250D01*
X153912827Y-126300250D01*
X153988560Y-126315314D01*
G37*
G36*
X173038560Y-126315314D02*
G01*
X173190027Y-126345443D01*
X173404045Y-126434092D01*
X173404046Y-126434093D01*
X173596654Y-126562789D01*
X173760461Y-126726596D01*
X173846258Y-126855001D01*
X173889158Y-126919205D01*
X173977807Y-127133223D01*
X174023000Y-127360424D01*
X174023000Y-127592076D01*
X173977807Y-127819277D01*
X173889158Y-128033295D01*
X173889157Y-128033296D01*
X173760461Y-128225904D01*
X173596654Y-128389711D01*
X173468249Y-128475508D01*
X173404045Y-128518408D01*
X173190027Y-128607057D01*
X173038560Y-128637186D01*
X172962827Y-128652250D01*
X172731173Y-128652250D01*
X172655440Y-128637186D01*
X172503973Y-128607057D01*
X172289955Y-128518408D01*
X172225751Y-128475508D01*
X172097346Y-128389711D01*
X171933539Y-128225904D01*
X171804843Y-128033296D01*
X171804842Y-128033295D01*
X171716193Y-127819277D01*
X171671000Y-127592076D01*
X171671000Y-127360424D01*
X171716193Y-127133223D01*
X171804842Y-126919205D01*
X171847742Y-126855001D01*
X171933539Y-126726596D01*
X172097346Y-126562789D01*
X172289954Y-126434093D01*
X172289955Y-126434092D01*
X172503973Y-126345443D01*
X172655440Y-126315314D01*
X172731173Y-126300250D01*
X172962827Y-126300250D01*
X173038560Y-126315314D01*
G37*
G36*
X115888560Y-126315314D02*
G01*
X116040027Y-126345443D01*
X116254045Y-126434092D01*
X116254046Y-126434093D01*
X116446654Y-126562789D01*
X116610461Y-126726596D01*
X116696258Y-126855001D01*
X116739158Y-126919205D01*
X116827807Y-127133223D01*
X116873000Y-127360424D01*
X116873000Y-127592076D01*
X116827807Y-127819277D01*
X116739158Y-128033295D01*
X116739157Y-128033296D01*
X116610461Y-128225904D01*
X116446654Y-128389711D01*
X116318249Y-128475508D01*
X116254045Y-128518408D01*
X116040027Y-128607057D01*
X115888560Y-128637186D01*
X115812827Y-128652250D01*
X115581173Y-128652250D01*
X115505440Y-128637186D01*
X115353973Y-128607057D01*
X115139955Y-128518408D01*
X115075751Y-128475508D01*
X114947346Y-128389711D01*
X114783539Y-128225904D01*
X114654843Y-128033296D01*
X114654842Y-128033295D01*
X114566193Y-127819277D01*
X114521000Y-127592076D01*
X114521000Y-127360424D01*
X114566193Y-127133223D01*
X114654842Y-126919205D01*
X114697742Y-126855001D01*
X114783539Y-126726596D01*
X114947346Y-126562789D01*
X115139954Y-126434093D01*
X115139955Y-126434092D01*
X115353973Y-126345443D01*
X115505440Y-126315314D01*
X115581173Y-126300250D01*
X115812827Y-126300250D01*
X115888560Y-126315314D01*
G37*
G36*
X134938560Y-126315314D02*
G01*
X135090027Y-126345443D01*
X135304045Y-126434092D01*
X135304046Y-126434093D01*
X135496654Y-126562789D01*
X135660461Y-126726596D01*
X135746258Y-126855001D01*
X135789158Y-126919205D01*
X135877807Y-127133223D01*
X135923000Y-127360424D01*
X135923000Y-127592076D01*
X135877807Y-127819277D01*
X135789158Y-128033295D01*
X135789157Y-128033296D01*
X135660461Y-128225904D01*
X135496654Y-128389711D01*
X135368249Y-128475508D01*
X135304045Y-128518408D01*
X135090027Y-128607057D01*
X134938560Y-128637186D01*
X134862827Y-128652250D01*
X134631173Y-128652250D01*
X134555440Y-128637186D01*
X134403973Y-128607057D01*
X134189955Y-128518408D01*
X134125751Y-128475508D01*
X133997346Y-128389711D01*
X133833539Y-128225904D01*
X133704843Y-128033296D01*
X133704842Y-128033295D01*
X133616193Y-127819277D01*
X133571000Y-127592076D01*
X133571000Y-127360424D01*
X133616193Y-127133223D01*
X133704842Y-126919205D01*
X133747742Y-126855001D01*
X133833539Y-126726596D01*
X133997346Y-126562789D01*
X134189954Y-126434093D01*
X134189955Y-126434092D01*
X134403973Y-126345443D01*
X134555440Y-126315314D01*
X134631173Y-126300250D01*
X134862827Y-126300250D01*
X134938560Y-126315314D01*
G37*
G36*
X91551000Y-120301000D02*
G01*
X89449000Y-120301000D01*
X89449000Y-118199000D01*
X91551000Y-118199000D01*
X91551000Y-120301000D01*
G37*
G36*
X98306564Y-118239389D02*
G01*
X98497833Y-118318615D01*
X98497835Y-118318616D01*
X98669973Y-118433635D01*
X98816365Y-118580027D01*
X98931385Y-118752167D01*
X99010611Y-118943436D01*
X99051000Y-119146484D01*
X99051000Y-119353516D01*
X99010611Y-119556564D01*
X98931385Y-119747833D01*
X98931384Y-119747835D01*
X98816365Y-119919973D01*
X98669973Y-120066365D01*
X98497835Y-120181384D01*
X98497834Y-120181385D01*
X98497833Y-120181385D01*
X98306564Y-120260611D01*
X98103516Y-120301000D01*
X97896484Y-120301000D01*
X97693436Y-120260611D01*
X97502167Y-120181385D01*
X97502166Y-120181385D01*
X97502165Y-120181384D01*
X97330027Y-120066365D01*
X97183635Y-119919973D01*
X97068616Y-119747835D01*
X97068615Y-119747833D01*
X96989389Y-119556564D01*
X96949000Y-119353516D01*
X96949000Y-119146484D01*
X96989389Y-118943436D01*
X97068615Y-118752167D01*
X97183635Y-118580027D01*
X97330027Y-118433635D01*
X97502165Y-118318616D01*
X97502167Y-118318615D01*
X97693436Y-118239389D01*
X97896484Y-118199000D01*
X98103516Y-118199000D01*
X98306564Y-118239389D01*
G37*
G36*
X94556564Y-118239389D02*
G01*
X94747833Y-118318615D01*
X94747835Y-118318616D01*
X94919973Y-118433635D01*
X95066365Y-118580027D01*
X95181385Y-118752167D01*
X95260611Y-118943436D01*
X95301000Y-119146484D01*
X95301000Y-119353516D01*
X95260611Y-119556564D01*
X95181385Y-119747833D01*
X95181384Y-119747835D01*
X95066365Y-119919973D01*
X94919973Y-120066365D01*
X94747835Y-120181384D01*
X94747834Y-120181385D01*
X94747833Y-120181385D01*
X94556564Y-120260611D01*
X94353516Y-120301000D01*
X94146484Y-120301000D01*
X93943436Y-120260611D01*
X93752167Y-120181385D01*
X93752166Y-120181385D01*
X93752165Y-120181384D01*
X93580027Y-120066365D01*
X93433635Y-119919973D01*
X93318616Y-119747835D01*
X93318615Y-119747833D01*
X93239389Y-119556564D01*
X93199000Y-119353516D01*
X93199000Y-119146484D01*
X93239389Y-118943436D01*
X93318615Y-118752167D01*
X93433635Y-118580027D01*
X93580027Y-118433635D01*
X93752165Y-118318616D01*
X93752167Y-118318615D01*
X93943436Y-118239389D01*
X94146484Y-118199000D01*
X94353516Y-118199000D01*
X94556564Y-118239389D01*
G37*
G36*
X112013425Y-117588238D02*
G01*
X112179710Y-117621313D01*
X112362336Y-117696959D01*
X112526694Y-117806780D01*
X112666470Y-117946556D01*
X112776291Y-118110914D01*
X112851937Y-118293540D01*
X112890500Y-118487414D01*
X112890500Y-118685086D01*
X112851937Y-118878960D01*
X112776291Y-119061586D01*
X112666470Y-119225944D01*
X112526694Y-119365720D01*
X112362336Y-119475541D01*
X112179710Y-119551187D01*
X112013425Y-119584262D01*
X111985837Y-119589750D01*
X111788163Y-119589750D01*
X111760575Y-119584262D01*
X111594290Y-119551187D01*
X111411664Y-119475541D01*
X111247306Y-119365720D01*
X111107530Y-119225944D01*
X110997709Y-119061586D01*
X110922063Y-118878960D01*
X110883500Y-118685086D01*
X110883500Y-118487414D01*
X110922063Y-118293540D01*
X110997709Y-118110914D01*
X111107530Y-117946556D01*
X111247306Y-117806780D01*
X111411664Y-117696959D01*
X111594290Y-117621313D01*
X111760575Y-117588238D01*
X111788163Y-117582750D01*
X111985837Y-117582750D01*
X112013425Y-117588238D01*
G37*
G36*
X131063425Y-117588238D02*
G01*
X131229710Y-117621313D01*
X131412336Y-117696959D01*
X131576694Y-117806780D01*
X131716470Y-117946556D01*
X131826291Y-118110914D01*
X131901937Y-118293540D01*
X131940500Y-118487414D01*
X131940500Y-118685086D01*
X131901937Y-118878960D01*
X131826291Y-119061586D01*
X131716470Y-119225944D01*
X131576694Y-119365720D01*
X131412336Y-119475541D01*
X131229710Y-119551187D01*
X131063425Y-119584262D01*
X131035837Y-119589750D01*
X130838163Y-119589750D01*
X130810575Y-119584262D01*
X130644290Y-119551187D01*
X130461664Y-119475541D01*
X130297306Y-119365720D01*
X130157530Y-119225944D01*
X130047709Y-119061586D01*
X129972063Y-118878960D01*
X129933500Y-118685086D01*
X129933500Y-118487414D01*
X129972063Y-118293540D01*
X130047709Y-118110914D01*
X130157530Y-117946556D01*
X130297306Y-117806780D01*
X130461664Y-117696959D01*
X130644290Y-117621313D01*
X130810575Y-117588238D01*
X130838163Y-117582750D01*
X131035837Y-117582750D01*
X131063425Y-117588238D01*
G37*
G36*
X172580500Y-119589750D02*
G01*
X170573500Y-119589750D01*
X170573500Y-117582750D01*
X172580500Y-117582750D01*
X172580500Y-119589750D01*
G37*
G36*
X169163425Y-117588238D02*
G01*
X169329710Y-117621313D01*
X169512336Y-117696959D01*
X169676694Y-117806780D01*
X169816470Y-117946556D01*
X169926291Y-118110914D01*
X170001937Y-118293540D01*
X170040500Y-118487414D01*
X170040500Y-118685086D01*
X170001937Y-118878960D01*
X169926291Y-119061586D01*
X169816470Y-119225944D01*
X169676694Y-119365720D01*
X169512336Y-119475541D01*
X169329710Y-119551187D01*
X169163425Y-119584262D01*
X169135837Y-119589750D01*
X168938163Y-119589750D01*
X168910575Y-119584262D01*
X168744290Y-119551187D01*
X168561664Y-119475541D01*
X168397306Y-119365720D01*
X168257530Y-119225944D01*
X168147709Y-119061586D01*
X168072063Y-118878960D01*
X168033500Y-118685086D01*
X168033500Y-118487414D01*
X168072063Y-118293540D01*
X168147709Y-118110914D01*
X168257530Y-117946556D01*
X168397306Y-117806780D01*
X168561664Y-117696959D01*
X168744290Y-117621313D01*
X168910575Y-117588238D01*
X168938163Y-117582750D01*
X169135837Y-117582750D01*
X169163425Y-117588238D01*
G37*
G36*
X150113425Y-117588238D02*
G01*
X150279710Y-117621313D01*
X150462336Y-117696959D01*
X150626694Y-117806780D01*
X150766470Y-117946556D01*
X150876291Y-118110914D01*
X150951937Y-118293540D01*
X150990500Y-118487414D01*
X150990500Y-118685086D01*
X150951937Y-118878960D01*
X150876291Y-119061586D01*
X150766470Y-119225944D01*
X150626694Y-119365720D01*
X150462336Y-119475541D01*
X150279710Y-119551187D01*
X150113425Y-119584262D01*
X150085837Y-119589750D01*
X149888163Y-119589750D01*
X149860575Y-119584262D01*
X149694290Y-119551187D01*
X149511664Y-119475541D01*
X149347306Y-119365720D01*
X149207530Y-119225944D01*
X149097709Y-119061586D01*
X149022063Y-118878960D01*
X148983500Y-118685086D01*
X148983500Y-118487414D01*
X149022063Y-118293540D01*
X149097709Y-118110914D01*
X149207530Y-117946556D01*
X149347306Y-117806780D01*
X149511664Y-117696959D01*
X149694290Y-117621313D01*
X149860575Y-117588238D01*
X149888163Y-117582750D01*
X150085837Y-117582750D01*
X150113425Y-117588238D01*
G37*
G36*
X134480500Y-119589750D02*
G01*
X132473500Y-119589750D01*
X132473500Y-117582750D01*
X134480500Y-117582750D01*
X134480500Y-119589750D01*
G37*
G36*
X153530500Y-119589750D02*
G01*
X151523500Y-119589750D01*
X151523500Y-117582750D01*
X153530500Y-117582750D01*
X153530500Y-119589750D01*
G37*
G36*
X115430500Y-119589750D02*
G01*
X113423500Y-119589750D01*
X113423500Y-117582750D01*
X115430500Y-117582750D01*
X115430500Y-119589750D01*
G37*
G36*
X170903474Y-111539934D02*
G01*
X171121474Y-111630233D01*
X171275623Y-111694083D01*
X171610548Y-111917873D01*
X171895377Y-112202702D01*
X172119167Y-112537627D01*
X172151562Y-112615836D01*
X172273316Y-112909776D01*
X172351900Y-113304844D01*
X172351900Y-113707656D01*
X172273316Y-114102724D01*
X172222451Y-114225522D01*
X172119167Y-114474873D01*
X171895377Y-114809798D01*
X171610548Y-115094627D01*
X171275623Y-115318417D01*
X171121474Y-115382267D01*
X170903474Y-115472566D01*
X170508406Y-115551150D01*
X170105594Y-115551150D01*
X169710526Y-115472566D01*
X169492526Y-115382267D01*
X169338377Y-115318417D01*
X169003452Y-115094627D01*
X168718623Y-114809798D01*
X168494833Y-114474873D01*
X168391549Y-114225522D01*
X168340684Y-114102724D01*
X168262100Y-113707656D01*
X168262100Y-113304844D01*
X168340684Y-112909776D01*
X168462438Y-112615836D01*
X168494833Y-112537627D01*
X168718623Y-112202702D01*
X169003452Y-111917873D01*
X169338377Y-111694083D01*
X169492526Y-111630233D01*
X169710526Y-111539934D01*
X170105594Y-111461350D01*
X170508406Y-111461350D01*
X170903474Y-111539934D01*
G37*
G36*
X151853474Y-111539934D02*
G01*
X152071474Y-111630233D01*
X152225623Y-111694083D01*
X152560548Y-111917873D01*
X152845377Y-112202702D01*
X153069167Y-112537627D01*
X153101562Y-112615836D01*
X153223316Y-112909776D01*
X153301900Y-113304844D01*
X153301900Y-113707656D01*
X153223316Y-114102724D01*
X153172451Y-114225522D01*
X153069167Y-114474873D01*
X152845377Y-114809798D01*
X152560548Y-115094627D01*
X152225623Y-115318417D01*
X152071474Y-115382267D01*
X151853474Y-115472566D01*
X151458406Y-115551150D01*
X151055594Y-115551150D01*
X150660526Y-115472566D01*
X150442526Y-115382267D01*
X150288377Y-115318417D01*
X149953452Y-115094627D01*
X149668623Y-114809798D01*
X149444833Y-114474873D01*
X149341549Y-114225522D01*
X149290684Y-114102724D01*
X149212100Y-113707656D01*
X149212100Y-113304844D01*
X149290684Y-112909776D01*
X149412438Y-112615836D01*
X149444833Y-112537627D01*
X149668623Y-112202702D01*
X149953452Y-111917873D01*
X150288377Y-111694083D01*
X150442526Y-111630233D01*
X150660526Y-111539934D01*
X151055594Y-111461350D01*
X151458406Y-111461350D01*
X151853474Y-111539934D01*
G37*
G36*
X113753474Y-111539934D02*
G01*
X113971474Y-111630233D01*
X114125623Y-111694083D01*
X114460548Y-111917873D01*
X114745377Y-112202702D01*
X114969167Y-112537627D01*
X115001562Y-112615836D01*
X115123316Y-112909776D01*
X115201900Y-113304844D01*
X115201900Y-113707656D01*
X115123316Y-114102724D01*
X115072451Y-114225522D01*
X114969167Y-114474873D01*
X114745377Y-114809798D01*
X114460548Y-115094627D01*
X114125623Y-115318417D01*
X113971474Y-115382267D01*
X113753474Y-115472566D01*
X113358406Y-115551150D01*
X112955594Y-115551150D01*
X112560526Y-115472566D01*
X112342526Y-115382267D01*
X112188377Y-115318417D01*
X111853452Y-115094627D01*
X111568623Y-114809798D01*
X111344833Y-114474873D01*
X111241549Y-114225522D01*
X111190684Y-114102724D01*
X111112100Y-113707656D01*
X111112100Y-113304844D01*
X111190684Y-112909776D01*
X111312438Y-112615836D01*
X111344833Y-112537627D01*
X111568623Y-112202702D01*
X111853452Y-111917873D01*
X112188377Y-111694083D01*
X112342526Y-111630233D01*
X112560526Y-111539934D01*
X112955594Y-111461350D01*
X113358406Y-111461350D01*
X113753474Y-111539934D01*
G37*
G36*
X132803474Y-111539934D02*
G01*
X133021474Y-111630233D01*
X133175623Y-111694083D01*
X133510548Y-111917873D01*
X133795377Y-112202702D01*
X134019167Y-112537627D01*
X134051562Y-112615836D01*
X134173316Y-112909776D01*
X134251900Y-113304844D01*
X134251900Y-113707656D01*
X134173316Y-114102724D01*
X134122451Y-114225522D01*
X134019167Y-114474873D01*
X133795377Y-114809798D01*
X133510548Y-115094627D01*
X133175623Y-115318417D01*
X133021474Y-115382267D01*
X132803474Y-115472566D01*
X132408406Y-115551150D01*
X132005594Y-115551150D01*
X131610526Y-115472566D01*
X131392526Y-115382267D01*
X131238377Y-115318417D01*
X130903452Y-115094627D01*
X130618623Y-114809798D01*
X130394833Y-114474873D01*
X130291549Y-114225522D01*
X130240684Y-114102724D01*
X130162100Y-113707656D01*
X130162100Y-113304844D01*
X130240684Y-112909776D01*
X130362438Y-112615836D01*
X130394833Y-112537627D01*
X130618623Y-112202702D01*
X130903452Y-111917873D01*
X131238377Y-111694083D01*
X131392526Y-111630233D01*
X131610526Y-111539934D01*
X132005594Y-111461350D01*
X132408406Y-111461350D01*
X132803474Y-111539934D01*
G37*
G36*
X127397104Y-112615835D02*
G01*
X127565626Y-112685639D01*
X127717291Y-112786978D01*
X127846272Y-112915959D01*
X127947611Y-113067624D01*
X128017415Y-113236146D01*
X128053000Y-113415047D01*
X128053000Y-113597453D01*
X128017415Y-113776354D01*
X127947611Y-113944876D01*
X127846272Y-114096541D01*
X127717291Y-114225522D01*
X127565626Y-114326861D01*
X127397104Y-114396665D01*
X127218203Y-114432250D01*
X127035797Y-114432250D01*
X126856896Y-114396665D01*
X126688374Y-114326861D01*
X126536709Y-114225522D01*
X126407728Y-114096541D01*
X126306389Y-113944876D01*
X126236585Y-113776354D01*
X126201000Y-113597453D01*
X126201000Y-113415047D01*
X126236585Y-113236146D01*
X126306389Y-113067624D01*
X126407728Y-112915959D01*
X126536709Y-112786978D01*
X126688374Y-112685639D01*
X126856896Y-112615835D01*
X127035797Y-112580250D01*
X127218203Y-112580250D01*
X127397104Y-112615835D01*
G37*
G36*
X137557104Y-112615835D02*
G01*
X137725626Y-112685639D01*
X137877291Y-112786978D01*
X138006272Y-112915959D01*
X138107611Y-113067624D01*
X138177415Y-113236146D01*
X138213000Y-113415047D01*
X138213000Y-113597453D01*
X138177415Y-113776354D01*
X138107611Y-113944876D01*
X138006272Y-114096541D01*
X137877291Y-114225522D01*
X137725626Y-114326861D01*
X137557104Y-114396665D01*
X137378203Y-114432250D01*
X137195797Y-114432250D01*
X137016896Y-114396665D01*
X136848374Y-114326861D01*
X136696709Y-114225522D01*
X136567728Y-114096541D01*
X136466389Y-113944876D01*
X136396585Y-113776354D01*
X136361000Y-113597453D01*
X136361000Y-113415047D01*
X136396585Y-113236146D01*
X136466389Y-113067624D01*
X136567728Y-112915959D01*
X136696709Y-112786978D01*
X136848374Y-112685639D01*
X137016896Y-112615835D01*
X137195797Y-112580250D01*
X137378203Y-112580250D01*
X137557104Y-112615835D01*
G37*
G36*
X156607104Y-112615835D02*
G01*
X156775626Y-112685639D01*
X156927291Y-112786978D01*
X157056272Y-112915959D01*
X157157611Y-113067624D01*
X157227415Y-113236146D01*
X157263000Y-113415047D01*
X157263000Y-113597453D01*
X157227415Y-113776354D01*
X157157611Y-113944876D01*
X157056272Y-114096541D01*
X156927291Y-114225522D01*
X156775626Y-114326861D01*
X156607104Y-114396665D01*
X156428203Y-114432250D01*
X156245797Y-114432250D01*
X156066896Y-114396665D01*
X155898374Y-114326861D01*
X155746709Y-114225522D01*
X155617728Y-114096541D01*
X155516389Y-113944876D01*
X155446585Y-113776354D01*
X155411000Y-113597453D01*
X155411000Y-113415047D01*
X155446585Y-113236146D01*
X155516389Y-113067624D01*
X155617728Y-112915959D01*
X155746709Y-112786978D01*
X155898374Y-112685639D01*
X156066896Y-112615835D01*
X156245797Y-112580250D01*
X156428203Y-112580250D01*
X156607104Y-112615835D01*
G37*
G36*
X146447104Y-112615835D02*
G01*
X146615626Y-112685639D01*
X146767291Y-112786978D01*
X146896272Y-112915959D01*
X146997611Y-113067624D01*
X147067415Y-113236146D01*
X147103000Y-113415047D01*
X147103000Y-113597453D01*
X147067415Y-113776354D01*
X146997611Y-113944876D01*
X146896272Y-114096541D01*
X146767291Y-114225522D01*
X146615626Y-114326861D01*
X146447104Y-114396665D01*
X146268203Y-114432250D01*
X146085797Y-114432250D01*
X145906896Y-114396665D01*
X145738374Y-114326861D01*
X145586709Y-114225522D01*
X145457728Y-114096541D01*
X145356389Y-113944876D01*
X145286585Y-113776354D01*
X145251000Y-113597453D01*
X145251000Y-113415047D01*
X145286585Y-113236146D01*
X145356389Y-113067624D01*
X145457728Y-112915959D01*
X145586709Y-112786978D01*
X145738374Y-112685639D01*
X145906896Y-112615835D01*
X146085797Y-112580250D01*
X146268203Y-112580250D01*
X146447104Y-112615835D01*
G37*
G36*
X108347104Y-112615835D02*
G01*
X108515626Y-112685639D01*
X108667291Y-112786978D01*
X108796272Y-112915959D01*
X108897611Y-113067624D01*
X108967415Y-113236146D01*
X109003000Y-113415047D01*
X109003000Y-113597453D01*
X108967415Y-113776354D01*
X108897611Y-113944876D01*
X108796272Y-114096541D01*
X108667291Y-114225522D01*
X108515626Y-114326861D01*
X108347104Y-114396665D01*
X108168203Y-114432250D01*
X107985797Y-114432250D01*
X107806896Y-114396665D01*
X107638374Y-114326861D01*
X107486709Y-114225522D01*
X107357728Y-114096541D01*
X107256389Y-113944876D01*
X107186585Y-113776354D01*
X107151000Y-113597453D01*
X107151000Y-113415047D01*
X107186585Y-113236146D01*
X107256389Y-113067624D01*
X107357728Y-112915959D01*
X107486709Y-112786978D01*
X107638374Y-112685639D01*
X107806896Y-112615835D01*
X107985797Y-112580250D01*
X108168203Y-112580250D01*
X108347104Y-112615835D01*
G37*
G36*
X118507104Y-112615835D02*
G01*
X118675626Y-112685639D01*
X118827291Y-112786978D01*
X118956272Y-112915959D01*
X119057611Y-113067624D01*
X119127415Y-113236146D01*
X119163000Y-113415047D01*
X119163000Y-113597453D01*
X119127415Y-113776354D01*
X119057611Y-113944876D01*
X118956272Y-114096541D01*
X118827291Y-114225522D01*
X118675626Y-114326861D01*
X118507104Y-114396665D01*
X118328203Y-114432250D01*
X118145797Y-114432250D01*
X117966896Y-114396665D01*
X117798374Y-114326861D01*
X117646709Y-114225522D01*
X117517728Y-114096541D01*
X117416389Y-113944876D01*
X117346585Y-113776354D01*
X117311000Y-113597453D01*
X117311000Y-113415047D01*
X117346585Y-113236146D01*
X117416389Y-113067624D01*
X117517728Y-112915959D01*
X117646709Y-112786978D01*
X117798374Y-112685639D01*
X117966896Y-112615835D01*
X118145797Y-112580250D01*
X118328203Y-112580250D01*
X118507104Y-112615835D01*
G37*
G36*
X175657104Y-112615835D02*
G01*
X175825626Y-112685639D01*
X175977291Y-112786978D01*
X176106272Y-112915959D01*
X176207611Y-113067624D01*
X176277415Y-113236146D01*
X176313000Y-113415047D01*
X176313000Y-113597453D01*
X176277415Y-113776354D01*
X176207611Y-113944876D01*
X176106272Y-114096541D01*
X175977291Y-114225522D01*
X175825626Y-114326861D01*
X175657104Y-114396665D01*
X175478203Y-114432250D01*
X175295797Y-114432250D01*
X175116896Y-114396665D01*
X174948374Y-114326861D01*
X174796709Y-114225522D01*
X174667728Y-114096541D01*
X174566389Y-113944876D01*
X174496585Y-113776354D01*
X174461000Y-113597453D01*
X174461000Y-113415047D01*
X174496585Y-113236146D01*
X174566389Y-113067624D01*
X174667728Y-112915959D01*
X174796709Y-112786978D01*
X174948374Y-112685639D01*
X175116896Y-112615835D01*
X175295797Y-112580250D01*
X175478203Y-112580250D01*
X175657104Y-112615835D01*
G37*
G36*
X165497104Y-112615835D02*
G01*
X165665626Y-112685639D01*
X165817291Y-112786978D01*
X165946272Y-112915959D01*
X166047611Y-113067624D01*
X166117415Y-113236146D01*
X166153000Y-113415047D01*
X166153000Y-113597453D01*
X166117415Y-113776354D01*
X166047611Y-113944876D01*
X165946272Y-114096541D01*
X165817291Y-114225522D01*
X165665626Y-114326861D01*
X165497104Y-114396665D01*
X165318203Y-114432250D01*
X165135797Y-114432250D01*
X164956896Y-114396665D01*
X164788374Y-114326861D01*
X164636709Y-114225522D01*
X164507728Y-114096541D01*
X164406389Y-113944876D01*
X164336585Y-113776354D01*
X164301000Y-113597453D01*
X164301000Y-113415047D01*
X164336585Y-113236146D01*
X164406389Y-113067624D01*
X164507728Y-112915959D01*
X164636709Y-112786978D01*
X164788374Y-112685639D01*
X164956896Y-112615835D01*
X165135797Y-112580250D01*
X165318203Y-112580250D01*
X165497104Y-112615835D01*
G37*
G36*
X100901000Y-112876000D02*
G01*
X97999000Y-112876000D01*
X97999000Y-108974000D01*
X100901000Y-108974000D01*
X100901000Y-112876000D01*
G37*
G36*
X90501000Y-112876000D02*
G01*
X87599000Y-112876000D01*
X87599000Y-108974000D01*
X90501000Y-108974000D01*
X90501000Y-112876000D01*
G37*
G36*
X109538560Y-109805314D02*
G01*
X109690027Y-109835443D01*
X109904045Y-109924092D01*
X109904046Y-109924093D01*
X110096654Y-110052789D01*
X110260461Y-110216596D01*
X110346258Y-110345001D01*
X110389158Y-110409205D01*
X110477807Y-110623223D01*
X110523000Y-110850424D01*
X110523000Y-111082076D01*
X110477807Y-111309277D01*
X110389158Y-111523295D01*
X110389157Y-111523296D01*
X110260461Y-111715904D01*
X110096654Y-111879711D01*
X110039540Y-111917873D01*
X109904045Y-112008408D01*
X109690027Y-112097057D01*
X109538560Y-112127186D01*
X109462827Y-112142250D01*
X109231173Y-112142250D01*
X109155440Y-112127186D01*
X109003973Y-112097057D01*
X108789955Y-112008408D01*
X108654460Y-111917873D01*
X108597346Y-111879711D01*
X108433539Y-111715904D01*
X108304843Y-111523296D01*
X108304842Y-111523295D01*
X108216193Y-111309277D01*
X108171000Y-111082076D01*
X108171000Y-110850424D01*
X108216193Y-110623223D01*
X108304842Y-110409205D01*
X108347742Y-110345001D01*
X108433539Y-110216596D01*
X108597346Y-110052789D01*
X108789954Y-109924093D01*
X108789955Y-109924092D01*
X109003973Y-109835443D01*
X109155440Y-109805314D01*
X109231173Y-109790250D01*
X109462827Y-109790250D01*
X109538560Y-109805314D01*
G37*
G36*
X128588560Y-109805314D02*
G01*
X128740027Y-109835443D01*
X128954045Y-109924092D01*
X128954046Y-109924093D01*
X129146654Y-110052789D01*
X129310461Y-110216596D01*
X129396258Y-110345001D01*
X129439158Y-110409205D01*
X129527807Y-110623223D01*
X129573000Y-110850424D01*
X129573000Y-111082076D01*
X129527807Y-111309277D01*
X129439158Y-111523295D01*
X129439157Y-111523296D01*
X129310461Y-111715904D01*
X129146654Y-111879711D01*
X129089540Y-111917873D01*
X128954045Y-112008408D01*
X128740027Y-112097057D01*
X128588560Y-112127186D01*
X128512827Y-112142250D01*
X128281173Y-112142250D01*
X128205440Y-112127186D01*
X128053973Y-112097057D01*
X127839955Y-112008408D01*
X127704460Y-111917873D01*
X127647346Y-111879711D01*
X127483539Y-111715904D01*
X127354843Y-111523296D01*
X127354842Y-111523295D01*
X127266193Y-111309277D01*
X127221000Y-111082076D01*
X127221000Y-110850424D01*
X127266193Y-110623223D01*
X127354842Y-110409205D01*
X127397742Y-110345001D01*
X127483539Y-110216596D01*
X127647346Y-110052789D01*
X127839954Y-109924093D01*
X127839955Y-109924092D01*
X128053973Y-109835443D01*
X128205440Y-109805314D01*
X128281173Y-109790250D01*
X128512827Y-109790250D01*
X128588560Y-109805314D01*
G37*
G36*
X166688560Y-109805314D02*
G01*
X166840027Y-109835443D01*
X167054045Y-109924092D01*
X167054046Y-109924093D01*
X167246654Y-110052789D01*
X167410461Y-110216596D01*
X167496258Y-110345001D01*
X167539158Y-110409205D01*
X167627807Y-110623223D01*
X167673000Y-110850424D01*
X167673000Y-111082076D01*
X167627807Y-111309277D01*
X167539158Y-111523295D01*
X167539157Y-111523296D01*
X167410461Y-111715904D01*
X167246654Y-111879711D01*
X167189540Y-111917873D01*
X167054045Y-112008408D01*
X166840027Y-112097057D01*
X166688560Y-112127186D01*
X166612827Y-112142250D01*
X166381173Y-112142250D01*
X166305440Y-112127186D01*
X166153973Y-112097057D01*
X165939955Y-112008408D01*
X165804460Y-111917873D01*
X165747346Y-111879711D01*
X165583539Y-111715904D01*
X165454843Y-111523296D01*
X165454842Y-111523295D01*
X165366193Y-111309277D01*
X165321000Y-111082076D01*
X165321000Y-110850424D01*
X165366193Y-110623223D01*
X165454842Y-110409205D01*
X165497742Y-110345001D01*
X165583539Y-110216596D01*
X165747346Y-110052789D01*
X165939954Y-109924093D01*
X165939955Y-109924092D01*
X166153973Y-109835443D01*
X166305440Y-109805314D01*
X166381173Y-109790250D01*
X166612827Y-109790250D01*
X166688560Y-109805314D01*
G37*
G36*
X147638560Y-109805314D02*
G01*
X147790027Y-109835443D01*
X148004045Y-109924092D01*
X148004046Y-109924093D01*
X148196654Y-110052789D01*
X148360461Y-110216596D01*
X148446258Y-110345001D01*
X148489158Y-110409205D01*
X148577807Y-110623223D01*
X148623000Y-110850424D01*
X148623000Y-111082076D01*
X148577807Y-111309277D01*
X148489158Y-111523295D01*
X148489157Y-111523296D01*
X148360461Y-111715904D01*
X148196654Y-111879711D01*
X148139540Y-111917873D01*
X148004045Y-112008408D01*
X147790027Y-112097057D01*
X147638560Y-112127186D01*
X147562827Y-112142250D01*
X147331173Y-112142250D01*
X147255440Y-112127186D01*
X147103973Y-112097057D01*
X146889955Y-112008408D01*
X146754460Y-111917873D01*
X146697346Y-111879711D01*
X146533539Y-111715904D01*
X146404843Y-111523296D01*
X146404842Y-111523295D01*
X146316193Y-111309277D01*
X146271000Y-111082076D01*
X146271000Y-110850424D01*
X146316193Y-110623223D01*
X146404842Y-110409205D01*
X146447742Y-110345001D01*
X146533539Y-110216596D01*
X146697346Y-110052789D01*
X146889954Y-109924093D01*
X146889955Y-109924092D01*
X147103973Y-109835443D01*
X147255440Y-109805314D01*
X147331173Y-109790250D01*
X147562827Y-109790250D01*
X147638560Y-109805314D01*
G37*
G36*
X173038560Y-107265314D02*
G01*
X173190027Y-107295443D01*
X173404045Y-107384092D01*
X173404046Y-107384093D01*
X173596654Y-107512789D01*
X173760461Y-107676596D01*
X173846258Y-107805001D01*
X173889158Y-107869205D01*
X173977807Y-108083223D01*
X174023000Y-108310424D01*
X174023000Y-108542076D01*
X173977807Y-108769277D01*
X173889158Y-108983295D01*
X173889157Y-108983296D01*
X173760461Y-109175904D01*
X173596654Y-109339711D01*
X173468249Y-109425508D01*
X173404045Y-109468408D01*
X173190027Y-109557057D01*
X173038560Y-109587186D01*
X172962827Y-109602250D01*
X172731173Y-109602250D01*
X172655440Y-109587186D01*
X172503973Y-109557057D01*
X172289955Y-109468408D01*
X172225751Y-109425508D01*
X172097346Y-109339711D01*
X171933539Y-109175904D01*
X171804843Y-108983296D01*
X171804842Y-108983295D01*
X171716193Y-108769277D01*
X171671000Y-108542076D01*
X171671000Y-108310424D01*
X171716193Y-108083223D01*
X171804842Y-107869205D01*
X171847742Y-107805001D01*
X171933539Y-107676596D01*
X172097346Y-107512789D01*
X172289954Y-107384093D01*
X172289955Y-107384092D01*
X172503973Y-107295443D01*
X172655440Y-107265314D01*
X172731173Y-107250250D01*
X172962827Y-107250250D01*
X173038560Y-107265314D01*
G37*
G36*
X153988560Y-107265314D02*
G01*
X154140027Y-107295443D01*
X154354045Y-107384092D01*
X154354046Y-107384093D01*
X154546654Y-107512789D01*
X154710461Y-107676596D01*
X154796258Y-107805001D01*
X154839158Y-107869205D01*
X154927807Y-108083223D01*
X154973000Y-108310424D01*
X154973000Y-108542076D01*
X154927807Y-108769277D01*
X154839158Y-108983295D01*
X154839157Y-108983296D01*
X154710461Y-109175904D01*
X154546654Y-109339711D01*
X154418249Y-109425508D01*
X154354045Y-109468408D01*
X154140027Y-109557057D01*
X153988560Y-109587186D01*
X153912827Y-109602250D01*
X153681173Y-109602250D01*
X153605440Y-109587186D01*
X153453973Y-109557057D01*
X153239955Y-109468408D01*
X153175751Y-109425508D01*
X153047346Y-109339711D01*
X152883539Y-109175904D01*
X152754843Y-108983296D01*
X152754842Y-108983295D01*
X152666193Y-108769277D01*
X152621000Y-108542076D01*
X152621000Y-108310424D01*
X152666193Y-108083223D01*
X152754842Y-107869205D01*
X152797742Y-107805001D01*
X152883539Y-107676596D01*
X153047346Y-107512789D01*
X153239954Y-107384093D01*
X153239955Y-107384092D01*
X153453973Y-107295443D01*
X153605440Y-107265314D01*
X153681173Y-107250250D01*
X153912827Y-107250250D01*
X153988560Y-107265314D01*
G37*
G36*
X115888560Y-107265314D02*
G01*
X116040027Y-107295443D01*
X116254045Y-107384092D01*
X116254046Y-107384093D01*
X116446654Y-107512789D01*
X116610461Y-107676596D01*
X116696258Y-107805001D01*
X116739158Y-107869205D01*
X116827807Y-108083223D01*
X116873000Y-108310424D01*
X116873000Y-108542076D01*
X116827807Y-108769277D01*
X116739158Y-108983295D01*
X116739157Y-108983296D01*
X116610461Y-109175904D01*
X116446654Y-109339711D01*
X116318249Y-109425508D01*
X116254045Y-109468408D01*
X116040027Y-109557057D01*
X115888560Y-109587186D01*
X115812827Y-109602250D01*
X115581173Y-109602250D01*
X115505440Y-109587186D01*
X115353973Y-109557057D01*
X115139955Y-109468408D01*
X115075751Y-109425508D01*
X114947346Y-109339711D01*
X114783539Y-109175904D01*
X114654843Y-108983296D01*
X114654842Y-108983295D01*
X114566193Y-108769277D01*
X114521000Y-108542076D01*
X114521000Y-108310424D01*
X114566193Y-108083223D01*
X114654842Y-107869205D01*
X114697742Y-107805001D01*
X114783539Y-107676596D01*
X114947346Y-107512789D01*
X115139954Y-107384093D01*
X115139955Y-107384092D01*
X115353973Y-107295443D01*
X115505440Y-107265314D01*
X115581173Y-107250250D01*
X115812827Y-107250250D01*
X115888560Y-107265314D01*
G37*
G36*
X134938560Y-107265314D02*
G01*
X135090027Y-107295443D01*
X135304045Y-107384092D01*
X135304046Y-107384093D01*
X135496654Y-107512789D01*
X135660461Y-107676596D01*
X135746258Y-107805001D01*
X135789158Y-107869205D01*
X135877807Y-108083223D01*
X135923000Y-108310424D01*
X135923000Y-108542076D01*
X135877807Y-108769277D01*
X135789158Y-108983295D01*
X135789157Y-108983296D01*
X135660461Y-109175904D01*
X135496654Y-109339711D01*
X135368249Y-109425508D01*
X135304045Y-109468408D01*
X135090027Y-109557057D01*
X134938560Y-109587186D01*
X134862827Y-109602250D01*
X134631173Y-109602250D01*
X134555440Y-109587186D01*
X134403973Y-109557057D01*
X134189955Y-109468408D01*
X134125751Y-109425508D01*
X133997346Y-109339711D01*
X133833539Y-109175904D01*
X133704843Y-108983296D01*
X133704842Y-108983295D01*
X133616193Y-108769277D01*
X133571000Y-108542076D01*
X133571000Y-108310424D01*
X133616193Y-108083223D01*
X133704842Y-107869205D01*
X133747742Y-107805001D01*
X133833539Y-107676596D01*
X133997346Y-107512789D01*
X134189954Y-107384093D01*
X134189955Y-107384092D01*
X134403973Y-107295443D01*
X134555440Y-107265314D01*
X134631173Y-107250250D01*
X134862827Y-107250250D01*
X134938560Y-107265314D01*
G37*
G36*
X112013425Y-98538238D02*
G01*
X112179710Y-98571313D01*
X112362336Y-98646959D01*
X112526694Y-98756780D01*
X112666470Y-98896556D01*
X112776291Y-99060914D01*
X112851937Y-99243540D01*
X112890500Y-99437414D01*
X112890500Y-99635086D01*
X112851937Y-99828960D01*
X112776291Y-100011586D01*
X112666470Y-100175944D01*
X112526694Y-100315720D01*
X112362336Y-100425541D01*
X112179710Y-100501187D01*
X112013425Y-100534262D01*
X111985837Y-100539750D01*
X111788163Y-100539750D01*
X111760575Y-100534262D01*
X111594290Y-100501187D01*
X111411664Y-100425541D01*
X111247306Y-100315720D01*
X111107530Y-100175944D01*
X110997709Y-100011586D01*
X110922063Y-99828960D01*
X110883500Y-99635086D01*
X110883500Y-99437414D01*
X110922063Y-99243540D01*
X110997709Y-99060914D01*
X111107530Y-98896556D01*
X111247306Y-98756780D01*
X111411664Y-98646959D01*
X111594290Y-98571313D01*
X111760575Y-98538238D01*
X111788163Y-98532750D01*
X111985837Y-98532750D01*
X112013425Y-98538238D01*
G37*
G36*
X115430500Y-100539750D02*
G01*
X113423500Y-100539750D01*
X113423500Y-98532750D01*
X115430500Y-98532750D01*
X115430500Y-100539750D01*
G37*
G36*
X131063425Y-98538238D02*
G01*
X131229710Y-98571313D01*
X131412336Y-98646959D01*
X131576694Y-98756780D01*
X131716470Y-98896556D01*
X131826291Y-99060914D01*
X131901937Y-99243540D01*
X131940500Y-99437414D01*
X131940500Y-99635086D01*
X131901937Y-99828960D01*
X131826291Y-100011586D01*
X131716470Y-100175944D01*
X131576694Y-100315720D01*
X131412336Y-100425541D01*
X131229710Y-100501187D01*
X131063425Y-100534262D01*
X131035837Y-100539750D01*
X130838163Y-100539750D01*
X130810575Y-100534262D01*
X130644290Y-100501187D01*
X130461664Y-100425541D01*
X130297306Y-100315720D01*
X130157530Y-100175944D01*
X130047709Y-100011586D01*
X129972063Y-99828960D01*
X129933500Y-99635086D01*
X129933500Y-99437414D01*
X129972063Y-99243540D01*
X130047709Y-99060914D01*
X130157530Y-98896556D01*
X130297306Y-98756780D01*
X130461664Y-98646959D01*
X130644290Y-98571313D01*
X130810575Y-98538238D01*
X130838163Y-98532750D01*
X131035837Y-98532750D01*
X131063425Y-98538238D01*
G37*
G36*
X134480500Y-100539750D02*
G01*
X132473500Y-100539750D01*
X132473500Y-98532750D01*
X134480500Y-98532750D01*
X134480500Y-100539750D01*
G37*
G36*
X153530500Y-100539750D02*
G01*
X151523500Y-100539750D01*
X151523500Y-98532750D01*
X153530500Y-98532750D01*
X153530500Y-100539750D01*
G37*
G36*
X150113425Y-98538238D02*
G01*
X150279710Y-98571313D01*
X150462336Y-98646959D01*
X150626694Y-98756780D01*
X150766470Y-98896556D01*
X150876291Y-99060914D01*
X150951937Y-99243540D01*
X150990500Y-99437414D01*
X150990500Y-99635086D01*
X150951937Y-99828960D01*
X150876291Y-100011586D01*
X150766470Y-100175944D01*
X150626694Y-100315720D01*
X150462336Y-100425541D01*
X150279710Y-100501187D01*
X150113425Y-100534262D01*
X150085837Y-100539750D01*
X149888163Y-100539750D01*
X149860575Y-100534262D01*
X149694290Y-100501187D01*
X149511664Y-100425541D01*
X149347306Y-100315720D01*
X149207530Y-100175944D01*
X149097709Y-100011586D01*
X149022063Y-99828960D01*
X148983500Y-99635086D01*
X148983500Y-99437414D01*
X149022063Y-99243540D01*
X149097709Y-99060914D01*
X149207530Y-98896556D01*
X149347306Y-98756780D01*
X149511664Y-98646959D01*
X149694290Y-98571313D01*
X149860575Y-98538238D01*
X149888163Y-98532750D01*
X150085837Y-98532750D01*
X150113425Y-98538238D01*
G37*
G36*
X169163425Y-98538238D02*
G01*
X169329710Y-98571313D01*
X169512336Y-98646959D01*
X169676694Y-98756780D01*
X169816470Y-98896556D01*
X169926291Y-99060914D01*
X170001937Y-99243540D01*
X170040500Y-99437414D01*
X170040500Y-99635086D01*
X170001937Y-99828960D01*
X169926291Y-100011586D01*
X169816470Y-100175944D01*
X169676694Y-100315720D01*
X169512336Y-100425541D01*
X169329710Y-100501187D01*
X169163425Y-100534262D01*
X169135837Y-100539750D01*
X168938163Y-100539750D01*
X168910575Y-100534262D01*
X168744290Y-100501187D01*
X168561664Y-100425541D01*
X168397306Y-100315720D01*
X168257530Y-100175944D01*
X168147709Y-100011586D01*
X168072063Y-99828960D01*
X168033500Y-99635086D01*
X168033500Y-99437414D01*
X168072063Y-99243540D01*
X168147709Y-99060914D01*
X168257530Y-98896556D01*
X168397306Y-98756780D01*
X168561664Y-98646959D01*
X168744290Y-98571313D01*
X168910575Y-98538238D01*
X168938163Y-98532750D01*
X169135837Y-98532750D01*
X169163425Y-98538238D01*
G37*
G36*
X172580500Y-100539750D02*
G01*
X170573500Y-100539750D01*
X170573500Y-98532750D01*
X172580500Y-98532750D01*
X172580500Y-100539750D01*
G37*
G36*
X113753474Y-92489934D02*
G01*
X113971474Y-92580233D01*
X114125623Y-92644083D01*
X114460548Y-92867873D01*
X114745377Y-93152702D01*
X114969167Y-93487627D01*
X115001562Y-93565836D01*
X115123316Y-93859776D01*
X115201900Y-94254844D01*
X115201900Y-94657656D01*
X115123316Y-95052724D01*
X115072451Y-95175522D01*
X114969167Y-95424873D01*
X114745377Y-95759798D01*
X114460548Y-96044627D01*
X114125623Y-96268417D01*
X113971474Y-96332267D01*
X113753474Y-96422566D01*
X113358406Y-96501150D01*
X112955594Y-96501150D01*
X112560526Y-96422566D01*
X112342526Y-96332267D01*
X112188377Y-96268417D01*
X111853452Y-96044627D01*
X111568623Y-95759798D01*
X111344833Y-95424873D01*
X111241549Y-95175522D01*
X111190684Y-95052724D01*
X111112100Y-94657656D01*
X111112100Y-94254844D01*
X111190684Y-93859776D01*
X111312438Y-93565836D01*
X111344833Y-93487627D01*
X111568623Y-93152702D01*
X111853452Y-92867873D01*
X112188377Y-92644083D01*
X112342526Y-92580233D01*
X112560526Y-92489934D01*
X112955594Y-92411350D01*
X113358406Y-92411350D01*
X113753474Y-92489934D01*
G37*
G36*
X151853474Y-92489934D02*
G01*
X152071474Y-92580233D01*
X152225623Y-92644083D01*
X152560548Y-92867873D01*
X152845377Y-93152702D01*
X153069167Y-93487627D01*
X153101562Y-93565836D01*
X153223316Y-93859776D01*
X153301900Y-94254844D01*
X153301900Y-94657656D01*
X153223316Y-95052724D01*
X153172451Y-95175522D01*
X153069167Y-95424873D01*
X152845377Y-95759798D01*
X152560548Y-96044627D01*
X152225623Y-96268417D01*
X152071474Y-96332267D01*
X151853474Y-96422566D01*
X151458406Y-96501150D01*
X151055594Y-96501150D01*
X150660526Y-96422566D01*
X150442526Y-96332267D01*
X150288377Y-96268417D01*
X149953452Y-96044627D01*
X149668623Y-95759798D01*
X149444833Y-95424873D01*
X149341549Y-95175522D01*
X149290684Y-95052724D01*
X149212100Y-94657656D01*
X149212100Y-94254844D01*
X149290684Y-93859776D01*
X149412438Y-93565836D01*
X149444833Y-93487627D01*
X149668623Y-93152702D01*
X149953452Y-92867873D01*
X150288377Y-92644083D01*
X150442526Y-92580233D01*
X150660526Y-92489934D01*
X151055594Y-92411350D01*
X151458406Y-92411350D01*
X151853474Y-92489934D01*
G37*
G36*
X132803474Y-92489934D02*
G01*
X133021474Y-92580233D01*
X133175623Y-92644083D01*
X133510548Y-92867873D01*
X133795377Y-93152702D01*
X134019167Y-93487627D01*
X134051562Y-93565836D01*
X134173316Y-93859776D01*
X134251900Y-94254844D01*
X134251900Y-94657656D01*
X134173316Y-95052724D01*
X134122451Y-95175522D01*
X134019167Y-95424873D01*
X133795377Y-95759798D01*
X133510548Y-96044627D01*
X133175623Y-96268417D01*
X133021474Y-96332267D01*
X132803474Y-96422566D01*
X132408406Y-96501150D01*
X132005594Y-96501150D01*
X131610526Y-96422566D01*
X131392526Y-96332267D01*
X131238377Y-96268417D01*
X130903452Y-96044627D01*
X130618623Y-95759798D01*
X130394833Y-95424873D01*
X130291549Y-95175522D01*
X130240684Y-95052724D01*
X130162100Y-94657656D01*
X130162100Y-94254844D01*
X130240684Y-93859776D01*
X130362438Y-93565836D01*
X130394833Y-93487627D01*
X130618623Y-93152702D01*
X130903452Y-92867873D01*
X131238377Y-92644083D01*
X131392526Y-92580233D01*
X131610526Y-92489934D01*
X132005594Y-92411350D01*
X132408406Y-92411350D01*
X132803474Y-92489934D01*
G37*
G36*
X170903474Y-92489934D02*
G01*
X171121474Y-92580233D01*
X171275623Y-92644083D01*
X171610548Y-92867873D01*
X171895377Y-93152702D01*
X172119167Y-93487627D01*
X172151562Y-93565836D01*
X172273316Y-93859776D01*
X172351900Y-94254844D01*
X172351900Y-94657656D01*
X172273316Y-95052724D01*
X172222451Y-95175522D01*
X172119167Y-95424873D01*
X171895377Y-95759798D01*
X171610548Y-96044627D01*
X171275623Y-96268417D01*
X171121474Y-96332267D01*
X170903474Y-96422566D01*
X170508406Y-96501150D01*
X170105594Y-96501150D01*
X169710526Y-96422566D01*
X169492526Y-96332267D01*
X169338377Y-96268417D01*
X169003452Y-96044627D01*
X168718623Y-95759798D01*
X168494833Y-95424873D01*
X168391549Y-95175522D01*
X168340684Y-95052724D01*
X168262100Y-94657656D01*
X168262100Y-94254844D01*
X168340684Y-93859776D01*
X168462438Y-93565836D01*
X168494833Y-93487627D01*
X168718623Y-93152702D01*
X169003452Y-92867873D01*
X169338377Y-92644083D01*
X169492526Y-92580233D01*
X169710526Y-92489934D01*
X170105594Y-92411350D01*
X170508406Y-92411350D01*
X170903474Y-92489934D01*
G37*
G36*
X175657104Y-93565835D02*
G01*
X175825626Y-93635639D01*
X175977291Y-93736978D01*
X176106272Y-93865959D01*
X176207611Y-94017624D01*
X176277415Y-94186146D01*
X176313000Y-94365047D01*
X176313000Y-94547453D01*
X176277415Y-94726354D01*
X176207611Y-94894876D01*
X176106272Y-95046541D01*
X175977291Y-95175522D01*
X175825626Y-95276861D01*
X175657104Y-95346665D01*
X175478203Y-95382250D01*
X175295797Y-95382250D01*
X175116896Y-95346665D01*
X174948374Y-95276861D01*
X174796709Y-95175522D01*
X174667728Y-95046541D01*
X174566389Y-94894876D01*
X174496585Y-94726354D01*
X174461000Y-94547453D01*
X174461000Y-94365047D01*
X174496585Y-94186146D01*
X174566389Y-94017624D01*
X174667728Y-93865959D01*
X174796709Y-93736978D01*
X174948374Y-93635639D01*
X175116896Y-93565835D01*
X175295797Y-93530250D01*
X175478203Y-93530250D01*
X175657104Y-93565835D01*
G37*
G36*
X146447104Y-93565835D02*
G01*
X146615626Y-93635639D01*
X146767291Y-93736978D01*
X146896272Y-93865959D01*
X146997611Y-94017624D01*
X147067415Y-94186146D01*
X147103000Y-94365047D01*
X147103000Y-94547453D01*
X147067415Y-94726354D01*
X146997611Y-94894876D01*
X146896272Y-95046541D01*
X146767291Y-95175522D01*
X146615626Y-95276861D01*
X146447104Y-95346665D01*
X146268203Y-95382250D01*
X146085797Y-95382250D01*
X145906896Y-95346665D01*
X145738374Y-95276861D01*
X145586709Y-95175522D01*
X145457728Y-95046541D01*
X145356389Y-94894876D01*
X145286585Y-94726354D01*
X145251000Y-94547453D01*
X145251000Y-94365047D01*
X145286585Y-94186146D01*
X145356389Y-94017624D01*
X145457728Y-93865959D01*
X145586709Y-93736978D01*
X145738374Y-93635639D01*
X145906896Y-93565835D01*
X146085797Y-93530250D01*
X146268203Y-93530250D01*
X146447104Y-93565835D01*
G37*
G36*
X156607104Y-93565835D02*
G01*
X156775626Y-93635639D01*
X156927291Y-93736978D01*
X157056272Y-93865959D01*
X157157611Y-94017624D01*
X157227415Y-94186146D01*
X157263000Y-94365047D01*
X157263000Y-94547453D01*
X157227415Y-94726354D01*
X157157611Y-94894876D01*
X157056272Y-95046541D01*
X156927291Y-95175522D01*
X156775626Y-95276861D01*
X156607104Y-95346665D01*
X156428203Y-95382250D01*
X156245797Y-95382250D01*
X156066896Y-95346665D01*
X155898374Y-95276861D01*
X155746709Y-95175522D01*
X155617728Y-95046541D01*
X155516389Y-94894876D01*
X155446585Y-94726354D01*
X155411000Y-94547453D01*
X155411000Y-94365047D01*
X155446585Y-94186146D01*
X155516389Y-94017624D01*
X155617728Y-93865959D01*
X155746709Y-93736978D01*
X155898374Y-93635639D01*
X156066896Y-93565835D01*
X156245797Y-93530250D01*
X156428203Y-93530250D01*
X156607104Y-93565835D01*
G37*
G36*
X127397104Y-93565835D02*
G01*
X127565626Y-93635639D01*
X127717291Y-93736978D01*
X127846272Y-93865959D01*
X127947611Y-94017624D01*
X128017415Y-94186146D01*
X128053000Y-94365047D01*
X128053000Y-94547453D01*
X128017415Y-94726354D01*
X127947611Y-94894876D01*
X127846272Y-95046541D01*
X127717291Y-95175522D01*
X127565626Y-95276861D01*
X127397104Y-95346665D01*
X127218203Y-95382250D01*
X127035797Y-95382250D01*
X126856896Y-95346665D01*
X126688374Y-95276861D01*
X126536709Y-95175522D01*
X126407728Y-95046541D01*
X126306389Y-94894876D01*
X126236585Y-94726354D01*
X126201000Y-94547453D01*
X126201000Y-94365047D01*
X126236585Y-94186146D01*
X126306389Y-94017624D01*
X126407728Y-93865959D01*
X126536709Y-93736978D01*
X126688374Y-93635639D01*
X126856896Y-93565835D01*
X127035797Y-93530250D01*
X127218203Y-93530250D01*
X127397104Y-93565835D01*
G37*
G36*
X118507104Y-93565835D02*
G01*
X118675626Y-93635639D01*
X118827291Y-93736978D01*
X118956272Y-93865959D01*
X119057611Y-94017624D01*
X119127415Y-94186146D01*
X119163000Y-94365047D01*
X119163000Y-94547453D01*
X119127415Y-94726354D01*
X119057611Y-94894876D01*
X118956272Y-95046541D01*
X118827291Y-95175522D01*
X118675626Y-95276861D01*
X118507104Y-95346665D01*
X118328203Y-95382250D01*
X118145797Y-95382250D01*
X117966896Y-95346665D01*
X117798374Y-95276861D01*
X117646709Y-95175522D01*
X117517728Y-95046541D01*
X117416389Y-94894876D01*
X117346585Y-94726354D01*
X117311000Y-94547453D01*
X117311000Y-94365047D01*
X117346585Y-94186146D01*
X117416389Y-94017624D01*
X117517728Y-93865959D01*
X117646709Y-93736978D01*
X117798374Y-93635639D01*
X117966896Y-93565835D01*
X118145797Y-93530250D01*
X118328203Y-93530250D01*
X118507104Y-93565835D01*
G37*
G36*
X108347104Y-93565835D02*
G01*
X108515626Y-93635639D01*
X108667291Y-93736978D01*
X108796272Y-93865959D01*
X108897611Y-94017624D01*
X108967415Y-94186146D01*
X109003000Y-94365047D01*
X109003000Y-94547453D01*
X108967415Y-94726354D01*
X108897611Y-94894876D01*
X108796272Y-95046541D01*
X108667291Y-95175522D01*
X108515626Y-95276861D01*
X108347104Y-95346665D01*
X108168203Y-95382250D01*
X107985797Y-95382250D01*
X107806896Y-95346665D01*
X107638374Y-95276861D01*
X107486709Y-95175522D01*
X107357728Y-95046541D01*
X107256389Y-94894876D01*
X107186585Y-94726354D01*
X107151000Y-94547453D01*
X107151000Y-94365047D01*
X107186585Y-94186146D01*
X107256389Y-94017624D01*
X107357728Y-93865959D01*
X107486709Y-93736978D01*
X107638374Y-93635639D01*
X107806896Y-93565835D01*
X107985797Y-93530250D01*
X108168203Y-93530250D01*
X108347104Y-93565835D01*
G37*
G36*
X137557104Y-93565835D02*
G01*
X137725626Y-93635639D01*
X137877291Y-93736978D01*
X138006272Y-93865959D01*
X138107611Y-94017624D01*
X138177415Y-94186146D01*
X138213000Y-94365047D01*
X138213000Y-94547453D01*
X138177415Y-94726354D01*
X138107611Y-94894876D01*
X138006272Y-95046541D01*
X137877291Y-95175522D01*
X137725626Y-95276861D01*
X137557104Y-95346665D01*
X137378203Y-95382250D01*
X137195797Y-95382250D01*
X137016896Y-95346665D01*
X136848374Y-95276861D01*
X136696709Y-95175522D01*
X136567728Y-95046541D01*
X136466389Y-94894876D01*
X136396585Y-94726354D01*
X136361000Y-94547453D01*
X136361000Y-94365047D01*
X136396585Y-94186146D01*
X136466389Y-94017624D01*
X136567728Y-93865959D01*
X136696709Y-93736978D01*
X136848374Y-93635639D01*
X137016896Y-93565835D01*
X137195797Y-93530250D01*
X137378203Y-93530250D01*
X137557104Y-93565835D01*
G37*
G36*
X165497104Y-93565835D02*
G01*
X165665626Y-93635639D01*
X165817291Y-93736978D01*
X165946272Y-93865959D01*
X166047611Y-94017624D01*
X166117415Y-94186146D01*
X166153000Y-94365047D01*
X166153000Y-94547453D01*
X166117415Y-94726354D01*
X166047611Y-94894876D01*
X165946272Y-95046541D01*
X165817291Y-95175522D01*
X165665626Y-95276861D01*
X165497104Y-95346665D01*
X165318203Y-95382250D01*
X165135797Y-95382250D01*
X164956896Y-95346665D01*
X164788374Y-95276861D01*
X164636709Y-95175522D01*
X164507728Y-95046541D01*
X164406389Y-94894876D01*
X164336585Y-94726354D01*
X164301000Y-94547453D01*
X164301000Y-94365047D01*
X164336585Y-94186146D01*
X164406389Y-94017624D01*
X164507728Y-93865959D01*
X164636709Y-93736978D01*
X164788374Y-93635639D01*
X164956896Y-93565835D01*
X165135797Y-93530250D01*
X165318203Y-93530250D01*
X165497104Y-93565835D01*
G37*
G36*
X109538560Y-90755314D02*
G01*
X109690027Y-90785443D01*
X109904045Y-90874092D01*
X109904046Y-90874093D01*
X110096654Y-91002789D01*
X110260461Y-91166596D01*
X110346258Y-91295001D01*
X110389158Y-91359205D01*
X110477807Y-91573223D01*
X110523000Y-91800424D01*
X110523000Y-92032076D01*
X110477807Y-92259277D01*
X110389158Y-92473295D01*
X110389157Y-92473296D01*
X110260461Y-92665904D01*
X110096654Y-92829711D01*
X110039540Y-92867873D01*
X109904045Y-92958408D01*
X109690027Y-93047057D01*
X109538560Y-93077186D01*
X109462827Y-93092250D01*
X109231173Y-93092250D01*
X109155440Y-93077186D01*
X109003973Y-93047057D01*
X108789955Y-92958408D01*
X108654460Y-92867873D01*
X108597346Y-92829711D01*
X108433539Y-92665904D01*
X108304843Y-92473296D01*
X108304842Y-92473295D01*
X108216193Y-92259277D01*
X108171000Y-92032076D01*
X108171000Y-91800424D01*
X108216193Y-91573223D01*
X108304842Y-91359205D01*
X108347742Y-91295001D01*
X108433539Y-91166596D01*
X108597346Y-91002789D01*
X108789954Y-90874093D01*
X108789955Y-90874092D01*
X109003973Y-90785443D01*
X109155440Y-90755314D01*
X109231173Y-90740250D01*
X109462827Y-90740250D01*
X109538560Y-90755314D01*
G37*
G36*
X147638560Y-90755314D02*
G01*
X147790027Y-90785443D01*
X148004045Y-90874092D01*
X148004046Y-90874093D01*
X148196654Y-91002789D01*
X148360461Y-91166596D01*
X148446258Y-91295001D01*
X148489158Y-91359205D01*
X148577807Y-91573223D01*
X148623000Y-91800424D01*
X148623000Y-92032076D01*
X148577807Y-92259277D01*
X148489158Y-92473295D01*
X148489157Y-92473296D01*
X148360461Y-92665904D01*
X148196654Y-92829711D01*
X148139540Y-92867873D01*
X148004045Y-92958408D01*
X147790027Y-93047057D01*
X147638560Y-93077186D01*
X147562827Y-93092250D01*
X147331173Y-93092250D01*
X147255440Y-93077186D01*
X147103973Y-93047057D01*
X146889955Y-92958408D01*
X146754460Y-92867873D01*
X146697346Y-92829711D01*
X146533539Y-92665904D01*
X146404843Y-92473296D01*
X146404842Y-92473295D01*
X146316193Y-92259277D01*
X146271000Y-92032076D01*
X146271000Y-91800424D01*
X146316193Y-91573223D01*
X146404842Y-91359205D01*
X146447742Y-91295001D01*
X146533539Y-91166596D01*
X146697346Y-91002789D01*
X146889954Y-90874093D01*
X146889955Y-90874092D01*
X147103973Y-90785443D01*
X147255440Y-90755314D01*
X147331173Y-90740250D01*
X147562827Y-90740250D01*
X147638560Y-90755314D01*
G37*
G36*
X128588560Y-90755314D02*
G01*
X128740027Y-90785443D01*
X128954045Y-90874092D01*
X128954046Y-90874093D01*
X129146654Y-91002789D01*
X129310461Y-91166596D01*
X129396258Y-91295001D01*
X129439158Y-91359205D01*
X129527807Y-91573223D01*
X129573000Y-91800424D01*
X129573000Y-92032076D01*
X129527807Y-92259277D01*
X129439158Y-92473295D01*
X129439157Y-92473296D01*
X129310461Y-92665904D01*
X129146654Y-92829711D01*
X129089540Y-92867873D01*
X128954045Y-92958408D01*
X128740027Y-93047057D01*
X128588560Y-93077186D01*
X128512827Y-93092250D01*
X128281173Y-93092250D01*
X128205440Y-93077186D01*
X128053973Y-93047057D01*
X127839955Y-92958408D01*
X127704460Y-92867873D01*
X127647346Y-92829711D01*
X127483539Y-92665904D01*
X127354843Y-92473296D01*
X127354842Y-92473295D01*
X127266193Y-92259277D01*
X127221000Y-92032076D01*
X127221000Y-91800424D01*
X127266193Y-91573223D01*
X127354842Y-91359205D01*
X127397742Y-91295001D01*
X127483539Y-91166596D01*
X127647346Y-91002789D01*
X127839954Y-90874093D01*
X127839955Y-90874092D01*
X128053973Y-90785443D01*
X128205440Y-90755314D01*
X128281173Y-90740250D01*
X128512827Y-90740250D01*
X128588560Y-90755314D01*
G37*
G36*
X166688560Y-90755314D02*
G01*
X166840027Y-90785443D01*
X167054045Y-90874092D01*
X167054046Y-90874093D01*
X167246654Y-91002789D01*
X167410461Y-91166596D01*
X167496258Y-91295001D01*
X167539158Y-91359205D01*
X167627807Y-91573223D01*
X167673000Y-91800424D01*
X167673000Y-92032076D01*
X167627807Y-92259277D01*
X167539158Y-92473295D01*
X167539157Y-92473296D01*
X167410461Y-92665904D01*
X167246654Y-92829711D01*
X167189540Y-92867873D01*
X167054045Y-92958408D01*
X166840027Y-93047057D01*
X166688560Y-93077186D01*
X166612827Y-93092250D01*
X166381173Y-93092250D01*
X166305440Y-93077186D01*
X166153973Y-93047057D01*
X165939955Y-92958408D01*
X165804460Y-92867873D01*
X165747346Y-92829711D01*
X165583539Y-92665904D01*
X165454843Y-92473296D01*
X165454842Y-92473295D01*
X165366193Y-92259277D01*
X165321000Y-92032076D01*
X165321000Y-91800424D01*
X165366193Y-91573223D01*
X165454842Y-91359205D01*
X165497742Y-91295001D01*
X165583539Y-91166596D01*
X165747346Y-91002789D01*
X165939954Y-90874093D01*
X165939955Y-90874092D01*
X166153973Y-90785443D01*
X166305440Y-90755314D01*
X166381173Y-90740250D01*
X166612827Y-90740250D01*
X166688560Y-90755314D01*
G37*
G36*
X173038560Y-88215314D02*
G01*
X173190027Y-88245443D01*
X173404045Y-88334092D01*
X173404046Y-88334093D01*
X173596654Y-88462789D01*
X173760461Y-88626596D01*
X173846258Y-88755001D01*
X173889158Y-88819205D01*
X173977807Y-89033223D01*
X174023000Y-89260424D01*
X174023000Y-89492076D01*
X173977807Y-89719277D01*
X173889158Y-89933295D01*
X173889157Y-89933296D01*
X173760461Y-90125904D01*
X173596654Y-90289711D01*
X173468249Y-90375508D01*
X173404045Y-90418408D01*
X173190027Y-90507057D01*
X173038560Y-90537186D01*
X172962827Y-90552250D01*
X172731173Y-90552250D01*
X172655440Y-90537186D01*
X172503973Y-90507057D01*
X172289955Y-90418408D01*
X172225751Y-90375508D01*
X172097346Y-90289711D01*
X171933539Y-90125904D01*
X171804843Y-89933296D01*
X171804842Y-89933295D01*
X171716193Y-89719277D01*
X171671000Y-89492076D01*
X171671000Y-89260424D01*
X171716193Y-89033223D01*
X171804842Y-88819205D01*
X171847742Y-88755001D01*
X171933539Y-88626596D01*
X172097346Y-88462789D01*
X172289954Y-88334093D01*
X172289955Y-88334092D01*
X172503973Y-88245443D01*
X172655440Y-88215314D01*
X172731173Y-88200250D01*
X172962827Y-88200250D01*
X173038560Y-88215314D01*
G37*
G36*
X134938560Y-88215314D02*
G01*
X135090027Y-88245443D01*
X135304045Y-88334092D01*
X135304046Y-88334093D01*
X135496654Y-88462789D01*
X135660461Y-88626596D01*
X135746258Y-88755001D01*
X135789158Y-88819205D01*
X135877807Y-89033223D01*
X135923000Y-89260424D01*
X135923000Y-89492076D01*
X135877807Y-89719277D01*
X135789158Y-89933295D01*
X135789157Y-89933296D01*
X135660461Y-90125904D01*
X135496654Y-90289711D01*
X135368249Y-90375508D01*
X135304045Y-90418408D01*
X135090027Y-90507057D01*
X134938560Y-90537186D01*
X134862827Y-90552250D01*
X134631173Y-90552250D01*
X134555440Y-90537186D01*
X134403973Y-90507057D01*
X134189955Y-90418408D01*
X134125751Y-90375508D01*
X133997346Y-90289711D01*
X133833539Y-90125904D01*
X133704843Y-89933296D01*
X133704842Y-89933295D01*
X133616193Y-89719277D01*
X133571000Y-89492076D01*
X133571000Y-89260424D01*
X133616193Y-89033223D01*
X133704842Y-88819205D01*
X133747742Y-88755001D01*
X133833539Y-88626596D01*
X133997346Y-88462789D01*
X134189954Y-88334093D01*
X134189955Y-88334092D01*
X134403973Y-88245443D01*
X134555440Y-88215314D01*
X134631173Y-88200250D01*
X134862827Y-88200250D01*
X134938560Y-88215314D01*
G37*
G36*
X153988560Y-88215314D02*
G01*
X154140027Y-88245443D01*
X154354045Y-88334092D01*
X154354046Y-88334093D01*
X154546654Y-88462789D01*
X154710461Y-88626596D01*
X154796258Y-88755001D01*
X154839158Y-88819205D01*
X154927807Y-89033223D01*
X154973000Y-89260424D01*
X154973000Y-89492076D01*
X154927807Y-89719277D01*
X154839158Y-89933295D01*
X154839157Y-89933296D01*
X154710461Y-90125904D01*
X154546654Y-90289711D01*
X154418249Y-90375508D01*
X154354045Y-90418408D01*
X154140027Y-90507057D01*
X153988560Y-90537186D01*
X153912827Y-90552250D01*
X153681173Y-90552250D01*
X153605440Y-90537186D01*
X153453973Y-90507057D01*
X153239955Y-90418408D01*
X153175751Y-90375508D01*
X153047346Y-90289711D01*
X152883539Y-90125904D01*
X152754843Y-89933296D01*
X152754842Y-89933295D01*
X152666193Y-89719277D01*
X152621000Y-89492076D01*
X152621000Y-89260424D01*
X152666193Y-89033223D01*
X152754842Y-88819205D01*
X152797742Y-88755001D01*
X152883539Y-88626596D01*
X153047346Y-88462789D01*
X153239954Y-88334093D01*
X153239955Y-88334092D01*
X153453973Y-88245443D01*
X153605440Y-88215314D01*
X153681173Y-88200250D01*
X153912827Y-88200250D01*
X153988560Y-88215314D01*
G37*
G36*
X115888560Y-88215314D02*
G01*
X116040027Y-88245443D01*
X116254045Y-88334092D01*
X116254046Y-88334093D01*
X116446654Y-88462789D01*
X116610461Y-88626596D01*
X116696258Y-88755001D01*
X116739158Y-88819205D01*
X116827807Y-89033223D01*
X116873000Y-89260424D01*
X116873000Y-89492076D01*
X116827807Y-89719277D01*
X116739158Y-89933295D01*
X116739157Y-89933296D01*
X116610461Y-90125904D01*
X116446654Y-90289711D01*
X116318249Y-90375508D01*
X116254045Y-90418408D01*
X116040027Y-90507057D01*
X115888560Y-90537186D01*
X115812827Y-90552250D01*
X115581173Y-90552250D01*
X115505440Y-90537186D01*
X115353973Y-90507057D01*
X115139955Y-90418408D01*
X115075751Y-90375508D01*
X114947346Y-90289711D01*
X114783539Y-90125904D01*
X114654843Y-89933296D01*
X114654842Y-89933295D01*
X114566193Y-89719277D01*
X114521000Y-89492076D01*
X114521000Y-89260424D01*
X114566193Y-89033223D01*
X114654842Y-88819205D01*
X114697742Y-88755001D01*
X114783539Y-88626596D01*
X114947346Y-88462789D01*
X115139954Y-88334093D01*
X115139955Y-88334092D01*
X115353973Y-88245443D01*
X115505440Y-88215314D01*
X115581173Y-88200250D01*
X115812827Y-88200250D01*
X115888560Y-88215314D01*
G37*
G36*
X87901000Y-83901000D02*
G01*
X86099000Y-83901000D01*
X86099000Y-82099000D01*
X87901000Y-82099000D01*
X87901000Y-83901000D01*
G37*
G36*
X134480500Y-81489750D02*
G01*
X132473500Y-81489750D01*
X132473500Y-79482750D01*
X134480500Y-79482750D01*
X134480500Y-81489750D01*
G37*
G36*
X153530500Y-81489750D02*
G01*
X151523500Y-81489750D01*
X151523500Y-79482750D01*
X153530500Y-79482750D01*
X153530500Y-81489750D01*
G37*
G36*
X150113425Y-79488238D02*
G01*
X150279710Y-79521313D01*
X150462336Y-79596959D01*
X150626694Y-79706780D01*
X150766470Y-79846556D01*
X150876291Y-80010914D01*
X150951937Y-80193540D01*
X150985012Y-80359825D01*
X150987287Y-80371258D01*
X150990500Y-80387414D01*
X150990500Y-80585086D01*
X150951937Y-80778960D01*
X150876291Y-80961586D01*
X150766470Y-81125944D01*
X150626694Y-81265720D01*
X150462336Y-81375541D01*
X150279710Y-81451187D01*
X150113425Y-81484262D01*
X150085837Y-81489750D01*
X149888163Y-81489750D01*
X149860575Y-81484262D01*
X149694290Y-81451187D01*
X149511664Y-81375541D01*
X149347306Y-81265720D01*
X149207530Y-81125944D01*
X149097709Y-80961586D01*
X149022063Y-80778960D01*
X148983500Y-80585086D01*
X148983500Y-80387414D01*
X148986714Y-80371258D01*
X148988988Y-80359825D01*
X149022063Y-80193540D01*
X149097709Y-80010914D01*
X149207530Y-79846556D01*
X149347306Y-79706780D01*
X149511664Y-79596959D01*
X149694290Y-79521313D01*
X149860575Y-79488238D01*
X149888163Y-79482750D01*
X150085837Y-79482750D01*
X150113425Y-79488238D01*
G37*
G36*
X112013425Y-79488238D02*
G01*
X112179710Y-79521313D01*
X112362336Y-79596959D01*
X112526694Y-79706780D01*
X112666470Y-79846556D01*
X112776291Y-80010914D01*
X112851937Y-80193540D01*
X112885012Y-80359825D01*
X112887287Y-80371258D01*
X112890500Y-80387414D01*
X112890500Y-80585086D01*
X112851937Y-80778960D01*
X112776291Y-80961586D01*
X112666470Y-81125944D01*
X112526694Y-81265720D01*
X112362336Y-81375541D01*
X112179710Y-81451187D01*
X112013425Y-81484262D01*
X111985837Y-81489750D01*
X111788163Y-81489750D01*
X111760575Y-81484262D01*
X111594290Y-81451187D01*
X111411664Y-81375541D01*
X111247306Y-81265720D01*
X111107530Y-81125944D01*
X110997709Y-80961586D01*
X110922063Y-80778960D01*
X110883500Y-80585086D01*
X110883500Y-80387414D01*
X110886714Y-80371258D01*
X110888988Y-80359825D01*
X110922063Y-80193540D01*
X110997709Y-80010914D01*
X111107530Y-79846556D01*
X111247306Y-79706780D01*
X111411664Y-79596959D01*
X111594290Y-79521313D01*
X111760575Y-79488238D01*
X111788163Y-79482750D01*
X111985837Y-79482750D01*
X112013425Y-79488238D01*
G37*
G36*
X115430500Y-81489750D02*
G01*
X113423500Y-81489750D01*
X113423500Y-79482750D01*
X115430500Y-79482750D01*
X115430500Y-81489750D01*
G37*
G36*
X131063425Y-79488238D02*
G01*
X131229710Y-79521313D01*
X131412336Y-79596959D01*
X131576694Y-79706780D01*
X131716470Y-79846556D01*
X131826291Y-80010914D01*
X131901937Y-80193540D01*
X131935012Y-80359825D01*
X131937287Y-80371258D01*
X131940500Y-80387414D01*
X131940500Y-80585086D01*
X131901937Y-80778960D01*
X131826291Y-80961586D01*
X131716470Y-81125944D01*
X131576694Y-81265720D01*
X131412336Y-81375541D01*
X131229710Y-81451187D01*
X131063425Y-81484262D01*
X131035837Y-81489750D01*
X130838163Y-81489750D01*
X130810575Y-81484262D01*
X130644290Y-81451187D01*
X130461664Y-81375541D01*
X130297306Y-81265720D01*
X130157530Y-81125944D01*
X130047709Y-80961586D01*
X129972063Y-80778960D01*
X129933500Y-80585086D01*
X129933500Y-80387414D01*
X129936714Y-80371258D01*
X129938988Y-80359825D01*
X129972063Y-80193540D01*
X130047709Y-80010914D01*
X130157530Y-79846556D01*
X130297306Y-79706780D01*
X130461664Y-79596959D01*
X130644290Y-79521313D01*
X130810575Y-79488238D01*
X130838163Y-79482750D01*
X131035837Y-79482750D01*
X131063425Y-79488238D01*
G37*
G36*
X169163425Y-79488238D02*
G01*
X169329710Y-79521313D01*
X169512336Y-79596959D01*
X169676694Y-79706780D01*
X169816470Y-79846556D01*
X169926291Y-80010914D01*
X170001937Y-80193540D01*
X170035012Y-80359825D01*
X170037287Y-80371258D01*
X170040500Y-80387414D01*
X170040500Y-80585086D01*
X170001937Y-80778960D01*
X169926291Y-80961586D01*
X169816470Y-81125944D01*
X169676694Y-81265720D01*
X169512336Y-81375541D01*
X169329710Y-81451187D01*
X169163425Y-81484262D01*
X169135837Y-81489750D01*
X168938163Y-81489750D01*
X168910575Y-81484262D01*
X168744290Y-81451187D01*
X168561664Y-81375541D01*
X168397306Y-81265720D01*
X168257530Y-81125944D01*
X168147709Y-80961586D01*
X168072063Y-80778960D01*
X168033500Y-80585086D01*
X168033500Y-80387414D01*
X168036714Y-80371258D01*
X168038988Y-80359825D01*
X168072063Y-80193540D01*
X168147709Y-80010914D01*
X168257530Y-79846556D01*
X168397306Y-79706780D01*
X168561664Y-79596959D01*
X168744290Y-79521313D01*
X168910575Y-79488238D01*
X168938163Y-79482750D01*
X169135837Y-79482750D01*
X169163425Y-79488238D01*
G37*
G36*
X172580500Y-81489750D02*
G01*
X170573500Y-81489750D01*
X170573500Y-79482750D01*
X172580500Y-79482750D01*
X172580500Y-81489750D01*
G37*
G36*
X87113512Y-79563927D02*
G01*
X87262812Y-79593624D01*
X87426784Y-79661544D01*
X87574354Y-79760147D01*
X87699853Y-79885646D01*
X87798456Y-80033216D01*
X87866376Y-80197188D01*
X87901000Y-80371259D01*
X87901000Y-80548741D01*
X87866376Y-80722812D01*
X87798456Y-80886784D01*
X87699853Y-81034354D01*
X87574354Y-81159853D01*
X87426784Y-81258456D01*
X87262812Y-81326376D01*
X87113512Y-81356073D01*
X87088742Y-81361000D01*
X86911258Y-81361000D01*
X86886488Y-81356073D01*
X86737188Y-81326376D01*
X86573216Y-81258456D01*
X86425646Y-81159853D01*
X86300147Y-81034354D01*
X86201544Y-80886784D01*
X86133624Y-80722812D01*
X86099000Y-80548741D01*
X86099000Y-80371259D01*
X86133624Y-80197188D01*
X86201544Y-80033216D01*
X86300147Y-79885646D01*
X86425646Y-79760147D01*
X86573216Y-79661544D01*
X86737188Y-79593624D01*
X86886488Y-79563927D01*
X86911258Y-79559000D01*
X87088742Y-79559000D01*
X87113512Y-79563927D01*
G37*
G36*
X87113512Y-77023927D02*
G01*
X87262812Y-77053624D01*
X87426784Y-77121544D01*
X87574354Y-77220147D01*
X87699853Y-77345646D01*
X87798456Y-77493216D01*
X87866376Y-77657188D01*
X87901000Y-77831259D01*
X87901000Y-78008741D01*
X87866376Y-78182812D01*
X87798456Y-78346784D01*
X87699853Y-78494354D01*
X87574354Y-78619853D01*
X87426784Y-78718456D01*
X87262812Y-78786376D01*
X87113512Y-78816073D01*
X87088742Y-78821000D01*
X86911258Y-78821000D01*
X86886488Y-78816073D01*
X86737188Y-78786376D01*
X86573216Y-78718456D01*
X86425646Y-78619853D01*
X86300147Y-78494354D01*
X86201544Y-78346784D01*
X86133624Y-78182812D01*
X86099000Y-78008741D01*
X86099000Y-77831259D01*
X86133624Y-77657188D01*
X86201544Y-77493216D01*
X86300147Y-77345646D01*
X86425646Y-77220147D01*
X86573216Y-77121544D01*
X86737188Y-77053624D01*
X86886488Y-77023927D01*
X86911258Y-77019000D01*
X87088742Y-77019000D01*
X87113512Y-77023927D01*
G37*
G36*
X170903474Y-73439934D02*
G01*
X171121474Y-73530233D01*
X171275623Y-73594083D01*
X171610548Y-73817873D01*
X171895377Y-74102702D01*
X172119167Y-74437627D01*
X172151562Y-74515836D01*
X172273316Y-74809776D01*
X172351900Y-75204844D01*
X172351900Y-75607656D01*
X172273316Y-76002724D01*
X172222451Y-76125522D01*
X172119167Y-76374873D01*
X171895377Y-76709798D01*
X171610548Y-76994627D01*
X171275623Y-77218417D01*
X171121474Y-77282267D01*
X170903474Y-77372566D01*
X170508406Y-77451150D01*
X170105594Y-77451150D01*
X169710526Y-77372566D01*
X169492526Y-77282267D01*
X169338377Y-77218417D01*
X169003452Y-76994627D01*
X168718623Y-76709798D01*
X168494833Y-76374873D01*
X168391549Y-76125522D01*
X168340684Y-76002724D01*
X168262100Y-75607656D01*
X168262100Y-75204844D01*
X168340684Y-74809776D01*
X168462438Y-74515836D01*
X168494833Y-74437627D01*
X168718623Y-74102702D01*
X169003452Y-73817873D01*
X169338377Y-73594083D01*
X169492526Y-73530233D01*
X169710526Y-73439934D01*
X170105594Y-73361350D01*
X170508406Y-73361350D01*
X170903474Y-73439934D01*
G37*
G36*
X132803474Y-73439934D02*
G01*
X133021474Y-73530233D01*
X133175623Y-73594083D01*
X133510548Y-73817873D01*
X133795377Y-74102702D01*
X134019167Y-74437627D01*
X134051562Y-74515836D01*
X134173316Y-74809776D01*
X134251900Y-75204844D01*
X134251900Y-75607656D01*
X134173316Y-76002724D01*
X134122451Y-76125522D01*
X134019167Y-76374873D01*
X133795377Y-76709798D01*
X133510548Y-76994627D01*
X133175623Y-77218417D01*
X133021474Y-77282267D01*
X132803474Y-77372566D01*
X132408406Y-77451150D01*
X132005594Y-77451150D01*
X131610526Y-77372566D01*
X131392526Y-77282267D01*
X131238377Y-77218417D01*
X130903452Y-76994627D01*
X130618623Y-76709798D01*
X130394833Y-76374873D01*
X130291549Y-76125522D01*
X130240684Y-76002724D01*
X130162100Y-75607656D01*
X130162100Y-75204844D01*
X130240684Y-74809776D01*
X130362438Y-74515836D01*
X130394833Y-74437627D01*
X130618623Y-74102702D01*
X130903452Y-73817873D01*
X131238377Y-73594083D01*
X131392526Y-73530233D01*
X131610526Y-73439934D01*
X132005594Y-73361350D01*
X132408406Y-73361350D01*
X132803474Y-73439934D01*
G37*
G36*
X113753474Y-73439934D02*
G01*
X113971474Y-73530233D01*
X114125623Y-73594083D01*
X114460548Y-73817873D01*
X114745377Y-74102702D01*
X114969167Y-74437627D01*
X115001562Y-74515836D01*
X115123316Y-74809776D01*
X115201900Y-75204844D01*
X115201900Y-75607656D01*
X115123316Y-76002724D01*
X115072451Y-76125522D01*
X114969167Y-76374873D01*
X114745377Y-76709798D01*
X114460548Y-76994627D01*
X114125623Y-77218417D01*
X113971474Y-77282267D01*
X113753474Y-77372566D01*
X113358406Y-77451150D01*
X112955594Y-77451150D01*
X112560526Y-77372566D01*
X112342526Y-77282267D01*
X112188377Y-77218417D01*
X111853452Y-76994627D01*
X111568623Y-76709798D01*
X111344833Y-76374873D01*
X111241549Y-76125522D01*
X111190684Y-76002724D01*
X111112100Y-75607656D01*
X111112100Y-75204844D01*
X111190684Y-74809776D01*
X111312438Y-74515836D01*
X111344833Y-74437627D01*
X111568623Y-74102702D01*
X111853452Y-73817873D01*
X112188377Y-73594083D01*
X112342526Y-73530233D01*
X112560526Y-73439934D01*
X112955594Y-73361350D01*
X113358406Y-73361350D01*
X113753474Y-73439934D01*
G37*
G36*
X151853474Y-73439934D02*
G01*
X152071474Y-73530233D01*
X152225623Y-73594083D01*
X152560548Y-73817873D01*
X152845377Y-74102702D01*
X153069167Y-74437627D01*
X153101562Y-74515836D01*
X153223316Y-74809776D01*
X153301900Y-75204844D01*
X153301900Y-75607656D01*
X153223316Y-76002724D01*
X153172451Y-76125522D01*
X153069167Y-76374873D01*
X152845377Y-76709798D01*
X152560548Y-76994627D01*
X152225623Y-77218417D01*
X152071474Y-77282267D01*
X151853474Y-77372566D01*
X151458406Y-77451150D01*
X151055594Y-77451150D01*
X150660526Y-77372566D01*
X150442526Y-77282267D01*
X150288377Y-77218417D01*
X149953452Y-76994627D01*
X149668623Y-76709798D01*
X149444833Y-76374873D01*
X149341549Y-76125522D01*
X149290684Y-76002724D01*
X149212100Y-75607656D01*
X149212100Y-75204844D01*
X149290684Y-74809776D01*
X149412438Y-74515836D01*
X149444833Y-74437627D01*
X149668623Y-74102702D01*
X149953452Y-73817873D01*
X150288377Y-73594083D01*
X150442526Y-73530233D01*
X150660526Y-73439934D01*
X151055594Y-73361350D01*
X151458406Y-73361350D01*
X151853474Y-73439934D01*
G37*
G36*
X175657104Y-74515835D02*
G01*
X175825626Y-74585639D01*
X175977291Y-74686978D01*
X176106272Y-74815959D01*
X176207611Y-74967624D01*
X176277415Y-75136146D01*
X176313000Y-75315047D01*
X176313000Y-75497453D01*
X176277415Y-75676354D01*
X176207611Y-75844876D01*
X176106272Y-75996541D01*
X175977291Y-76125522D01*
X175825626Y-76226861D01*
X175657104Y-76296665D01*
X175478203Y-76332250D01*
X175295797Y-76332250D01*
X175116896Y-76296665D01*
X174948374Y-76226861D01*
X174796709Y-76125522D01*
X174667728Y-75996541D01*
X174566389Y-75844876D01*
X174496585Y-75676354D01*
X174461000Y-75497453D01*
X174461000Y-75315047D01*
X174496585Y-75136146D01*
X174566389Y-74967624D01*
X174667728Y-74815959D01*
X174796709Y-74686978D01*
X174948374Y-74585639D01*
X175116896Y-74515835D01*
X175295797Y-74480250D01*
X175478203Y-74480250D01*
X175657104Y-74515835D01*
G37*
G36*
X108347104Y-74515835D02*
G01*
X108515626Y-74585639D01*
X108667291Y-74686978D01*
X108796272Y-74815959D01*
X108897611Y-74967624D01*
X108967415Y-75136146D01*
X109003000Y-75315047D01*
X109003000Y-75497453D01*
X108967415Y-75676354D01*
X108897611Y-75844876D01*
X108796272Y-75996541D01*
X108667291Y-76125522D01*
X108515626Y-76226861D01*
X108347104Y-76296665D01*
X108168203Y-76332250D01*
X107985797Y-76332250D01*
X107806896Y-76296665D01*
X107638374Y-76226861D01*
X107486709Y-76125522D01*
X107357728Y-75996541D01*
X107256389Y-75844876D01*
X107186585Y-75676354D01*
X107151000Y-75497453D01*
X107151000Y-75315047D01*
X107186585Y-75136146D01*
X107256389Y-74967624D01*
X107357728Y-74815959D01*
X107486709Y-74686978D01*
X107638374Y-74585639D01*
X107806896Y-74515835D01*
X107985797Y-74480250D01*
X108168203Y-74480250D01*
X108347104Y-74515835D01*
G37*
G36*
X165497104Y-74515835D02*
G01*
X165665626Y-74585639D01*
X165817291Y-74686978D01*
X165946272Y-74815959D01*
X166047611Y-74967624D01*
X166117415Y-75136146D01*
X166153000Y-75315047D01*
X166153000Y-75497453D01*
X166117415Y-75676354D01*
X166047611Y-75844876D01*
X165946272Y-75996541D01*
X165817291Y-76125522D01*
X165665626Y-76226861D01*
X165497104Y-76296665D01*
X165318203Y-76332250D01*
X165135797Y-76332250D01*
X164956896Y-76296665D01*
X164788374Y-76226861D01*
X164636709Y-76125522D01*
X164507728Y-75996541D01*
X164406389Y-75844876D01*
X164336585Y-75676354D01*
X164301000Y-75497453D01*
X164301000Y-75315047D01*
X164336585Y-75136146D01*
X164406389Y-74967624D01*
X164507728Y-74815959D01*
X164636709Y-74686978D01*
X164788374Y-74585639D01*
X164956896Y-74515835D01*
X165135797Y-74480250D01*
X165318203Y-74480250D01*
X165497104Y-74515835D01*
G37*
G36*
X146447104Y-74515835D02*
G01*
X146615626Y-74585639D01*
X146767291Y-74686978D01*
X146896272Y-74815959D01*
X146997611Y-74967624D01*
X147067415Y-75136146D01*
X147103000Y-75315047D01*
X147103000Y-75497453D01*
X147067415Y-75676354D01*
X146997611Y-75844876D01*
X146896272Y-75996541D01*
X146767291Y-76125522D01*
X146615626Y-76226861D01*
X146447104Y-76296665D01*
X146268203Y-76332250D01*
X146085797Y-76332250D01*
X145906896Y-76296665D01*
X145738374Y-76226861D01*
X145586709Y-76125522D01*
X145457728Y-75996541D01*
X145356389Y-75844876D01*
X145286585Y-75676354D01*
X145251000Y-75497453D01*
X145251000Y-75315047D01*
X145286585Y-75136146D01*
X145356389Y-74967624D01*
X145457728Y-74815959D01*
X145586709Y-74686978D01*
X145738374Y-74585639D01*
X145906896Y-74515835D01*
X146085797Y-74480250D01*
X146268203Y-74480250D01*
X146447104Y-74515835D01*
G37*
G36*
X118507104Y-74515835D02*
G01*
X118675626Y-74585639D01*
X118827291Y-74686978D01*
X118956272Y-74815959D01*
X119057611Y-74967624D01*
X119127415Y-75136146D01*
X119163000Y-75315047D01*
X119163000Y-75497453D01*
X119127415Y-75676354D01*
X119057611Y-75844876D01*
X118956272Y-75996541D01*
X118827291Y-76125522D01*
X118675626Y-76226861D01*
X118507104Y-76296665D01*
X118328203Y-76332250D01*
X118145797Y-76332250D01*
X117966896Y-76296665D01*
X117798374Y-76226861D01*
X117646709Y-76125522D01*
X117517728Y-75996541D01*
X117416389Y-75844876D01*
X117346585Y-75676354D01*
X117311000Y-75497453D01*
X117311000Y-75315047D01*
X117346585Y-75136146D01*
X117416389Y-74967624D01*
X117517728Y-74815959D01*
X117646709Y-74686978D01*
X117798374Y-74585639D01*
X117966896Y-74515835D01*
X118145797Y-74480250D01*
X118328203Y-74480250D01*
X118507104Y-74515835D01*
G37*
G36*
X156607104Y-74515835D02*
G01*
X156775626Y-74585639D01*
X156927291Y-74686978D01*
X157056272Y-74815959D01*
X157157611Y-74967624D01*
X157227415Y-75136146D01*
X157263000Y-75315047D01*
X157263000Y-75497453D01*
X157227415Y-75676354D01*
X157157611Y-75844876D01*
X157056272Y-75996541D01*
X156927291Y-76125522D01*
X156775626Y-76226861D01*
X156607104Y-76296665D01*
X156428203Y-76332250D01*
X156245797Y-76332250D01*
X156066896Y-76296665D01*
X155898374Y-76226861D01*
X155746709Y-76125522D01*
X155617728Y-75996541D01*
X155516389Y-75844876D01*
X155446585Y-75676354D01*
X155411000Y-75497453D01*
X155411000Y-75315047D01*
X155446585Y-75136146D01*
X155516389Y-74967624D01*
X155617728Y-74815959D01*
X155746709Y-74686978D01*
X155898374Y-74585639D01*
X156066896Y-74515835D01*
X156245797Y-74480250D01*
X156428203Y-74480250D01*
X156607104Y-74515835D01*
G37*
G36*
X127397104Y-74515835D02*
G01*
X127565626Y-74585639D01*
X127717291Y-74686978D01*
X127846272Y-74815959D01*
X127947611Y-74967624D01*
X128017415Y-75136146D01*
X128053000Y-75315047D01*
X128053000Y-75497453D01*
X128017415Y-75676354D01*
X127947611Y-75844876D01*
X127846272Y-75996541D01*
X127717291Y-76125522D01*
X127565626Y-76226861D01*
X127397104Y-76296665D01*
X127218203Y-76332250D01*
X127035797Y-76332250D01*
X126856896Y-76296665D01*
X126688374Y-76226861D01*
X126536709Y-76125522D01*
X126407728Y-75996541D01*
X126306389Y-75844876D01*
X126236585Y-75676354D01*
X126201000Y-75497453D01*
X126201000Y-75315047D01*
X126236585Y-75136146D01*
X126306389Y-74967624D01*
X126407728Y-74815959D01*
X126536709Y-74686978D01*
X126688374Y-74585639D01*
X126856896Y-74515835D01*
X127035797Y-74480250D01*
X127218203Y-74480250D01*
X127397104Y-74515835D01*
G37*
G36*
X137557104Y-74515835D02*
G01*
X137725626Y-74585639D01*
X137877291Y-74686978D01*
X138006272Y-74815959D01*
X138107611Y-74967624D01*
X138177415Y-75136146D01*
X138213000Y-75315047D01*
X138213000Y-75497453D01*
X138177415Y-75676354D01*
X138107611Y-75844876D01*
X138006272Y-75996541D01*
X137877291Y-76125522D01*
X137725626Y-76226861D01*
X137557104Y-76296665D01*
X137378203Y-76332250D01*
X137195797Y-76332250D01*
X137016896Y-76296665D01*
X136848374Y-76226861D01*
X136696709Y-76125522D01*
X136567728Y-75996541D01*
X136466389Y-75844876D01*
X136396585Y-75676354D01*
X136361000Y-75497453D01*
X136361000Y-75315047D01*
X136396585Y-75136146D01*
X136466389Y-74967624D01*
X136567728Y-74815959D01*
X136696709Y-74686978D01*
X136848374Y-74585639D01*
X137016896Y-74515835D01*
X137195797Y-74480250D01*
X137378203Y-74480250D01*
X137557104Y-74515835D01*
G37*
G36*
X87113512Y-74483927D02*
G01*
X87262812Y-74513624D01*
X87426784Y-74581544D01*
X87574354Y-74680147D01*
X87699853Y-74805646D01*
X87798456Y-74953216D01*
X87866376Y-75117188D01*
X87901000Y-75291259D01*
X87901000Y-75468741D01*
X87866376Y-75642812D01*
X87798456Y-75806784D01*
X87699853Y-75954354D01*
X87574354Y-76079853D01*
X87426784Y-76178456D01*
X87262812Y-76246376D01*
X87113512Y-76276073D01*
X87088742Y-76281000D01*
X86911258Y-76281000D01*
X86886488Y-76276073D01*
X86737188Y-76246376D01*
X86573216Y-76178456D01*
X86425646Y-76079853D01*
X86300147Y-75954354D01*
X86201544Y-75806784D01*
X86133624Y-75642812D01*
X86099000Y-75468741D01*
X86099000Y-75291259D01*
X86133624Y-75117188D01*
X86201544Y-74953216D01*
X86300147Y-74805646D01*
X86425646Y-74680147D01*
X86573216Y-74581544D01*
X86737188Y-74513624D01*
X86886488Y-74483927D01*
X86911258Y-74479000D01*
X87088742Y-74479000D01*
X87113512Y-74483927D01*
G37*
G36*
X128588560Y-71705314D02*
G01*
X128740027Y-71735443D01*
X128954045Y-71824092D01*
X128954046Y-71824093D01*
X129146654Y-71952789D01*
X129310461Y-72116596D01*
X129396258Y-72245001D01*
X129439158Y-72309205D01*
X129527807Y-72523223D01*
X129573000Y-72750424D01*
X129573000Y-72982076D01*
X129527807Y-73209277D01*
X129439158Y-73423295D01*
X129439157Y-73423296D01*
X129310461Y-73615904D01*
X129146654Y-73779711D01*
X129089540Y-73817873D01*
X128954045Y-73908408D01*
X128740027Y-73997057D01*
X128588560Y-74027186D01*
X128512827Y-74042250D01*
X128281173Y-74042250D01*
X128205440Y-74027186D01*
X128053973Y-73997057D01*
X127839955Y-73908408D01*
X127704460Y-73817873D01*
X127647346Y-73779711D01*
X127483539Y-73615904D01*
X127354843Y-73423296D01*
X127354842Y-73423295D01*
X127266193Y-73209277D01*
X127221000Y-72982076D01*
X127221000Y-72750424D01*
X127266193Y-72523223D01*
X127354842Y-72309205D01*
X127397742Y-72245001D01*
X127483539Y-72116596D01*
X127647346Y-71952789D01*
X127839954Y-71824093D01*
X127839955Y-71824092D01*
X128053973Y-71735443D01*
X128205440Y-71705314D01*
X128281173Y-71690250D01*
X128512827Y-71690250D01*
X128588560Y-71705314D01*
G37*
G36*
X147638560Y-71705314D02*
G01*
X147790027Y-71735443D01*
X148004045Y-71824092D01*
X148004046Y-71824093D01*
X148196654Y-71952789D01*
X148360461Y-72116596D01*
X148446258Y-72245001D01*
X148489158Y-72309205D01*
X148577807Y-72523223D01*
X148623000Y-72750424D01*
X148623000Y-72982076D01*
X148577807Y-73209277D01*
X148489158Y-73423295D01*
X148489157Y-73423296D01*
X148360461Y-73615904D01*
X148196654Y-73779711D01*
X148139540Y-73817873D01*
X148004045Y-73908408D01*
X147790027Y-73997057D01*
X147638560Y-74027186D01*
X147562827Y-74042250D01*
X147331173Y-74042250D01*
X147255440Y-74027186D01*
X147103973Y-73997057D01*
X146889955Y-73908408D01*
X146754460Y-73817873D01*
X146697346Y-73779711D01*
X146533539Y-73615904D01*
X146404843Y-73423296D01*
X146404842Y-73423295D01*
X146316193Y-73209277D01*
X146271000Y-72982076D01*
X146271000Y-72750424D01*
X146316193Y-72523223D01*
X146404842Y-72309205D01*
X146447742Y-72245001D01*
X146533539Y-72116596D01*
X146697346Y-71952789D01*
X146889954Y-71824093D01*
X146889955Y-71824092D01*
X147103973Y-71735443D01*
X147255440Y-71705314D01*
X147331173Y-71690250D01*
X147562827Y-71690250D01*
X147638560Y-71705314D01*
G37*
G36*
X166688560Y-71705314D02*
G01*
X166840027Y-71735443D01*
X167054045Y-71824092D01*
X167054046Y-71824093D01*
X167246654Y-71952789D01*
X167410461Y-72116596D01*
X167496258Y-72245001D01*
X167539158Y-72309205D01*
X167627807Y-72523223D01*
X167673000Y-72750424D01*
X167673000Y-72982076D01*
X167627807Y-73209277D01*
X167539158Y-73423295D01*
X167539157Y-73423296D01*
X167410461Y-73615904D01*
X167246654Y-73779711D01*
X167189540Y-73817873D01*
X167054045Y-73908408D01*
X166840027Y-73997057D01*
X166688560Y-74027186D01*
X166612827Y-74042250D01*
X166381173Y-74042250D01*
X166305440Y-74027186D01*
X166153973Y-73997057D01*
X165939955Y-73908408D01*
X165804460Y-73817873D01*
X165747346Y-73779711D01*
X165583539Y-73615904D01*
X165454843Y-73423296D01*
X165454842Y-73423295D01*
X165366193Y-73209277D01*
X165321000Y-72982076D01*
X165321000Y-72750424D01*
X165366193Y-72523223D01*
X165454842Y-72309205D01*
X165497742Y-72245001D01*
X165583539Y-72116596D01*
X165747346Y-71952789D01*
X165939954Y-71824093D01*
X165939955Y-71824092D01*
X166153973Y-71735443D01*
X166305440Y-71705314D01*
X166381173Y-71690250D01*
X166612827Y-71690250D01*
X166688560Y-71705314D01*
G37*
G36*
X109538560Y-71705314D02*
G01*
X109690027Y-71735443D01*
X109904045Y-71824092D01*
X109904046Y-71824093D01*
X110096654Y-71952789D01*
X110260461Y-72116596D01*
X110346258Y-72245001D01*
X110389158Y-72309205D01*
X110477807Y-72523223D01*
X110523000Y-72750424D01*
X110523000Y-72982076D01*
X110477807Y-73209277D01*
X110389158Y-73423295D01*
X110389157Y-73423296D01*
X110260461Y-73615904D01*
X110096654Y-73779711D01*
X110039540Y-73817873D01*
X109904045Y-73908408D01*
X109690027Y-73997057D01*
X109538560Y-74027186D01*
X109462827Y-74042250D01*
X109231173Y-74042250D01*
X109155440Y-74027186D01*
X109003973Y-73997057D01*
X108789955Y-73908408D01*
X108654460Y-73817873D01*
X108597346Y-73779711D01*
X108433539Y-73615904D01*
X108304843Y-73423296D01*
X108304842Y-73423295D01*
X108216193Y-73209277D01*
X108171000Y-72982076D01*
X108171000Y-72750424D01*
X108216193Y-72523223D01*
X108304842Y-72309205D01*
X108347742Y-72245001D01*
X108433539Y-72116596D01*
X108597346Y-71952789D01*
X108789954Y-71824093D01*
X108789955Y-71824092D01*
X109003973Y-71735443D01*
X109155440Y-71705314D01*
X109231173Y-71690250D01*
X109462827Y-71690250D01*
X109538560Y-71705314D01*
G37*
G36*
X173038560Y-69165314D02*
G01*
X173190027Y-69195443D01*
X173404045Y-69284092D01*
X173404046Y-69284093D01*
X173596654Y-69412789D01*
X173760461Y-69576596D01*
X173846258Y-69705001D01*
X173889158Y-69769205D01*
X173977807Y-69983223D01*
X174023000Y-70210424D01*
X174023000Y-70442076D01*
X173977807Y-70669277D01*
X173889158Y-70883295D01*
X173889157Y-70883296D01*
X173760461Y-71075904D01*
X173596654Y-71239711D01*
X173468249Y-71325508D01*
X173404045Y-71368408D01*
X173190027Y-71457057D01*
X173038560Y-71487186D01*
X172962827Y-71502250D01*
X172731173Y-71502250D01*
X172655440Y-71487186D01*
X172503973Y-71457057D01*
X172289955Y-71368408D01*
X172225751Y-71325508D01*
X172097346Y-71239711D01*
X171933539Y-71075904D01*
X171804843Y-70883296D01*
X171804842Y-70883295D01*
X171716193Y-70669277D01*
X171671000Y-70442076D01*
X171671000Y-70210424D01*
X171716193Y-69983223D01*
X171804842Y-69769205D01*
X171847742Y-69705001D01*
X171933539Y-69576596D01*
X172097346Y-69412789D01*
X172289954Y-69284093D01*
X172289955Y-69284092D01*
X172503973Y-69195443D01*
X172655440Y-69165314D01*
X172731173Y-69150250D01*
X172962827Y-69150250D01*
X173038560Y-69165314D01*
G37*
G36*
X153988560Y-69165314D02*
G01*
X154140027Y-69195443D01*
X154354045Y-69284092D01*
X154354046Y-69284093D01*
X154546654Y-69412789D01*
X154710461Y-69576596D01*
X154796258Y-69705001D01*
X154839158Y-69769205D01*
X154927807Y-69983223D01*
X154973000Y-70210424D01*
X154973000Y-70442076D01*
X154927807Y-70669277D01*
X154839158Y-70883295D01*
X154839157Y-70883296D01*
X154710461Y-71075904D01*
X154546654Y-71239711D01*
X154418249Y-71325508D01*
X154354045Y-71368408D01*
X154140027Y-71457057D01*
X153988560Y-71487186D01*
X153912827Y-71502250D01*
X153681173Y-71502250D01*
X153605440Y-71487186D01*
X153453973Y-71457057D01*
X153239955Y-71368408D01*
X153175751Y-71325508D01*
X153047346Y-71239711D01*
X152883539Y-71075904D01*
X152754843Y-70883296D01*
X152754842Y-70883295D01*
X152666193Y-70669277D01*
X152621000Y-70442076D01*
X152621000Y-70210424D01*
X152666193Y-69983223D01*
X152754842Y-69769205D01*
X152797742Y-69705001D01*
X152883539Y-69576596D01*
X153047346Y-69412789D01*
X153239954Y-69284093D01*
X153239955Y-69284092D01*
X153453973Y-69195443D01*
X153605440Y-69165314D01*
X153681173Y-69150250D01*
X153912827Y-69150250D01*
X153988560Y-69165314D01*
G37*
G36*
X115888560Y-69165314D02*
G01*
X116040027Y-69195443D01*
X116254045Y-69284092D01*
X116254046Y-69284093D01*
X116446654Y-69412789D01*
X116610461Y-69576596D01*
X116696258Y-69705001D01*
X116739158Y-69769205D01*
X116827807Y-69983223D01*
X116873000Y-70210424D01*
X116873000Y-70442076D01*
X116827807Y-70669277D01*
X116739158Y-70883295D01*
X116739157Y-70883296D01*
X116610461Y-71075904D01*
X116446654Y-71239711D01*
X116318249Y-71325508D01*
X116254045Y-71368408D01*
X116040027Y-71457057D01*
X115888560Y-71487186D01*
X115812827Y-71502250D01*
X115581173Y-71502250D01*
X115505440Y-71487186D01*
X115353973Y-71457057D01*
X115139955Y-71368408D01*
X115075751Y-71325508D01*
X114947346Y-71239711D01*
X114783539Y-71075904D01*
X114654843Y-70883296D01*
X114654842Y-70883295D01*
X114566193Y-70669277D01*
X114521000Y-70442076D01*
X114521000Y-70210424D01*
X114566193Y-69983223D01*
X114654842Y-69769205D01*
X114697742Y-69705001D01*
X114783539Y-69576596D01*
X114947346Y-69412789D01*
X115139954Y-69284093D01*
X115139955Y-69284092D01*
X115353973Y-69195443D01*
X115505440Y-69165314D01*
X115581173Y-69150250D01*
X115812827Y-69150250D01*
X115888560Y-69165314D01*
G37*
G36*
X134938560Y-69165314D02*
G01*
X135090027Y-69195443D01*
X135304045Y-69284092D01*
X135304046Y-69284093D01*
X135496654Y-69412789D01*
X135660461Y-69576596D01*
X135746258Y-69705001D01*
X135789158Y-69769205D01*
X135877807Y-69983223D01*
X135923000Y-70210424D01*
X135923000Y-70442076D01*
X135877807Y-70669277D01*
X135789158Y-70883295D01*
X135789157Y-70883296D01*
X135660461Y-71075904D01*
X135496654Y-71239711D01*
X135368249Y-71325508D01*
X135304045Y-71368408D01*
X135090027Y-71457057D01*
X134938560Y-71487186D01*
X134862827Y-71502250D01*
X134631173Y-71502250D01*
X134555440Y-71487186D01*
X134403973Y-71457057D01*
X134189955Y-71368408D01*
X134125751Y-71325508D01*
X133997346Y-71239711D01*
X133833539Y-71075904D01*
X133704843Y-70883296D01*
X133704842Y-70883295D01*
X133616193Y-70669277D01*
X133571000Y-70442076D01*
X133571000Y-70210424D01*
X133616193Y-69983223D01*
X133704842Y-69769205D01*
X133747742Y-69705001D01*
X133833539Y-69576596D01*
X133997346Y-69412789D01*
X134189954Y-69284093D01*
X134189955Y-69284092D01*
X134403973Y-69195443D01*
X134555440Y-69165314D01*
X134631173Y-69150250D01*
X134862827Y-69150250D01*
X134938560Y-69165314D01*
G37*
G36*
X91117818Y-58607696D02*
G01*
X91231104Y-58642062D01*
X91270116Y-58662914D01*
X91292755Y-58672291D01*
X91316788Y-58677071D01*
X91341292Y-58677071D01*
X91349712Y-58675396D01*
X91351347Y-58683613D01*
X91360724Y-58706252D01*
X91374338Y-58726626D01*
X91391661Y-58743949D01*
X91427027Y-58772973D01*
X91488663Y-58848077D01*
X91502131Y-58864488D01*
X91557938Y-58968895D01*
X91592304Y-59082182D01*
X91601000Y-59170481D01*
X91601000Y-59779519D01*
X91592304Y-59867818D01*
X91557938Y-59981105D01*
X91502131Y-60085512D01*
X91502130Y-60085513D01*
X91427027Y-60177027D01*
X91351923Y-60238662D01*
X91335511Y-60252131D01*
X91231104Y-60307938D01*
X91117817Y-60342304D01*
X91000000Y-60353907D01*
X90882182Y-60342304D01*
X90768895Y-60307938D01*
X90664488Y-60252131D01*
X90650572Y-60240711D01*
X90572973Y-60177027D01*
X90497870Y-60085512D01*
X90497869Y-60085511D01*
X90442062Y-59981104D01*
X90407696Y-59867817D01*
X90399000Y-59779518D01*
X90399000Y-59170481D01*
X90407696Y-59082182D01*
X90442061Y-58968898D01*
X90497871Y-58864486D01*
X90572974Y-58772973D01*
X90608340Y-58743949D01*
X90625667Y-58726622D01*
X90639281Y-58706248D01*
X90648658Y-58683609D01*
X90650291Y-58675399D01*
X90658707Y-58677073D01*
X90683212Y-58677073D01*
X90707245Y-58672292D01*
X90729883Y-58662915D01*
X90768896Y-58642062D01*
X90882183Y-58607696D01*
X91000000Y-58596093D01*
X91117818Y-58607696D01*
G37*
G36*
X92717818Y-58607696D02*
G01*
X92831105Y-58642062D01*
X92935512Y-58697869D01*
X93027027Y-58772973D01*
X93102131Y-58864488D01*
X93157938Y-58968895D01*
X93192304Y-59082182D01*
X93201000Y-59170481D01*
X93201000Y-59779519D01*
X93192304Y-59867818D01*
X93157938Y-59981105D01*
X93102131Y-60085512D01*
X93102130Y-60085513D01*
X93027027Y-60177027D01*
X92951923Y-60238662D01*
X92935511Y-60252131D01*
X92831104Y-60307938D01*
X92717817Y-60342304D01*
X92600000Y-60353907D01*
X92482182Y-60342304D01*
X92368895Y-60307938D01*
X92264488Y-60252131D01*
X92250572Y-60240711D01*
X92172973Y-60177027D01*
X92097870Y-60085512D01*
X92097869Y-60085511D01*
X92042062Y-59981104D01*
X92007696Y-59867817D01*
X91999000Y-59779518D01*
X91999000Y-59170481D01*
X92007696Y-59082182D01*
X92042061Y-58968898D01*
X92097871Y-58864486D01*
X92172974Y-58772973D01*
X92208340Y-58743949D01*
X92225667Y-58726622D01*
X92239281Y-58706248D01*
X92248658Y-58683609D01*
X92250291Y-58675399D01*
X92258707Y-58677073D01*
X92283212Y-58677073D01*
X92307245Y-58672292D01*
X92329883Y-58662915D01*
X92368896Y-58642062D01*
X92482183Y-58607696D01*
X92600000Y-58596093D01*
X92717818Y-58607696D01*
G37*
G36*
X89517818Y-58607696D02*
G01*
X89631104Y-58642062D01*
X89670116Y-58662914D01*
X89692755Y-58672291D01*
X89716788Y-58677071D01*
X89741292Y-58677071D01*
X89749712Y-58675396D01*
X89751347Y-58683613D01*
X89760724Y-58706252D01*
X89774338Y-58726626D01*
X89791661Y-58743949D01*
X89827027Y-58772973D01*
X89888663Y-58848077D01*
X89902131Y-58864488D01*
X89957938Y-58968895D01*
X89992304Y-59082182D01*
X90001000Y-59170481D01*
X90001000Y-59779519D01*
X89992304Y-59867818D01*
X89957938Y-59981105D01*
X89902131Y-60085512D01*
X89902130Y-60085513D01*
X89827027Y-60177027D01*
X89751923Y-60238662D01*
X89735511Y-60252131D01*
X89631104Y-60307938D01*
X89517817Y-60342304D01*
X89400000Y-60353907D01*
X89282182Y-60342304D01*
X89168895Y-60307938D01*
X89064488Y-60252131D01*
X89050572Y-60240711D01*
X88972973Y-60177027D01*
X88897870Y-60085512D01*
X88897869Y-60085511D01*
X88842062Y-59981104D01*
X88807696Y-59867817D01*
X88799000Y-59779518D01*
X88799000Y-59170481D01*
X88807696Y-59082182D01*
X88842061Y-58968898D01*
X88897871Y-58864486D01*
X88972974Y-58772973D01*
X89064489Y-58697869D01*
X89168896Y-58642062D01*
X89282183Y-58607696D01*
X89400000Y-58596093D01*
X89517818Y-58607696D01*
G37*
G36*
X91917818Y-56857696D02*
G01*
X92031105Y-56892062D01*
X92135512Y-56947869D01*
X92227027Y-57022973D01*
X92302131Y-57114488D01*
X92357938Y-57218895D01*
X92392304Y-57332182D01*
X92401000Y-57420481D01*
X92401000Y-58029519D01*
X92392304Y-58117818D01*
X92357938Y-58231105D01*
X92302131Y-58335512D01*
X92302130Y-58335513D01*
X92227027Y-58427027D01*
X92191660Y-58456051D01*
X92174333Y-58473378D01*
X92160719Y-58493752D01*
X92151342Y-58516391D01*
X92149709Y-58524601D01*
X92141293Y-58522927D01*
X92116788Y-58522927D01*
X92092755Y-58527708D01*
X92070117Y-58537085D01*
X92031104Y-58557938D01*
X91917817Y-58592304D01*
X91800000Y-58603907D01*
X91682182Y-58592304D01*
X91568897Y-58557938D01*
X91529886Y-58537087D01*
X91507248Y-58527710D01*
X91483214Y-58522930D01*
X91458710Y-58522930D01*
X91450290Y-58524605D01*
X91448655Y-58516388D01*
X91439278Y-58493749D01*
X91425664Y-58473375D01*
X91408344Y-58456055D01*
X91372973Y-58427027D01*
X91297870Y-58335512D01*
X91297869Y-58335511D01*
X91242062Y-58231104D01*
X91207696Y-58117817D01*
X91199000Y-58029518D01*
X91199000Y-57420481D01*
X91207696Y-57332182D01*
X91242061Y-57218898D01*
X91297871Y-57114486D01*
X91372974Y-57022973D01*
X91464489Y-56947869D01*
X91568896Y-56892062D01*
X91682183Y-56857696D01*
X91800000Y-56846093D01*
X91917818Y-56857696D01*
G37*
G36*
X90317818Y-56857696D02*
G01*
X90431105Y-56892062D01*
X90535512Y-56947869D01*
X90627027Y-57022973D01*
X90702131Y-57114488D01*
X90757938Y-57218895D01*
X90792304Y-57332182D01*
X90801000Y-57420481D01*
X90801000Y-58029519D01*
X90792304Y-58117818D01*
X90757938Y-58231105D01*
X90702131Y-58335512D01*
X90702130Y-58335513D01*
X90627027Y-58427027D01*
X90591660Y-58456051D01*
X90574333Y-58473378D01*
X90560719Y-58493752D01*
X90551342Y-58516391D01*
X90549709Y-58524601D01*
X90541293Y-58522927D01*
X90516788Y-58522927D01*
X90492755Y-58527708D01*
X90470117Y-58537085D01*
X90431104Y-58557938D01*
X90317817Y-58592304D01*
X90200000Y-58603907D01*
X90082182Y-58592304D01*
X89968897Y-58557938D01*
X89929886Y-58537087D01*
X89907248Y-58527710D01*
X89883214Y-58522930D01*
X89858710Y-58522930D01*
X89850290Y-58524605D01*
X89848655Y-58516388D01*
X89839278Y-58493749D01*
X89825664Y-58473375D01*
X89808344Y-58456055D01*
X89772973Y-58427027D01*
X89697870Y-58335512D01*
X89697869Y-58335511D01*
X89642062Y-58231104D01*
X89607696Y-58117817D01*
X89599000Y-58029518D01*
X89599000Y-57420481D01*
X89607696Y-57332182D01*
X89642061Y-57218898D01*
X89697871Y-57114486D01*
X89772974Y-57022973D01*
X89864489Y-56947869D01*
X89968896Y-56892062D01*
X90082183Y-56857696D01*
X90200000Y-56846093D01*
X90317818Y-56857696D01*
G37*
G36*
X94826627Y-52762037D02*
G01*
X94996466Y-52813557D01*
X95152991Y-52897222D01*
X95188729Y-52926552D01*
X95290186Y-53009814D01*
X95373448Y-53111271D01*
X95402778Y-53147009D01*
X95486443Y-53303534D01*
X95537963Y-53473373D01*
X95551000Y-53605742D01*
X95551000Y-54694258D01*
X95537963Y-54826627D01*
X95486443Y-54996466D01*
X95402778Y-55152991D01*
X95373448Y-55188729D01*
X95290186Y-55290186D01*
X95152989Y-55402779D01*
X94996467Y-55486442D01*
X94996465Y-55486443D01*
X94826626Y-55537963D01*
X94650000Y-55555359D01*
X94473373Y-55537963D01*
X94303534Y-55486443D01*
X94147009Y-55402778D01*
X94111271Y-55373448D01*
X94009814Y-55290186D01*
X93897221Y-55152989D01*
X93813558Y-54996467D01*
X93813557Y-54996465D01*
X93762037Y-54826626D01*
X93749000Y-54694257D01*
X93749001Y-53605742D01*
X93762038Y-53473373D01*
X93813558Y-53303534D01*
X93897223Y-53147009D01*
X93926553Y-53111271D01*
X94009815Y-53009814D01*
X94111272Y-52926552D01*
X94147010Y-52897222D01*
X94303535Y-52813557D01*
X94473374Y-52762037D01*
X94650000Y-52744641D01*
X94826627Y-52762037D01*
G37*
G36*
X87526627Y-52762037D02*
G01*
X87696466Y-52813557D01*
X87852991Y-52897222D01*
X87888729Y-52926552D01*
X87990186Y-53009814D01*
X88073448Y-53111271D01*
X88102778Y-53147009D01*
X88186443Y-53303534D01*
X88237963Y-53473373D01*
X88251000Y-53605742D01*
X88251000Y-54694258D01*
X88237963Y-54826627D01*
X88186443Y-54996466D01*
X88102778Y-55152991D01*
X88073448Y-55188729D01*
X87990186Y-55290186D01*
X87852989Y-55402779D01*
X87696467Y-55486442D01*
X87696465Y-55486443D01*
X87526626Y-55537963D01*
X87350000Y-55555359D01*
X87173373Y-55537963D01*
X87003534Y-55486443D01*
X86847009Y-55402778D01*
X86811271Y-55373448D01*
X86709814Y-55290186D01*
X86597221Y-55152989D01*
X86513558Y-54996467D01*
X86513557Y-54996465D01*
X86462037Y-54826626D01*
X86449000Y-54694257D01*
X86449001Y-53605742D01*
X86462038Y-53473373D01*
X86513558Y-53303534D01*
X86597223Y-53147009D01*
X86626553Y-53111271D01*
X86709815Y-53009814D01*
X86811272Y-52926552D01*
X86847010Y-52897222D01*
X87003535Y-52813557D01*
X87173374Y-52762037D01*
X87350000Y-52744641D01*
X87526627Y-52762037D01*
G37*
G36*
X83224549Y-49871116D02*
G01*
X83335734Y-49893232D01*
X83545203Y-49979997D01*
X83733720Y-50105960D01*
X83894040Y-50266280D01*
X84020003Y-50454797D01*
X84106768Y-50664266D01*
X84151000Y-50886636D01*
X84151000Y-51113364D01*
X84106768Y-51335734D01*
X84020003Y-51545203D01*
X83894040Y-51733720D01*
X83733720Y-51894040D01*
X83545203Y-52020003D01*
X83335734Y-52106768D01*
X83224549Y-52128884D01*
X83113365Y-52151000D01*
X82886635Y-52151000D01*
X82775451Y-52128884D01*
X82664266Y-52106768D01*
X82454797Y-52020003D01*
X82266280Y-51894040D01*
X82105960Y-51733720D01*
X81979997Y-51545203D01*
X81893232Y-51335734D01*
X81849000Y-51113364D01*
X81849000Y-50886636D01*
X81893232Y-50664266D01*
X81979997Y-50454797D01*
X82105960Y-50266280D01*
X82266280Y-50105960D01*
X82454797Y-49979997D01*
X82664266Y-49893232D01*
X82775451Y-49871116D01*
X82886635Y-49849000D01*
X83113365Y-49849000D01*
X83224549Y-49871116D01*
G37*
G36*
X177224549Y-49871116D02*
G01*
X177335734Y-49893232D01*
X177545203Y-49979997D01*
X177733720Y-50105960D01*
X177894040Y-50266280D01*
X178020003Y-50454797D01*
X178106768Y-50664266D01*
X178151000Y-50886636D01*
X178151000Y-51113364D01*
X178106768Y-51335734D01*
X178020003Y-51545203D01*
X177894040Y-51733720D01*
X177733720Y-51894040D01*
X177545203Y-52020003D01*
X177335734Y-52106768D01*
X177224549Y-52128884D01*
X177113365Y-52151000D01*
X176886635Y-52151000D01*
X176775451Y-52128884D01*
X176664266Y-52106768D01*
X176454797Y-52020003D01*
X176266280Y-51894040D01*
X176105960Y-51733720D01*
X175979997Y-51545203D01*
X175893232Y-51335734D01*
X175849000Y-51113364D01*
X175849000Y-50886636D01*
X175893232Y-50664266D01*
X175979997Y-50454797D01*
X176105960Y-50266280D01*
X176266280Y-50105960D01*
X176454797Y-49979997D01*
X176664266Y-49893232D01*
X176775451Y-49871116D01*
X176886635Y-49849000D01*
X177113365Y-49849000D01*
X177224549Y-49871116D01*
G37*
M02*
